{
  "id": "9f55a9893fd4930a86fda33a2c056fda",
  "ticksPerQuarter": 480,
  "durationMs": 138129,
  "tempoChanges": [
    {
      "tick": 0,
      "bpm": 92
    }
  ],
  "timeSignature": {
    "numerator": 4,
    "denominator": 4
  },
  "tracks": [
    {
      "hand": "right",
      "notes": [
        {
          "midi": 67,
          "name": "G4",
          "velocity": 0.39,
          "startMs": 10761,
          "durationMs": 153
        },
        {
          "midi": 66,
          "name": "F#4",
          "velocity": 0.39,
          "startMs": 10924,
          "durationMs": 153
        },
        {
          "midi": 67,
          "name": "G4",
          "velocity": 0.39,
          "startMs": 11087,
          "durationMs": 308
        },
        {
          "midi": 71,
          "name": "B4",
          "velocity": 0.39,
          "startMs": 11413,
          "durationMs": 154
        },
        {
          "midi": 72,
          "name": "C5",
          "velocity": 0.39,
          "startMs": 11576,
          "durationMs": 154
        },
        {
          "midi": 71,
          "name": "B4",
          "velocity": 0.39,
          "startMs": 11739,
          "durationMs": 1238
        },
        {
          "midi": 66,
          "name": "F#4",
          "velocity": 0.39,
          "startMs": 13370,
          "durationMs": 153
        },
        {
          "midi": 67,
          "name": "G4",
          "velocity": 0.39,
          "startMs": 13533,
          "durationMs": 153
        },
        {
          "midi": 66,
          "name": "F#4",
          "velocity": 0.39,
          "startMs": 13696,
          "durationMs": 308
        },
        {
          "midi": 67,
          "name": "G4",
          "velocity": 0.39,
          "startMs": 14022,
          "durationMs": 153
        },
        {
          "midi": 69,
          "name": "A4",
          "velocity": 0.39,
          "startMs": 14185,
          "durationMs": 153
        },
        {
          "midi": 67,
          "name": "G4",
          "velocity": 0.39,
          "startMs": 14348,
          "durationMs": 1238
        },
        {
          "midi": 66,
          "name": "F#4",
          "velocity": 0.39,
          "startMs": 15978,
          "durationMs": 154
        },
        {
          "midi": 64,
          "name": "E4",
          "velocity": 0.39,
          "startMs": 16141,
          "durationMs": 154
        },
        {
          "midi": 66,
          "name": "F#4",
          "velocity": 0.39,
          "startMs": 16304,
          "durationMs": 309
        },
        {
          "midi": 71,
          "name": "B4",
          "velocity": 0.39,
          "startMs": 16630,
          "durationMs": 154
        },
        {
          "midi": 72,
          "name": "C5",
          "velocity": 0.39,
          "startMs": 16793,
          "durationMs": 154
        },
        {
          "midi": 71,
          "name": "B4",
          "velocity": 0.39,
          "startMs": 16957,
          "durationMs": 1237
        },
        {
          "midi": 66,
          "name": "F#4",
          "velocity": 0.39,
          "startMs": 18587,
          "durationMs": 153
        },
        {
          "midi": 64,
          "name": "E4",
          "velocity": 0.39,
          "startMs": 18750,
          "durationMs": 154
        },
        {
          "midi": 66,
          "name": "F#4",
          "velocity": 0.39,
          "startMs": 18913,
          "durationMs": 1857
        },
        {
          "midi": 67,
          "name": "G4",
          "velocity": 0.39,
          "startMs": 21196,
          "durationMs": 153
        },
        {
          "midi": 66,
          "name": "F#4",
          "velocity": 0.39,
          "startMs": 21359,
          "durationMs": 153
        },
        {
          "midi": 67,
          "name": "G4",
          "velocity": 0.39,
          "startMs": 21522,
          "durationMs": 308
        },
        {
          "midi": 71,
          "name": "B4",
          "velocity": 0.39,
          "startMs": 21848,
          "durationMs": 153
        },
        {
          "midi": 72,
          "name": "C5",
          "velocity": 0.39,
          "startMs": 22011,
          "durationMs": 153
        },
        {
          "midi": 71,
          "name": "B4",
          "velocity": 0.39,
          "startMs": 22174,
          "durationMs": 1238
        },
        {
          "midi": 66,
          "name": "F#4",
          "velocity": 0.39,
          "startMs": 23804,
          "durationMs": 154
        },
        {
          "midi": 67,
          "name": "G4",
          "velocity": 0.39,
          "startMs": 23967,
          "durationMs": 154
        },
        {
          "midi": 66,
          "name": "F#4",
          "velocity": 0.39,
          "startMs": 24130,
          "durationMs": 309
        },
        {
          "midi": 67,
          "name": "G4",
          "velocity": 0.39,
          "startMs": 24457,
          "durationMs": 153
        },
        {
          "midi": 69,
          "name": "A4",
          "velocity": 0.39,
          "startMs": 24620,
          "durationMs": 153
        },
        {
          "midi": 67,
          "name": "G4",
          "velocity": 0.39,
          "startMs": 24783,
          "durationMs": 1237
        },
        {
          "midi": 66,
          "name": "F#4",
          "velocity": 0.39,
          "startMs": 26413,
          "durationMs": 154
        },
        {
          "midi": 64,
          "name": "E4",
          "velocity": 0.39,
          "startMs": 26576,
          "durationMs": 154
        },
        {
          "midi": 66,
          "name": "F#4",
          "velocity": 0.39,
          "startMs": 26739,
          "durationMs": 309
        },
        {
          "midi": 71,
          "name": "B4",
          "velocity": 0.39,
          "startMs": 27065,
          "durationMs": 154
        },
        {
          "midi": 72,
          "name": "C5",
          "velocity": 0.39,
          "startMs": 27228,
          "durationMs": 154
        },
        {
          "midi": 71,
          "name": "B4",
          "velocity": 0.39,
          "startMs": 27391,
          "durationMs": 1238
        },
        {
          "midi": 66,
          "name": "F#4",
          "velocity": 0.39,
          "startMs": 29022,
          "durationMs": 153
        },
        {
          "midi": 64,
          "name": "E4",
          "velocity": 0.39,
          "startMs": 29185,
          "durationMs": 153
        },
        {
          "midi": 66,
          "name": "F#4",
          "velocity": 0.39,
          "startMs": 29348,
          "durationMs": 1857
        },
        {
          "midi": 76,
          "name": "E5",
          "velocity": 0.39,
          "startMs": 31304,
          "durationMs": 928
        },
        {
          "midi": 71,
          "name": "B4",
          "velocity": 0.39,
          "startMs": 32283,
          "durationMs": 1547
        },
        {
          "midi": 74,
          "name": "D5",
          "velocity": 0.39,
          "startMs": 33913,
          "durationMs": 928
        },
        {
          "midi": 71,
          "name": "B4",
          "velocity": 0.39,
          "startMs": 34891,
          "durationMs": 1548
        },
        {
          "midi": 78,
          "name": "F#5",
          "velocity": 0.39,
          "startMs": 36522,
          "durationMs": 928
        },
        {
          "midi": 71,
          "name": "B4",
          "velocity": 0.39,
          "startMs": 37500,
          "durationMs": 1548
        },
        {
          "midi": 78,
          "name": "F#5",
          "velocity": 0.39,
          "startMs": 39130,
          "durationMs": 928
        },
        {
          "midi": 69,
          "name": "A4",
          "velocity": 0.39,
          "startMs": 40109,
          "durationMs": 1547
        },
        {
          "midi": 79,
          "name": "G5",
          "velocity": 0.39,
          "startMs": 41739,
          "durationMs": 928
        },
        {
          "midi": 76,
          "name": "E5",
          "velocity": 0.39,
          "startMs": 42717,
          "durationMs": 1548
        },
        {
          "midi": 79,
          "name": "G5",
          "velocity": 0.39,
          "startMs": 44348,
          "durationMs": 928
        },
        {
          "midi": 74,
          "name": "D5",
          "velocity": 0.39,
          "startMs": 45326,
          "durationMs": 1548
        },
        {
          "midi": 78,
          "name": "F#5",
          "velocity": 0.39,
          "startMs": 46957,
          "durationMs": 928
        },
        {
          "midi": 74,
          "name": "D5",
          "velocity": 0.39,
          "startMs": 47935,
          "durationMs": 1547
        },
        {
          "midi": 78,
          "name": "F#5",
          "velocity": 0.39,
          "startMs": 49565,
          "durationMs": 928
        },
        {
          "midi": 74,
          "name": "D5",
          "velocity": 0.39,
          "startMs": 50543,
          "durationMs": 1548
        },
        {
          "midi": 71,
          "name": "B4",
          "velocity": 0.39,
          "startMs": 52174,
          "durationMs": 153
        },
        {
          "midi": 76,
          "name": "E5",
          "velocity": 0.39,
          "startMs": 52337,
          "durationMs": 153
        },
        {
          "midi": 83,
          "name": "B5",
          "velocity": 0.39,
          "startMs": 52500,
          "durationMs": 154
        },
        {
          "midi": 71,
          "name": "B4",
          "velocity": 0.39,
          "startMs": 52663,
          "durationMs": 154
        },
        {
          "midi": 76,
          "name": "E5",
          "velocity": 0.39,
          "startMs": 52826,
          "durationMs": 154
        },
        {
          "midi": 83,
          "name": "B5",
          "velocity": 0.39,
          "startMs": 52989,
          "durationMs": 154
        },
        {
          "midi": 71,
          "name": "B4",
          "velocity": 0.39,
          "startMs": 53152,
          "durationMs": 154
        },
        {
          "midi": 76,
          "name": "E5",
          "velocity": 0.39,
          "startMs": 53315,
          "durationMs": 154
        },
        {
          "midi": 83,
          "name": "B5",
          "velocity": 0.39,
          "startMs": 53478,
          "durationMs": 154
        },
        {
          "midi": 71,
          "name": "B4",
          "velocity": 0.39,
          "startMs": 53641,
          "durationMs": 154
        },
        {
          "midi": 76,
          "name": "E5",
          "velocity": 0.39,
          "startMs": 53804,
          "durationMs": 154
        },
        {
          "midi": 83,
          "name": "B5",
          "velocity": 0.39,
          "startMs": 53967,
          "durationMs": 154
        },
        {
          "midi": 71,
          "name": "B4",
          "velocity": 0.39,
          "startMs": 54130,
          "durationMs": 309
        },
        {
          "midi": 72,
          "name": "C5",
          "velocity": 0.39,
          "startMs": 54457,
          "durationMs": 308
        },
        {
          "midi": 71,
          "name": "B4",
          "velocity": 0.39,
          "startMs": 54783,
          "durationMs": 153
        },
        {
          "midi": 74,
          "name": "D5",
          "velocity": 0.39,
          "startMs": 54946,
          "durationMs": 153
        },
        {
          "midi": 83,
          "name": "B5",
          "velocity": 0.39,
          "startMs": 55109,
          "durationMs": 153
        },
        {
          "midi": 71,
          "name": "B4",
          "velocity": 0.39,
          "startMs": 55272,
          "durationMs": 153
        },
        {
          "midi": 74,
          "name": "D5",
          "velocity": 0.39,
          "startMs": 55435,
          "durationMs": 153
        },
        {
          "midi": 83,
          "name": "B5",
          "velocity": 0.39,
          "startMs": 55598,
          "durationMs": 153
        },
        {
          "midi": 71,
          "name": "B4",
          "velocity": 0.39,
          "startMs": 55761,
          "durationMs": 153
        },
        {
          "midi": 74,
          "name": "D5",
          "velocity": 0.39,
          "startMs": 55924,
          "durationMs": 153
        },
        {
          "midi": 83,
          "name": "B5",
          "velocity": 0.39,
          "startMs": 56087,
          "durationMs": 153
        },
        {
          "midi": 71,
          "name": "B4",
          "velocity": 0.39,
          "startMs": 56250,
          "durationMs": 154
        },
        {
          "midi": 74,
          "name": "D5",
          "velocity": 0.39,
          "startMs": 56413,
          "durationMs": 154
        },
        {
          "midi": 83,
          "name": "B5",
          "velocity": 0.39,
          "startMs": 56576,
          "durationMs": 154
        },
        {
          "midi": 71,
          "name": "B4",
          "velocity": 0.39,
          "startMs": 56739,
          "durationMs": 309
        },
        {
          "midi": 69,
          "name": "A4",
          "velocity": 0.39,
          "startMs": 57065,
          "durationMs": 309
        },
        {
          "midi": 66,
          "name": "F#4",
          "velocity": 0.39,
          "startMs": 57391,
          "durationMs": 154
        },
        {
          "midi": 71,
          "name": "B4",
          "velocity": 0.39,
          "startMs": 57554,
          "durationMs": 154
        },
        {
          "midi": 78,
          "name": "F#5",
          "velocity": 0.39,
          "startMs": 57717,
          "durationMs": 154
        },
        {
          "midi": 66,
          "name": "F#4",
          "velocity": 0.39,
          "startMs": 57880,
          "durationMs": 154
        },
        {
          "midi": 71,
          "name": "B4",
          "velocity": 0.39,
          "startMs": 58043,
          "durationMs": 154
        },
        {
          "midi": 78,
          "name": "F#5",
          "velocity": 0.39,
          "startMs": 58207,
          "durationMs": 153
        },
        {
          "midi": 66,
          "name": "F#4",
          "velocity": 0.39,
          "startMs": 58370,
          "durationMs": 153
        },
        {
          "midi": 71,
          "name": "B4",
          "velocity": 0.39,
          "startMs": 58533,
          "durationMs": 153
        },
        {
          "midi": 78,
          "name": "F#5",
          "velocity": 0.39,
          "startMs": 58696,
          "durationMs": 153
        },
        {
          "midi": 66,
          "name": "F#4",
          "velocity": 0.39,
          "startMs": 58859,
          "durationMs": 153
        },
        {
          "midi": 71,
          "name": "B4",
          "velocity": 0.39,
          "startMs": 59022,
          "durationMs": 153
        },
        {
          "midi": 78,
          "name": "F#5",
          "velocity": 0.39,
          "startMs": 59185,
          "durationMs": 153
        },
        {
          "midi": 66,
          "name": "F#4",
          "velocity": 0.39,
          "startMs": 59348,
          "durationMs": 308
        },
        {
          "midi": 67,
          "name": "G4",
          "velocity": 0.39,
          "startMs": 59674,
          "durationMs": 308
        },
        {
          "midi": 69,
          "name": "A4",
          "velocity": 0.39,
          "startMs": 60000,
          "durationMs": 154
        },
        {
          "midi": 74,
          "name": "D5",
          "velocity": 0.39,
          "startMs": 60163,
          "durationMs": 154
        },
        {
          "midi": 81,
          "name": "A5",
          "velocity": 0.39,
          "startMs": 60326,
          "durationMs": 154
        },
        {
          "midi": 69,
          "name": "A4",
          "velocity": 0.39,
          "startMs": 60489,
          "durationMs": 154
        },
        {
          "midi": 74,
          "name": "D5",
          "velocity": 0.39,
          "startMs": 60652,
          "durationMs": 154
        },
        {
          "midi": 81,
          "name": "A5",
          "velocity": 0.39,
          "startMs": 60815,
          "durationMs": 154
        },
        {
          "midi": 69,
          "name": "A4",
          "velocity": 0.39,
          "startMs": 60978,
          "durationMs": 154
        },
        {
          "midi": 74,
          "name": "D5",
          "velocity": 0.39,
          "startMs": 61141,
          "durationMs": 154
        },
        {
          "midi": 81,
          "name": "A5",
          "velocity": 0.39,
          "startMs": 61304,
          "durationMs": 154
        },
        {
          "midi": 69,
          "name": "A4",
          "velocity": 0.39,
          "startMs": 61467,
          "durationMs": 154
        },
        {
          "midi": 74,
          "name": "D5",
          "velocity": 0.39,
          "startMs": 61630,
          "durationMs": 154
        },
        {
          "midi": 81,
          "name": "A5",
          "velocity": 0.39,
          "startMs": 61793,
          "durationMs": 154
        },
        {
          "midi": 69,
          "name": "A4",
          "velocity": 0.39,
          "startMs": 61957,
          "durationMs": 308
        },
        {
          "midi": 67,
          "name": "G4",
          "velocity": 0.39,
          "startMs": 62283,
          "durationMs": 308
        },
        {
          "midi": 71,
          "name": "B4",
          "velocity": 0.39,
          "startMs": 62609,
          "durationMs": 153
        },
        {
          "midi": 76,
          "name": "E5",
          "velocity": 0.39,
          "startMs": 62772,
          "durationMs": 153
        },
        {
          "midi": 83,
          "name": "B5",
          "velocity": 0.39,
          "startMs": 62935,
          "durationMs": 153
        },
        {
          "midi": 71,
          "name": "B4",
          "velocity": 0.39,
          "startMs": 63098,
          "durationMs": 153
        },
        {
          "midi": 76,
          "name": "E5",
          "velocity": 0.39,
          "startMs": 63261,
          "durationMs": 153
        },
        {
          "midi": 83,
          "name": "B5",
          "velocity": 0.39,
          "startMs": 63424,
          "durationMs": 153
        },
        {
          "midi": 71,
          "name": "B4",
          "velocity": 0.39,
          "startMs": 63587,
          "durationMs": 153
        },
        {
          "midi": 76,
          "name": "E5",
          "velocity": 0.39,
          "startMs": 63750,
          "durationMs": 154
        },
        {
          "midi": 83,
          "name": "B5",
          "velocity": 0.39,
          "startMs": 63913,
          "durationMs": 154
        },
        {
          "midi": 71,
          "name": "B4",
          "velocity": 0.39,
          "startMs": 64076,
          "durationMs": 154
        },
        {
          "midi": 76,
          "name": "E5",
          "velocity": 0.39,
          "startMs": 64239,
          "durationMs": 154
        },
        {
          "midi": 83,
          "name": "B5",
          "velocity": 0.39,
          "startMs": 64402,
          "durationMs": 154
        },
        {
          "midi": 71,
          "name": "B4",
          "velocity": 0.39,
          "startMs": 64565,
          "durationMs": 309
        },
        {
          "midi": 72,
          "name": "C5",
          "velocity": 0.39,
          "startMs": 64891,
          "durationMs": 309
        },
        {
          "midi": 71,
          "name": "B4",
          "velocity": 0.39,
          "startMs": 65217,
          "durationMs": 154
        },
        {
          "midi": 74,
          "name": "D5",
          "velocity": 0.39,
          "startMs": 65380,
          "durationMs": 154
        },
        {
          "midi": 83,
          "name": "B5",
          "velocity": 0.39,
          "startMs": 65543,
          "durationMs": 154
        },
        {
          "midi": 71,
          "name": "B4",
          "velocity": 0.39,
          "startMs": 65707,
          "durationMs": 153
        },
        {
          "midi": 74,
          "name": "D5",
          "velocity": 0.39,
          "startMs": 65870,
          "durationMs": 153
        },
        {
          "midi": 83,
          "name": "B5",
          "velocity": 0.39,
          "startMs": 66033,
          "durationMs": 153
        },
        {
          "midi": 71,
          "name": "B4",
          "velocity": 0.39,
          "startMs": 66196,
          "durationMs": 153
        },
        {
          "midi": 74,
          "name": "D5",
          "velocity": 0.39,
          "startMs": 66359,
          "durationMs": 153
        },
        {
          "midi": 83,
          "name": "B5",
          "velocity": 0.39,
          "startMs": 66522,
          "durationMs": 153
        },
        {
          "midi": 71,
          "name": "B4",
          "velocity": 0.39,
          "startMs": 66685,
          "durationMs": 153
        },
        {
          "midi": 74,
          "name": "D5",
          "velocity": 0.39,
          "startMs": 66848,
          "durationMs": 153
        },
        {
          "midi": 83,
          "name": "B5",
          "velocity": 0.39,
          "startMs": 67011,
          "durationMs": 153
        },
        {
          "midi": 71,
          "name": "B4",
          "velocity": 0.39,
          "startMs": 67174,
          "durationMs": 308
        },
        {
          "midi": 69,
          "name": "A4",
          "velocity": 0.39,
          "startMs": 67500,
          "durationMs": 308
        },
        {
          "midi": 66,
          "name": "F#4",
          "velocity": 0.39,
          "startMs": 67826,
          "durationMs": 154
        },
        {
          "midi": 71,
          "name": "B4",
          "velocity": 0.39,
          "startMs": 67989,
          "durationMs": 154
        },
        {
          "midi": 78,
          "name": "F#5",
          "velocity": 0.39,
          "startMs": 68152,
          "durationMs": 154
        },
        {
          "midi": 66,
          "name": "F#4",
          "velocity": 0.39,
          "startMs": 68315,
          "durationMs": 154
        },
        {
          "midi": 71,
          "name": "B4",
          "velocity": 0.39,
          "startMs": 68478,
          "durationMs": 154
        },
        {
          "midi": 78,
          "name": "F#5",
          "velocity": 0.39,
          "startMs": 68641,
          "durationMs": 154
        },
        {
          "midi": 66,
          "name": "F#4",
          "velocity": 0.39,
          "startMs": 68804,
          "durationMs": 154
        },
        {
          "midi": 71,
          "name": "B4",
          "velocity": 0.39,
          "startMs": 68967,
          "durationMs": 154
        },
        {
          "midi": 78,
          "name": "F#5",
          "velocity": 0.39,
          "startMs": 69130,
          "durationMs": 154
        },
        {
          "midi": 66,
          "name": "F#4",
          "velocity": 0.39,
          "startMs": 69293,
          "durationMs": 154
        },
        {
          "midi": 71,
          "name": "B4",
          "velocity": 0.39,
          "startMs": 69457,
          "durationMs": 153
        },
        {
          "midi": 78,
          "name": "F#5",
          "velocity": 0.39,
          "startMs": 69620,
          "durationMs": 153
        },
        {
          "midi": 66,
          "name": "F#4",
          "velocity": 0.39,
          "startMs": 69783,
          "durationMs": 308
        },
        {
          "midi": 67,
          "name": "G4",
          "velocity": 0.39,
          "startMs": 70109,
          "durationMs": 308
        },
        {
          "midi": 69,
          "name": "A4",
          "velocity": 0.39,
          "startMs": 70435,
          "durationMs": 153
        },
        {
          "midi": 74,
          "name": "D5",
          "velocity": 0.39,
          "startMs": 70598,
          "durationMs": 153
        },
        {
          "midi": 81,
          "name": "A5",
          "velocity": 0.39,
          "startMs": 70761,
          "durationMs": 153
        },
        {
          "midi": 69,
          "name": "A4",
          "velocity": 0.39,
          "startMs": 70924,
          "durationMs": 153
        },
        {
          "midi": 74,
          "name": "D5",
          "velocity": 0.39,
          "startMs": 71087,
          "durationMs": 153
        },
        {
          "midi": 81,
          "name": "A5",
          "velocity": 0.39,
          "startMs": 71250,
          "durationMs": 154
        },
        {
          "midi": 69,
          "name": "A4",
          "velocity": 0.39,
          "startMs": 71413,
          "durationMs": 154
        },
        {
          "midi": 74,
          "name": "D5",
          "velocity": 0.39,
          "startMs": 71576,
          "durationMs": 154
        },
        {
          "midi": 81,
          "name": "A5",
          "velocity": 0.39,
          "startMs": 71739,
          "durationMs": 154
        },
        {
          "midi": 69,
          "name": "A4",
          "velocity": 0.39,
          "startMs": 71902,
          "durationMs": 154
        },
        {
          "midi": 74,
          "name": "D5",
          "velocity": 0.39,
          "startMs": 72065,
          "durationMs": 154
        },
        {
          "midi": 81,
          "name": "A5",
          "velocity": 0.39,
          "startMs": 72228,
          "durationMs": 154
        },
        {
          "midi": 69,
          "name": "A4",
          "velocity": 0.39,
          "startMs": 72391,
          "durationMs": 309
        },
        {
          "midi": 67,
          "name": "G4",
          "velocity": 0.39,
          "startMs": 72717,
          "durationMs": 309
        },
        {
          "midi": 79,
          "name": "G5",
          "velocity": 0.39,
          "startMs": 73370,
          "durationMs": 153
        },
        {
          "midi": 78,
          "name": "F#5",
          "velocity": 0.39,
          "startMs": 73533,
          "durationMs": 153
        },
        {
          "midi": 79,
          "name": "G5",
          "velocity": 0.39,
          "startMs": 73696,
          "durationMs": 308
        },
        {
          "midi": 83,
          "name": "B5",
          "velocity": 0.39,
          "startMs": 74022,
          "durationMs": 153
        },
        {
          "midi": 84,
          "name": "C6",
          "velocity": 0.39,
          "startMs": 74185,
          "durationMs": 153
        },
        {
          "midi": 83,
          "name": "B5",
          "velocity": 0.39,
          "startMs": 74348,
          "durationMs": 1238
        },
        {
          "midi": 78,
          "name": "F#5",
          "velocity": 0.39,
          "startMs": 75978,
          "durationMs": 154
        },
        {
          "midi": 79,
          "name": "G5",
          "velocity": 0.39,
          "startMs": 76141,
          "durationMs": 154
        },
        {
          "midi": 78,
          "name": "F#5",
          "velocity": 0.39,
          "startMs": 76304,
          "durationMs": 309
        },
        {
          "midi": 79,
          "name": "G5",
          "velocity": 0.39,
          "startMs": 76630,
          "durationMs": 154
        },
        {
          "midi": 81,
          "name": "A5",
          "velocity": 0.39,
          "startMs": 76793,
          "durationMs": 154
        },
        {
          "midi": 79,
          "name": "G5",
          "velocity": 0.39,
          "startMs": 76957,
          "durationMs": 1237
        },
        {
          "midi": 78,
          "name": "F#5",
          "velocity": 0.39,
          "startMs": 78587,
          "durationMs": 153
        },
        {
          "midi": 76,
          "name": "E5",
          "velocity": 0.39,
          "startMs": 78750,
          "durationMs": 154
        },
        {
          "midi": 78,
          "name": "F#5",
          "velocity": 0.39,
          "startMs": 78913,
          "durationMs": 308
        },
        {
          "midi": 83,
          "name": "B5",
          "velocity": 0.39,
          "startMs": 79239,
          "durationMs": 154
        },
        {
          "midi": 84,
          "name": "C6",
          "velocity": 0.39,
          "startMs": 79402,
          "durationMs": 154
        },
        {
          "midi": 83,
          "name": "B5",
          "velocity": 0.39,
          "startMs": 79565,
          "durationMs": 1238
        },
        {
          "midi": 78,
          "name": "F#5",
          "velocity": 0.39,
          "startMs": 81196,
          "durationMs": 153
        },
        {
          "midi": 76,
          "name": "E5",
          "velocity": 0.39,
          "startMs": 81359,
          "durationMs": 153
        },
        {
          "midi": 78,
          "name": "F#5",
          "velocity": 0.39,
          "startMs": 81522,
          "durationMs": 1857
        },
        {
          "midi": 79,
          "name": "G5",
          "velocity": 0.39,
          "startMs": 83804,
          "durationMs": 154
        },
        {
          "midi": 78,
          "name": "F#5",
          "velocity": 0.39,
          "startMs": 83967,
          "durationMs": 154
        },
        {
          "midi": 79,
          "name": "G5",
          "velocity": 0.39,
          "startMs": 84130,
          "durationMs": 309
        },
        {
          "midi": 83,
          "name": "B5",
          "velocity": 0.39,
          "startMs": 84457,
          "durationMs": 153
        },
        {
          "midi": 84,
          "name": "C6",
          "velocity": 0.39,
          "startMs": 84620,
          "durationMs": 153
        },
        {
          "midi": 83,
          "name": "B5",
          "velocity": 0.39,
          "startMs": 84783,
          "durationMs": 1237
        },
        {
          "midi": 78,
          "name": "F#5",
          "velocity": 0.39,
          "startMs": 86413,
          "durationMs": 154
        },
        {
          "midi": 79,
          "name": "G5",
          "velocity": 0.39,
          "startMs": 86576,
          "durationMs": 154
        },
        {
          "midi": 78,
          "name": "F#5",
          "velocity": 0.39,
          "startMs": 86739,
          "durationMs": 309
        },
        {
          "midi": 79,
          "name": "G5",
          "velocity": 0.39,
          "startMs": 87065,
          "durationMs": 154
        },
        {
          "midi": 81,
          "name": "A5",
          "velocity": 0.39,
          "startMs": 87228,
          "durationMs": 154
        },
        {
          "midi": 79,
          "name": "G5",
          "velocity": 0.39,
          "startMs": 87391,
          "durationMs": 1238
        },
        {
          "midi": 78,
          "name": "F#5",
          "velocity": 0.39,
          "startMs": 89022,
          "durationMs": 153
        },
        {
          "midi": 76,
          "name": "E5",
          "velocity": 0.39,
          "startMs": 89185,
          "durationMs": 153
        },
        {
          "midi": 78,
          "name": "F#5",
          "velocity": 0.39,
          "startMs": 89348,
          "durationMs": 308
        },
        {
          "midi": 83,
          "name": "B5",
          "velocity": 0.39,
          "startMs": 89674,
          "durationMs": 153
        },
        {
          "midi": 84,
          "name": "C6",
          "velocity": 0.39,
          "startMs": 89837,
          "durationMs": 154
        },
        {
          "midi": 83,
          "name": "B5",
          "velocity": 0.39,
          "startMs": 90000,
          "durationMs": 1238
        },
        {
          "midi": 78,
          "name": "F#5",
          "velocity": 0.39,
          "startMs": 91630,
          "durationMs": 154
        },
        {
          "midi": 76,
          "name": "E5",
          "velocity": 0.39,
          "startMs": 91793,
          "durationMs": 154
        },
        {
          "midi": 78,
          "name": "F#5",
          "velocity": 0.39,
          "startMs": 91957,
          "durationMs": 1857
        },
        {
          "midi": 88,
          "name": "E6",
          "velocity": 0.39,
          "startMs": 93913,
          "durationMs": 928
        },
        {
          "midi": 83,
          "name": "B5",
          "velocity": 0.39,
          "startMs": 94891,
          "durationMs": 1548
        },
        {
          "midi": 86,
          "name": "D6",
          "velocity": 0.39,
          "startMs": 96522,
          "durationMs": 928
        },
        {
          "midi": 83,
          "name": "B5",
          "velocity": 0.39,
          "startMs": 97500,
          "durationMs": 1548
        },
        {
          "midi": 90,
          "name": "F#6",
          "velocity": 0.39,
          "startMs": 99130,
          "durationMs": 928
        },
        {
          "midi": 83,
          "name": "B5",
          "velocity": 0.39,
          "startMs": 100109,
          "durationMs": 1547
        },
        {
          "midi": 90,
          "name": "F#6",
          "velocity": 0.39,
          "startMs": 101739,
          "durationMs": 928
        },
        {
          "midi": 81,
          "name": "A5",
          "velocity": 0.39,
          "startMs": 102717,
          "durationMs": 1548
        },
        {
          "midi": 91,
          "name": "G6",
          "velocity": 0.39,
          "startMs": 104348,
          "durationMs": 928
        },
        {
          "midi": 88,
          "name": "E6",
          "velocity": 0.39,
          "startMs": 105326,
          "durationMs": 1548
        },
        {
          "midi": 91,
          "name": "G6",
          "velocity": 0.39,
          "startMs": 106957,
          "durationMs": 928
        },
        {
          "midi": 86,
          "name": "D6",
          "velocity": 0.39,
          "startMs": 107935,
          "durationMs": 1547
        },
        {
          "midi": 90,
          "name": "F#6",
          "velocity": 0.39,
          "startMs": 109565,
          "durationMs": 928
        },
        {
          "midi": 86,
          "name": "D6",
          "velocity": 0.39,
          "startMs": 110543,
          "durationMs": 1548
        },
        {
          "midi": 90,
          "name": "F#6",
          "velocity": 0.39,
          "startMs": 112174,
          "durationMs": 928
        },
        {
          "midi": 86,
          "name": "D6",
          "velocity": 0.39,
          "startMs": 113152,
          "durationMs": 1548
        },
        {
          "midi": 83,
          "name": "B5",
          "velocity": 0.39,
          "startMs": 114783,
          "durationMs": 153
        },
        {
          "midi": 88,
          "name": "E6",
          "velocity": 0.39,
          "startMs": 114946,
          "durationMs": 153
        },
        {
          "midi": 95,
          "name": "B6",
          "velocity": 0.39,
          "startMs": 115109,
          "durationMs": 153
        },
        {
          "midi": 83,
          "name": "B5",
          "velocity": 0.39,
          "startMs": 115272,
          "durationMs": 153
        },
        {
          "midi": 88,
          "name": "E6",
          "velocity": 0.39,
          "startMs": 115435,
          "durationMs": 153
        },
        {
          "midi": 95,
          "name": "B6",
          "velocity": 0.39,
          "startMs": 115598,
          "durationMs": 153
        },
        {
          "midi": 83,
          "name": "B5",
          "velocity": 0.39,
          "startMs": 115761,
          "durationMs": 153
        },
        {
          "midi": 88,
          "name": "E6",
          "velocity": 0.39,
          "startMs": 115924,
          "durationMs": 153
        },
        {
          "midi": 95,
          "name": "B6",
          "velocity": 0.39,
          "startMs": 116087,
          "durationMs": 154
        },
        {
          "midi": 83,
          "name": "B5",
          "velocity": 0.39,
          "startMs": 116250,
          "durationMs": 154
        },
        {
          "midi": 88,
          "name": "E6",
          "velocity": 0.39,
          "startMs": 116413,
          "durationMs": 154
        },
        {
          "midi": 95,
          "name": "B6",
          "velocity": 0.39,
          "startMs": 116576,
          "durationMs": 154
        },
        {
          "midi": 83,
          "name": "B5",
          "velocity": 0.39,
          "startMs": 116739,
          "durationMs": 309
        },
        {
          "midi": 84,
          "name": "C6",
          "velocity": 0.39,
          "startMs": 117065,
          "durationMs": 309
        },
        {
          "midi": 83,
          "name": "B5",
          "velocity": 0.39,
          "startMs": 117391,
          "durationMs": 154
        },
        {
          "midi": 86,
          "name": "D6",
          "velocity": 0.39,
          "startMs": 117554,
          "durationMs": 154
        },
        {
          "midi": 95,
          "name": "B6",
          "velocity": 0.39,
          "startMs": 117717,
          "durationMs": 154
        },
        {
          "midi": 83,
          "name": "B5",
          "velocity": 0.39,
          "startMs": 117880,
          "durationMs": 154
        },
        {
          "midi": 86,
          "name": "D6",
          "velocity": 0.39,
          "startMs": 118043,
          "durationMs": 154
        },
        {
          "midi": 95,
          "name": "B6",
          "velocity": 0.39,
          "startMs": 118207,
          "durationMs": 153
        },
        {
          "midi": 83,
          "name": "B5",
          "velocity": 0.39,
          "startMs": 118370,
          "durationMs": 153
        },
        {
          "midi": 86,
          "name": "D6",
          "velocity": 0.39,
          "startMs": 118533,
          "durationMs": 153
        },
        {
          "midi": 95,
          "name": "B6",
          "velocity": 0.39,
          "startMs": 118696,
          "durationMs": 153
        },
        {
          "midi": 83,
          "name": "B5",
          "velocity": 0.39,
          "startMs": 118859,
          "durationMs": 153
        },
        {
          "midi": 86,
          "name": "D6",
          "velocity": 0.39,
          "startMs": 119022,
          "durationMs": 153
        },
        {
          "midi": 95,
          "name": "B6",
          "velocity": 0.39,
          "startMs": 119185,
          "durationMs": 153
        },
        {
          "midi": 83,
          "name": "B5",
          "velocity": 0.39,
          "startMs": 119348,
          "durationMs": 308
        },
        {
          "midi": 81,
          "name": "A5",
          "velocity": 0.39,
          "startMs": 119674,
          "durationMs": 308
        },
        {
          "midi": 78,
          "name": "F#5",
          "velocity": 0.39,
          "startMs": 120000,
          "durationMs": 154
        },
        {
          "midi": 83,
          "name": "B5",
          "velocity": 0.39,
          "startMs": 120163,
          "durationMs": 154
        },
        {
          "midi": 90,
          "name": "F#6",
          "velocity": 0.39,
          "startMs": 120326,
          "durationMs": 154
        },
        {
          "midi": 78,
          "name": "F#5",
          "velocity": 0.39,
          "startMs": 120489,
          "durationMs": 154
        },
        {
          "midi": 83,
          "name": "B5",
          "velocity": 0.39,
          "startMs": 120652,
          "durationMs": 154
        },
        {
          "midi": 90,
          "name": "F#6",
          "velocity": 0.39,
          "startMs": 120815,
          "durationMs": 154
        },
        {
          "midi": 78,
          "name": "F#5",
          "velocity": 0.39,
          "startMs": 120978,
          "durationMs": 154
        },
        {
          "midi": 83,
          "name": "B5",
          "velocity": 0.39,
          "startMs": 121141,
          "durationMs": 154
        },
        {
          "midi": 90,
          "name": "F#6",
          "velocity": 0.39,
          "startMs": 121304,
          "durationMs": 154
        },
        {
          "midi": 78,
          "name": "F#5",
          "velocity": 0.39,
          "startMs": 121467,
          "durationMs": 154
        },
        {
          "midi": 83,
          "name": "B5",
          "velocity": 0.39,
          "startMs": 121630,
          "durationMs": 154
        },
        {
          "midi": 90,
          "name": "F#6",
          "velocity": 0.39,
          "startMs": 121793,
          "durationMs": 154
        },
        {
          "midi": 78,
          "name": "F#5",
          "velocity": 0.39,
          "startMs": 121957,
          "durationMs": 308
        },
        {
          "midi": 79,
          "name": "G5",
          "velocity": 0.39,
          "startMs": 122283,
          "durationMs": 308
        },
        {
          "midi": 81,
          "name": "A5",
          "velocity": 0.39,
          "startMs": 122609,
          "durationMs": 153
        },
        {
          "midi": 86,
          "name": "D6",
          "velocity": 0.39,
          "startMs": 122772,
          "durationMs": 153
        },
        {
          "midi": 93,
          "name": "A6",
          "velocity": 0.39,
          "startMs": 122935,
          "durationMs": 153
        },
        {
          "midi": 81,
          "name": "A5",
          "velocity": 0.39,
          "startMs": 123098,
          "durationMs": 153
        },
        {
          "midi": 86,
          "name": "D6",
          "velocity": 0.39,
          "startMs": 123261,
          "durationMs": 153
        },
        {
          "midi": 93,
          "name": "A6",
          "velocity": 0.39,
          "startMs": 123424,
          "durationMs": 153
        },
        {
          "midi": 81,
          "name": "A5",
          "velocity": 0.39,
          "startMs": 123587,
          "durationMs": 154
        },
        {
          "midi": 86,
          "name": "D6",
          "velocity": 0.39,
          "startMs": 123750,
          "durationMs": 154
        },
        {
          "midi": 93,
          "name": "A6",
          "velocity": 0.39,
          "startMs": 123913,
          "durationMs": 154
        },
        {
          "midi": 81,
          "name": "A5",
          "velocity": 0.39,
          "startMs": 124076,
          "durationMs": 154
        },
        {
          "midi": 86,
          "name": "D6",
          "velocity": 0.39,
          "startMs": 124239,
          "durationMs": 154
        },
        {
          "midi": 93,
          "name": "A6",
          "velocity": 0.39,
          "startMs": 124402,
          "durationMs": 154
        },
        {
          "midi": 81,
          "name": "A5",
          "velocity": 0.39,
          "startMs": 124565,
          "durationMs": 309
        },
        {
          "midi": 79,
          "name": "G5",
          "velocity": 0.39,
          "startMs": 124891,
          "durationMs": 309
        },
        {
          "midi": 83,
          "name": "B5",
          "velocity": 0.39,
          "startMs": 125217,
          "durationMs": 154
        },
        {
          "midi": 88,
          "name": "E6",
          "velocity": 0.39,
          "startMs": 125380,
          "durationMs": 154
        },
        {
          "midi": 95,
          "name": "B6",
          "velocity": 0.39,
          "startMs": 125543,
          "durationMs": 154
        },
        {
          "midi": 83,
          "name": "B5",
          "velocity": 0.39,
          "startMs": 125707,
          "durationMs": 153
        },
        {
          "midi": 88,
          "name": "E6",
          "velocity": 0.39,
          "startMs": 125870,
          "durationMs": 153
        },
        {
          "midi": 95,
          "name": "B6",
          "velocity": 0.39,
          "startMs": 126033,
          "durationMs": 153
        },
        {
          "midi": 83,
          "name": "B5",
          "velocity": 0.39,
          "startMs": 126196,
          "durationMs": 153
        },
        {
          "midi": 88,
          "name": "E6",
          "velocity": 0.39,
          "startMs": 126359,
          "durationMs": 153
        },
        {
          "midi": 95,
          "name": "B6",
          "velocity": 0.39,
          "startMs": 126522,
          "durationMs": 153
        },
        {
          "midi": 83,
          "name": "B5",
          "velocity": 0.39,
          "startMs": 126685,
          "durationMs": 153
        },
        {
          "midi": 88,
          "name": "E6",
          "velocity": 0.39,
          "startMs": 126848,
          "durationMs": 153
        },
        {
          "midi": 95,
          "name": "B6",
          "velocity": 0.39,
          "startMs": 127011,
          "durationMs": 153
        },
        {
          "midi": 83,
          "name": "B5",
          "velocity": 0.39,
          "startMs": 127174,
          "durationMs": 308
        },
        {
          "midi": 84,
          "name": "C6",
          "velocity": 0.39,
          "startMs": 127500,
          "durationMs": 308
        },
        {
          "midi": 83,
          "name": "B5",
          "velocity": 0.39,
          "startMs": 127826,
          "durationMs": 154
        },
        {
          "midi": 86,
          "name": "D6",
          "velocity": 0.39,
          "startMs": 127989,
          "durationMs": 154
        },
        {
          "midi": 95,
          "name": "B6",
          "velocity": 0.39,
          "startMs": 128152,
          "durationMs": 154
        },
        {
          "midi": 83,
          "name": "B5",
          "velocity": 0.39,
          "startMs": 128315,
          "durationMs": 154
        },
        {
          "midi": 86,
          "name": "D6",
          "velocity": 0.39,
          "startMs": 128478,
          "durationMs": 154
        },
        {
          "midi": 95,
          "name": "B6",
          "velocity": 0.39,
          "startMs": 128641,
          "durationMs": 154
        },
        {
          "midi": 83,
          "name": "B5",
          "velocity": 0.39,
          "startMs": 128804,
          "durationMs": 154
        },
        {
          "midi": 86,
          "name": "D6",
          "velocity": 0.39,
          "startMs": 128967,
          "durationMs": 154
        },
        {
          "midi": 95,
          "name": "B6",
          "velocity": 0.39,
          "startMs": 129130,
          "durationMs": 154
        },
        {
          "midi": 83,
          "name": "B5",
          "velocity": 0.39,
          "startMs": 129293,
          "durationMs": 154
        },
        {
          "midi": 86,
          "name": "D6",
          "velocity": 0.39,
          "startMs": 129457,
          "durationMs": 153
        },
        {
          "midi": 95,
          "name": "B6",
          "velocity": 0.39,
          "startMs": 129620,
          "durationMs": 153
        },
        {
          "midi": 83,
          "name": "B5",
          "velocity": 0.39,
          "startMs": 129783,
          "durationMs": 308
        },
        {
          "midi": 81,
          "name": "A5",
          "velocity": 0.39,
          "startMs": 130109,
          "durationMs": 308
        },
        {
          "midi": 78,
          "name": "F#5",
          "velocity": 0.39,
          "startMs": 130435,
          "durationMs": 153
        },
        {
          "midi": 83,
          "name": "B5",
          "velocity": 0.39,
          "startMs": 130598,
          "durationMs": 153
        },
        {
          "midi": 90,
          "name": "F#6",
          "velocity": 0.39,
          "startMs": 130761,
          "durationMs": 153
        },
        {
          "midi": 78,
          "name": "F#5",
          "velocity": 0.39,
          "startMs": 130924,
          "durationMs": 153
        },
        {
          "midi": 83,
          "name": "B5",
          "velocity": 0.39,
          "startMs": 131087,
          "durationMs": 154
        },
        {
          "midi": 90,
          "name": "F#6",
          "velocity": 0.39,
          "startMs": 131250,
          "durationMs": 154
        },
        {
          "midi": 78,
          "name": "F#5",
          "velocity": 0.39,
          "startMs": 131413,
          "durationMs": 154
        },
        {
          "midi": 83,
          "name": "B5",
          "velocity": 0.39,
          "startMs": 131576,
          "durationMs": 154
        },
        {
          "midi": 90,
          "name": "F#6",
          "velocity": 0.39,
          "startMs": 131739,
          "durationMs": 154
        },
        {
          "midi": 78,
          "name": "F#5",
          "velocity": 0.39,
          "startMs": 131902,
          "durationMs": 154
        },
        {
          "midi": 83,
          "name": "B5",
          "velocity": 0.39,
          "startMs": 132065,
          "durationMs": 154
        },
        {
          "midi": 90,
          "name": "F#6",
          "velocity": 0.39,
          "startMs": 132228,
          "durationMs": 154
        },
        {
          "midi": 78,
          "name": "F#5",
          "velocity": 0.39,
          "startMs": 132391,
          "durationMs": 309
        },
        {
          "midi": 79,
          "name": "G5",
          "velocity": 0.39,
          "startMs": 132717,
          "durationMs": 309
        },
        {
          "midi": 81,
          "name": "A5",
          "velocity": 0.39,
          "startMs": 133043,
          "durationMs": 154
        },
        {
          "midi": 86,
          "name": "D6",
          "velocity": 0.39,
          "startMs": 133207,
          "durationMs": 153
        },
        {
          "midi": 93,
          "name": "A6",
          "velocity": 0.39,
          "startMs": 133370,
          "durationMs": 153
        },
        {
          "midi": 81,
          "name": "A5",
          "velocity": 0.39,
          "startMs": 133533,
          "durationMs": 153
        },
        {
          "midi": 86,
          "name": "D6",
          "velocity": 0.39,
          "startMs": 133696,
          "durationMs": 153
        },
        {
          "midi": 93,
          "name": "A6",
          "velocity": 0.39,
          "startMs": 133859,
          "durationMs": 153
        },
        {
          "midi": 81,
          "name": "A5",
          "velocity": 0.39,
          "startMs": 134022,
          "durationMs": 153
        },
        {
          "midi": 86,
          "name": "D6",
          "velocity": 0.39,
          "startMs": 134185,
          "durationMs": 153
        },
        {
          "midi": 93,
          "name": "A6",
          "velocity": 0.39,
          "startMs": 134348,
          "durationMs": 153
        },
        {
          "midi": 81,
          "name": "A5",
          "velocity": 0.39,
          "startMs": 134511,
          "durationMs": 153
        },
        {
          "midi": 86,
          "name": "D6",
          "velocity": 0.39,
          "startMs": 134674,
          "durationMs": 153
        },
        {
          "midi": 93,
          "name": "A6",
          "velocity": 0.39,
          "startMs": 134837,
          "durationMs": 154
        },
        {
          "midi": 81,
          "name": "A5",
          "velocity": 0.39,
          "startMs": 135000,
          "durationMs": 308
        },
        {
          "midi": 79,
          "name": "G5",
          "velocity": 0.39,
          "startMs": 135326,
          "durationMs": 309
        },
        {
          "midi": 76,
          "name": "E5",
          "velocity": 0.39,
          "startMs": 135652,
          "durationMs": 2477
        }
      ]
    },
    {
      "hand": "left",
      "notes": [
        {
          "midi": 64,
          "name": "E4",
          "velocity": 0.39,
          "startMs": 0,
          "durationMs": 308
        },
        {
          "midi": 59,
          "name": "B3",
          "velocity": 0.39,
          "startMs": 326,
          "durationMs": 309
        },
        {
          "midi": 55,
          "name": "G3",
          "velocity": 0.39,
          "startMs": 652,
          "durationMs": 309
        },
        {
          "midi": 59,
          "name": "B3",
          "velocity": 0.39,
          "startMs": 978,
          "durationMs": 309
        },
        {
          "midi": 64,
          "name": "E4",
          "velocity": 0.39,
          "startMs": 1304,
          "durationMs": 309
        },
        {
          "midi": 59,
          "name": "B3",
          "velocity": 0.39,
          "startMs": 1630,
          "durationMs": 309
        },
        {
          "midi": 55,
          "name": "G3",
          "velocity": 0.39,
          "startMs": 1957,
          "durationMs": 308
        },
        {
          "midi": 59,
          "name": "B3",
          "velocity": 0.39,
          "startMs": 2283,
          "durationMs": 308
        },
        {
          "midi": 62,
          "name": "D4",
          "velocity": 0.39,
          "startMs": 2609,
          "durationMs": 308
        },
        {
          "midi": 59,
          "name": "B3",
          "velocity": 0.39,
          "startMs": 2935,
          "durationMs": 308
        },
        {
          "midi": 55,
          "name": "G3",
          "velocity": 0.39,
          "startMs": 3261,
          "durationMs": 308
        },
        {
          "midi": 59,
          "name": "B3",
          "velocity": 0.39,
          "startMs": 3587,
          "durationMs": 308
        },
        {
          "midi": 62,
          "name": "D4",
          "velocity": 0.39,
          "startMs": 3913,
          "durationMs": 308
        },
        {
          "midi": 59,
          "name": "B3",
          "velocity": 0.39,
          "startMs": 4239,
          "durationMs": 309
        },
        {
          "midi": 55,
          "name": "G3",
          "velocity": 0.39,
          "startMs": 4565,
          "durationMs": 309
        },
        {
          "midi": 59,
          "name": "B3",
          "velocity": 0.39,
          "startMs": 4891,
          "durationMs": 309
        },
        {
          "midi": 62,
          "name": "D4",
          "velocity": 0.39,
          "startMs": 5217,
          "durationMs": 309
        },
        {
          "midi": 59,
          "name": "B3",
          "velocity": 0.39,
          "startMs": 5543,
          "durationMs": 309
        },
        {
          "midi": 54,
          "name": "F#3",
          "velocity": 0.39,
          "startMs": 5870,
          "durationMs": 308
        },
        {
          "midi": 59,
          "name": "B3",
          "velocity": 0.39,
          "startMs": 6196,
          "durationMs": 308
        },
        {
          "midi": 62,
          "name": "D4",
          "velocity": 0.39,
          "startMs": 6522,
          "durationMs": 308
        },
        {
          "midi": 59,
          "name": "B3",
          "velocity": 0.39,
          "startMs": 6848,
          "durationMs": 308
        },
        {
          "midi": 54,
          "name": "F#3",
          "velocity": 0.39,
          "startMs": 7174,
          "durationMs": 308
        },
        {
          "midi": 59,
          "name": "B3",
          "velocity": 0.39,
          "startMs": 7500,
          "durationMs": 308
        },
        {
          "midi": 62,
          "name": "D4",
          "velocity": 0.39,
          "startMs": 7826,
          "durationMs": 309
        },
        {
          "midi": 57,
          "name": "A3",
          "velocity": 0.39,
          "startMs": 8152,
          "durationMs": 309
        },
        {
          "midi": 54,
          "name": "F#3",
          "velocity": 0.39,
          "startMs": 8478,
          "durationMs": 309
        },
        {
          "midi": 57,
          "name": "A3",
          "velocity": 0.39,
          "startMs": 8804,
          "durationMs": 309
        },
        {
          "midi": 62,
          "name": "D4",
          "velocity": 0.39,
          "startMs": 9130,
          "durationMs": 309
        },
        {
          "midi": 57,
          "name": "A3",
          "velocity": 0.39,
          "startMs": 9457,
          "durationMs": 308
        },
        {
          "midi": 54,
          "name": "F#3",
          "velocity": 0.39,
          "startMs": 9783,
          "durationMs": 308
        },
        {
          "midi": 57,
          "name": "A3",
          "velocity": 0.39,
          "startMs": 10109,
          "durationMs": 308
        },
        {
          "midi": 64,
          "name": "E4",
          "velocity": 0.39,
          "startMs": 10435,
          "durationMs": 308
        },
        {
          "midi": 59,
          "name": "B3",
          "velocity": 0.39,
          "startMs": 10761,
          "durationMs": 308
        },
        {
          "midi": 55,
          "name": "G3",
          "velocity": 0.39,
          "startMs": 11087,
          "durationMs": 308
        },
        {
          "midi": 59,
          "name": "B3",
          "velocity": 0.39,
          "startMs": 11413,
          "durationMs": 308
        },
        {
          "midi": 64,
          "name": "E4",
          "velocity": 0.39,
          "startMs": 11739,
          "durationMs": 309
        },
        {
          "midi": 59,
          "name": "B3",
          "velocity": 0.39,
          "startMs": 12065,
          "durationMs": 309
        },
        {
          "midi": 55,
          "name": "G3",
          "velocity": 0.39,
          "startMs": 12391,
          "durationMs": 309
        },
        {
          "midi": 59,
          "name": "B3",
          "velocity": 0.39,
          "startMs": 12717,
          "durationMs": 309
        },
        {
          "midi": 62,
          "name": "D4",
          "velocity": 0.39,
          "startMs": 13043,
          "durationMs": 309
        },
        {
          "midi": 59,
          "name": "B3",
          "velocity": 0.39,
          "startMs": 13370,
          "durationMs": 308
        },
        {
          "midi": 55,
          "name": "G3",
          "velocity": 0.39,
          "startMs": 13696,
          "durationMs": 308
        },
        {
          "midi": 59,
          "name": "B3",
          "velocity": 0.39,
          "startMs": 14022,
          "durationMs": 308
        },
        {
          "midi": 62,
          "name": "D4",
          "velocity": 0.39,
          "startMs": 14348,
          "durationMs": 308
        },
        {
          "midi": 59,
          "name": "B3",
          "velocity": 0.39,
          "startMs": 14674,
          "durationMs": 308
        },
        {
          "midi": 55,
          "name": "G3",
          "velocity": 0.39,
          "startMs": 15000,
          "durationMs": 308
        },
        {
          "midi": 59,
          "name": "B3",
          "velocity": 0.39,
          "startMs": 15326,
          "durationMs": 309
        },
        {
          "midi": 62,
          "name": "D4",
          "velocity": 0.39,
          "startMs": 15652,
          "durationMs": 309
        },
        {
          "midi": 59,
          "name": "B3",
          "velocity": 0.39,
          "startMs": 15978,
          "durationMs": 309
        },
        {
          "midi": 54,
          "name": "F#3",
          "velocity": 0.39,
          "startMs": 16304,
          "durationMs": 309
        },
        {
          "midi": 59,
          "name": "B3",
          "velocity": 0.39,
          "startMs": 16630,
          "durationMs": 309
        },
        {
          "midi": 62,
          "name": "D4",
          "velocity": 0.39,
          "startMs": 16957,
          "durationMs": 308
        },
        {
          "midi": 59,
          "name": "B3",
          "velocity": 0.39,
          "startMs": 17283,
          "durationMs": 308
        },
        {
          "midi": 54,
          "name": "F#3",
          "velocity": 0.39,
          "startMs": 17609,
          "durationMs": 308
        },
        {
          "midi": 59,
          "name": "B3",
          "velocity": 0.39,
          "startMs": 17935,
          "durationMs": 308
        },
        {
          "midi": 62,
          "name": "D4",
          "velocity": 0.39,
          "startMs": 18261,
          "durationMs": 308
        },
        {
          "midi": 57,
          "name": "A3",
          "velocity": 0.39,
          "startMs": 18587,
          "durationMs": 308
        },
        {
          "midi": 54,
          "name": "F#3",
          "velocity": 0.39,
          "startMs": 18913,
          "durationMs": 308
        },
        {
          "midi": 57,
          "name": "A3",
          "velocity": 0.39,
          "startMs": 19239,
          "durationMs": 309
        },
        {
          "midi": 62,
          "name": "D4",
          "velocity": 0.39,
          "startMs": 19565,
          "durationMs": 309
        },
        {
          "midi": 57,
          "name": "A3",
          "velocity": 0.39,
          "startMs": 19891,
          "durationMs": 309
        },
        {
          "midi": 54,
          "name": "F#3",
          "velocity": 0.39,
          "startMs": 20217,
          "durationMs": 309
        },
        {
          "midi": 57,
          "name": "A3",
          "velocity": 0.39,
          "startMs": 20543,
          "durationMs": 309
        },
        {
          "midi": 64,
          "name": "E4",
          "velocity": 0.39,
          "startMs": 20870,
          "durationMs": 308
        },
        {
          "midi": 59,
          "name": "B3",
          "velocity": 0.39,
          "startMs": 21196,
          "durationMs": 308
        },
        {
          "midi": 55,
          "name": "G3",
          "velocity": 0.39,
          "startMs": 21522,
          "durationMs": 308
        },
        {
          "midi": 59,
          "name": "B3",
          "velocity": 0.39,
          "startMs": 21848,
          "durationMs": 308
        },
        {
          "midi": 64,
          "name": "E4",
          "velocity": 0.39,
          "startMs": 22174,
          "durationMs": 308
        },
        {
          "midi": 59,
          "name": "B3",
          "velocity": 0.39,
          "startMs": 22500,
          "durationMs": 308
        },
        {
          "midi": 55,
          "name": "G3",
          "velocity": 0.39,
          "startMs": 22826,
          "durationMs": 309
        },
        {
          "midi": 59,
          "name": "B3",
          "velocity": 0.39,
          "startMs": 23152,
          "durationMs": 309
        },
        {
          "midi": 62,
          "name": "D4",
          "velocity": 0.39,
          "startMs": 23478,
          "durationMs": 309
        },
        {
          "midi": 59,
          "name": "B3",
          "velocity": 0.39,
          "startMs": 23804,
          "durationMs": 309
        },
        {
          "midi": 55,
          "name": "G3",
          "velocity": 0.39,
          "startMs": 24130,
          "durationMs": 309
        },
        {
          "midi": 59,
          "name": "B3",
          "velocity": 0.39,
          "startMs": 24457,
          "durationMs": 308
        },
        {
          "midi": 62,
          "name": "D4",
          "velocity": 0.39,
          "startMs": 24783,
          "durationMs": 308
        },
        {
          "midi": 59,
          "name": "B3",
          "velocity": 0.39,
          "startMs": 25109,
          "durationMs": 308
        },
        {
          "midi": 55,
          "name": "G3",
          "velocity": 0.39,
          "startMs": 25435,
          "durationMs": 308
        },
        {
          "midi": 59,
          "name": "B3",
          "velocity": 0.39,
          "startMs": 25761,
          "durationMs": 308
        },
        {
          "midi": 62,
          "name": "D4",
          "velocity": 0.39,
          "startMs": 26087,
          "durationMs": 308
        },
        {
          "midi": 59,
          "name": "B3",
          "velocity": 0.39,
          "startMs": 26413,
          "durationMs": 308
        },
        {
          "midi": 54,
          "name": "F#3",
          "velocity": 0.39,
          "startMs": 26739,
          "durationMs": 309
        },
        {
          "midi": 59,
          "name": "B3",
          "velocity": 0.39,
          "startMs": 27065,
          "durationMs": 309
        },
        {
          "midi": 62,
          "name": "D4",
          "velocity": 0.39,
          "startMs": 27391,
          "durationMs": 309
        },
        {
          "midi": 59,
          "name": "B3",
          "velocity": 0.39,
          "startMs": 27717,
          "durationMs": 309
        },
        {
          "midi": 54,
          "name": "F#3",
          "velocity": 0.39,
          "startMs": 28043,
          "durationMs": 309
        },
        {
          "midi": 59,
          "name": "B3",
          "velocity": 0.39,
          "startMs": 28370,
          "durationMs": 308
        },
        {
          "midi": 62,
          "name": "D4",
          "velocity": 0.39,
          "startMs": 28696,
          "durationMs": 308
        },
        {
          "midi": 57,
          "name": "A3",
          "velocity": 0.39,
          "startMs": 29022,
          "durationMs": 308
        },
        {
          "midi": 54,
          "name": "F#3",
          "velocity": 0.39,
          "startMs": 29348,
          "durationMs": 308
        },
        {
          "midi": 57,
          "name": "A3",
          "velocity": 0.39,
          "startMs": 29674,
          "durationMs": 308
        },
        {
          "midi": 62,
          "name": "D4",
          "velocity": 0.39,
          "startMs": 30000,
          "durationMs": 308
        },
        {
          "midi": 57,
          "name": "A3",
          "velocity": 0.39,
          "startMs": 30326,
          "durationMs": 309
        },
        {
          "midi": 54,
          "name": "F#3",
          "velocity": 0.39,
          "startMs": 30652,
          "durationMs": 309
        },
        {
          "midi": 57,
          "name": "A3",
          "velocity": 0.39,
          "startMs": 30978,
          "durationMs": 309
        },
        {
          "midi": 64,
          "name": "E4",
          "velocity": 0.39,
          "startMs": 31304,
          "durationMs": 309
        },
        {
          "midi": 59,
          "name": "B3",
          "velocity": 0.39,
          "startMs": 31630,
          "durationMs": 309
        },
        {
          "midi": 55,
          "name": "G3",
          "velocity": 0.39,
          "startMs": 31957,
          "durationMs": 308
        },
        {
          "midi": 59,
          "name": "B3",
          "velocity": 0.39,
          "startMs": 32283,
          "durationMs": 308
        },
        {
          "midi": 64,
          "name": "E4",
          "velocity": 0.39,
          "startMs": 32609,
          "durationMs": 308
        },
        {
          "midi": 59,
          "name": "B3",
          "velocity": 0.39,
          "startMs": 32935,
          "durationMs": 308
        },
        {
          "midi": 55,
          "name": "G3",
          "velocity": 0.39,
          "startMs": 33261,
          "durationMs": 308
        },
        {
          "midi": 59,
          "name": "B3",
          "velocity": 0.39,
          "startMs": 33587,
          "durationMs": 308
        },
        {
          "midi": 62,
          "name": "D4",
          "velocity": 0.39,
          "startMs": 33913,
          "durationMs": 308
        },
        {
          "midi": 59,
          "name": "B3",
          "velocity": 0.39,
          "startMs": 34239,
          "durationMs": 309
        },
        {
          "midi": 55,
          "name": "G3",
          "velocity": 0.39,
          "startMs": 34565,
          "durationMs": 309
        },
        {
          "midi": 59,
          "name": "B3",
          "velocity": 0.39,
          "startMs": 34891,
          "durationMs": 309
        },
        {
          "midi": 62,
          "name": "D4",
          "velocity": 0.39,
          "startMs": 35217,
          "durationMs": 309
        },
        {
          "midi": 59,
          "name": "B3",
          "velocity": 0.39,
          "startMs": 35543,
          "durationMs": 309
        },
        {
          "midi": 55,
          "name": "G3",
          "velocity": 0.39,
          "startMs": 35870,
          "durationMs": 308
        },
        {
          "midi": 59,
          "name": "B3",
          "velocity": 0.39,
          "startMs": 36196,
          "durationMs": 308
        },
        {
          "midi": 62,
          "name": "D4",
          "velocity": 0.39,
          "startMs": 36522,
          "durationMs": 308
        },
        {
          "midi": 59,
          "name": "B3",
          "velocity": 0.39,
          "startMs": 36848,
          "durationMs": 308
        },
        {
          "midi": 54,
          "name": "F#3",
          "velocity": 0.39,
          "startMs": 37174,
          "durationMs": 308
        },
        {
          "midi": 59,
          "name": "B3",
          "velocity": 0.39,
          "startMs": 37500,
          "durationMs": 308
        },
        {
          "midi": 62,
          "name": "D4",
          "velocity": 0.39,
          "startMs": 37826,
          "durationMs": 309
        },
        {
          "midi": 59,
          "name": "B3",
          "velocity": 0.39,
          "startMs": 38152,
          "durationMs": 309
        },
        {
          "midi": 54,
          "name": "F#3",
          "velocity": 0.39,
          "startMs": 38478,
          "durationMs": 309
        },
        {
          "midi": 59,
          "name": "B3",
          "velocity": 0.39,
          "startMs": 38804,
          "durationMs": 309
        },
        {
          "midi": 62,
          "name": "D4",
          "velocity": 0.39,
          "startMs": 39130,
          "durationMs": 309
        },
        {
          "midi": 57,
          "name": "A3",
          "velocity": 0.39,
          "startMs": 39457,
          "durationMs": 308
        },
        {
          "midi": 54,
          "name": "F#3",
          "velocity": 0.39,
          "startMs": 39783,
          "durationMs": 308
        },
        {
          "midi": 57,
          "name": "A3",
          "velocity": 0.39,
          "startMs": 40109,
          "durationMs": 308
        },
        {
          "midi": 62,
          "name": "D4",
          "velocity": 0.39,
          "startMs": 40435,
          "durationMs": 308
        },
        {
          "midi": 57,
          "name": "A3",
          "velocity": 0.39,
          "startMs": 40761,
          "durationMs": 308
        },
        {
          "midi": 54,
          "name": "F#3",
          "velocity": 0.39,
          "startMs": 41087,
          "durationMs": 308
        },
        {
          "midi": 57,
          "name": "A3",
          "velocity": 0.39,
          "startMs": 41413,
          "durationMs": 308
        },
        {
          "midi": 64,
          "name": "E4",
          "velocity": 0.39,
          "startMs": 41739,
          "durationMs": 309
        },
        {
          "midi": 59,
          "name": "B3",
          "velocity": 0.39,
          "startMs": 42065,
          "durationMs": 309
        },
        {
          "midi": 55,
          "name": "G3",
          "velocity": 0.39,
          "startMs": 42391,
          "durationMs": 309
        },
        {
          "midi": 59,
          "name": "B3",
          "velocity": 0.39,
          "startMs": 42717,
          "durationMs": 309
        },
        {
          "midi": 64,
          "name": "E4",
          "velocity": 0.39,
          "startMs": 43043,
          "durationMs": 309
        },
        {
          "midi": 59,
          "name": "B3",
          "velocity": 0.39,
          "startMs": 43370,
          "durationMs": 308
        },
        {
          "midi": 55,
          "name": "G3",
          "velocity": 0.39,
          "startMs": 43696,
          "durationMs": 308
        },
        {
          "midi": 59,
          "name": "B3",
          "velocity": 0.39,
          "startMs": 44022,
          "durationMs": 308
        },
        {
          "midi": 62,
          "name": "D4",
          "velocity": 0.39,
          "startMs": 44348,
          "durationMs": 308
        },
        {
          "midi": 59,
          "name": "B3",
          "velocity": 0.39,
          "startMs": 44674,
          "durationMs": 308
        },
        {
          "midi": 55,
          "name": "G3",
          "velocity": 0.39,
          "startMs": 45000,
          "durationMs": 308
        },
        {
          "midi": 59,
          "name": "B3",
          "velocity": 0.39,
          "startMs": 45326,
          "durationMs": 309
        },
        {
          "midi": 62,
          "name": "D4",
          "velocity": 0.39,
          "startMs": 45652,
          "durationMs": 309
        },
        {
          "midi": 59,
          "name": "B3",
          "velocity": 0.39,
          "startMs": 45978,
          "durationMs": 309
        },
        {
          "midi": 55,
          "name": "G3",
          "velocity": 0.39,
          "startMs": 46304,
          "durationMs": 309
        },
        {
          "midi": 59,
          "name": "B3",
          "velocity": 0.39,
          "startMs": 46630,
          "durationMs": 309
        },
        {
          "midi": 62,
          "name": "D4",
          "velocity": 0.39,
          "startMs": 46957,
          "durationMs": 308
        },
        {
          "midi": 59,
          "name": "B3",
          "velocity": 0.39,
          "startMs": 47283,
          "durationMs": 308
        },
        {
          "midi": 54,
          "name": "F#3",
          "velocity": 0.39,
          "startMs": 47609,
          "durationMs": 308
        },
        {
          "midi": 59,
          "name": "B3",
          "velocity": 0.39,
          "startMs": 47935,
          "durationMs": 308
        },
        {
          "midi": 62,
          "name": "D4",
          "velocity": 0.39,
          "startMs": 48261,
          "durationMs": 308
        },
        {
          "midi": 59,
          "name": "B3",
          "velocity": 0.39,
          "startMs": 48587,
          "durationMs": 308
        },
        {
          "midi": 54,
          "name": "F#3",
          "velocity": 0.39,
          "startMs": 48913,
          "durationMs": 308
        },
        {
          "midi": 59,
          "name": "B3",
          "velocity": 0.39,
          "startMs": 49239,
          "durationMs": 309
        },
        {
          "midi": 62,
          "name": "D4",
          "velocity": 0.39,
          "startMs": 49565,
          "durationMs": 309
        },
        {
          "midi": 57,
          "name": "A3",
          "velocity": 0.39,
          "startMs": 49891,
          "durationMs": 309
        },
        {
          "midi": 54,
          "name": "F#3",
          "velocity": 0.39,
          "startMs": 50217,
          "durationMs": 309
        },
        {
          "midi": 57,
          "name": "A3",
          "velocity": 0.39,
          "startMs": 50543,
          "durationMs": 309
        },
        {
          "midi": 62,
          "name": "D4",
          "velocity": 0.39,
          "startMs": 50870,
          "durationMs": 308
        },
        {
          "midi": 57,
          "name": "A3",
          "velocity": 0.39,
          "startMs": 51196,
          "durationMs": 308
        },
        {
          "midi": 54,
          "name": "F#3",
          "velocity": 0.39,
          "startMs": 51522,
          "durationMs": 308
        },
        {
          "midi": 57,
          "name": "A3",
          "velocity": 0.39,
          "startMs": 51848,
          "durationMs": 308
        },
        {
          "midi": 64,
          "name": "E4",
          "velocity": 0.39,
          "startMs": 52174,
          "durationMs": 308
        },
        {
          "midi": 59,
          "name": "B3",
          "velocity": 0.39,
          "startMs": 52500,
          "durationMs": 308
        },
        {
          "midi": 55,
          "name": "G3",
          "velocity": 0.39,
          "startMs": 52826,
          "durationMs": 309
        },
        {
          "midi": 59,
          "name": "B3",
          "velocity": 0.39,
          "startMs": 53152,
          "durationMs": 309
        },
        {
          "midi": 64,
          "name": "E4",
          "velocity": 0.39,
          "startMs": 53478,
          "durationMs": 309
        },
        {
          "midi": 59,
          "name": "B3",
          "velocity": 0.39,
          "startMs": 53804,
          "durationMs": 309
        },
        {
          "midi": 55,
          "name": "G3",
          "velocity": 0.39,
          "startMs": 54130,
          "durationMs": 309
        },
        {
          "midi": 59,
          "name": "B3",
          "velocity": 0.39,
          "startMs": 54457,
          "durationMs": 308
        },
        {
          "midi": 62,
          "name": "D4",
          "velocity": 0.39,
          "startMs": 54783,
          "durationMs": 308
        },
        {
          "midi": 59,
          "name": "B3",
          "velocity": 0.39,
          "startMs": 55109,
          "durationMs": 308
        },
        {
          "midi": 55,
          "name": "G3",
          "velocity": 0.39,
          "startMs": 55435,
          "durationMs": 308
        },
        {
          "midi": 59,
          "name": "B3",
          "velocity": 0.39,
          "startMs": 55761,
          "durationMs": 308
        },
        {
          "midi": 62,
          "name": "D4",
          "velocity": 0.39,
          "startMs": 56087,
          "durationMs": 308
        },
        {
          "midi": 59,
          "name": "B3",
          "velocity": 0.39,
          "startMs": 56413,
          "durationMs": 308
        },
        {
          "midi": 55,
          "name": "G3",
          "velocity": 0.39,
          "startMs": 56739,
          "durationMs": 309
        },
        {
          "midi": 59,
          "name": "B3",
          "velocity": 0.39,
          "startMs": 57065,
          "durationMs": 309
        },
        {
          "midi": 62,
          "name": "D4",
          "velocity": 0.39,
          "startMs": 57391,
          "durationMs": 309
        },
        {
          "midi": 59,
          "name": "B3",
          "velocity": 0.39,
          "startMs": 57717,
          "durationMs": 309
        },
        {
          "midi": 54,
          "name": "F#3",
          "velocity": 0.39,
          "startMs": 58043,
          "durationMs": 309
        },
        {
          "midi": 59,
          "name": "B3",
          "velocity": 0.39,
          "startMs": 58370,
          "durationMs": 308
        },
        {
          "midi": 62,
          "name": "D4",
          "velocity": 0.39,
          "startMs": 58696,
          "durationMs": 308
        },
        {
          "midi": 59,
          "name": "B3",
          "velocity": 0.39,
          "startMs": 59022,
          "durationMs": 308
        },
        {
          "midi": 54,
          "name": "F#3",
          "velocity": 0.39,
          "startMs": 59348,
          "durationMs": 308
        },
        {
          "midi": 59,
          "name": "B3",
          "velocity": 0.39,
          "startMs": 59674,
          "durationMs": 308
        },
        {
          "midi": 62,
          "name": "D4",
          "velocity": 0.39,
          "startMs": 60000,
          "durationMs": 308
        },
        {
          "midi": 57,
          "name": "A3",
          "velocity": 0.39,
          "startMs": 60326,
          "durationMs": 309
        },
        {
          "midi": 54,
          "name": "F#3",
          "velocity": 0.39,
          "startMs": 60652,
          "durationMs": 309
        },
        {
          "midi": 57,
          "name": "A3",
          "velocity": 0.39,
          "startMs": 60978,
          "durationMs": 309
        },
        {
          "midi": 62,
          "name": "D4",
          "velocity": 0.39,
          "startMs": 61304,
          "durationMs": 309
        },
        {
          "midi": 57,
          "name": "A3",
          "velocity": 0.39,
          "startMs": 61630,
          "durationMs": 309
        },
        {
          "midi": 54,
          "name": "F#3",
          "velocity": 0.39,
          "startMs": 61957,
          "durationMs": 308
        },
        {
          "midi": 57,
          "name": "A3",
          "velocity": 0.39,
          "startMs": 62283,
          "durationMs": 308
        },
        {
          "midi": 64,
          "name": "E4",
          "velocity": 0.39,
          "startMs": 62609,
          "durationMs": 308
        },
        {
          "midi": 59,
          "name": "B3",
          "velocity": 0.39,
          "startMs": 62935,
          "durationMs": 308
        },
        {
          "midi": 55,
          "name": "G3",
          "velocity": 0.39,
          "startMs": 63261,
          "durationMs": 308
        },
        {
          "midi": 59,
          "name": "B3",
          "velocity": 0.39,
          "startMs": 63587,
          "durationMs": 308
        },
        {
          "midi": 64,
          "name": "E4",
          "velocity": 0.39,
          "startMs": 63913,
          "durationMs": 308
        },
        {
          "midi": 59,
          "name": "B3",
          "velocity": 0.39,
          "startMs": 64239,
          "durationMs": 309
        },
        {
          "midi": 55,
          "name": "G3",
          "velocity": 0.39,
          "startMs": 64565,
          "durationMs": 309
        },
        {
          "midi": 59,
          "name": "B3",
          "velocity": 0.39,
          "startMs": 64891,
          "durationMs": 309
        },
        {
          "midi": 62,
          "name": "D4",
          "velocity": 0.39,
          "startMs": 65217,
          "durationMs": 309
        },
        {
          "midi": 59,
          "name": "B3",
          "velocity": 0.39,
          "startMs": 65543,
          "durationMs": 309
        },
        {
          "midi": 55,
          "name": "G3",
          "velocity": 0.39,
          "startMs": 65870,
          "durationMs": 308
        },
        {
          "midi": 59,
          "name": "B3",
          "velocity": 0.39,
          "startMs": 66196,
          "durationMs": 308
        },
        {
          "midi": 62,
          "name": "D4",
          "velocity": 0.39,
          "startMs": 66522,
          "durationMs": 308
        },
        {
          "midi": 59,
          "name": "B3",
          "velocity": 0.39,
          "startMs": 66848,
          "durationMs": 308
        },
        {
          "midi": 55,
          "name": "G3",
          "velocity": 0.39,
          "startMs": 67174,
          "durationMs": 308
        },
        {
          "midi": 59,
          "name": "B3",
          "velocity": 0.39,
          "startMs": 67500,
          "durationMs": 308
        },
        {
          "midi": 62,
          "name": "D4",
          "velocity": 0.39,
          "startMs": 67826,
          "durationMs": 309
        },
        {
          "midi": 59,
          "name": "B3",
          "velocity": 0.39,
          "startMs": 68152,
          "durationMs": 309
        },
        {
          "midi": 54,
          "name": "F#3",
          "velocity": 0.39,
          "startMs": 68478,
          "durationMs": 309
        },
        {
          "midi": 59,
          "name": "B3",
          "velocity": 0.39,
          "startMs": 68804,
          "durationMs": 309
        },
        {
          "midi": 62,
          "name": "D4",
          "velocity": 0.39,
          "startMs": 69130,
          "durationMs": 309
        },
        {
          "midi": 59,
          "name": "B3",
          "velocity": 0.39,
          "startMs": 69457,
          "durationMs": 308
        },
        {
          "midi": 54,
          "name": "F#3",
          "velocity": 0.39,
          "startMs": 69783,
          "durationMs": 308
        },
        {
          "midi": 59,
          "name": "B3",
          "velocity": 0.39,
          "startMs": 70109,
          "durationMs": 308
        },
        {
          "midi": 62,
          "name": "D4",
          "velocity": 0.39,
          "startMs": 70435,
          "durationMs": 308
        },
        {
          "midi": 57,
          "name": "A3",
          "velocity": 0.39,
          "startMs": 70761,
          "durationMs": 308
        },
        {
          "midi": 54,
          "name": "F#3",
          "velocity": 0.39,
          "startMs": 71087,
          "durationMs": 308
        },
        {
          "midi": 57,
          "name": "A3",
          "velocity": 0.39,
          "startMs": 71413,
          "durationMs": 308
        },
        {
          "midi": 62,
          "name": "D4",
          "velocity": 0.39,
          "startMs": 71739,
          "durationMs": 309
        },
        {
          "midi": 57,
          "name": "A3",
          "velocity": 0.39,
          "startMs": 72065,
          "durationMs": 309
        },
        {
          "midi": 54,
          "name": "F#3",
          "velocity": 0.39,
          "startMs": 72391,
          "durationMs": 309
        },
        {
          "midi": 57,
          "name": "A3",
          "velocity": 0.39,
          "startMs": 72717,
          "durationMs": 309
        },
        {
          "midi": 64,
          "name": "E4",
          "velocity": 0.39,
          "startMs": 73043,
          "durationMs": 309
        },
        {
          "midi": 59,
          "name": "B3",
          "velocity": 0.39,
          "startMs": 73370,
          "durationMs": 308
        },
        {
          "midi": 55,
          "name": "G3",
          "velocity": 0.39,
          "startMs": 73696,
          "durationMs": 308
        },
        {
          "midi": 59,
          "name": "B3",
          "velocity": 0.39,
          "startMs": 74022,
          "durationMs": 308
        },
        {
          "midi": 64,
          "name": "E4",
          "velocity": 0.39,
          "startMs": 74348,
          "durationMs": 308
        },
        {
          "midi": 59,
          "name": "B3",
          "velocity": 0.39,
          "startMs": 74674,
          "durationMs": 308
        },
        {
          "midi": 55,
          "name": "G3",
          "velocity": 0.39,
          "startMs": 75000,
          "durationMs": 308
        },
        {
          "midi": 59,
          "name": "B3",
          "velocity": 0.39,
          "startMs": 75326,
          "durationMs": 309
        },
        {
          "midi": 62,
          "name": "D4",
          "velocity": 0.39,
          "startMs": 75652,
          "durationMs": 309
        },
        {
          "midi": 59,
          "name": "B3",
          "velocity": 0.39,
          "startMs": 75978,
          "durationMs": 309
        },
        {
          "midi": 55,
          "name": "G3",
          "velocity": 0.39,
          "startMs": 76304,
          "durationMs": 309
        },
        {
          "midi": 59,
          "name": "B3",
          "velocity": 0.39,
          "startMs": 76630,
          "durationMs": 309
        },
        {
          "midi": 62,
          "name": "D4",
          "velocity": 0.39,
          "startMs": 76957,
          "durationMs": 308
        },
        {
          "midi": 59,
          "name": "B3",
          "velocity": 0.39,
          "startMs": 77283,
          "durationMs": 308
        },
        {
          "midi": 55,
          "name": "G3",
          "velocity": 0.39,
          "startMs": 77609,
          "durationMs": 308
        },
        {
          "midi": 59,
          "name": "B3",
          "velocity": 0.39,
          "startMs": 77935,
          "durationMs": 308
        },
        {
          "midi": 62,
          "name": "D4",
          "velocity": 0.39,
          "startMs": 78261,
          "durationMs": 308
        },
        {
          "midi": 59,
          "name": "B3",
          "velocity": 0.39,
          "startMs": 78587,
          "durationMs": 308
        },
        {
          "midi": 54,
          "name": "F#3",
          "velocity": 0.39,
          "startMs": 78913,
          "durationMs": 308
        },
        {
          "midi": 59,
          "name": "B3",
          "velocity": 0.39,
          "startMs": 79239,
          "durationMs": 309
        },
        {
          "midi": 62,
          "name": "D4",
          "velocity": 0.39,
          "startMs": 79565,
          "durationMs": 309
        },
        {
          "midi": 59,
          "name": "B3",
          "velocity": 0.39,
          "startMs": 79891,
          "durationMs": 309
        },
        {
          "midi": 54,
          "name": "F#3",
          "velocity": 0.39,
          "startMs": 80217,
          "durationMs": 309
        },
        {
          "midi": 59,
          "name": "B3",
          "velocity": 0.39,
          "startMs": 80543,
          "durationMs": 309
        },
        {
          "midi": 62,
          "name": "D4",
          "velocity": 0.39,
          "startMs": 80870,
          "durationMs": 308
        },
        {
          "midi": 57,
          "name": "A3",
          "velocity": 0.39,
          "startMs": 81196,
          "durationMs": 308
        },
        {
          "midi": 54,
          "name": "F#3",
          "velocity": 0.39,
          "startMs": 81522,
          "durationMs": 308
        },
        {
          "midi": 57,
          "name": "A3",
          "velocity": 0.39,
          "startMs": 81848,
          "durationMs": 308
        },
        {
          "midi": 62,
          "name": "D4",
          "velocity": 0.39,
          "startMs": 82174,
          "durationMs": 308
        },
        {
          "midi": 57,
          "name": "A3",
          "velocity": 0.39,
          "startMs": 82500,
          "durationMs": 308
        },
        {
          "midi": 54,
          "name": "F#3",
          "velocity": 0.39,
          "startMs": 82826,
          "durationMs": 309
        },
        {
          "midi": 57,
          "name": "A3",
          "velocity": 0.39,
          "startMs": 83152,
          "durationMs": 309
        },
        {
          "midi": 64,
          "name": "E4",
          "velocity": 0.39,
          "startMs": 83478,
          "durationMs": 309
        },
        {
          "midi": 59,
          "name": "B3",
          "velocity": 0.39,
          "startMs": 83804,
          "durationMs": 309
        },
        {
          "midi": 55,
          "name": "G3",
          "velocity": 0.39,
          "startMs": 84130,
          "durationMs": 309
        },
        {
          "midi": 59,
          "name": "B3",
          "velocity": 0.39,
          "startMs": 84457,
          "durationMs": 308
        },
        {
          "midi": 64,
          "name": "E4",
          "velocity": 0.39,
          "startMs": 84783,
          "durationMs": 308
        },
        {
          "midi": 59,
          "name": "B3",
          "velocity": 0.39,
          "startMs": 85109,
          "durationMs": 308
        },
        {
          "midi": 55,
          "name": "G3",
          "velocity": 0.39,
          "startMs": 85435,
          "durationMs": 308
        },
        {
          "midi": 59,
          "name": "B3",
          "velocity": 0.39,
          "startMs": 85761,
          "durationMs": 308
        },
        {
          "midi": 62,
          "name": "D4",
          "velocity": 0.39,
          "startMs": 86087,
          "durationMs": 308
        },
        {
          "midi": 59,
          "name": "B3",
          "velocity": 0.39,
          "startMs": 86413,
          "durationMs": 308
        },
        {
          "midi": 55,
          "name": "G3",
          "velocity": 0.39,
          "startMs": 86739,
          "durationMs": 309
        },
        {
          "midi": 59,
          "name": "B3",
          "velocity": 0.39,
          "startMs": 87065,
          "durationMs": 309
        },
        {
          "midi": 62,
          "name": "D4",
          "velocity": 0.39,
          "startMs": 87391,
          "durationMs": 309
        },
        {
          "midi": 59,
          "name": "B3",
          "velocity": 0.39,
          "startMs": 87717,
          "durationMs": 309
        },
        {
          "midi": 55,
          "name": "G3",
          "velocity": 0.39,
          "startMs": 88043,
          "durationMs": 309
        },
        {
          "midi": 59,
          "name": "B3",
          "velocity": 0.39,
          "startMs": 88370,
          "durationMs": 308
        },
        {
          "midi": 62,
          "name": "D4",
          "velocity": 0.39,
          "startMs": 88696,
          "durationMs": 308
        },
        {
          "midi": 59,
          "name": "B3",
          "velocity": 0.39,
          "startMs": 89022,
          "durationMs": 308
        },
        {
          "midi": 54,
          "name": "F#3",
          "velocity": 0.39,
          "startMs": 89348,
          "durationMs": 308
        },
        {
          "midi": 59,
          "name": "B3",
          "velocity": 0.39,
          "startMs": 89674,
          "durationMs": 308
        },
        {
          "midi": 62,
          "name": "D4",
          "velocity": 0.39,
          "startMs": 90000,
          "durationMs": 308
        },
        {
          "midi": 59,
          "name": "B3",
          "velocity": 0.39,
          "startMs": 90326,
          "durationMs": 309
        },
        {
          "midi": 54,
          "name": "F#3",
          "velocity": 0.39,
          "startMs": 90652,
          "durationMs": 309
        },
        {
          "midi": 59,
          "name": "B3",
          "velocity": 0.39,
          "startMs": 90978,
          "durationMs": 309
        },
        {
          "midi": 62,
          "name": "D4",
          "velocity": 0.39,
          "startMs": 91304,
          "durationMs": 309
        },
        {
          "midi": 57,
          "name": "A3",
          "velocity": 0.39,
          "startMs": 91630,
          "durationMs": 309
        },
        {
          "midi": 54,
          "name": "F#3",
          "velocity": 0.39,
          "startMs": 91957,
          "durationMs": 308
        },
        {
          "midi": 57,
          "name": "A3",
          "velocity": 0.39,
          "startMs": 92283,
          "durationMs": 308
        },
        {
          "midi": 62,
          "name": "D4",
          "velocity": 0.39,
          "startMs": 92609,
          "durationMs": 308
        },
        {
          "midi": 57,
          "name": "A3",
          "velocity": 0.39,
          "startMs": 92935,
          "durationMs": 308
        },
        {
          "midi": 54,
          "name": "F#3",
          "velocity": 0.39,
          "startMs": 93261,
          "durationMs": 308
        },
        {
          "midi": 57,
          "name": "A3",
          "velocity": 0.39,
          "startMs": 93587,
          "durationMs": 308
        },
        {
          "midi": 64,
          "name": "E4",
          "velocity": 0.39,
          "startMs": 93913,
          "durationMs": 308
        },
        {
          "midi": 59,
          "name": "B3",
          "velocity": 0.39,
          "startMs": 94239,
          "durationMs": 309
        },
        {
          "midi": 55,
          "name": "G3",
          "velocity": 0.39,
          "startMs": 94565,
          "durationMs": 309
        },
        {
          "midi": 59,
          "name": "B3",
          "velocity": 0.39,
          "startMs": 94891,
          "durationMs": 309
        },
        {
          "midi": 64,
          "name": "E4",
          "velocity": 0.39,
          "startMs": 95217,
          "durationMs": 309
        },
        {
          "midi": 59,
          "name": "B3",
          "velocity": 0.39,
          "startMs": 95543,
          "durationMs": 309
        },
        {
          "midi": 55,
          "name": "G3",
          "velocity": 0.39,
          "startMs": 95870,
          "durationMs": 308
        },
        {
          "midi": 59,
          "name": "B3",
          "velocity": 0.39,
          "startMs": 96196,
          "durationMs": 308
        },
        {
          "midi": 62,
          "name": "D4",
          "velocity": 0.39,
          "startMs": 96522,
          "durationMs": 308
        },
        {
          "midi": 59,
          "name": "B3",
          "velocity": 0.39,
          "startMs": 96848,
          "durationMs": 308
        },
        {
          "midi": 55,
          "name": "G3",
          "velocity": 0.39,
          "startMs": 97174,
          "durationMs": 308
        },
        {
          "midi": 59,
          "name": "B3",
          "velocity": 0.39,
          "startMs": 97500,
          "durationMs": 308
        },
        {
          "midi": 62,
          "name": "D4",
          "velocity": 0.39,
          "startMs": 97826,
          "durationMs": 309
        },
        {
          "midi": 59,
          "name": "B3",
          "velocity": 0.39,
          "startMs": 98152,
          "durationMs": 309
        },
        {
          "midi": 55,
          "name": "G3",
          "velocity": 0.39,
          "startMs": 98478,
          "durationMs": 309
        },
        {
          "midi": 59,
          "name": "B3",
          "velocity": 0.39,
          "startMs": 98804,
          "durationMs": 309
        },
        {
          "midi": 62,
          "name": "D4",
          "velocity": 0.39,
          "startMs": 99130,
          "durationMs": 309
        },
        {
          "midi": 59,
          "name": "B3",
          "velocity": 0.39,
          "startMs": 99457,
          "durationMs": 308
        },
        {
          "midi": 54,
          "name": "F#3",
          "velocity": 0.39,
          "startMs": 99783,
          "durationMs": 308
        },
        {
          "midi": 59,
          "name": "B3",
          "velocity": 0.39,
          "startMs": 100109,
          "durationMs": 308
        },
        {
          "midi": 62,
          "name": "D4",
          "velocity": 0.39,
          "startMs": 100435,
          "durationMs": 308
        },
        {
          "midi": 59,
          "name": "B3",
          "velocity": 0.39,
          "startMs": 100761,
          "durationMs": 308
        },
        {
          "midi": 54,
          "name": "F#3",
          "velocity": 0.39,
          "startMs": 101087,
          "durationMs": 308
        },
        {
          "midi": 59,
          "name": "B3",
          "velocity": 0.39,
          "startMs": 101413,
          "durationMs": 308
        },
        {
          "midi": 62,
          "name": "D4",
          "velocity": 0.39,
          "startMs": 101739,
          "durationMs": 309
        },
        {
          "midi": 57,
          "name": "A3",
          "velocity": 0.39,
          "startMs": 102065,
          "durationMs": 309
        },
        {
          "midi": 54,
          "name": "F#3",
          "velocity": 0.39,
          "startMs": 102391,
          "durationMs": 309
        },
        {
          "midi": 57,
          "name": "A3",
          "velocity": 0.39,
          "startMs": 102717,
          "durationMs": 309
        },
        {
          "midi": 62,
          "name": "D4",
          "velocity": 0.39,
          "startMs": 103043,
          "durationMs": 309
        },
        {
          "midi": 57,
          "name": "A3",
          "velocity": 0.39,
          "startMs": 103370,
          "durationMs": 308
        },
        {
          "midi": 54,
          "name": "F#3",
          "velocity": 0.39,
          "startMs": 103696,
          "durationMs": 308
        },
        {
          "midi": 57,
          "name": "A3",
          "velocity": 0.39,
          "startMs": 104022,
          "durationMs": 308
        },
        {
          "midi": 64,
          "name": "E4",
          "velocity": 0.39,
          "startMs": 104348,
          "durationMs": 308
        },
        {
          "midi": 59,
          "name": "B3",
          "velocity": 0.39,
          "startMs": 104674,
          "durationMs": 308
        },
        {
          "midi": 55,
          "name": "G3",
          "velocity": 0.39,
          "startMs": 105000,
          "durationMs": 308
        },
        {
          "midi": 59,
          "name": "B3",
          "velocity": 0.39,
          "startMs": 105326,
          "durationMs": 309
        },
        {
          "midi": 64,
          "name": "E4",
          "velocity": 0.39,
          "startMs": 105652,
          "durationMs": 309
        },
        {
          "midi": 59,
          "name": "B3",
          "velocity": 0.39,
          "startMs": 105978,
          "durationMs": 309
        },
        {
          "midi": 55,
          "name": "G3",
          "velocity": 0.39,
          "startMs": 106304,
          "durationMs": 309
        },
        {
          "midi": 59,
          "name": "B3",
          "velocity": 0.39,
          "startMs": 106630,
          "durationMs": 309
        },
        {
          "midi": 62,
          "name": "D4",
          "velocity": 0.39,
          "startMs": 106957,
          "durationMs": 308
        },
        {
          "midi": 59,
          "name": "B3",
          "velocity": 0.39,
          "startMs": 107283,
          "durationMs": 308
        },
        {
          "midi": 55,
          "name": "G3",
          "velocity": 0.39,
          "startMs": 107609,
          "durationMs": 308
        },
        {
          "midi": 59,
          "name": "B3",
          "velocity": 0.39,
          "startMs": 107935,
          "durationMs": 308
        },
        {
          "midi": 62,
          "name": "D4",
          "velocity": 0.39,
          "startMs": 108261,
          "durationMs": 308
        },
        {
          "midi": 59,
          "name": "B3",
          "velocity": 0.39,
          "startMs": 108587,
          "durationMs": 308
        },
        {
          "midi": 55,
          "name": "G3",
          "velocity": 0.39,
          "startMs": 108913,
          "durationMs": 308
        },
        {
          "midi": 59,
          "name": "B3",
          "velocity": 0.39,
          "startMs": 109239,
          "durationMs": 309
        },
        {
          "midi": 62,
          "name": "D4",
          "velocity": 0.39,
          "startMs": 109565,
          "durationMs": 309
        },
        {
          "midi": 59,
          "name": "B3",
          "velocity": 0.39,
          "startMs": 109891,
          "durationMs": 309
        },
        {
          "midi": 54,
          "name": "F#3",
          "velocity": 0.39,
          "startMs": 110217,
          "durationMs": 309
        },
        {
          "midi": 59,
          "name": "B3",
          "velocity": 0.39,
          "startMs": 110543,
          "durationMs": 309
        },
        {
          "midi": 62,
          "name": "D4",
          "velocity": 0.39,
          "startMs": 110870,
          "durationMs": 308
        },
        {
          "midi": 59,
          "name": "B3",
          "velocity": 0.39,
          "startMs": 111196,
          "durationMs": 308
        },
        {
          "midi": 54,
          "name": "F#3",
          "velocity": 0.39,
          "startMs": 111522,
          "durationMs": 308
        },
        {
          "midi": 59,
          "name": "B3",
          "velocity": 0.39,
          "startMs": 111848,
          "durationMs": 308
        },
        {
          "midi": 62,
          "name": "D4",
          "velocity": 0.39,
          "startMs": 112174,
          "durationMs": 308
        },
        {
          "midi": 57,
          "name": "A3",
          "velocity": 0.39,
          "startMs": 112500,
          "durationMs": 308
        },
        {
          "midi": 54,
          "name": "F#3",
          "velocity": 0.39,
          "startMs": 112826,
          "durationMs": 309
        },
        {
          "midi": 57,
          "name": "A3",
          "velocity": 0.39,
          "startMs": 113152,
          "durationMs": 309
        },
        {
          "midi": 62,
          "name": "D4",
          "velocity": 0.39,
          "startMs": 113478,
          "durationMs": 309
        },
        {
          "midi": 57,
          "name": "A3",
          "velocity": 0.39,
          "startMs": 113804,
          "durationMs": 309
        },
        {
          "midi": 54,
          "name": "F#3",
          "velocity": 0.39,
          "startMs": 114130,
          "durationMs": 309
        },
        {
          "midi": 57,
          "name": "A3",
          "velocity": 0.39,
          "startMs": 114457,
          "durationMs": 308
        },
        {
          "midi": 64,
          "name": "E4",
          "velocity": 0.39,
          "startMs": 114783,
          "durationMs": 308
        },
        {
          "midi": 59,
          "name": "B3",
          "velocity": 0.39,
          "startMs": 115109,
          "durationMs": 308
        },
        {
          "midi": 55,
          "name": "G3",
          "velocity": 0.39,
          "startMs": 115435,
          "durationMs": 308
        },
        {
          "midi": 59,
          "name": "B3",
          "velocity": 0.39,
          "startMs": 115761,
          "durationMs": 308
        },
        {
          "midi": 64,
          "name": "E4",
          "velocity": 0.39,
          "startMs": 116087,
          "durationMs": 308
        },
        {
          "midi": 59,
          "name": "B3",
          "velocity": 0.39,
          "startMs": 116413,
          "durationMs": 308
        },
        {
          "midi": 55,
          "name": "G3",
          "velocity": 0.39,
          "startMs": 116739,
          "durationMs": 309
        },
        {
          "midi": 59,
          "name": "B3",
          "velocity": 0.39,
          "startMs": 117065,
          "durationMs": 309
        },
        {
          "midi": 62,
          "name": "D4",
          "velocity": 0.39,
          "startMs": 117391,
          "durationMs": 309
        },
        {
          "midi": 59,
          "name": "B3",
          "velocity": 0.39,
          "startMs": 117717,
          "durationMs": 309
        },
        {
          "midi": 55,
          "name": "G3",
          "velocity": 0.39,
          "startMs": 118043,
          "durationMs": 309
        },
        {
          "midi": 59,
          "name": "B3",
          "velocity": 0.39,
          "startMs": 118370,
          "durationMs": 308
        },
        {
          "midi": 62,
          "name": "D4",
          "velocity": 0.39,
          "startMs": 118696,
          "durationMs": 308
        },
        {
          "midi": 59,
          "name": "B3",
          "velocity": 0.39,
          "startMs": 119022,
          "durationMs": 308
        },
        {
          "midi": 55,
          "name": "G3",
          "velocity": 0.39,
          "startMs": 119348,
          "durationMs": 308
        },
        {
          "midi": 59,
          "name": "B3",
          "velocity": 0.39,
          "startMs": 119674,
          "durationMs": 308
        },
        {
          "midi": 62,
          "name": "D4",
          "velocity": 0.39,
          "startMs": 120000,
          "durationMs": 308
        },
        {
          "midi": 59,
          "name": "B3",
          "velocity": 0.39,
          "startMs": 120326,
          "durationMs": 309
        },
        {
          "midi": 54,
          "name": "F#3",
          "velocity": 0.39,
          "startMs": 120652,
          "durationMs": 309
        },
        {
          "midi": 59,
          "name": "B3",
          "velocity": 0.39,
          "startMs": 120978,
          "durationMs": 309
        },
        {
          "midi": 62,
          "name": "D4",
          "velocity": 0.39,
          "startMs": 121304,
          "durationMs": 309
        },
        {
          "midi": 59,
          "name": "B3",
          "velocity": 0.39,
          "startMs": 121630,
          "durationMs": 309
        },
        {
          "midi": 54,
          "name": "F#3",
          "velocity": 0.39,
          "startMs": 121957,
          "durationMs": 308
        },
        {
          "midi": 59,
          "name": "B3",
          "velocity": 0.39,
          "startMs": 122283,
          "durationMs": 308
        },
        {
          "midi": 62,
          "name": "D4",
          "velocity": 0.39,
          "startMs": 122609,
          "durationMs": 308
        },
        {
          "midi": 57,
          "name": "A3",
          "velocity": 0.39,
          "startMs": 122935,
          "durationMs": 308
        },
        {
          "midi": 54,
          "name": "F#3",
          "velocity": 0.39,
          "startMs": 123261,
          "durationMs": 308
        },
        {
          "midi": 57,
          "name": "A3",
          "velocity": 0.39,
          "startMs": 123587,
          "durationMs": 308
        },
        {
          "midi": 62,
          "name": "D4",
          "velocity": 0.39,
          "startMs": 123913,
          "durationMs": 308
        },
        {
          "midi": 57,
          "name": "A3",
          "velocity": 0.39,
          "startMs": 124239,
          "durationMs": 309
        },
        {
          "midi": 54,
          "name": "F#3",
          "velocity": 0.39,
          "startMs": 124565,
          "durationMs": 309
        },
        {
          "midi": 57,
          "name": "A3",
          "velocity": 0.39,
          "startMs": 124891,
          "durationMs": 309
        },
        {
          "midi": 64,
          "name": "E4",
          "velocity": 0.39,
          "startMs": 125217,
          "durationMs": 309
        },
        {
          "midi": 59,
          "name": "B3",
          "velocity": 0.39,
          "startMs": 125543,
          "durationMs": 309
        },
        {
          "midi": 55,
          "name": "G3",
          "velocity": 0.39,
          "startMs": 125870,
          "durationMs": 308
        },
        {
          "midi": 59,
          "name": "B3",
          "velocity": 0.39,
          "startMs": 126196,
          "durationMs": 308
        },
        {
          "midi": 64,
          "name": "E4",
          "velocity": 0.39,
          "startMs": 126522,
          "durationMs": 308
        },
        {
          "midi": 59,
          "name": "B3",
          "velocity": 0.39,
          "startMs": 126848,
          "durationMs": 308
        },
        {
          "midi": 55,
          "name": "G3",
          "velocity": 0.39,
          "startMs": 127174,
          "durationMs": 308
        },
        {
          "midi": 59,
          "name": "B3",
          "velocity": 0.39,
          "startMs": 127500,
          "durationMs": 308
        },
        {
          "midi": 62,
          "name": "D4",
          "velocity": 0.39,
          "startMs": 127826,
          "durationMs": 309
        },
        {
          "midi": 59,
          "name": "B3",
          "velocity": 0.39,
          "startMs": 128152,
          "durationMs": 309
        },
        {
          "midi": 55,
          "name": "G3",
          "velocity": 0.39,
          "startMs": 128478,
          "durationMs": 309
        },
        {
          "midi": 59,
          "name": "B3",
          "velocity": 0.39,
          "startMs": 128804,
          "durationMs": 309
        },
        {
          "midi": 62,
          "name": "D4",
          "velocity": 0.39,
          "startMs": 129130,
          "durationMs": 309
        },
        {
          "midi": 59,
          "name": "B3",
          "velocity": 0.39,
          "startMs": 129457,
          "durationMs": 308
        },
        {
          "midi": 55,
          "name": "G3",
          "velocity": 0.39,
          "startMs": 129783,
          "durationMs": 308
        },
        {
          "midi": 59,
          "name": "B3",
          "velocity": 0.39,
          "startMs": 130109,
          "durationMs": 308
        },
        {
          "midi": 62,
          "name": "D4",
          "velocity": 0.39,
          "startMs": 130435,
          "durationMs": 308
        },
        {
          "midi": 59,
          "name": "B3",
          "velocity": 0.39,
          "startMs": 130761,
          "durationMs": 308
        },
        {
          "midi": 54,
          "name": "F#3",
          "velocity": 0.39,
          "startMs": 131087,
          "durationMs": 308
        },
        {
          "midi": 59,
          "name": "B3",
          "velocity": 0.39,
          "startMs": 131413,
          "durationMs": 308
        },
        {
          "midi": 62,
          "name": "D4",
          "velocity": 0.39,
          "startMs": 131739,
          "durationMs": 309
        },
        {
          "midi": 59,
          "name": "B3",
          "velocity": 0.39,
          "startMs": 132065,
          "durationMs": 309
        },
        {
          "midi": 54,
          "name": "F#3",
          "velocity": 0.39,
          "startMs": 132391,
          "durationMs": 309
        },
        {
          "midi": 59,
          "name": "B3",
          "velocity": 0.39,
          "startMs": 132717,
          "durationMs": 309
        },
        {
          "midi": 62,
          "name": "D4",
          "velocity": 0.39,
          "startMs": 133043,
          "durationMs": 309
        },
        {
          "midi": 57,
          "name": "A3",
          "velocity": 0.39,
          "startMs": 133370,
          "durationMs": 308
        },
        {
          "midi": 54,
          "name": "F#3",
          "velocity": 0.39,
          "startMs": 133696,
          "durationMs": 308
        },
        {
          "midi": 57,
          "name": "A3",
          "velocity": 0.39,
          "startMs": 134022,
          "durationMs": 308
        },
        {
          "midi": 62,
          "name": "D4",
          "velocity": 0.39,
          "startMs": 134348,
          "durationMs": 308
        },
        {
          "midi": 57,
          "name": "A3",
          "velocity": 0.39,
          "startMs": 134674,
          "durationMs": 308
        },
        {
          "midi": 54,
          "name": "F#3",
          "velocity": 0.39,
          "startMs": 135000,
          "durationMs": 308
        },
        {
          "midi": 57,
          "name": "A3",
          "velocity": 0.39,
          "startMs": 135326,
          "durationMs": 309
        },
        {
          "midi": 52,
          "name": "E3",
          "velocity": 0.39,
          "startMs": 135652,
          "durationMs": 2477
        },
        {
          "midi": 59,
          "name": "B3",
          "velocity": 0.39,
          "startMs": 135652,
          "durationMs": 2477
        },
        {
          "midi": 64,
          "name": "E4",
          "velocity": 0.39,
          "startMs": 135652,
          "durationMs": 2477
        }
      ]
    }
  ]
}