{
  "id": "b9be6a5c98438589c3eaca970385f0a5",
  "ticksPerQuarter": 480,
  "durationMs": 223487,
  "tempoChanges": [
    {
      "tick": 0,
      "bpm": 190
    },
    {
      "tick": 28800,
      "bpm": 190
    },
    {
      "tick": 145920,
      "bpm": 65
    },
    {
      "tick": 183360,
      "bpm": 113
    }
  ],
  "timeSignature": {
    "numerator": 2,
    "denominator": 2
  },
  "timeSignatureChanges": [
    {
      "tick": 0,
      "numerator": 2,
      "denominator": 2
    },
    {
      "tick": 145920,
      "numerator": 3,
      "denominator": 4
    },
    {
      "tick": 183360,
      "numerator": 3,
      "denominator": 8
    }
  ],
  "tracks": [
    {
      "hand": "right",
      "notes": [
        {
          "midi": 72,
          "name": "C5",
          "velocity": 0.76,
          "startMs": 0,
          "durationMs": 316,
          "noteDuration": "quarter",
          "measureIndex": 0,
          "beatInMeasure": 0,
          "isRest": false
        },
        {
          "midi": 76,
          "name": "E5",
          "velocity": 0.76,
          "startMs": 316,
          "durationMs": 158,
          "noteDuration": "eighth",
          "measureIndex": 0,
          "beatInMeasure": 2,
          "isRest": false
        },
        {
          "midi": 72,
          "name": "C5",
          "velocity": 0.76,
          "startMs": 474,
          "durationMs": 158,
          "noteDuration": "eighth",
          "measureIndex": 0,
          "beatInMeasure": 3,
          "isRest": false
        },
        {
          "midi": 67,
          "name": "G4",
          "velocity": 0.76,
          "startMs": 632,
          "durationMs": 157,
          "noteDuration": "quarter",
          "measureIndex": 0,
          "beatInMeasure": 4,
          "isRest": false
        },
        {
          "midi": 67,
          "name": "G4",
          "velocity": 0.76,
          "startMs": 947,
          "durationMs": 158,
          "noteDuration": "quarter",
          "measureIndex": 0,
          "beatInMeasure": 6,
          "isRest": false
        },
        {
          "midi": 72,
          "name": "C5",
          "velocity": 0.76,
          "startMs": 1263,
          "durationMs": 316,
          "noteDuration": "quarter",
          "measureIndex": 1,
          "beatInMeasure": 0,
          "isRest": false
        },
        {
          "midi": 76,
          "name": "E5",
          "velocity": 0.76,
          "startMs": 1579,
          "durationMs": 158,
          "noteDuration": "eighth",
          "measureIndex": 1,
          "beatInMeasure": 2,
          "isRest": false
        },
        {
          "midi": 72,
          "name": "C5",
          "velocity": 0.76,
          "startMs": 1737,
          "durationMs": 158,
          "noteDuration": "eighth",
          "measureIndex": 1,
          "beatInMeasure": 3,
          "isRest": false
        },
        {
          "midi": 67,
          "name": "G4",
          "velocity": 0.76,
          "startMs": 1895,
          "durationMs": 158,
          "noteDuration": "quarter",
          "measureIndex": 1,
          "beatInMeasure": 4,
          "isRest": false
        },
        {
          "midi": 79,
          "name": "G5",
          "velocity": 0.76,
          "startMs": 2211,
          "durationMs": 315,
          "noteDuration": "quarter",
          "measureIndex": 1,
          "beatInMeasure": 6,
          "isRest": false
        },
        {
          "midi": 77,
          "name": "F5",
          "velocity": 0.76,
          "startMs": 2526,
          "durationMs": 158,
          "noteDuration": "eighth",
          "measureIndex": 2,
          "beatInMeasure": 0,
          "isRest": false
        },
        {
          "midi": 76,
          "name": "E5",
          "velocity": 0.76,
          "startMs": 2684,
          "durationMs": 158,
          "noteDuration": "eighth",
          "measureIndex": 2,
          "beatInMeasure": 1,
          "isRest": false
        },
        {
          "midi": 74,
          "name": "D5",
          "velocity": 0.76,
          "startMs": 2842,
          "durationMs": 158,
          "noteDuration": "eighth",
          "measureIndex": 2,
          "beatInMeasure": 2,
          "isRest": false
        },
        {
          "midi": 72,
          "name": "C5",
          "velocity": 0.76,
          "startMs": 3000,
          "durationMs": 158,
          "noteDuration": "eighth",
          "measureIndex": 2,
          "beatInMeasure": 3,
          "isRest": false
        },
        {
          "midi": 71,
          "name": "B4",
          "velocity": 0.76,
          "startMs": 3158,
          "durationMs": 158,
          "noteDuration": "eighth",
          "measureIndex": 2,
          "beatInMeasure": 4,
          "isRest": false
        },
        {
          "midi": 72,
          "name": "C5",
          "velocity": 0.76,
          "startMs": 3316,
          "durationMs": 158,
          "noteDuration": "eighth",
          "measureIndex": 2,
          "beatInMeasure": 5,
          "isRest": false
        },
        {
          "midi": 71,
          "name": "B4",
          "velocity": 0.76,
          "startMs": 3474,
          "durationMs": 158,
          "noteDuration": "eighth",
          "measureIndex": 2,
          "beatInMeasure": 6,
          "isRest": false
        },
        {
          "midi": 72,
          "name": "C5",
          "velocity": 0.76,
          "startMs": 3632,
          "durationMs": 157,
          "noteDuration": "eighth",
          "measureIndex": 2,
          "beatInMeasure": 7,
          "isRest": false
        },
        {
          "midi": 74,
          "name": "D5",
          "velocity": 0.76,
          "startMs": 3789,
          "durationMs": 158,
          "noteDuration": "eighth",
          "measureIndex": 3,
          "beatInMeasure": 0,
          "isRest": false
        },
        {
          "midi": 72,
          "name": "C5",
          "velocity": 0.76,
          "startMs": 3947,
          "durationMs": 158,
          "noteDuration": "eighth",
          "measureIndex": 3,
          "beatInMeasure": 1,
          "isRest": false
        },
        {
          "midi": 71,
          "name": "B4",
          "velocity": 0.76,
          "startMs": 4105,
          "durationMs": 158,
          "noteDuration": "eighth",
          "measureIndex": 3,
          "beatInMeasure": 2,
          "isRest": false
        },
        {
          "midi": 69,
          "name": "A4",
          "velocity": 0.76,
          "startMs": 4263,
          "durationMs": 158,
          "noteDuration": "eighth",
          "measureIndex": 3,
          "beatInMeasure": 3,
          "isRest": false
        },
        {
          "midi": 67,
          "name": "G4",
          "velocity": 0.76,
          "startMs": 4421,
          "durationMs": 316,
          "noteDuration": "half",
          "measureIndex": 3,
          "beatInMeasure": 4,
          "isRest": false
        },
        {
          "midi": 72,
          "name": "C5",
          "velocity": 0.39,
          "startMs": 5053,
          "durationMs": 315,
          "noteDuration": "quarter",
          "measureIndex": 4,
          "beatInMeasure": 0,
          "isRest": false
        },
        {
          "midi": 76,
          "name": "E5",
          "velocity": 0.39,
          "startMs": 5368,
          "durationMs": 158,
          "noteDuration": "eighth",
          "measureIndex": 4,
          "beatInMeasure": 2,
          "isRest": false
        },
        {
          "midi": 72,
          "name": "C5",
          "velocity": 0.39,
          "startMs": 5526,
          "durationMs": 158,
          "noteDuration": "eighth",
          "measureIndex": 4,
          "beatInMeasure": 3,
          "isRest": false
        },
        {
          "midi": 67,
          "name": "G4",
          "velocity": 0.39,
          "startMs": 5684,
          "durationMs": 158,
          "noteDuration": "quarter",
          "measureIndex": 4,
          "beatInMeasure": 4,
          "isRest": false
        },
        {
          "midi": 67,
          "name": "G4",
          "velocity": 0.39,
          "startMs": 6000,
          "durationMs": 158,
          "noteDuration": "quarter",
          "measureIndex": 4,
          "beatInMeasure": 6,
          "isRest": false
        },
        {
          "midi": 76,
          "name": "E5",
          "velocity": 0.39,
          "startMs": 6316,
          "durationMs": 316,
          "noteDuration": "quarter",
          "measureIndex": 5,
          "beatInMeasure": 0,
          "isRest": false
        },
        {
          "midi": 79,
          "name": "G5",
          "velocity": 0.39,
          "startMs": 6632,
          "durationMs": 157,
          "noteDuration": "eighth",
          "measureIndex": 5,
          "beatInMeasure": 2,
          "isRest": false
        },
        {
          "midi": 76,
          "name": "E5",
          "velocity": 0.39,
          "startMs": 6789,
          "durationMs": 158,
          "noteDuration": "eighth",
          "measureIndex": 5,
          "beatInMeasure": 3,
          "isRest": false
        },
        {
          "midi": 72,
          "name": "C5",
          "velocity": 0.39,
          "startMs": 6947,
          "durationMs": 158,
          "noteDuration": "quarter",
          "measureIndex": 5,
          "beatInMeasure": 4,
          "isRest": false
        },
        {
          "midi": 76,
          "name": "E5",
          "velocity": 0.39,
          "startMs": 7263,
          "durationMs": 158,
          "noteDuration": "eighth",
          "measureIndex": 5,
          "beatInMeasure": 6,
          "isRest": false
        },
        {
          "midi": 72,
          "name": "C5",
          "velocity": 0.39,
          "startMs": 7421,
          "durationMs": 158,
          "noteDuration": "eighth",
          "measureIndex": 5,
          "beatInMeasure": 7,
          "isRest": false
        },
        {
          "midi": 74,
          "name": "D5",
          "velocity": 0.39,
          "startMs": 7579,
          "durationMs": 158,
          "noteDuration": "eighth",
          "measureIndex": 6,
          "beatInMeasure": 0,
          "isRest": false
        },
        {
          "midi": 71,
          "name": "B4",
          "velocity": 0.39,
          "startMs": 7737,
          "durationMs": 158,
          "noteDuration": "eighth",
          "measureIndex": 6,
          "beatInMeasure": 1,
          "isRest": false
        },
        {
          "midi": 72,
          "name": "C5",
          "velocity": 0.39,
          "startMs": 7895,
          "durationMs": 158,
          "noteDuration": "eighth",
          "measureIndex": 6,
          "beatInMeasure": 2,
          "isRest": false
        },
        {
          "midi": 69,
          "name": "A4",
          "velocity": 0.39,
          "startMs": 8053,
          "durationMs": 158,
          "noteDuration": "eighth",
          "measureIndex": 6,
          "beatInMeasure": 3,
          "isRest": false
        },
        {
          "midi": 71,
          "name": "B4",
          "velocity": 0.39,
          "startMs": 8211,
          "durationMs": 157,
          "noteDuration": "eighth",
          "measureIndex": 6,
          "beatInMeasure": 4,
          "isRest": false
        },
        {
          "midi": 67,
          "name": "G4",
          "velocity": 0.39,
          "startMs": 8368,
          "durationMs": 158,
          "noteDuration": "eighth",
          "measureIndex": 6,
          "beatInMeasure": 5,
          "isRest": false
        },
        {
          "midi": 69,
          "name": "A4",
          "velocity": 0.39,
          "startMs": 8526,
          "durationMs": 158,
          "noteDuration": "eighth",
          "measureIndex": 6,
          "beatInMeasure": 6,
          "isRest": false
        },
        {
          "midi": 66,
          "name": "F#4",
          "velocity": 0.39,
          "startMs": 8684,
          "durationMs": 158,
          "noteDuration": "eighth",
          "measureIndex": 6,
          "beatInMeasure": 7,
          "isRest": false
        },
        {
          "midi": 67,
          "name": "G4",
          "velocity": 0.76,
          "startMs": 8842,
          "durationMs": 158,
          "noteDuration": "eighth",
          "measureIndex": 7,
          "beatInMeasure": 0,
          "isRest": false
        },
        {
          "midi": 69,
          "name": "A4",
          "velocity": 0.76,
          "startMs": 9000,
          "durationMs": 158,
          "noteDuration": "eighth",
          "measureIndex": 7,
          "beatInMeasure": 1,
          "isRest": false
        },
        {
          "midi": 71,
          "name": "B4",
          "velocity": 0.76,
          "startMs": 9158,
          "durationMs": 158,
          "noteDuration": "eighth",
          "measureIndex": 7,
          "beatInMeasure": 2,
          "isRest": false
        },
        {
          "midi": 72,
          "name": "C5",
          "velocity": 0.76,
          "startMs": 9316,
          "durationMs": 158,
          "noteDuration": "eighth",
          "measureIndex": 7,
          "beatInMeasure": 3,
          "isRest": false
        },
        {
          "midi": 74,
          "name": "D5",
          "velocity": 0.76,
          "startMs": 9474,
          "durationMs": 158,
          "noteDuration": "eighth",
          "measureIndex": 7,
          "beatInMeasure": 4,
          "isRest": false
        },
        {
          "midi": 76,
          "name": "E5",
          "velocity": 0.76,
          "startMs": 9632,
          "durationMs": 157,
          "noteDuration": "eighth",
          "measureIndex": 7,
          "beatInMeasure": 5,
          "isRest": false
        },
        {
          "midi": 78,
          "name": "F#5",
          "velocity": 0.76,
          "startMs": 9789,
          "durationMs": 158,
          "noteDuration": "eighth",
          "measureIndex": 7,
          "beatInMeasure": 6,
          "isRest": false
        },
        {
          "midi": 79,
          "name": "G5",
          "velocity": 0.76,
          "startMs": 9947,
          "durationMs": 158,
          "noteDuration": "eighth",
          "measureIndex": 7,
          "beatInMeasure": 7,
          "isRest": false
        },
        {
          "midi": 69,
          "name": "A4",
          "velocity": 0.76,
          "startMs": 10105,
          "durationMs": 316,
          "noteDuration": "quarter",
          "measureIndex": 8,
          "beatInMeasure": 0,
          "isRest": false
        },
        {
          "midi": 81,
          "name": "A5",
          "velocity": 0.76,
          "startMs": 10421,
          "durationMs": 158,
          "noteDuration": "quarter",
          "measureIndex": 8,
          "beatInMeasure": 2,
          "isRest": false
        },
        {
          "midi": 81,
          "name": "A5",
          "velocity": 0.76,
          "startMs": 10737,
          "durationMs": 158,
          "noteDuration": "quarter",
          "measureIndex": 8,
          "beatInMeasure": 4,
          "isRest": false
        },
        {
          "midi": 81,
          "name": "A5",
          "velocity": 0.76,
          "startMs": 11053,
          "durationMs": 158,
          "noteDuration": "quarter",
          "measureIndex": 8,
          "beatInMeasure": 6,
          "isRest": false
        },
        {
          "midi": 71,
          "name": "B4",
          "velocity": 0.76,
          "startMs": 11368,
          "durationMs": 158,
          "noteDuration": "eighth",
          "measureIndex": 9,
          "beatInMeasure": 0,
          "isRest": false
        },
        {
          "midi": 72,
          "name": "C5",
          "velocity": 0.76,
          "startMs": 11526,
          "durationMs": 158,
          "noteDuration": "eighth",
          "measureIndex": 9,
          "beatInMeasure": 1,
          "isRest": false
        },
        {
          "midi": 74,
          "name": "D5",
          "velocity": 0.76,
          "startMs": 11684,
          "durationMs": 158,
          "noteDuration": "eighth",
          "measureIndex": 9,
          "beatInMeasure": 2,
          "isRest": false
        },
        {
          "midi": 76,
          "name": "E5",
          "velocity": 0.76,
          "startMs": 11842,
          "durationMs": 158,
          "noteDuration": "eighth",
          "measureIndex": 9,
          "beatInMeasure": 3,
          "isRest": false
        },
        {
          "midi": 78,
          "name": "F#5",
          "velocity": 0.76,
          "startMs": 12000,
          "durationMs": 158,
          "noteDuration": "eighth",
          "measureIndex": 9,
          "beatInMeasure": 4,
          "isRest": false
        },
        {
          "midi": 79,
          "name": "G5",
          "velocity": 0.76,
          "startMs": 12158,
          "durationMs": 158,
          "noteDuration": "eighth",
          "measureIndex": 9,
          "beatInMeasure": 5,
          "isRest": false
        },
        {
          "midi": 81,
          "name": "A5",
          "velocity": 0.76,
          "startMs": 12316,
          "durationMs": 158,
          "noteDuration": "eighth",
          "measureIndex": 9,
          "beatInMeasure": 6,
          "isRest": false
        },
        {
          "midi": 83,
          "name": "B5",
          "velocity": 0.76,
          "startMs": 12474,
          "durationMs": 158,
          "noteDuration": "eighth",
          "measureIndex": 9,
          "beatInMeasure": 7,
          "isRest": false
        },
        {
          "midi": 72,
          "name": "C5",
          "velocity": 0.76,
          "startMs": 12632,
          "durationMs": 315,
          "noteDuration": "quarter",
          "measureIndex": 10,
          "beatInMeasure": 0,
          "isRest": false
        },
        {
          "midi": 84,
          "name": "C6",
          "velocity": 0.76,
          "startMs": 12947,
          "durationMs": 158,
          "noteDuration": "quarter",
          "measureIndex": 10,
          "beatInMeasure": 2,
          "isRest": false
        },
        {
          "midi": 84,
          "name": "C6",
          "velocity": 0.76,
          "startMs": 13263,
          "durationMs": 158,
          "noteDuration": "quarter",
          "measureIndex": 10,
          "beatInMeasure": 4,
          "isRest": false
        },
        {
          "midi": 84,
          "name": "C6",
          "velocity": 0.76,
          "startMs": 13579,
          "durationMs": 158,
          "noteDuration": "quarter",
          "measureIndex": 10,
          "beatInMeasure": 6,
          "isRest": false
        },
        {
          "midi": 74,
          "name": "D5",
          "velocity": 0.76,
          "startMs": 13895,
          "durationMs": 158,
          "noteDuration": "eighth",
          "measureIndex": 11,
          "beatInMeasure": 0,
          "isRest": false
        },
        {
          "midi": 79,
          "name": "G5",
          "velocity": 0.76,
          "startMs": 14053,
          "durationMs": 158,
          "noteDuration": "eighth",
          "measureIndex": 11,
          "beatInMeasure": 1,
          "isRest": false
        },
        {
          "midi": 83,
          "name": "B5",
          "velocity": 0.76,
          "startMs": 14211,
          "durationMs": 157,
          "noteDuration": "eighth",
          "measureIndex": 11,
          "beatInMeasure": 2,
          "isRest": false
        },
        {
          "midi": 86,
          "name": "D6",
          "velocity": 0.76,
          "startMs": 14368,
          "durationMs": 158,
          "noteDuration": "eighth",
          "measureIndex": 11,
          "beatInMeasure": 3,
          "isRest": false
        },
        {
          "midi": 84,
          "name": "C6",
          "velocity": 0.76,
          "startMs": 14526,
          "durationMs": 158,
          "noteDuration": "eighth",
          "measureIndex": 11,
          "beatInMeasure": 4,
          "isRest": false
        },
        {
          "midi": 83,
          "name": "B5",
          "velocity": 0.76,
          "startMs": 14684,
          "durationMs": 158,
          "noteDuration": "eighth",
          "measureIndex": 11,
          "beatInMeasure": 5,
          "isRest": false
        },
        {
          "midi": 81,
          "name": "A5",
          "velocity": 0.76,
          "startMs": 14842,
          "durationMs": 158,
          "noteDuration": "eighth",
          "measureIndex": 11,
          "beatInMeasure": 6,
          "isRest": false
        },
        {
          "midi": 79,
          "name": "G5",
          "velocity": 0.76,
          "startMs": 15000,
          "durationMs": 158,
          "noteDuration": "eighth",
          "measureIndex": 11,
          "beatInMeasure": 7,
          "isRest": false
        },
        {
          "midi": 78,
          "name": "F#5",
          "velocity": 0.76,
          "startMs": 15158,
          "durationMs": 158,
          "noteDuration": "eighth",
          "measureIndex": 12,
          "beatInMeasure": 0,
          "isRest": false
        },
        {
          "midi": 76,
          "name": "E5",
          "velocity": 0.76,
          "startMs": 15316,
          "durationMs": 158,
          "noteDuration": "eighth",
          "measureIndex": 12,
          "beatInMeasure": 1,
          "isRest": false
        },
        {
          "midi": 79,
          "name": "G5",
          "velocity": 0.76,
          "startMs": 15474,
          "durationMs": 158,
          "noteDuration": "eighth",
          "measureIndex": 12,
          "beatInMeasure": 2,
          "isRest": false
        },
        {
          "midi": 78,
          "name": "F#5",
          "velocity": 0.76,
          "startMs": 15632,
          "durationMs": 157,
          "noteDuration": "eighth",
          "measureIndex": 12,
          "beatInMeasure": 3,
          "isRest": false
        },
        {
          "midi": 81,
          "name": "A5",
          "velocity": 0.76,
          "startMs": 15789,
          "durationMs": 158,
          "noteDuration": "eighth",
          "measureIndex": 12,
          "beatInMeasure": 4,
          "isRest": false
        },
        {
          "midi": 79,
          "name": "G5",
          "velocity": 0.76,
          "startMs": 15947,
          "durationMs": 158,
          "noteDuration": "eighth",
          "measureIndex": 12,
          "beatInMeasure": 5,
          "isRest": false
        },
        {
          "midi": 78,
          "name": "F#5",
          "velocity": 0.76,
          "startMs": 16105,
          "durationMs": 158,
          "noteDuration": "eighth",
          "measureIndex": 12,
          "beatInMeasure": 6,
          "isRest": false
        },
        {
          "midi": 76,
          "name": "E5",
          "velocity": 0.76,
          "startMs": 16263,
          "durationMs": 158,
          "noteDuration": "eighth",
          "measureIndex": 12,
          "beatInMeasure": 7,
          "isRest": false
        },
        {
          "midi": 76,
          "name": "E5",
          "velocity": 0.76,
          "startMs": 16421,
          "durationMs": 158,
          "noteDuration": "eighth",
          "measureIndex": 13,
          "beatInMeasure": 0,
          "isRest": false
        },
        {
          "midi": 74,
          "name": "D5",
          "velocity": 0.76,
          "startMs": 16579,
          "durationMs": 158,
          "noteDuration": "eighth",
          "measureIndex": 13,
          "beatInMeasure": 1,
          "isRest": false
        },
        {
          "midi": 72,
          "name": "C5",
          "velocity": 0.76,
          "startMs": 16737,
          "durationMs": 158,
          "noteDuration": "eighth",
          "measureIndex": 13,
          "beatInMeasure": 2,
          "isRest": false
        },
        {
          "midi": 71,
          "name": "B4",
          "velocity": 0.76,
          "startMs": 16895,
          "durationMs": 158,
          "noteDuration": "eighth",
          "measureIndex": 13,
          "beatInMeasure": 3,
          "isRest": false
        },
        {
          "midi": 74,
          "name": "D5",
          "velocity": 0.76,
          "startMs": 17053,
          "durationMs": 158,
          "noteDuration": "eighth",
          "measureIndex": 13,
          "beatInMeasure": 4,
          "isRest": false
        },
        {
          "midi": 72,
          "name": "C5",
          "velocity": 0.76,
          "startMs": 17211,
          "durationMs": 157,
          "noteDuration": "eighth",
          "measureIndex": 13,
          "beatInMeasure": 5,
          "isRest": false
        },
        {
          "midi": 71,
          "name": "B4",
          "velocity": 0.76,
          "startMs": 17368,
          "durationMs": 158,
          "noteDuration": "eighth",
          "measureIndex": 13,
          "beatInMeasure": 6,
          "isRest": false
        },
        {
          "midi": 69,
          "name": "A4",
          "velocity": 0.76,
          "startMs": 17526,
          "durationMs": 158,
          "noteDuration": "eighth",
          "measureIndex": 13,
          "beatInMeasure": 7,
          "isRest": false
        },
        {
          "midi": 67,
          "name": "G4",
          "velocity": 0.76,
          "startMs": 17684,
          "durationMs": 592,
          "noteDuration": "whole",
          "measureIndex": 14,
          "beatInMeasure": 0,
          "isRest": false
        },
        {
          "midi": 72,
          "name": "C5",
          "velocity": 0.76,
          "startMs": 18947,
          "durationMs": 316,
          "noteDuration": "quarter",
          "measureIndex": 15,
          "beatInMeasure": 0,
          "isRest": false
        },
        {
          "midi": 76,
          "name": "E5",
          "velocity": 0.76,
          "startMs": 19263,
          "durationMs": 158,
          "noteDuration": "eighth",
          "measureIndex": 15,
          "beatInMeasure": 2,
          "isRest": false
        },
        {
          "midi": 72,
          "name": "C5",
          "velocity": 0.76,
          "startMs": 19421,
          "durationMs": 158,
          "noteDuration": "eighth",
          "measureIndex": 15,
          "beatInMeasure": 3,
          "isRest": false
        },
        {
          "midi": 67,
          "name": "G4",
          "velocity": 0.76,
          "startMs": 19579,
          "durationMs": 158,
          "noteDuration": "quarter",
          "measureIndex": 15,
          "beatInMeasure": 4,
          "isRest": false
        },
        {
          "midi": 67,
          "name": "G4",
          "velocity": 0.76,
          "startMs": 19895,
          "durationMs": 158,
          "noteDuration": "quarter",
          "measureIndex": 15,
          "beatInMeasure": 6,
          "isRest": false
        },
        {
          "midi": 72,
          "name": "C5",
          "velocity": 0.76,
          "startMs": 20210,
          "durationMs": 316,
          "noteDuration": "quarter",
          "measureIndex": 16,
          "beatInMeasure": 0,
          "isRest": false
        },
        {
          "midi": 76,
          "name": "E5",
          "velocity": 0.76,
          "startMs": 20526,
          "durationMs": 158,
          "noteDuration": "eighth",
          "measureIndex": 16,
          "beatInMeasure": 2,
          "isRest": false
        },
        {
          "midi": 72,
          "name": "C5",
          "velocity": 0.76,
          "startMs": 20684,
          "durationMs": 158,
          "noteDuration": "eighth",
          "measureIndex": 16,
          "beatInMeasure": 3,
          "isRest": false
        },
        {
          "midi": 67,
          "name": "G4",
          "velocity": 0.76,
          "startMs": 20842,
          "durationMs": 158,
          "noteDuration": "quarter",
          "measureIndex": 16,
          "beatInMeasure": 4,
          "isRest": false
        },
        {
          "midi": 79,
          "name": "G5",
          "velocity": 0.76,
          "startMs": 21158,
          "durationMs": 316,
          "noteDuration": "quarter",
          "measureIndex": 16,
          "beatInMeasure": 6,
          "isRest": false
        },
        {
          "midi": 77,
          "name": "F5",
          "velocity": 0.76,
          "startMs": 21474,
          "durationMs": 158,
          "noteDuration": "eighth",
          "measureIndex": 17,
          "beatInMeasure": 0,
          "isRest": false
        },
        {
          "midi": 76,
          "name": "E5",
          "velocity": 0.76,
          "startMs": 21632,
          "durationMs": 157,
          "noteDuration": "eighth",
          "measureIndex": 17,
          "beatInMeasure": 1,
          "isRest": false
        },
        {
          "midi": 74,
          "name": "D5",
          "velocity": 0.76,
          "startMs": 21789,
          "durationMs": 158,
          "noteDuration": "eighth",
          "measureIndex": 17,
          "beatInMeasure": 2,
          "isRest": false
        },
        {
          "midi": 72,
          "name": "C5",
          "velocity": 0.76,
          "startMs": 21947,
          "durationMs": 158,
          "noteDuration": "eighth",
          "measureIndex": 17,
          "beatInMeasure": 3,
          "isRest": false
        },
        {
          "midi": 71,
          "name": "B4",
          "velocity": 0.76,
          "startMs": 22105,
          "durationMs": 158,
          "noteDuration": "eighth",
          "measureIndex": 17,
          "beatInMeasure": 4,
          "isRest": false
        },
        {
          "midi": 72,
          "name": "C5",
          "velocity": 0.76,
          "startMs": 22263,
          "durationMs": 158,
          "noteDuration": "eighth",
          "measureIndex": 17,
          "beatInMeasure": 5,
          "isRest": false
        },
        {
          "midi": 71,
          "name": "B4",
          "velocity": 0.76,
          "startMs": 22421,
          "durationMs": 158,
          "noteDuration": "eighth",
          "measureIndex": 17,
          "beatInMeasure": 6,
          "isRest": false
        },
        {
          "midi": 72,
          "name": "C5",
          "velocity": 0.76,
          "startMs": 22579,
          "durationMs": 158,
          "noteDuration": "eighth",
          "measureIndex": 17,
          "beatInMeasure": 7,
          "isRest": false
        },
        {
          "midi": 74,
          "name": "D5",
          "velocity": 0.76,
          "startMs": 22737,
          "durationMs": 158,
          "noteDuration": "eighth",
          "measureIndex": 18,
          "beatInMeasure": 0,
          "isRest": false
        },
        {
          "midi": 72,
          "name": "C5",
          "velocity": 0.76,
          "startMs": 22895,
          "durationMs": 158,
          "noteDuration": "eighth",
          "measureIndex": 18,
          "beatInMeasure": 1,
          "isRest": false
        },
        {
          "midi": 71,
          "name": "B4",
          "velocity": 0.76,
          "startMs": 23053,
          "durationMs": 157,
          "noteDuration": "eighth",
          "measureIndex": 18,
          "beatInMeasure": 2,
          "isRest": false
        },
        {
          "midi": 69,
          "name": "A4",
          "velocity": 0.76,
          "startMs": 23210,
          "durationMs": 158,
          "noteDuration": "eighth",
          "measureIndex": 18,
          "beatInMeasure": 3,
          "isRest": false
        },
        {
          "midi": 67,
          "name": "G4",
          "velocity": 0.76,
          "startMs": 23368,
          "durationMs": 316,
          "noteDuration": "half",
          "measureIndex": 18,
          "beatInMeasure": 4,
          "isRest": false
        },
        {
          "midi": 72,
          "name": "C5",
          "velocity": 0.39,
          "startMs": 24000,
          "durationMs": 316,
          "noteDuration": "quarter",
          "measureIndex": 19,
          "beatInMeasure": 0,
          "isRest": false
        },
        {
          "midi": 76,
          "name": "E5",
          "velocity": 0.39,
          "startMs": 24316,
          "durationMs": 158,
          "noteDuration": "eighth",
          "measureIndex": 19,
          "beatInMeasure": 2,
          "isRest": false
        },
        {
          "midi": 72,
          "name": "C5",
          "velocity": 0.39,
          "startMs": 24474,
          "durationMs": 158,
          "noteDuration": "eighth",
          "measureIndex": 19,
          "beatInMeasure": 3,
          "isRest": false
        },
        {
          "midi": 67,
          "name": "G4",
          "velocity": 0.39,
          "startMs": 24632,
          "durationMs": 157,
          "noteDuration": "quarter",
          "measureIndex": 19,
          "beatInMeasure": 4,
          "isRest": false
        },
        {
          "midi": 67,
          "name": "G4",
          "velocity": 0.39,
          "startMs": 24947,
          "durationMs": 158,
          "noteDuration": "quarter",
          "measureIndex": 19,
          "beatInMeasure": 6,
          "isRest": false
        },
        {
          "midi": 76,
          "name": "E5",
          "velocity": 0.39,
          "startMs": 25263,
          "durationMs": 316,
          "noteDuration": "quarter",
          "measureIndex": 20,
          "beatInMeasure": 0,
          "isRest": false
        },
        {
          "midi": 79,
          "name": "G5",
          "velocity": 0.39,
          "startMs": 25579,
          "durationMs": 158,
          "noteDuration": "eighth",
          "measureIndex": 20,
          "beatInMeasure": 2,
          "isRest": false
        },
        {
          "midi": 76,
          "name": "E5",
          "velocity": 0.39,
          "startMs": 25737,
          "durationMs": 158,
          "noteDuration": "eighth",
          "measureIndex": 20,
          "beatInMeasure": 3,
          "isRest": false
        },
        {
          "midi": 72,
          "name": "C5",
          "velocity": 0.39,
          "startMs": 25895,
          "durationMs": 158,
          "noteDuration": "quarter",
          "measureIndex": 20,
          "beatInMeasure": 4,
          "isRest": false
        },
        {
          "midi": 76,
          "name": "E5",
          "velocity": 0.39,
          "startMs": 26210,
          "durationMs": 158,
          "noteDuration": "eighth",
          "measureIndex": 20,
          "beatInMeasure": 6,
          "isRest": false
        },
        {
          "midi": 72,
          "name": "C5",
          "velocity": 0.39,
          "startMs": 26368,
          "durationMs": 158,
          "noteDuration": "eighth",
          "measureIndex": 20,
          "beatInMeasure": 7,
          "isRest": false
        },
        {
          "midi": 74,
          "name": "D5",
          "velocity": 0.39,
          "startMs": 26526,
          "durationMs": 158,
          "noteDuration": "eighth",
          "measureIndex": 21,
          "beatInMeasure": 0,
          "isRest": false
        },
        {
          "midi": 71,
          "name": "B4",
          "velocity": 0.39,
          "startMs": 26684,
          "durationMs": 158,
          "noteDuration": "eighth",
          "measureIndex": 21,
          "beatInMeasure": 1,
          "isRest": false
        },
        {
          "midi": 72,
          "name": "C5",
          "velocity": 0.39,
          "startMs": 26842,
          "durationMs": 158,
          "noteDuration": "eighth",
          "measureIndex": 21,
          "beatInMeasure": 2,
          "isRest": false
        },
        {
          "midi": 69,
          "name": "A4",
          "velocity": 0.39,
          "startMs": 27000,
          "durationMs": 158,
          "noteDuration": "eighth",
          "measureIndex": 21,
          "beatInMeasure": 3,
          "isRest": false
        },
        {
          "midi": 71,
          "name": "B4",
          "velocity": 0.39,
          "startMs": 27158,
          "durationMs": 158,
          "noteDuration": "eighth",
          "measureIndex": 21,
          "beatInMeasure": 4,
          "isRest": false
        },
        {
          "midi": 67,
          "name": "G4",
          "velocity": 0.39,
          "startMs": 27316,
          "durationMs": 158,
          "noteDuration": "eighth",
          "measureIndex": 21,
          "beatInMeasure": 5,
          "isRest": false
        },
        {
          "midi": 69,
          "name": "A4",
          "velocity": 0.39,
          "startMs": 27474,
          "durationMs": 158,
          "noteDuration": "eighth",
          "measureIndex": 21,
          "beatInMeasure": 6,
          "isRest": false
        },
        {
          "midi": 66,
          "name": "F#4",
          "velocity": 0.39,
          "startMs": 27632,
          "durationMs": 157,
          "noteDuration": "eighth",
          "measureIndex": 21,
          "beatInMeasure": 7,
          "isRest": false
        },
        {
          "midi": 67,
          "name": "G4",
          "velocity": 0.76,
          "startMs": 27789,
          "durationMs": 158,
          "noteDuration": "eighth",
          "measureIndex": 22,
          "beatInMeasure": 0,
          "isRest": false
        },
        {
          "midi": 69,
          "name": "A4",
          "velocity": 0.76,
          "startMs": 27947,
          "durationMs": 158,
          "noteDuration": "eighth",
          "measureIndex": 22,
          "beatInMeasure": 1,
          "isRest": false
        },
        {
          "midi": 71,
          "name": "B4",
          "velocity": 0.76,
          "startMs": 28105,
          "durationMs": 158,
          "noteDuration": "eighth",
          "measureIndex": 22,
          "beatInMeasure": 2,
          "isRest": false
        },
        {
          "midi": 72,
          "name": "C5",
          "velocity": 0.76,
          "startMs": 28263,
          "durationMs": 158,
          "noteDuration": "eighth",
          "measureIndex": 22,
          "beatInMeasure": 3,
          "isRest": false
        },
        {
          "midi": 74,
          "name": "D5",
          "velocity": 0.76,
          "startMs": 28421,
          "durationMs": 158,
          "noteDuration": "eighth",
          "measureIndex": 22,
          "beatInMeasure": 4,
          "isRest": false
        },
        {
          "midi": 76,
          "name": "E5",
          "velocity": 0.76,
          "startMs": 28579,
          "durationMs": 158,
          "noteDuration": "eighth",
          "measureIndex": 22,
          "beatInMeasure": 5,
          "isRest": false
        },
        {
          "midi": 78,
          "name": "F#5",
          "velocity": 0.76,
          "startMs": 28737,
          "durationMs": 158,
          "noteDuration": "eighth",
          "measureIndex": 22,
          "beatInMeasure": 6,
          "isRest": false
        },
        {
          "midi": 79,
          "name": "G5",
          "velocity": 0.76,
          "startMs": 28895,
          "durationMs": 158,
          "noteDuration": "eighth",
          "measureIndex": 22,
          "beatInMeasure": 7,
          "isRest": false
        },
        {
          "midi": 69,
          "name": "A4",
          "velocity": 0.76,
          "startMs": 29053,
          "durationMs": 315,
          "noteDuration": "quarter",
          "measureIndex": 23,
          "beatInMeasure": 0,
          "isRest": false
        },
        {
          "midi": 81,
          "name": "A5",
          "velocity": 0.76,
          "startMs": 29368,
          "durationMs": 158,
          "noteDuration": "quarter",
          "measureIndex": 23,
          "beatInMeasure": 2,
          "isRest": false
        },
        {
          "midi": 81,
          "name": "A5",
          "velocity": 0.76,
          "startMs": 29684,
          "durationMs": 158,
          "noteDuration": "quarter",
          "measureIndex": 23,
          "beatInMeasure": 4,
          "isRest": false
        },
        {
          "midi": 81,
          "name": "A5",
          "velocity": 0.76,
          "startMs": 30000,
          "durationMs": 158,
          "noteDuration": "quarter",
          "measureIndex": 23,
          "beatInMeasure": 6,
          "isRest": false
        },
        {
          "midi": 71,
          "name": "B4",
          "velocity": 0.76,
          "startMs": 30316,
          "durationMs": 158,
          "noteDuration": "eighth",
          "measureIndex": 24,
          "beatInMeasure": 0,
          "isRest": false
        },
        {
          "midi": 72,
          "name": "C5",
          "velocity": 0.76,
          "startMs": 30474,
          "durationMs": 158,
          "noteDuration": "eighth",
          "measureIndex": 24,
          "beatInMeasure": 1,
          "isRest": false
        },
        {
          "midi": 74,
          "name": "D5",
          "velocity": 0.76,
          "startMs": 30632,
          "durationMs": 157,
          "noteDuration": "eighth",
          "measureIndex": 24,
          "beatInMeasure": 2,
          "isRest": false
        },
        {
          "midi": 76,
          "name": "E5",
          "velocity": 0.76,
          "startMs": 30789,
          "durationMs": 158,
          "noteDuration": "eighth",
          "measureIndex": 24,
          "beatInMeasure": 3,
          "isRest": false
        },
        {
          "midi": 78,
          "name": "F#5",
          "velocity": 0.76,
          "startMs": 30947,
          "durationMs": 158,
          "noteDuration": "eighth",
          "measureIndex": 24,
          "beatInMeasure": 4,
          "isRest": false
        },
        {
          "midi": 79,
          "name": "G5",
          "velocity": 0.76,
          "startMs": 31105,
          "durationMs": 158,
          "noteDuration": "eighth",
          "measureIndex": 24,
          "beatInMeasure": 5,
          "isRest": false
        },
        {
          "midi": 81,
          "name": "A5",
          "velocity": 0.76,
          "startMs": 31263,
          "durationMs": 158,
          "noteDuration": "eighth",
          "measureIndex": 24,
          "beatInMeasure": 6,
          "isRest": false
        },
        {
          "midi": 83,
          "name": "B5",
          "velocity": 0.76,
          "startMs": 31421,
          "durationMs": 158,
          "noteDuration": "eighth",
          "measureIndex": 24,
          "beatInMeasure": 7,
          "isRest": false
        },
        {
          "midi": 72,
          "name": "C5",
          "velocity": 0.76,
          "startMs": 31579,
          "durationMs": 316,
          "noteDuration": "quarter",
          "measureIndex": 25,
          "beatInMeasure": 0,
          "isRest": false
        },
        {
          "midi": 84,
          "name": "C6",
          "velocity": 0.76,
          "startMs": 31895,
          "durationMs": 158,
          "noteDuration": "quarter",
          "measureIndex": 25,
          "beatInMeasure": 2,
          "isRest": false
        },
        {
          "midi": 84,
          "name": "C6",
          "velocity": 0.76,
          "startMs": 32210,
          "durationMs": 158,
          "noteDuration": "quarter",
          "measureIndex": 25,
          "beatInMeasure": 4,
          "isRest": false
        },
        {
          "midi": 84,
          "name": "C6",
          "velocity": 0.76,
          "startMs": 32526,
          "durationMs": 158,
          "noteDuration": "quarter",
          "measureIndex": 25,
          "beatInMeasure": 6,
          "isRest": false
        },
        {
          "midi": 74,
          "name": "D5",
          "velocity": 0.76,
          "startMs": 32842,
          "durationMs": 158,
          "noteDuration": "eighth",
          "measureIndex": 26,
          "beatInMeasure": 0,
          "isRest": false
        },
        {
          "midi": 79,
          "name": "G5",
          "velocity": 0.76,
          "startMs": 33000,
          "durationMs": 158,
          "noteDuration": "eighth",
          "measureIndex": 26,
          "beatInMeasure": 1,
          "isRest": false
        },
        {
          "midi": 83,
          "name": "B5",
          "velocity": 0.76,
          "startMs": 33158,
          "durationMs": 158,
          "noteDuration": "eighth",
          "measureIndex": 26,
          "beatInMeasure": 2,
          "isRest": false
        },
        {
          "midi": 86,
          "name": "D6",
          "velocity": 0.76,
          "startMs": 33316,
          "durationMs": 158,
          "noteDuration": "eighth",
          "measureIndex": 26,
          "beatInMeasure": 3,
          "isRest": false
        },
        {
          "midi": 84,
          "name": "C6",
          "velocity": 0.76,
          "startMs": 33474,
          "durationMs": 158,
          "noteDuration": "eighth",
          "measureIndex": 26,
          "beatInMeasure": 4,
          "isRest": false
        },
        {
          "midi": 83,
          "name": "B5",
          "velocity": 0.76,
          "startMs": 33632,
          "durationMs": 157,
          "noteDuration": "eighth",
          "measureIndex": 26,
          "beatInMeasure": 5,
          "isRest": false
        },
        {
          "midi": 81,
          "name": "A5",
          "velocity": 0.76,
          "startMs": 33789,
          "durationMs": 158,
          "noteDuration": "eighth",
          "measureIndex": 26,
          "beatInMeasure": 6,
          "isRest": false
        },
        {
          "midi": 79,
          "name": "G5",
          "velocity": 0.76,
          "startMs": 33947,
          "durationMs": 158,
          "noteDuration": "eighth",
          "measureIndex": 26,
          "beatInMeasure": 7,
          "isRest": false
        },
        {
          "midi": 78,
          "name": "F#5",
          "velocity": 0.76,
          "startMs": 34105,
          "durationMs": 158,
          "noteDuration": "eighth",
          "measureIndex": 27,
          "beatInMeasure": 0,
          "isRest": false
        },
        {
          "midi": 76,
          "name": "E5",
          "velocity": 0.76,
          "startMs": 34263,
          "durationMs": 158,
          "noteDuration": "eighth",
          "measureIndex": 27,
          "beatInMeasure": 1,
          "isRest": false
        },
        {
          "midi": 79,
          "name": "G5",
          "velocity": 0.76,
          "startMs": 34421,
          "durationMs": 158,
          "noteDuration": "eighth",
          "measureIndex": 27,
          "beatInMeasure": 2,
          "isRest": false
        },
        {
          "midi": 78,
          "name": "F#5",
          "velocity": 0.76,
          "startMs": 34579,
          "durationMs": 158,
          "noteDuration": "eighth",
          "measureIndex": 27,
          "beatInMeasure": 3,
          "isRest": false
        },
        {
          "midi": 81,
          "name": "A5",
          "velocity": 0.76,
          "startMs": 34737,
          "durationMs": 158,
          "noteDuration": "eighth",
          "measureIndex": 27,
          "beatInMeasure": 4,
          "isRest": false
        },
        {
          "midi": 79,
          "name": "G5",
          "velocity": 0.76,
          "startMs": 34895,
          "durationMs": 158,
          "noteDuration": "eighth",
          "measureIndex": 27,
          "beatInMeasure": 5,
          "isRest": false
        },
        {
          "midi": 78,
          "name": "F#5",
          "velocity": 0.76,
          "startMs": 35053,
          "durationMs": 157,
          "noteDuration": "eighth",
          "measureIndex": 27,
          "beatInMeasure": 6,
          "isRest": false
        },
        {
          "midi": 76,
          "name": "E5",
          "velocity": 0.76,
          "startMs": 35210,
          "durationMs": 158,
          "noteDuration": "eighth",
          "measureIndex": 27,
          "beatInMeasure": 7,
          "isRest": false
        },
        {
          "midi": 76,
          "name": "E5",
          "velocity": 0.76,
          "startMs": 35368,
          "durationMs": 158,
          "noteDuration": "eighth",
          "measureIndex": 28,
          "beatInMeasure": 0,
          "isRest": false
        },
        {
          "midi": 74,
          "name": "D5",
          "velocity": 0.76,
          "startMs": 35526,
          "durationMs": 158,
          "noteDuration": "eighth",
          "measureIndex": 28,
          "beatInMeasure": 1,
          "isRest": false
        },
        {
          "midi": 72,
          "name": "C5",
          "velocity": 0.76,
          "startMs": 35684,
          "durationMs": 158,
          "noteDuration": "eighth",
          "measureIndex": 28,
          "beatInMeasure": 2,
          "isRest": false
        },
        {
          "midi": 71,
          "name": "B4",
          "velocity": 0.76,
          "startMs": 35842,
          "durationMs": 158,
          "noteDuration": "eighth",
          "measureIndex": 28,
          "beatInMeasure": 3,
          "isRest": false
        },
        {
          "midi": 74,
          "name": "D5",
          "velocity": 0.76,
          "startMs": 36000,
          "durationMs": 158,
          "noteDuration": "eighth",
          "measureIndex": 28,
          "beatInMeasure": 4,
          "isRest": false
        },
        {
          "midi": 72,
          "name": "C5",
          "velocity": 0.76,
          "startMs": 36158,
          "durationMs": 158,
          "noteDuration": "eighth",
          "measureIndex": 28,
          "beatInMeasure": 5,
          "isRest": false
        },
        {
          "midi": 71,
          "name": "B4",
          "velocity": 0.76,
          "startMs": 36316,
          "durationMs": 158,
          "noteDuration": "eighth",
          "measureIndex": 28,
          "beatInMeasure": 6,
          "isRest": false
        },
        {
          "midi": 69,
          "name": "A4",
          "velocity": 0.76,
          "startMs": 36474,
          "durationMs": 158,
          "noteDuration": "eighth",
          "measureIndex": 28,
          "beatInMeasure": 7,
          "isRest": false
        },
        {
          "midi": 67,
          "name": "G4",
          "velocity": 0.76,
          "startMs": 36632,
          "durationMs": 592,
          "noteDuration": "whole",
          "measureIndex": 29,
          "beatInMeasure": 0,
          "isRest": false
        },
        {
          "midi": 71,
          "name": "B4",
          "velocity": 0.39,
          "startMs": 37895,
          "durationMs": 315,
          "noteDuration": "quarter",
          "measureIndex": 30,
          "beatInMeasure": 0,
          "isRest": false
        },
        {
          "midi": 74,
          "name": "D5",
          "velocity": 0.39,
          "startMs": 38210,
          "durationMs": 158,
          "noteDuration": "eighth",
          "measureIndex": 30,
          "beatInMeasure": 2,
          "isRest": false
        },
        {
          "midi": 71,
          "name": "B4",
          "velocity": 0.39,
          "startMs": 38368,
          "durationMs": 158,
          "noteDuration": "eighth",
          "measureIndex": 30,
          "beatInMeasure": 3,
          "isRest": false
        },
        {
          "midi": 67,
          "name": "G4",
          "velocity": 0.39,
          "startMs": 38526,
          "durationMs": 158,
          "noteDuration": "quarter",
          "measureIndex": 30,
          "beatInMeasure": 4,
          "isRest": false
        },
        {
          "midi": 67,
          "name": "G4",
          "velocity": 0.39,
          "startMs": 38842,
          "durationMs": 158,
          "noteDuration": "quarter",
          "measureIndex": 30,
          "beatInMeasure": 6,
          "isRest": false
        },
        {
          "midi": 72,
          "name": "C5",
          "velocity": 0.39,
          "startMs": 39158,
          "durationMs": 316,
          "noteDuration": "quarter",
          "measureIndex": 31,
          "beatInMeasure": 0,
          "isRest": false
        },
        {
          "midi": 75,
          "name": "D#5",
          "velocity": 0.39,
          "startMs": 39474,
          "durationMs": 158,
          "noteDuration": "eighth",
          "measureIndex": 31,
          "beatInMeasure": 2,
          "isRest": false
        },
        {
          "midi": 72,
          "name": "C5",
          "velocity": 0.39,
          "startMs": 39632,
          "durationMs": 157,
          "noteDuration": "eighth",
          "measureIndex": 31,
          "beatInMeasure": 3,
          "isRest": false
        },
        {
          "midi": 67,
          "name": "G4",
          "velocity": 0.39,
          "startMs": 39789,
          "durationMs": 158,
          "noteDuration": "quarter",
          "measureIndex": 31,
          "beatInMeasure": 4,
          "isRest": false
        },
        {
          "midi": 79,
          "name": "G5",
          "velocity": 0.39,
          "startMs": 40105,
          "durationMs": 316,
          "noteDuration": "quarter",
          "measureIndex": 31,
          "beatInMeasure": 6,
          "isRest": false
        },
        {
          "midi": 77,
          "name": "F5",
          "velocity": 0.39,
          "startMs": 40421,
          "durationMs": 316,
          "noteDuration": "quarter",
          "measureIndex": 32,
          "beatInMeasure": 0,
          "isRest": false
        },
        {
          "midi": 74,
          "name": "D5",
          "velocity": 0.39,
          "startMs": 40737,
          "durationMs": 316,
          "noteDuration": "quarter",
          "measureIndex": 32,
          "beatInMeasure": 2,
          "isRest": false
        },
        {
          "midi": 75,
          "name": "D#5",
          "velocity": 0.39,
          "startMs": 41053,
          "durationMs": 315,
          "noteDuration": "quarter",
          "measureIndex": 32,
          "beatInMeasure": 4,
          "isRest": false
        },
        {
          "midi": 72,
          "name": "C5",
          "velocity": 0.39,
          "startMs": 41368,
          "durationMs": 316,
          "noteDuration": "quarter",
          "measureIndex": 32,
          "beatInMeasure": 6,
          "isRest": false
        },
        {
          "midi": 71,
          "name": "B4",
          "velocity": 0.39,
          "startMs": 41684,
          "durationMs": 158,
          "noteDuration": "eighth",
          "measureIndex": 33,
          "beatInMeasure": 0,
          "isRest": false
        },
        {
          "midi": 72,
          "name": "C5",
          "velocity": 0.39,
          "startMs": 41842,
          "durationMs": 158,
          "noteDuration": "eighth",
          "measureIndex": 33,
          "beatInMeasure": 1,
          "isRest": false
        },
        {
          "midi": 74,
          "name": "D5",
          "velocity": 0.39,
          "startMs": 42000,
          "durationMs": 158,
          "noteDuration": "eighth",
          "measureIndex": 33,
          "beatInMeasure": 2,
          "isRest": false
        },
        {
          "midi": 71,
          "name": "B4",
          "velocity": 0.39,
          "startMs": 42158,
          "durationMs": 158,
          "noteDuration": "eighth",
          "measureIndex": 33,
          "beatInMeasure": 3,
          "isRest": false
        },
        {
          "midi": 67,
          "name": "G4",
          "velocity": 0.39,
          "startMs": 42316,
          "durationMs": 158,
          "noteDuration": "quarter",
          "measureIndex": 33,
          "beatInMeasure": 4,
          "isRest": false
        },
        {
          "midi": 67,
          "name": "G4",
          "velocity": 0.39,
          "startMs": 42632,
          "durationMs": 157,
          "noteDuration": "quarter",
          "measureIndex": 33,
          "beatInMeasure": 6,
          "isRest": false
        },
        {
          "midi": 79,
          "name": "G5",
          "velocity": 0.76,
          "startMs": 42947,
          "durationMs": 158,
          "noteDuration": "eighth",
          "measureIndex": 34,
          "beatInMeasure": 0,
          "isRest": false
        },
        {
          "midi": 67,
          "name": "G4",
          "velocity": 0.76,
          "startMs": 43105,
          "durationMs": 158,
          "noteDuration": "eighth",
          "measureIndex": 34,
          "beatInMeasure": 1,
          "isRest": false
        },
        {
          "midi": 79,
          "name": "G5",
          "velocity": 0.76,
          "startMs": 43263,
          "durationMs": 158,
          "noteDuration": "eighth",
          "measureIndex": 34,
          "beatInMeasure": 2,
          "isRest": false
        },
        {
          "midi": 67,
          "name": "G4",
          "velocity": 0.76,
          "startMs": 43421,
          "durationMs": 158,
          "noteDuration": "eighth",
          "measureIndex": 34,
          "beatInMeasure": 3,
          "isRest": false
        },
        {
          "midi": 79,
          "name": "G5",
          "velocity": 0.76,
          "startMs": 43579,
          "durationMs": 158,
          "noteDuration": "eighth",
          "measureIndex": 34,
          "beatInMeasure": 4,
          "isRest": false
        },
        {
          "midi": 67,
          "name": "G4",
          "velocity": 0.76,
          "startMs": 43737,
          "durationMs": 158,
          "noteDuration": "eighth",
          "measureIndex": 34,
          "beatInMeasure": 5,
          "isRest": false
        },
        {
          "midi": 79,
          "name": "G5",
          "velocity": 0.76,
          "startMs": 43895,
          "durationMs": 158,
          "noteDuration": "eighth",
          "measureIndex": 34,
          "beatInMeasure": 6,
          "isRest": false
        },
        {
          "midi": 67,
          "name": "G4",
          "velocity": 0.76,
          "startMs": 44053,
          "durationMs": 157,
          "noteDuration": "eighth",
          "measureIndex": 34,
          "beatInMeasure": 7,
          "isRest": false
        },
        {
          "midi": 79,
          "name": "G5",
          "velocity": 0.76,
          "startMs": 44210,
          "durationMs": 158,
          "noteDuration": "eighth",
          "measureIndex": 35,
          "beatInMeasure": 0,
          "isRest": false
        },
        {
          "midi": 67,
          "name": "G4",
          "velocity": 0.76,
          "startMs": 44368,
          "durationMs": 158,
          "noteDuration": "eighth",
          "measureIndex": 35,
          "beatInMeasure": 1,
          "isRest": false
        },
        {
          "midi": 79,
          "name": "G5",
          "velocity": 0.76,
          "startMs": 44526,
          "durationMs": 158,
          "noteDuration": "eighth",
          "measureIndex": 35,
          "beatInMeasure": 2,
          "isRest": false
        },
        {
          "midi": 67,
          "name": "G4",
          "velocity": 0.76,
          "startMs": 44684,
          "durationMs": 158,
          "noteDuration": "eighth",
          "measureIndex": 35,
          "beatInMeasure": 3,
          "isRest": false
        },
        {
          "midi": 79,
          "name": "G5",
          "velocity": 0.76,
          "startMs": 44842,
          "durationMs": 158,
          "noteDuration": "eighth",
          "measureIndex": 35,
          "beatInMeasure": 4,
          "isRest": false
        },
        {
          "midi": 67,
          "name": "G4",
          "velocity": 0.76,
          "startMs": 45000,
          "durationMs": 158,
          "noteDuration": "eighth",
          "measureIndex": 35,
          "beatInMeasure": 5,
          "isRest": false
        },
        {
          "midi": 79,
          "name": "G5",
          "velocity": 0.76,
          "startMs": 45158,
          "durationMs": 158,
          "noteDuration": "eighth",
          "measureIndex": 35,
          "beatInMeasure": 6,
          "isRest": false
        },
        {
          "midi": 67,
          "name": "G4",
          "velocity": 0.76,
          "startMs": 45316,
          "durationMs": 158,
          "noteDuration": "eighth",
          "measureIndex": 35,
          "beatInMeasure": 7,
          "isRest": false
        },
        {
          "midi": 74,
          "name": "D5",
          "velocity": 0.76,
          "startMs": 45474,
          "durationMs": 158,
          "noteDuration": "eighth",
          "measureIndex": 36,
          "beatInMeasure": 0,
          "isRest": false
        },
        {
          "midi": 75,
          "name": "D#5",
          "velocity": 0.76,
          "startMs": 45632,
          "durationMs": 157,
          "noteDuration": "eighth",
          "measureIndex": 36,
          "beatInMeasure": 1,
          "isRest": false
        },
        {
          "midi": 77,
          "name": "F5",
          "velocity": 0.76,
          "startMs": 45789,
          "durationMs": 158,
          "noteDuration": "eighth",
          "measureIndex": 36,
          "beatInMeasure": 2,
          "isRest": false
        },
        {
          "midi": 74,
          "name": "D5",
          "velocity": 0.76,
          "startMs": 45947,
          "durationMs": 158,
          "noteDuration": "eighth",
          "measureIndex": 36,
          "beatInMeasure": 3,
          "isRest": false
        },
        {
          "midi": 77,
          "name": "F5",
          "velocity": 0.76,
          "startMs": 46105,
          "durationMs": 158,
          "noteDuration": "eighth",
          "measureIndex": 36,
          "beatInMeasure": 4,
          "isRest": false
        },
        {
          "midi": 75,
          "name": "D#5",
          "velocity": 0.76,
          "startMs": 46263,
          "durationMs": 158,
          "noteDuration": "eighth",
          "measureIndex": 36,
          "beatInMeasure": 5,
          "isRest": false
        },
        {
          "midi": 74,
          "name": "D5",
          "velocity": 0.76,
          "startMs": 46421,
          "durationMs": 158,
          "noteDuration": "eighth",
          "measureIndex": 36,
          "beatInMeasure": 6,
          "isRest": false
        },
        {
          "midi": 72,
          "name": "C5",
          "velocity": 0.76,
          "startMs": 46579,
          "durationMs": 158,
          "noteDuration": "eighth",
          "measureIndex": 36,
          "beatInMeasure": 7,
          "isRest": false
        },
        {
          "midi": 71,
          "name": "B4",
          "velocity": 0.76,
          "startMs": 46737,
          "durationMs": 316,
          "noteDuration": "thirty-second",
          "measureIndex": 37,
          "beatInMeasure": 0,
          "isRest": false
        },
        {
          "midi": 79,
          "name": "G5",
          "velocity": 0.76,
          "startMs": 46737,
          "durationMs": 316,
          "noteDuration": "whole",
          "measureIndex": 37,
          "beatInMeasure": 0,
          "isRest": false
        },
        {
          "midi": 60,
          "name": "C4",
          "velocity": 0.39,
          "startMs": 48000,
          "durationMs": 316,
          "noteDuration": "quarter",
          "measureIndex": 38,
          "beatInMeasure": 0,
          "isRest": false
        },
        {
          "midi": 64,
          "name": "E4",
          "velocity": 0.39,
          "startMs": 48316,
          "durationMs": 158,
          "noteDuration": "eighth",
          "measureIndex": 38,
          "beatInMeasure": 2,
          "isRest": false
        },
        {
          "midi": 60,
          "name": "C4",
          "velocity": 0.39,
          "startMs": 48474,
          "durationMs": 158,
          "noteDuration": "eighth",
          "measureIndex": 38,
          "beatInMeasure": 3,
          "isRest": false
        },
        {
          "midi": 55,
          "name": "G3",
          "velocity": 0.39,
          "startMs": 48632,
          "durationMs": 157,
          "noteDuration": "quarter",
          "measureIndex": 38,
          "beatInMeasure": 4,
          "isRest": false
        },
        {
          "midi": 55,
          "name": "G3",
          "velocity": 0.39,
          "startMs": 48947,
          "durationMs": 158,
          "noteDuration": "quarter",
          "measureIndex": 38,
          "beatInMeasure": 6,
          "isRest": false
        },
        {
          "midi": 60,
          "name": "C4",
          "velocity": 0.39,
          "startMs": 49263,
          "durationMs": 316,
          "noteDuration": "quarter",
          "measureIndex": 39,
          "beatInMeasure": 0,
          "isRest": false
        },
        {
          "midi": 64,
          "name": "E4",
          "velocity": 0.39,
          "startMs": 49579,
          "durationMs": 158,
          "noteDuration": "eighth",
          "measureIndex": 39,
          "beatInMeasure": 2,
          "isRest": false
        },
        {
          "midi": 60,
          "name": "C4",
          "velocity": 0.39,
          "startMs": 49737,
          "durationMs": 158,
          "noteDuration": "eighth",
          "measureIndex": 39,
          "beatInMeasure": 3,
          "isRest": false
        },
        {
          "midi": 55,
          "name": "G3",
          "velocity": 0.39,
          "startMs": 49895,
          "durationMs": 158,
          "noteDuration": "quarter",
          "measureIndex": 39,
          "beatInMeasure": 4,
          "isRest": false
        },
        {
          "midi": 67,
          "name": "G4",
          "velocity": 0.39,
          "startMs": 50210,
          "durationMs": 316,
          "noteDuration": "quarter",
          "measureIndex": 39,
          "beatInMeasure": 6,
          "isRest": false
        },
        {
          "midi": 65,
          "name": "F4",
          "velocity": 0.39,
          "startMs": 50526,
          "durationMs": 158,
          "noteDuration": "eighth",
          "measureIndex": 40,
          "beatInMeasure": 0,
          "isRest": false
        },
        {
          "midi": 64,
          "name": "E4",
          "velocity": 0.39,
          "startMs": 50684,
          "durationMs": 158,
          "noteDuration": "eighth",
          "measureIndex": 40,
          "beatInMeasure": 1,
          "isRest": false
        },
        {
          "midi": 62,
          "name": "D4",
          "velocity": 0.39,
          "startMs": 50842,
          "durationMs": 158,
          "noteDuration": "eighth",
          "measureIndex": 40,
          "beatInMeasure": 2,
          "isRest": false
        },
        {
          "midi": 60,
          "name": "C4",
          "velocity": 0.39,
          "startMs": 51000,
          "durationMs": 158,
          "noteDuration": "eighth",
          "measureIndex": 40,
          "beatInMeasure": 3,
          "isRest": false
        },
        {
          "midi": 59,
          "name": "B3",
          "velocity": 0.39,
          "startMs": 51158,
          "durationMs": 158,
          "noteDuration": "eighth",
          "measureIndex": 40,
          "beatInMeasure": 4,
          "isRest": false
        },
        {
          "midi": 60,
          "name": "C4",
          "velocity": 0.39,
          "startMs": 51316,
          "durationMs": 158,
          "noteDuration": "eighth",
          "measureIndex": 40,
          "beatInMeasure": 5,
          "isRest": false
        },
        {
          "midi": 59,
          "name": "B3",
          "velocity": 0.39,
          "startMs": 51474,
          "durationMs": 158,
          "noteDuration": "eighth",
          "measureIndex": 40,
          "beatInMeasure": 6,
          "isRest": false
        },
        {
          "midi": 60,
          "name": "C4",
          "velocity": 0.39,
          "startMs": 51632,
          "durationMs": 157,
          "noteDuration": "eighth",
          "measureIndex": 40,
          "beatInMeasure": 7,
          "isRest": false
        },
        {
          "midi": 62,
          "name": "D4",
          "velocity": 0.39,
          "startMs": 51789,
          "durationMs": 158,
          "noteDuration": "eighth",
          "measureIndex": 41,
          "beatInMeasure": 0,
          "isRest": false
        },
        {
          "midi": 60,
          "name": "C4",
          "velocity": 0.39,
          "startMs": 51947,
          "durationMs": 158,
          "noteDuration": "eighth",
          "measureIndex": 41,
          "beatInMeasure": 1,
          "isRest": false
        },
        {
          "midi": 59,
          "name": "B3",
          "velocity": 0.39,
          "startMs": 52105,
          "durationMs": 158,
          "noteDuration": "eighth",
          "measureIndex": 41,
          "beatInMeasure": 2,
          "isRest": false
        },
        {
          "midi": 57,
          "name": "A3",
          "velocity": 0.39,
          "startMs": 52263,
          "durationMs": 158,
          "noteDuration": "eighth",
          "measureIndex": 41,
          "beatInMeasure": 3,
          "isRest": false
        },
        {
          "midi": 55,
          "name": "G3",
          "velocity": 0.39,
          "startMs": 52421,
          "durationMs": 316,
          "noteDuration": "half",
          "measureIndex": 41,
          "beatInMeasure": 4,
          "isRest": false
        },
        {
          "midi": 60,
          "name": "C4",
          "velocity": 0.39,
          "startMs": 53053,
          "durationMs": 315,
          "noteDuration": "quarter",
          "measureIndex": 42,
          "beatInMeasure": 0,
          "isRest": false
        },
        {
          "midi": 55,
          "name": "G3",
          "velocity": 0.39,
          "startMs": 53368,
          "durationMs": 158,
          "noteDuration": "eighth",
          "measureIndex": 42,
          "beatInMeasure": 2,
          "isRest": false
        },
        {
          "midi": 60,
          "name": "C4",
          "velocity": 0.39,
          "startMs": 53526,
          "durationMs": 158,
          "noteDuration": "eighth",
          "measureIndex": 42,
          "beatInMeasure": 3,
          "isRest": false
        },
        {
          "midi": 64,
          "name": "E4",
          "velocity": 0.39,
          "startMs": 53684,
          "durationMs": 158,
          "noteDuration": "quarter",
          "measureIndex": 42,
          "beatInMeasure": 4,
          "isRest": false
        },
        {
          "midi": 64,
          "name": "E4",
          "velocity": 0.39,
          "startMs": 54000,
          "durationMs": 158,
          "noteDuration": "quarter",
          "measureIndex": 42,
          "beatInMeasure": 6,
          "isRest": false
        },
        {
          "midi": 64,
          "name": "E4",
          "velocity": 0.39,
          "startMs": 54316,
          "durationMs": 315,
          "noteDuration": "quarter",
          "measureIndex": 43,
          "beatInMeasure": 0,
          "isRest": false
        },
        {
          "midi": 60,
          "name": "C4",
          "velocity": 0.39,
          "startMs": 54631,
          "durationMs": 158,
          "noteDuration": "eighth",
          "measureIndex": 43,
          "beatInMeasure": 2,
          "isRest": false
        },
        {
          "midi": 64,
          "name": "E4",
          "velocity": 0.39,
          "startMs": 54789,
          "durationMs": 158,
          "noteDuration": "eighth",
          "measureIndex": 43,
          "beatInMeasure": 3,
          "isRest": false
        },
        {
          "midi": 67,
          "name": "G4",
          "velocity": 0.39,
          "startMs": 54947,
          "durationMs": 158,
          "noteDuration": "quarter",
          "measureIndex": 43,
          "beatInMeasure": 4,
          "isRest": false
        },
        {
          "midi": 72,
          "name": "C5",
          "velocity": 0.39,
          "startMs": 55263,
          "durationMs": 158,
          "noteDuration": "quarter",
          "measureIndex": 43,
          "beatInMeasure": 6,
          "isRest": false
        },
        {
          "midi": 64,
          "name": "E4",
          "velocity": 0.39,
          "startMs": 55579,
          "durationMs": 158,
          "noteDuration": "thirty-second",
          "measureIndex": 44,
          "beatInMeasure": 0,
          "isRest": false
        },
        {
          "midi": 67,
          "name": "G4",
          "velocity": 0.39,
          "startMs": 55579,
          "durationMs": 158,
          "noteDuration": "quarter",
          "measureIndex": 44,
          "beatInMeasure": 0,
          "isRest": false
        },
        {
          "midi": 62,
          "name": "D4",
          "velocity": 0.39,
          "startMs": 55895,
          "durationMs": 158,
          "noteDuration": "thirty-second",
          "measureIndex": 44,
          "beatInMeasure": 2,
          "isRest": false
        },
        {
          "midi": 65,
          "name": "F4",
          "velocity": 0.39,
          "startMs": 55895,
          "durationMs": 158,
          "noteDuration": "quarter",
          "measureIndex": 44,
          "beatInMeasure": 2,
          "isRest": false
        },
        {
          "midi": 60,
          "name": "C4",
          "velocity": 0.39,
          "startMs": 56210,
          "durationMs": 158,
          "noteDuration": "thirty-second",
          "measureIndex": 44,
          "beatInMeasure": 4,
          "isRest": false
        },
        {
          "midi": 64,
          "name": "E4",
          "velocity": 0.39,
          "startMs": 56210,
          "durationMs": 158,
          "noteDuration": "quarter",
          "measureIndex": 44,
          "beatInMeasure": 4,
          "isRest": false
        },
        {
          "midi": 59,
          "name": "B3",
          "velocity": 0.39,
          "startMs": 56526,
          "durationMs": 158,
          "noteDuration": "thirty-second",
          "measureIndex": 44,
          "beatInMeasure": 6,
          "isRest": false
        },
        {
          "midi": 62,
          "name": "D4",
          "velocity": 0.39,
          "startMs": 56526,
          "durationMs": 158,
          "noteDuration": "quarter",
          "measureIndex": 44,
          "beatInMeasure": 6,
          "isRest": false
        },
        {
          "midi": 60,
          "name": "C4",
          "velocity": 0.76,
          "startMs": 56842,
          "durationMs": 158,
          "noteDuration": "eighth",
          "measureIndex": 45,
          "beatInMeasure": 0,
          "isRest": false
        },
        {
          "midi": 62,
          "name": "D4",
          "velocity": 0.76,
          "startMs": 57000,
          "durationMs": 158,
          "noteDuration": "eighth",
          "measureIndex": 45,
          "beatInMeasure": 1,
          "isRest": false
        },
        {
          "midi": 64,
          "name": "E4",
          "velocity": 0.76,
          "startMs": 57158,
          "durationMs": 158,
          "noteDuration": "eighth",
          "measureIndex": 45,
          "beatInMeasure": 2,
          "isRest": false
        },
        {
          "midi": 65,
          "name": "F4",
          "velocity": 0.76,
          "startMs": 57316,
          "durationMs": 158,
          "noteDuration": "eighth",
          "measureIndex": 45,
          "beatInMeasure": 3,
          "isRest": false
        },
        {
          "midi": 67,
          "name": "G4",
          "velocity": 0.76,
          "startMs": 57474,
          "durationMs": 157,
          "noteDuration": "eighth",
          "measureIndex": 45,
          "beatInMeasure": 4,
          "isRest": false
        },
        {
          "midi": 69,
          "name": "A4",
          "velocity": 0.76,
          "startMs": 57631,
          "durationMs": 158,
          "noteDuration": "eighth",
          "measureIndex": 45,
          "beatInMeasure": 5,
          "isRest": false
        },
        {
          "midi": 71,
          "name": "B4",
          "velocity": 0.76,
          "startMs": 57789,
          "durationMs": 158,
          "noteDuration": "eighth",
          "measureIndex": 45,
          "beatInMeasure": 6,
          "isRest": false
        },
        {
          "midi": 72,
          "name": "C5",
          "velocity": 0.76,
          "startMs": 57947,
          "durationMs": 158,
          "noteDuration": "eighth",
          "measureIndex": 45,
          "beatInMeasure": 7,
          "isRest": false
        },
        {
          "midi": 62,
          "name": "D4",
          "velocity": 0.76,
          "startMs": 58105,
          "durationMs": 316,
          "noteDuration": "quarter",
          "measureIndex": 46,
          "beatInMeasure": 0,
          "isRest": false
        },
        {
          "midi": 74,
          "name": "D5",
          "velocity": 0.76,
          "startMs": 58421,
          "durationMs": 158,
          "noteDuration": "quarter",
          "measureIndex": 46,
          "beatInMeasure": 2,
          "isRest": false
        },
        {
          "midi": 74,
          "name": "D5",
          "velocity": 0.76,
          "startMs": 58737,
          "durationMs": 158,
          "noteDuration": "quarter",
          "measureIndex": 46,
          "beatInMeasure": 4,
          "isRest": false
        },
        {
          "midi": 74,
          "name": "D5",
          "velocity": 0.76,
          "startMs": 59053,
          "durationMs": 157,
          "noteDuration": "quarter",
          "measureIndex": 46,
          "beatInMeasure": 6,
          "isRest": false
        },
        {
          "midi": 64,
          "name": "E4",
          "velocity": 0.76,
          "startMs": 59368,
          "durationMs": 158,
          "noteDuration": "eighth",
          "measureIndex": 47,
          "beatInMeasure": 0,
          "isRest": false
        },
        {
          "midi": 65,
          "name": "F4",
          "velocity": 0.76,
          "startMs": 59526,
          "durationMs": 158,
          "noteDuration": "eighth",
          "measureIndex": 47,
          "beatInMeasure": 1,
          "isRest": false
        },
        {
          "midi": 67,
          "name": "G4",
          "velocity": 0.76,
          "startMs": 59684,
          "durationMs": 158,
          "noteDuration": "eighth",
          "measureIndex": 47,
          "beatInMeasure": 2,
          "isRest": false
        },
        {
          "midi": 69,
          "name": "A4",
          "velocity": 0.76,
          "startMs": 59842,
          "durationMs": 158,
          "noteDuration": "eighth",
          "measureIndex": 47,
          "beatInMeasure": 3,
          "isRest": false
        },
        {
          "midi": 71,
          "name": "B4",
          "velocity": 0.76,
          "startMs": 60000,
          "durationMs": 158,
          "noteDuration": "eighth",
          "measureIndex": 47,
          "beatInMeasure": 4,
          "isRest": false
        },
        {
          "midi": 72,
          "name": "C5",
          "velocity": 0.76,
          "startMs": 60158,
          "durationMs": 158,
          "noteDuration": "eighth",
          "measureIndex": 47,
          "beatInMeasure": 5,
          "isRest": false
        },
        {
          "midi": 74,
          "name": "D5",
          "velocity": 0.76,
          "startMs": 60316,
          "durationMs": 158,
          "noteDuration": "eighth",
          "measureIndex": 47,
          "beatInMeasure": 6,
          "isRest": false
        },
        {
          "midi": 76,
          "name": "E5",
          "velocity": 0.76,
          "startMs": 60474,
          "durationMs": 157,
          "noteDuration": "eighth",
          "measureIndex": 47,
          "beatInMeasure": 7,
          "isRest": false
        },
        {
          "midi": 65,
          "name": "F4",
          "velocity": 0.76,
          "startMs": 60631,
          "durationMs": 316,
          "noteDuration": "quarter",
          "measureIndex": 48,
          "beatInMeasure": 0,
          "isRest": false
        },
        {
          "midi": 77,
          "name": "F5",
          "velocity": 0.76,
          "startMs": 60947,
          "durationMs": 158,
          "noteDuration": "quarter",
          "measureIndex": 48,
          "beatInMeasure": 2,
          "isRest": false
        },
        {
          "midi": 77,
          "name": "F5",
          "velocity": 0.76,
          "startMs": 61263,
          "durationMs": 158,
          "noteDuration": "quarter",
          "measureIndex": 48,
          "beatInMeasure": 4,
          "isRest": false
        },
        {
          "midi": 77,
          "name": "F5",
          "velocity": 0.76,
          "startMs": 61579,
          "durationMs": 158,
          "noteDuration": "quarter",
          "measureIndex": 48,
          "beatInMeasure": 6,
          "isRest": false
        },
        {
          "midi": 67,
          "name": "G4",
          "velocity": 0.76,
          "startMs": 61895,
          "durationMs": 158,
          "noteDuration": "eighth",
          "measureIndex": 49,
          "beatInMeasure": 0,
          "isRest": false
        },
        {
          "midi": 72,
          "name": "C5",
          "velocity": 0.76,
          "startMs": 62053,
          "durationMs": 157,
          "noteDuration": "eighth",
          "measureIndex": 49,
          "beatInMeasure": 1,
          "isRest": false
        },
        {
          "midi": 76,
          "name": "E5",
          "velocity": 0.76,
          "startMs": 62210,
          "durationMs": 158,
          "noteDuration": "eighth",
          "measureIndex": 49,
          "beatInMeasure": 2,
          "isRest": false
        },
        {
          "midi": 79,
          "name": "G5",
          "velocity": 0.76,
          "startMs": 62368,
          "durationMs": 158,
          "noteDuration": "eighth",
          "measureIndex": 49,
          "beatInMeasure": 3,
          "isRest": false
        },
        {
          "midi": 77,
          "name": "F5",
          "velocity": 0.76,
          "startMs": 62526,
          "durationMs": 158,
          "noteDuration": "eighth",
          "measureIndex": 49,
          "beatInMeasure": 4,
          "isRest": false
        },
        {
          "midi": 76,
          "name": "E5",
          "velocity": 0.76,
          "startMs": 62684,
          "durationMs": 158,
          "noteDuration": "eighth",
          "measureIndex": 49,
          "beatInMeasure": 5,
          "isRest": false
        },
        {
          "midi": 74,
          "name": "D5",
          "velocity": 0.76,
          "startMs": 62842,
          "durationMs": 158,
          "noteDuration": "eighth",
          "measureIndex": 49,
          "beatInMeasure": 6,
          "isRest": false
        },
        {
          "midi": 72,
          "name": "C5",
          "velocity": 0.76,
          "startMs": 63000,
          "durationMs": 158,
          "noteDuration": "eighth",
          "measureIndex": 49,
          "beatInMeasure": 7,
          "isRest": false
        },
        {
          "midi": 81,
          "name": "A5",
          "velocity": 0.76,
          "startMs": 63158,
          "durationMs": 158,
          "noteDuration": "eighth",
          "measureIndex": 50,
          "beatInMeasure": 0,
          "isRest": false
        },
        {
          "midi": 79,
          "name": "G5",
          "velocity": 0.76,
          "startMs": 63316,
          "durationMs": 158,
          "noteDuration": "eighth",
          "measureIndex": 50,
          "beatInMeasure": 1,
          "isRest": false
        },
        {
          "midi": 77,
          "name": "F5",
          "velocity": 0.76,
          "startMs": 63474,
          "durationMs": 157,
          "noteDuration": "eighth",
          "measureIndex": 50,
          "beatInMeasure": 2,
          "isRest": false
        },
        {
          "midi": 76,
          "name": "E5",
          "velocity": 0.76,
          "startMs": 63631,
          "durationMs": 158,
          "noteDuration": "eighth",
          "measureIndex": 50,
          "beatInMeasure": 3,
          "isRest": false
        },
        {
          "midi": 74,
          "name": "D5",
          "velocity": 0.76,
          "startMs": 63789,
          "durationMs": 158,
          "noteDuration": "eighth",
          "measureIndex": 50,
          "beatInMeasure": 4,
          "isRest": false
        },
        {
          "midi": 72,
          "name": "C5",
          "velocity": 0.76,
          "startMs": 63947,
          "durationMs": 158,
          "noteDuration": "eighth",
          "measureIndex": 50,
          "beatInMeasure": 5,
          "isRest": false
        },
        {
          "midi": 71,
          "name": "B4",
          "velocity": 0.76,
          "startMs": 64105,
          "durationMs": 158,
          "noteDuration": "eighth",
          "measureIndex": 50,
          "beatInMeasure": 6,
          "isRest": false
        },
        {
          "midi": 69,
          "name": "A4",
          "velocity": 0.76,
          "startMs": 64263,
          "durationMs": 158,
          "noteDuration": "eighth",
          "measureIndex": 50,
          "beatInMeasure": 7,
          "isRest": false
        },
        {
          "midi": 67,
          "name": "G4",
          "velocity": 0.76,
          "startMs": 64421,
          "durationMs": 158,
          "noteDuration": "eighth",
          "measureIndex": 51,
          "beatInMeasure": 0,
          "isRest": false
        },
        {
          "midi": 69,
          "name": "A4",
          "velocity": 0.76,
          "startMs": 64579,
          "durationMs": 158,
          "noteDuration": "eighth",
          "measureIndex": 51,
          "beatInMeasure": 1,
          "isRest": false
        },
        {
          "midi": 65,
          "name": "F4",
          "velocity": 0.76,
          "startMs": 64737,
          "durationMs": 158,
          "noteDuration": "eighth",
          "measureIndex": 51,
          "beatInMeasure": 2,
          "isRest": false
        },
        {
          "midi": 67,
          "name": "G4",
          "velocity": 0.76,
          "startMs": 64895,
          "durationMs": 158,
          "noteDuration": "eighth",
          "measureIndex": 51,
          "beatInMeasure": 3,
          "isRest": false
        },
        {
          "midi": 64,
          "name": "E4",
          "velocity": 0.76,
          "startMs": 65053,
          "durationMs": 157,
          "noteDuration": "eighth",
          "measureIndex": 51,
          "beatInMeasure": 4,
          "isRest": false
        },
        {
          "midi": 65,
          "name": "F4",
          "velocity": 0.76,
          "startMs": 65210,
          "durationMs": 158,
          "noteDuration": "eighth",
          "measureIndex": 51,
          "beatInMeasure": 5,
          "isRest": false
        },
        {
          "midi": 62,
          "name": "D4",
          "velocity": 0.76,
          "startMs": 65368,
          "durationMs": 158,
          "noteDuration": "eighth",
          "measureIndex": 51,
          "beatInMeasure": 6,
          "isRest": false
        },
        {
          "midi": 64,
          "name": "E4",
          "velocity": 0.76,
          "startMs": 65526,
          "durationMs": 158,
          "noteDuration": "eighth",
          "measureIndex": 51,
          "beatInMeasure": 7,
          "isRest": false
        },
        {
          "midi": 60,
          "name": "C4",
          "velocity": 0.76,
          "startMs": 65684,
          "durationMs": 316,
          "noteDuration": "whole",
          "measureIndex": 52,
          "beatInMeasure": 0,
          "isRest": false
        },
        {
          "midi": 71,
          "name": "B4",
          "velocity": 0.39,
          "startMs": 66947,
          "durationMs": 316,
          "noteDuration": "quarter",
          "measureIndex": 53,
          "beatInMeasure": 0,
          "isRest": false
        },
        {
          "midi": 74,
          "name": "D5",
          "velocity": 0.39,
          "startMs": 67263,
          "durationMs": 158,
          "noteDuration": "eighth",
          "measureIndex": 53,
          "beatInMeasure": 2,
          "isRest": false
        },
        {
          "midi": 71,
          "name": "B4",
          "velocity": 0.39,
          "startMs": 67421,
          "durationMs": 158,
          "noteDuration": "eighth",
          "measureIndex": 53,
          "beatInMeasure": 3,
          "isRest": false
        },
        {
          "midi": 67,
          "name": "G4",
          "velocity": 0.39,
          "startMs": 67579,
          "durationMs": 158,
          "noteDuration": "quarter",
          "measureIndex": 53,
          "beatInMeasure": 4,
          "isRest": false
        },
        {
          "midi": 67,
          "name": "G4",
          "velocity": 0.39,
          "startMs": 67895,
          "durationMs": 158,
          "noteDuration": "quarter",
          "measureIndex": 53,
          "beatInMeasure": 6,
          "isRest": false
        },
        {
          "midi": 72,
          "name": "C5",
          "velocity": 0.39,
          "startMs": 68210,
          "durationMs": 316,
          "noteDuration": "quarter",
          "measureIndex": 54,
          "beatInMeasure": 0,
          "isRest": false
        },
        {
          "midi": 75,
          "name": "D#5",
          "velocity": 0.39,
          "startMs": 68526,
          "durationMs": 158,
          "noteDuration": "eighth",
          "measureIndex": 54,
          "beatInMeasure": 2,
          "isRest": false
        },
        {
          "midi": 72,
          "name": "C5",
          "velocity": 0.39,
          "startMs": 68684,
          "durationMs": 158,
          "noteDuration": "eighth",
          "measureIndex": 54,
          "beatInMeasure": 3,
          "isRest": false
        },
        {
          "midi": 67,
          "name": "G4",
          "velocity": 0.39,
          "startMs": 68842,
          "durationMs": 158,
          "noteDuration": "quarter",
          "measureIndex": 54,
          "beatInMeasure": 4,
          "isRest": false
        },
        {
          "midi": 79,
          "name": "G5",
          "velocity": 0.39,
          "startMs": 69158,
          "durationMs": 316,
          "noteDuration": "quarter",
          "measureIndex": 54,
          "beatInMeasure": 6,
          "isRest": false
        },
        {
          "midi": 77,
          "name": "F5",
          "velocity": 0.39,
          "startMs": 69474,
          "durationMs": 315,
          "noteDuration": "quarter",
          "measureIndex": 55,
          "beatInMeasure": 0,
          "isRest": false
        },
        {
          "midi": 74,
          "name": "D5",
          "velocity": 0.39,
          "startMs": 69789,
          "durationMs": 316,
          "noteDuration": "quarter",
          "measureIndex": 55,
          "beatInMeasure": 2,
          "isRest": false
        },
        {
          "midi": 75,
          "name": "D#5",
          "velocity": 0.39,
          "startMs": 70105,
          "durationMs": 316,
          "noteDuration": "quarter",
          "measureIndex": 55,
          "beatInMeasure": 4,
          "isRest": false
        },
        {
          "midi": 72,
          "name": "C5",
          "velocity": 0.39,
          "startMs": 70421,
          "durationMs": 316,
          "noteDuration": "quarter",
          "measureIndex": 55,
          "beatInMeasure": 6,
          "isRest": false
        },
        {
          "midi": 71,
          "name": "B4",
          "velocity": 0.39,
          "startMs": 70737,
          "durationMs": 158,
          "noteDuration": "eighth",
          "measureIndex": 56,
          "beatInMeasure": 0,
          "isRest": false
        },
        {
          "midi": 72,
          "name": "C5",
          "velocity": 0.39,
          "startMs": 70895,
          "durationMs": 158,
          "noteDuration": "eighth",
          "measureIndex": 56,
          "beatInMeasure": 1,
          "isRest": false
        },
        {
          "midi": 74,
          "name": "D5",
          "velocity": 0.39,
          "startMs": 71053,
          "durationMs": 157,
          "noteDuration": "eighth",
          "measureIndex": 56,
          "beatInMeasure": 2,
          "isRest": false
        },
        {
          "midi": 71,
          "name": "B4",
          "velocity": 0.39,
          "startMs": 71210,
          "durationMs": 158,
          "noteDuration": "eighth",
          "measureIndex": 56,
          "beatInMeasure": 3,
          "isRest": false
        },
        {
          "midi": 67,
          "name": "G4",
          "velocity": 0.39,
          "startMs": 71368,
          "durationMs": 158,
          "noteDuration": "quarter",
          "measureIndex": 56,
          "beatInMeasure": 4,
          "isRest": false
        },
        {
          "midi": 67,
          "name": "G4",
          "velocity": 0.39,
          "startMs": 71684,
          "durationMs": 158,
          "noteDuration": "quarter",
          "measureIndex": 56,
          "beatInMeasure": 6,
          "isRest": false
        },
        {
          "midi": 79,
          "name": "G5",
          "velocity": 0.76,
          "startMs": 72000,
          "durationMs": 158,
          "noteDuration": "eighth",
          "measureIndex": 57,
          "beatInMeasure": 0,
          "isRest": false
        },
        {
          "midi": 67,
          "name": "G4",
          "velocity": 0.76,
          "startMs": 72158,
          "durationMs": 158,
          "noteDuration": "eighth",
          "measureIndex": 57,
          "beatInMeasure": 1,
          "isRest": false
        },
        {
          "midi": 79,
          "name": "G5",
          "velocity": 0.76,
          "startMs": 72316,
          "durationMs": 158,
          "noteDuration": "eighth",
          "measureIndex": 57,
          "beatInMeasure": 2,
          "isRest": false
        },
        {
          "midi": 67,
          "name": "G4",
          "velocity": 0.76,
          "startMs": 72474,
          "durationMs": 157,
          "noteDuration": "eighth",
          "measureIndex": 57,
          "beatInMeasure": 3,
          "isRest": false
        },
        {
          "midi": 79,
          "name": "G5",
          "velocity": 0.76,
          "startMs": 72631,
          "durationMs": 158,
          "noteDuration": "eighth",
          "measureIndex": 57,
          "beatInMeasure": 4,
          "isRest": false
        },
        {
          "midi": 67,
          "name": "G4",
          "velocity": 0.76,
          "startMs": 72789,
          "durationMs": 158,
          "noteDuration": "eighth",
          "measureIndex": 57,
          "beatInMeasure": 5,
          "isRest": false
        },
        {
          "midi": 79,
          "name": "G5",
          "velocity": 0.76,
          "startMs": 72947,
          "durationMs": 158,
          "noteDuration": "eighth",
          "measureIndex": 57,
          "beatInMeasure": 6,
          "isRest": false
        },
        {
          "midi": 67,
          "name": "G4",
          "velocity": 0.76,
          "startMs": 73105,
          "durationMs": 158,
          "noteDuration": "eighth",
          "measureIndex": 57,
          "beatInMeasure": 7,
          "isRest": false
        },
        {
          "midi": 79,
          "name": "G5",
          "velocity": 0.76,
          "startMs": 73263,
          "durationMs": 158,
          "noteDuration": "eighth",
          "measureIndex": 58,
          "beatInMeasure": 0,
          "isRest": false
        },
        {
          "midi": 67,
          "name": "G4",
          "velocity": 0.76,
          "startMs": 73421,
          "durationMs": 158,
          "noteDuration": "eighth",
          "measureIndex": 58,
          "beatInMeasure": 1,
          "isRest": false
        },
        {
          "midi": 79,
          "name": "G5",
          "velocity": 0.76,
          "startMs": 73579,
          "durationMs": 158,
          "noteDuration": "eighth",
          "measureIndex": 58,
          "beatInMeasure": 2,
          "isRest": false
        },
        {
          "midi": 67,
          "name": "G4",
          "velocity": 0.76,
          "startMs": 73737,
          "durationMs": 158,
          "noteDuration": "eighth",
          "measureIndex": 58,
          "beatInMeasure": 3,
          "isRest": false
        },
        {
          "midi": 79,
          "name": "G5",
          "velocity": 0.76,
          "startMs": 73895,
          "durationMs": 158,
          "noteDuration": "eighth",
          "measureIndex": 58,
          "beatInMeasure": 4,
          "isRest": false
        },
        {
          "midi": 67,
          "name": "G4",
          "velocity": 0.76,
          "startMs": 74053,
          "durationMs": 157,
          "noteDuration": "eighth",
          "measureIndex": 58,
          "beatInMeasure": 5,
          "isRest": false
        },
        {
          "midi": 79,
          "name": "G5",
          "velocity": 0.76,
          "startMs": 74210,
          "durationMs": 158,
          "noteDuration": "eighth",
          "measureIndex": 58,
          "beatInMeasure": 6,
          "isRest": false
        },
        {
          "midi": 67,
          "name": "G4",
          "velocity": 0.76,
          "startMs": 74368,
          "durationMs": 158,
          "noteDuration": "eighth",
          "measureIndex": 58,
          "beatInMeasure": 7,
          "isRest": false
        },
        {
          "midi": 74,
          "name": "D5",
          "velocity": 0.76,
          "startMs": 74526,
          "durationMs": 158,
          "noteDuration": "eighth",
          "measureIndex": 59,
          "beatInMeasure": 0,
          "isRest": false
        },
        {
          "midi": 75,
          "name": "D#5",
          "velocity": 0.76,
          "startMs": 74684,
          "durationMs": 158,
          "noteDuration": "eighth",
          "measureIndex": 59,
          "beatInMeasure": 1,
          "isRest": false
        },
        {
          "midi": 77,
          "name": "F5",
          "velocity": 0.76,
          "startMs": 74842,
          "durationMs": 158,
          "noteDuration": "eighth",
          "measureIndex": 59,
          "beatInMeasure": 2,
          "isRest": false
        },
        {
          "midi": 74,
          "name": "D5",
          "velocity": 0.76,
          "startMs": 75000,
          "durationMs": 158,
          "noteDuration": "eighth",
          "measureIndex": 59,
          "beatInMeasure": 3,
          "isRest": false
        },
        {
          "midi": 77,
          "name": "F5",
          "velocity": 0.76,
          "startMs": 75158,
          "durationMs": 158,
          "noteDuration": "eighth",
          "measureIndex": 59,
          "beatInMeasure": 4,
          "isRest": false
        },
        {
          "midi": 75,
          "name": "D#5",
          "velocity": 0.76,
          "startMs": 75316,
          "durationMs": 158,
          "noteDuration": "eighth",
          "measureIndex": 59,
          "beatInMeasure": 5,
          "isRest": false
        },
        {
          "midi": 74,
          "name": "D5",
          "velocity": 0.76,
          "startMs": 75474,
          "durationMs": 157,
          "noteDuration": "eighth",
          "measureIndex": 59,
          "beatInMeasure": 6,
          "isRest": false
        },
        {
          "midi": 72,
          "name": "C5",
          "velocity": 0.76,
          "startMs": 75631,
          "durationMs": 158,
          "noteDuration": "eighth",
          "measureIndex": 59,
          "beatInMeasure": 7,
          "isRest": false
        },
        {
          "midi": 71,
          "name": "B4",
          "velocity": 0.76,
          "startMs": 75789,
          "durationMs": 316,
          "noteDuration": "thirty-second",
          "measureIndex": 60,
          "beatInMeasure": 0,
          "isRest": false
        },
        {
          "midi": 79,
          "name": "G5",
          "velocity": 0.76,
          "startMs": 75789,
          "durationMs": 316,
          "noteDuration": "whole",
          "measureIndex": 60,
          "beatInMeasure": 0,
          "isRest": false
        },
        {
          "midi": 60,
          "name": "C4",
          "velocity": 0.39,
          "startMs": 77053,
          "durationMs": 315,
          "noteDuration": "quarter",
          "measureIndex": 61,
          "beatInMeasure": 0,
          "isRest": false
        },
        {
          "midi": 64,
          "name": "E4",
          "velocity": 0.39,
          "startMs": 77368,
          "durationMs": 158,
          "noteDuration": "eighth",
          "measureIndex": 61,
          "beatInMeasure": 2,
          "isRest": false
        },
        {
          "midi": 60,
          "name": "C4",
          "velocity": 0.39,
          "startMs": 77526,
          "durationMs": 158,
          "noteDuration": "eighth",
          "measureIndex": 61,
          "beatInMeasure": 3,
          "isRest": false
        },
        {
          "midi": 55,
          "name": "G3",
          "velocity": 0.39,
          "startMs": 77684,
          "durationMs": 158,
          "noteDuration": "quarter",
          "measureIndex": 61,
          "beatInMeasure": 4,
          "isRest": false
        },
        {
          "midi": 55,
          "name": "G3",
          "velocity": 0.39,
          "startMs": 78000,
          "durationMs": 158,
          "noteDuration": "quarter",
          "measureIndex": 61,
          "beatInMeasure": 6,
          "isRest": false
        },
        {
          "midi": 60,
          "name": "C4",
          "velocity": 0.39,
          "startMs": 78316,
          "durationMs": 315,
          "noteDuration": "quarter",
          "measureIndex": 62,
          "beatInMeasure": 0,
          "isRest": false
        },
        {
          "midi": 64,
          "name": "E4",
          "velocity": 0.39,
          "startMs": 78631,
          "durationMs": 158,
          "noteDuration": "eighth",
          "measureIndex": 62,
          "beatInMeasure": 2,
          "isRest": false
        },
        {
          "midi": 60,
          "name": "C4",
          "velocity": 0.39,
          "startMs": 78789,
          "durationMs": 158,
          "noteDuration": "eighth",
          "measureIndex": 62,
          "beatInMeasure": 3,
          "isRest": false
        },
        {
          "midi": 55,
          "name": "G3",
          "velocity": 0.39,
          "startMs": 78947,
          "durationMs": 158,
          "noteDuration": "quarter",
          "measureIndex": 62,
          "beatInMeasure": 4,
          "isRest": false
        },
        {
          "midi": 67,
          "name": "G4",
          "velocity": 0.39,
          "startMs": 79263,
          "durationMs": 316,
          "noteDuration": "quarter",
          "measureIndex": 62,
          "beatInMeasure": 6,
          "isRest": false
        },
        {
          "midi": 65,
          "name": "F4",
          "velocity": 0.39,
          "startMs": 79579,
          "durationMs": 158,
          "noteDuration": "eighth",
          "measureIndex": 63,
          "beatInMeasure": 0,
          "isRest": false
        },
        {
          "midi": 64,
          "name": "E4",
          "velocity": 0.39,
          "startMs": 79737,
          "durationMs": 158,
          "noteDuration": "eighth",
          "measureIndex": 63,
          "beatInMeasure": 1,
          "isRest": false
        },
        {
          "midi": 62,
          "name": "D4",
          "velocity": 0.39,
          "startMs": 79895,
          "durationMs": 158,
          "noteDuration": "eighth",
          "measureIndex": 63,
          "beatInMeasure": 2,
          "isRest": false
        },
        {
          "midi": 60,
          "name": "C4",
          "velocity": 0.39,
          "startMs": 80053,
          "durationMs": 157,
          "noteDuration": "eighth",
          "measureIndex": 63,
          "beatInMeasure": 3,
          "isRest": false
        },
        {
          "midi": 59,
          "name": "B3",
          "velocity": 0.39,
          "startMs": 80210,
          "durationMs": 158,
          "noteDuration": "eighth",
          "measureIndex": 63,
          "beatInMeasure": 4,
          "isRest": false
        },
        {
          "midi": 60,
          "name": "C4",
          "velocity": 0.39,
          "startMs": 80368,
          "durationMs": 158,
          "noteDuration": "eighth",
          "measureIndex": 63,
          "beatInMeasure": 5,
          "isRest": false
        },
        {
          "midi": 59,
          "name": "B3",
          "velocity": 0.39,
          "startMs": 80526,
          "durationMs": 158,
          "noteDuration": "eighth",
          "measureIndex": 63,
          "beatInMeasure": 6,
          "isRest": false
        },
        {
          "midi": 60,
          "name": "C4",
          "velocity": 0.39,
          "startMs": 80684,
          "durationMs": 158,
          "noteDuration": "eighth",
          "measureIndex": 63,
          "beatInMeasure": 7,
          "isRest": false
        },
        {
          "midi": 62,
          "name": "D4",
          "velocity": 0.39,
          "startMs": 80842,
          "durationMs": 158,
          "noteDuration": "eighth",
          "measureIndex": 64,
          "beatInMeasure": 0,
          "isRest": false
        },
        {
          "midi": 60,
          "name": "C4",
          "velocity": 0.39,
          "startMs": 81000,
          "durationMs": 158,
          "noteDuration": "eighth",
          "measureIndex": 64,
          "beatInMeasure": 1,
          "isRest": false
        },
        {
          "midi": 59,
          "name": "B3",
          "velocity": 0.39,
          "startMs": 81158,
          "durationMs": 158,
          "noteDuration": "eighth",
          "measureIndex": 64,
          "beatInMeasure": 2,
          "isRest": false
        },
        {
          "midi": 57,
          "name": "A3",
          "velocity": 0.39,
          "startMs": 81316,
          "durationMs": 158,
          "noteDuration": "eighth",
          "measureIndex": 64,
          "beatInMeasure": 3,
          "isRest": false
        },
        {
          "midi": 55,
          "name": "G3",
          "velocity": 0.39,
          "startMs": 81474,
          "durationMs": 315,
          "noteDuration": "half",
          "measureIndex": 64,
          "beatInMeasure": 4,
          "isRest": false
        },
        {
          "midi": 60,
          "name": "C4",
          "velocity": 0.39,
          "startMs": 82105,
          "durationMs": 316,
          "noteDuration": "quarter",
          "measureIndex": 65,
          "beatInMeasure": 0,
          "isRest": false
        },
        {
          "midi": 55,
          "name": "G3",
          "velocity": 0.39,
          "startMs": 82421,
          "durationMs": 158,
          "noteDuration": "eighth",
          "measureIndex": 65,
          "beatInMeasure": 2,
          "isRest": false
        },
        {
          "midi": 60,
          "name": "C4",
          "velocity": 0.39,
          "startMs": 82579,
          "durationMs": 158,
          "noteDuration": "eighth",
          "measureIndex": 65,
          "beatInMeasure": 3,
          "isRest": false
        },
        {
          "midi": 64,
          "name": "E4",
          "velocity": 0.39,
          "startMs": 82737,
          "durationMs": 158,
          "noteDuration": "quarter",
          "measureIndex": 65,
          "beatInMeasure": 4,
          "isRest": false
        },
        {
          "midi": 64,
          "name": "E4",
          "velocity": 0.39,
          "startMs": 83053,
          "durationMs": 157,
          "noteDuration": "quarter",
          "measureIndex": 65,
          "beatInMeasure": 6,
          "isRest": false
        },
        {
          "midi": 64,
          "name": "E4",
          "velocity": 0.39,
          "startMs": 83368,
          "durationMs": 316,
          "noteDuration": "quarter",
          "measureIndex": 66,
          "beatInMeasure": 0,
          "isRest": false
        },
        {
          "midi": 60,
          "name": "C4",
          "velocity": 0.39,
          "startMs": 83684,
          "durationMs": 158,
          "noteDuration": "eighth",
          "measureIndex": 66,
          "beatInMeasure": 2,
          "isRest": false
        },
        {
          "midi": 64,
          "name": "E4",
          "velocity": 0.39,
          "startMs": 83842,
          "durationMs": 158,
          "noteDuration": "eighth",
          "measureIndex": 66,
          "beatInMeasure": 3,
          "isRest": false
        },
        {
          "midi": 67,
          "name": "G4",
          "velocity": 0.39,
          "startMs": 84000,
          "durationMs": 158,
          "noteDuration": "quarter",
          "measureIndex": 66,
          "beatInMeasure": 4,
          "isRest": false
        },
        {
          "midi": 72,
          "name": "C5",
          "velocity": 0.39,
          "startMs": 84316,
          "durationMs": 158,
          "noteDuration": "quarter",
          "measureIndex": 66,
          "beatInMeasure": 6,
          "isRest": false
        },
        {
          "midi": 64,
          "name": "E4",
          "velocity": 0.39,
          "startMs": 84631,
          "durationMs": 158,
          "noteDuration": "thirty-second",
          "measureIndex": 67,
          "beatInMeasure": 0,
          "isRest": false
        },
        {
          "midi": 67,
          "name": "G4",
          "velocity": 0.39,
          "startMs": 84631,
          "durationMs": 158,
          "noteDuration": "quarter",
          "measureIndex": 67,
          "beatInMeasure": 0,
          "isRest": false
        },
        {
          "midi": 62,
          "name": "D4",
          "velocity": 0.39,
          "startMs": 84947,
          "durationMs": 158,
          "noteDuration": "thirty-second",
          "measureIndex": 67,
          "beatInMeasure": 2,
          "isRest": false
        },
        {
          "midi": 65,
          "name": "F4",
          "velocity": 0.39,
          "startMs": 84947,
          "durationMs": 158,
          "noteDuration": "quarter",
          "measureIndex": 67,
          "beatInMeasure": 2,
          "isRest": false
        },
        {
          "midi": 60,
          "name": "C4",
          "velocity": 0.39,
          "startMs": 85263,
          "durationMs": 158,
          "noteDuration": "thirty-second",
          "measureIndex": 67,
          "beatInMeasure": 4,
          "isRest": false
        },
        {
          "midi": 64,
          "name": "E4",
          "velocity": 0.39,
          "startMs": 85263,
          "durationMs": 158,
          "noteDuration": "quarter",
          "measureIndex": 67,
          "beatInMeasure": 4,
          "isRest": false
        },
        {
          "midi": 59,
          "name": "B3",
          "velocity": 0.39,
          "startMs": 85579,
          "durationMs": 158,
          "noteDuration": "thirty-second",
          "measureIndex": 67,
          "beatInMeasure": 6,
          "isRest": false
        },
        {
          "midi": 62,
          "name": "D4",
          "velocity": 0.39,
          "startMs": 85579,
          "durationMs": 158,
          "noteDuration": "quarter",
          "measureIndex": 67,
          "beatInMeasure": 6,
          "isRest": false
        },
        {
          "midi": 60,
          "name": "C4",
          "velocity": 0.76,
          "startMs": 85895,
          "durationMs": 158,
          "noteDuration": "eighth",
          "measureIndex": 68,
          "beatInMeasure": 0,
          "isRest": false
        },
        {
          "midi": 62,
          "name": "D4",
          "velocity": 0.76,
          "startMs": 86053,
          "durationMs": 157,
          "noteDuration": "eighth",
          "measureIndex": 68,
          "beatInMeasure": 1,
          "isRest": false
        },
        {
          "midi": 64,
          "name": "E4",
          "velocity": 0.76,
          "startMs": 86210,
          "durationMs": 158,
          "noteDuration": "eighth",
          "measureIndex": 68,
          "beatInMeasure": 2,
          "isRest": false
        },
        {
          "midi": 65,
          "name": "F4",
          "velocity": 0.76,
          "startMs": 86368,
          "durationMs": 158,
          "noteDuration": "eighth",
          "measureIndex": 68,
          "beatInMeasure": 3,
          "isRest": false
        },
        {
          "midi": 67,
          "name": "G4",
          "velocity": 0.76,
          "startMs": 86526,
          "durationMs": 158,
          "noteDuration": "eighth",
          "measureIndex": 68,
          "beatInMeasure": 4,
          "isRest": false
        },
        {
          "midi": 69,
          "name": "A4",
          "velocity": 0.76,
          "startMs": 86684,
          "durationMs": 158,
          "noteDuration": "eighth",
          "measureIndex": 68,
          "beatInMeasure": 5,
          "isRest": false
        },
        {
          "midi": 71,
          "name": "B4",
          "velocity": 0.76,
          "startMs": 86842,
          "durationMs": 158,
          "noteDuration": "eighth",
          "measureIndex": 68,
          "beatInMeasure": 6,
          "isRest": false
        },
        {
          "midi": 72,
          "name": "C5",
          "velocity": 0.76,
          "startMs": 87000,
          "durationMs": 158,
          "noteDuration": "eighth",
          "measureIndex": 68,
          "beatInMeasure": 7,
          "isRest": false
        },
        {
          "midi": 62,
          "name": "D4",
          "velocity": 0.76,
          "startMs": 87158,
          "durationMs": 316,
          "noteDuration": "quarter",
          "measureIndex": 69,
          "beatInMeasure": 0,
          "isRest": false
        },
        {
          "midi": 74,
          "name": "D5",
          "velocity": 0.76,
          "startMs": 87474,
          "durationMs": 157,
          "noteDuration": "quarter",
          "measureIndex": 69,
          "beatInMeasure": 2,
          "isRest": false
        },
        {
          "midi": 74,
          "name": "D5",
          "velocity": 0.76,
          "startMs": 87789,
          "durationMs": 158,
          "noteDuration": "quarter",
          "measureIndex": 69,
          "beatInMeasure": 4,
          "isRest": false
        },
        {
          "midi": 74,
          "name": "D5",
          "velocity": 0.76,
          "startMs": 88105,
          "durationMs": 158,
          "noteDuration": "quarter",
          "measureIndex": 69,
          "beatInMeasure": 6,
          "isRest": false
        },
        {
          "midi": 64,
          "name": "E4",
          "velocity": 0.76,
          "startMs": 88421,
          "durationMs": 158,
          "noteDuration": "eighth",
          "measureIndex": 70,
          "beatInMeasure": 0,
          "isRest": false
        },
        {
          "midi": 65,
          "name": "F4",
          "velocity": 0.76,
          "startMs": 88579,
          "durationMs": 158,
          "noteDuration": "eighth",
          "measureIndex": 70,
          "beatInMeasure": 1,
          "isRest": false
        },
        {
          "midi": 67,
          "name": "G4",
          "velocity": 0.76,
          "startMs": 88737,
          "durationMs": 158,
          "noteDuration": "eighth",
          "measureIndex": 70,
          "beatInMeasure": 2,
          "isRest": false
        },
        {
          "midi": 69,
          "name": "A4",
          "velocity": 0.76,
          "startMs": 88895,
          "durationMs": 157,
          "noteDuration": "eighth",
          "measureIndex": 70,
          "beatInMeasure": 3,
          "isRest": false
        },
        {
          "midi": 71,
          "name": "B4",
          "velocity": 0.76,
          "startMs": 89052,
          "durationMs": 158,
          "noteDuration": "eighth",
          "measureIndex": 70,
          "beatInMeasure": 4,
          "isRest": false
        },
        {
          "midi": 72,
          "name": "C5",
          "velocity": 0.76,
          "startMs": 89210,
          "durationMs": 158,
          "noteDuration": "eighth",
          "measureIndex": 70,
          "beatInMeasure": 5,
          "isRest": false
        },
        {
          "midi": 74,
          "name": "D5",
          "velocity": 0.76,
          "startMs": 89368,
          "durationMs": 158,
          "noteDuration": "eighth",
          "measureIndex": 70,
          "beatInMeasure": 6,
          "isRest": false
        },
        {
          "midi": 76,
          "name": "E5",
          "velocity": 0.76,
          "startMs": 89526,
          "durationMs": 158,
          "noteDuration": "eighth",
          "measureIndex": 70,
          "beatInMeasure": 7,
          "isRest": false
        },
        {
          "midi": 65,
          "name": "F4",
          "velocity": 0.76,
          "startMs": 89684,
          "durationMs": 316,
          "noteDuration": "quarter",
          "measureIndex": 71,
          "beatInMeasure": 0,
          "isRest": false
        },
        {
          "midi": 77,
          "name": "F5",
          "velocity": 0.76,
          "startMs": 90000,
          "durationMs": 158,
          "noteDuration": "quarter",
          "measureIndex": 71,
          "beatInMeasure": 2,
          "isRest": false
        },
        {
          "midi": 77,
          "name": "F5",
          "velocity": 0.76,
          "startMs": 90316,
          "durationMs": 158,
          "noteDuration": "quarter",
          "measureIndex": 71,
          "beatInMeasure": 4,
          "isRest": false
        },
        {
          "midi": 77,
          "name": "F5",
          "velocity": 0.76,
          "startMs": 90631,
          "durationMs": 158,
          "noteDuration": "quarter",
          "measureIndex": 71,
          "beatInMeasure": 6,
          "isRest": false
        },
        {
          "midi": 67,
          "name": "G4",
          "velocity": 0.76,
          "startMs": 90947,
          "durationMs": 158,
          "noteDuration": "eighth",
          "measureIndex": 72,
          "beatInMeasure": 0,
          "isRest": false
        },
        {
          "midi": 72,
          "name": "C5",
          "velocity": 0.76,
          "startMs": 91105,
          "durationMs": 158,
          "noteDuration": "eighth",
          "measureIndex": 72,
          "beatInMeasure": 1,
          "isRest": false
        },
        {
          "midi": 76,
          "name": "E5",
          "velocity": 0.76,
          "startMs": 91263,
          "durationMs": 158,
          "noteDuration": "eighth",
          "measureIndex": 72,
          "beatInMeasure": 2,
          "isRest": false
        },
        {
          "midi": 79,
          "name": "G5",
          "velocity": 0.76,
          "startMs": 91421,
          "durationMs": 158,
          "noteDuration": "eighth",
          "measureIndex": 72,
          "beatInMeasure": 3,
          "isRest": false
        },
        {
          "midi": 77,
          "name": "F5",
          "velocity": 0.76,
          "startMs": 91579,
          "durationMs": 158,
          "noteDuration": "eighth",
          "measureIndex": 72,
          "beatInMeasure": 4,
          "isRest": false
        },
        {
          "midi": 76,
          "name": "E5",
          "velocity": 0.76,
          "startMs": 91737,
          "durationMs": 158,
          "noteDuration": "eighth",
          "measureIndex": 72,
          "beatInMeasure": 5,
          "isRest": false
        },
        {
          "midi": 74,
          "name": "D5",
          "velocity": 0.76,
          "startMs": 91895,
          "durationMs": 157,
          "noteDuration": "eighth",
          "measureIndex": 72,
          "beatInMeasure": 6,
          "isRest": false
        },
        {
          "midi": 72,
          "name": "C5",
          "velocity": 0.76,
          "startMs": 92052,
          "durationMs": 158,
          "noteDuration": "eighth",
          "measureIndex": 72,
          "beatInMeasure": 7,
          "isRest": false
        },
        {
          "midi": 81,
          "name": "A5",
          "velocity": 0.76,
          "startMs": 92210,
          "durationMs": 158,
          "noteDuration": "eighth",
          "measureIndex": 73,
          "beatInMeasure": 0,
          "isRest": false
        },
        {
          "midi": 79,
          "name": "G5",
          "velocity": 0.76,
          "startMs": 92368,
          "durationMs": 158,
          "noteDuration": "eighth",
          "measureIndex": 73,
          "beatInMeasure": 1,
          "isRest": false
        },
        {
          "midi": 77,
          "name": "F5",
          "velocity": 0.76,
          "startMs": 92526,
          "durationMs": 158,
          "noteDuration": "eighth",
          "measureIndex": 73,
          "beatInMeasure": 2,
          "isRest": false
        },
        {
          "midi": 76,
          "name": "E5",
          "velocity": 0.76,
          "startMs": 92684,
          "durationMs": 158,
          "noteDuration": "eighth",
          "measureIndex": 73,
          "beatInMeasure": 3,
          "isRest": false
        },
        {
          "midi": 74,
          "name": "D5",
          "velocity": 0.76,
          "startMs": 92842,
          "durationMs": 158,
          "noteDuration": "eighth",
          "measureIndex": 73,
          "beatInMeasure": 4,
          "isRest": false
        },
        {
          "midi": 72,
          "name": "C5",
          "velocity": 0.76,
          "startMs": 93000,
          "durationMs": 158,
          "noteDuration": "eighth",
          "measureIndex": 73,
          "beatInMeasure": 5,
          "isRest": false
        },
        {
          "midi": 71,
          "name": "B4",
          "velocity": 0.76,
          "startMs": 93158,
          "durationMs": 158,
          "noteDuration": "eighth",
          "measureIndex": 73,
          "beatInMeasure": 6,
          "isRest": false
        },
        {
          "midi": 69,
          "name": "A4",
          "velocity": 0.76,
          "startMs": 93316,
          "durationMs": 158,
          "noteDuration": "eighth",
          "measureIndex": 73,
          "beatInMeasure": 7,
          "isRest": false
        },
        {
          "midi": 67,
          "name": "G4",
          "velocity": 0.76,
          "startMs": 93474,
          "durationMs": 157,
          "noteDuration": "eighth",
          "measureIndex": 74,
          "beatInMeasure": 0,
          "isRest": false
        },
        {
          "midi": 69,
          "name": "A4",
          "velocity": 0.76,
          "startMs": 93631,
          "durationMs": 158,
          "noteDuration": "eighth",
          "measureIndex": 74,
          "beatInMeasure": 1,
          "isRest": false
        },
        {
          "midi": 65,
          "name": "F4",
          "velocity": 0.76,
          "startMs": 93789,
          "durationMs": 158,
          "noteDuration": "eighth",
          "measureIndex": 74,
          "beatInMeasure": 2,
          "isRest": false
        },
        {
          "midi": 67,
          "name": "G4",
          "velocity": 0.76,
          "startMs": 93947,
          "durationMs": 158,
          "noteDuration": "eighth",
          "measureIndex": 74,
          "beatInMeasure": 3,
          "isRest": false
        },
        {
          "midi": 64,
          "name": "E4",
          "velocity": 0.76,
          "startMs": 94105,
          "durationMs": 158,
          "noteDuration": "eighth",
          "measureIndex": 74,
          "beatInMeasure": 4,
          "isRest": false
        },
        {
          "midi": 65,
          "name": "F4",
          "velocity": 0.76,
          "startMs": 94263,
          "durationMs": 158,
          "noteDuration": "eighth",
          "measureIndex": 74,
          "beatInMeasure": 5,
          "isRest": false
        },
        {
          "midi": 62,
          "name": "D4",
          "velocity": 0.76,
          "startMs": 94421,
          "durationMs": 158,
          "noteDuration": "eighth",
          "measureIndex": 74,
          "beatInMeasure": 6,
          "isRest": false
        },
        {
          "midi": 64,
          "name": "E4",
          "velocity": 0.76,
          "startMs": 94579,
          "durationMs": 158,
          "noteDuration": "eighth",
          "measureIndex": 74,
          "beatInMeasure": 7,
          "isRest": false
        },
        {
          "midi": 60,
          "name": "C4",
          "velocity": 0.76,
          "startMs": 94737,
          "durationMs": 315,
          "noteDuration": "whole",
          "measureIndex": 75,
          "beatInMeasure": 0,
          "isRest": false
        },
        {
          "midi": 72,
          "name": "C5",
          "velocity": 0.76,
          "startMs": 96000,
          "durationMs": 1846,
          "noteDuration": "half",
          "measureIndex": 76,
          "beatInMeasure": 0,
          "isRest": false
        },
        {
          "midi": 77,
          "name": "F5",
          "velocity": 0.76,
          "startMs": 97846,
          "durationMs": 923,
          "noteDuration": "quarter",
          "measureIndex": 76,
          "beatInMeasure": 2,
          "isRest": false
        },
        {
          "midi": 69,
          "name": "A4",
          "velocity": 0.76,
          "startMs": 98769,
          "durationMs": 1846,
          "noteDuration": "half",
          "measureIndex": 77,
          "beatInMeasure": 0,
          "isRest": false
        },
        {
          "midi": 72,
          "name": "C5",
          "velocity": 0.76,
          "startMs": 100615,
          "durationMs": 923,
          "noteDuration": "quarter",
          "measureIndex": 77,
          "beatInMeasure": 2,
          "isRest": false
        },
        {
          "midi": 65,
          "name": "F4",
          "velocity": 0.76,
          "startMs": 101538,
          "durationMs": 1846,
          "noteDuration": "half",
          "measureIndex": 78,
          "beatInMeasure": 0,
          "isRest": false
        },
        {
          "midi": 67,
          "name": "G4",
          "velocity": 0.76,
          "startMs": 103384,
          "durationMs": 116,
          "noteDuration": "thirty-second",
          "measureIndex": 78,
          "beatInMeasure": 2,
          "isRest": false
        },
        {
          "midi": 69,
          "name": "A4",
          "velocity": 0.76,
          "startMs": 103500,
          "durationMs": 115,
          "noteDuration": "thirty-second",
          "measureIndex": 78,
          "beatInMeasure": 2.125,
          "isRest": false
        },
        {
          "midi": 67,
          "name": "G4",
          "velocity": 0.76,
          "startMs": 103615,
          "durationMs": 116,
          "noteDuration": "thirty-second",
          "measureIndex": 78,
          "beatInMeasure": 2.25,
          "isRest": false
        },
        {
          "midi": 69,
          "name": "A4",
          "velocity": 0.76,
          "startMs": 103731,
          "durationMs": 115,
          "noteDuration": "thirty-second",
          "measureIndex": 78,
          "beatInMeasure": 2.375,
          "isRest": false
        },
        {
          "midi": 67,
          "name": "G4",
          "velocity": 0.76,
          "startMs": 103846,
          "durationMs": 115,
          "noteDuration": "thirty-second",
          "measureIndex": 78,
          "beatInMeasure": 2.5,
          "isRest": false
        },
        {
          "midi": 69,
          "name": "A4",
          "velocity": 0.76,
          "startMs": 103961,
          "durationMs": 116,
          "noteDuration": "eighth",
          "measureIndex": 78,
          "beatInMeasure": 2.625,
          "isRest": false
        },
        {
          "midi": 69,
          "name": "A4",
          "velocity": 0.76,
          "startMs": 104308,
          "durationMs": 923,
          "noteDuration": "quarter",
          "measureIndex": 79,
          "beatInMeasure": 0,
          "isRest": false
        },
        {
          "midi": 65,
          "name": "F4",
          "velocity": 0.76,
          "startMs": 105231,
          "durationMs": 346,
          "noteDuration": "eighth",
          "measureIndex": 79,
          "beatInMeasure": 1,
          "isRest": false
        },
        {
          "midi": 69,
          "name": "A4",
          "velocity": 0.76,
          "startMs": 105577,
          "durationMs": 346,
          "noteDuration": "sixteenth",
          "measureIndex": 79,
          "beatInMeasure": 1.375,
          "isRest": false
        },
        {
          "midi": 72,
          "name": "C5",
          "velocity": 0.76,
          "startMs": 105808,
          "durationMs": 346,
          "noteDuration": "eighth",
          "measureIndex": 79,
          "beatInMeasure": 1.625,
          "isRest": false
        },
        {
          "midi": 77,
          "name": "F5",
          "velocity": 0.76,
          "startMs": 106154,
          "durationMs": 346,
          "noteDuration": "eighth",
          "measureIndex": 79,
          "beatInMeasure": 2,
          "isRest": false
        },
        {
          "midi": 77,
          "name": "F5",
          "velocity": 0.76,
          "startMs": 106500,
          "durationMs": 346,
          "noteDuration": "sixteenth",
          "measureIndex": 79,
          "beatInMeasure": 2.375,
          "isRest": false
        },
        {
          "midi": 77,
          "name": "F5",
          "velocity": 0.76,
          "startMs": 106731,
          "durationMs": 346,
          "noteDuration": "eighth",
          "measureIndex": 79,
          "beatInMeasure": 2.625,
          "isRest": false
        },
        {
          "midi": 74,
          "name": "D5",
          "velocity": 0.76,
          "startMs": 107077,
          "durationMs": 923,
          "noteDuration": "quarter",
          "measureIndex": 80,
          "beatInMeasure": 0,
          "isRest": false
        },
        {
          "midi": 65,
          "name": "F4",
          "velocity": 0.76,
          "startMs": 108000,
          "durationMs": 346,
          "noteDuration": "eighth",
          "measureIndex": 80,
          "beatInMeasure": 1,
          "isRest": false
        },
        {
          "midi": 70,
          "name": "A#4",
          "velocity": 0.76,
          "startMs": 108346,
          "durationMs": 346,
          "noteDuration": "sixteenth",
          "measureIndex": 80,
          "beatInMeasure": 1.375,
          "isRest": false
        },
        {
          "midi": 74,
          "name": "D5",
          "velocity": 0.76,
          "startMs": 108577,
          "durationMs": 346,
          "noteDuration": "eighth",
          "measureIndex": 80,
          "beatInMeasure": 1.625,
          "isRest": false
        },
        {
          "midi": 77,
          "name": "F5",
          "velocity": 0.76,
          "startMs": 108923,
          "durationMs": 346,
          "noteDuration": "eighth",
          "measureIndex": 80,
          "beatInMeasure": 2,
          "isRest": false
        },
        {
          "midi": 77,
          "name": "F5",
          "velocity": 0.76,
          "startMs": 109269,
          "durationMs": 346,
          "noteDuration": "sixteenth",
          "measureIndex": 80,
          "beatInMeasure": 2.375,
          "isRest": false
        },
        {
          "midi": 77,
          "name": "F5",
          "velocity": 0.76,
          "startMs": 109500,
          "durationMs": 346,
          "noteDuration": "eighth",
          "measureIndex": 80,
          "beatInMeasure": 2.625,
          "isRest": false
        },
        {
          "midi": 72,
          "name": "C5",
          "velocity": 0.76,
          "startMs": 109846,
          "durationMs": 923,
          "noteDuration": "quarter",
          "measureIndex": 81,
          "beatInMeasure": 0,
          "isRest": false
        },
        {
          "midi": 81,
          "name": "A5",
          "velocity": 0.76,
          "startMs": 110769,
          "durationMs": 346,
          "noteDuration": "eighth",
          "measureIndex": 81,
          "beatInMeasure": 1,
          "isRest": false
        },
        {
          "midi": 79,
          "name": "G5",
          "velocity": 0.76,
          "startMs": 111115,
          "durationMs": 346,
          "noteDuration": "sixteenth",
          "measureIndex": 81,
          "beatInMeasure": 1.375,
          "isRest": false
        },
        {
          "midi": 77,
          "name": "F5",
          "velocity": 0.76,
          "startMs": 111346,
          "durationMs": 346,
          "noteDuration": "eighth",
          "measureIndex": 81,
          "beatInMeasure": 1.625,
          "isRest": false
        },
        {
          "midi": 76,
          "name": "E5",
          "velocity": 0.76,
          "startMs": 111692,
          "durationMs": 346,
          "noteDuration": "eighth",
          "measureIndex": 81,
          "beatInMeasure": 2,
          "isRest": false
        },
        {
          "midi": 74,
          "name": "D5",
          "velocity": 0.76,
          "startMs": 112038,
          "durationMs": 346,
          "noteDuration": "sixteenth",
          "measureIndex": 81,
          "beatInMeasure": 2.375,
          "isRest": false
        },
        {
          "midi": 72,
          "name": "C5",
          "velocity": 0.76,
          "startMs": 112269,
          "durationMs": 346,
          "noteDuration": "eighth",
          "measureIndex": 81,
          "beatInMeasure": 2.625,
          "isRest": false
        },
        {
          "midi": 72,
          "name": "C5",
          "velocity": 0.76,
          "startMs": 112615,
          "durationMs": 346,
          "noteDuration": "eighth",
          "measureIndex": 82,
          "beatInMeasure": 0,
          "isRest": false
        },
        {
          "midi": 64,
          "name": "E4",
          "velocity": 0.76,
          "startMs": 112961,
          "durationMs": 347,
          "noteDuration": "sixteenth",
          "measureIndex": 82,
          "beatInMeasure": 0.375,
          "isRest": false
        },
        {
          "midi": 67,
          "name": "G4",
          "velocity": 0.76,
          "startMs": 113192,
          "durationMs": 346,
          "noteDuration": "eighth",
          "measureIndex": 82,
          "beatInMeasure": 0.625,
          "isRest": false
        },
        {
          "midi": 72,
          "name": "C5",
          "velocity": 0.76,
          "startMs": 113538,
          "durationMs": 346,
          "noteDuration": "eighth",
          "measureIndex": 82,
          "beatInMeasure": 1,
          "isRest": false
        },
        {
          "midi": 65,
          "name": "F4",
          "velocity": 0.76,
          "startMs": 113884,
          "durationMs": 347,
          "noteDuration": "sixteenth",
          "measureIndex": 82,
          "beatInMeasure": 1.375,
          "isRest": false
        },
        {
          "midi": 69,
          "name": "A4",
          "velocity": 0.76,
          "startMs": 114115,
          "durationMs": 346,
          "noteDuration": "eighth",
          "measureIndex": 82,
          "beatInMeasure": 1.625,
          "isRest": false
        },
        {
          "midi": 72,
          "name": "C5",
          "velocity": 0.76,
          "startMs": 114461,
          "durationMs": 347,
          "noteDuration": "eighth",
          "measureIndex": 82,
          "beatInMeasure": 2,
          "isRest": false
        },
        {
          "midi": 65,
          "name": "F4",
          "velocity": 0.76,
          "startMs": 114808,
          "durationMs": 346,
          "noteDuration": "sixteenth",
          "measureIndex": 82,
          "beatInMeasure": 2.375,
          "isRest": false
        },
        {
          "midi": 69,
          "name": "A4",
          "velocity": 0.76,
          "startMs": 115038,
          "durationMs": 346,
          "noteDuration": "eighth",
          "measureIndex": 82,
          "beatInMeasure": 2.625,
          "isRest": false
        },
        {
          "midi": 72,
          "name": "C5",
          "velocity": 0.88,
          "startMs": 115384,
          "durationMs": 693,
          "noteDuration": "quarter",
          "measureIndex": 83,
          "beatInMeasure": 0,
          "isRest": false
        },
        {
          "midi": 69,
          "name": "A4",
          "velocity": 0.76,
          "startMs": 116077,
          "durationMs": 231,
          "noteDuration": "sixteenth",
          "measureIndex": 83,
          "beatInMeasure": 0.75,
          "isRest": false
        },
        {
          "midi": 67,
          "name": "G4",
          "velocity": 0.39,
          "startMs": 116308,
          "durationMs": 923,
          "noteDuration": "half",
          "measureIndex": 83,
          "beatInMeasure": 1,
          "isRest": false
        },
        {
          "midi": 74,
          "name": "D5",
          "velocity": 0.39,
          "startMs": 118154,
          "durationMs": 346,
          "noteDuration": "thirty-second",
          "measureIndex": 84,
          "beatInMeasure": 0,
          "isRest": false
        },
        {
          "midi": 77,
          "name": "F5",
          "velocity": 0.39,
          "startMs": 118154,
          "durationMs": 346,
          "noteDuration": "eighth",
          "measureIndex": 84,
          "beatInMeasure": 0,
          "isRest": false
        },
        {
          "midi": 74,
          "name": "D5",
          "velocity": 0.39,
          "startMs": 118500,
          "durationMs": 346,
          "noteDuration": "thirty-second",
          "measureIndex": 84,
          "beatInMeasure": 0.375,
          "isRest": false
        },
        {
          "midi": 77,
          "name": "F5",
          "velocity": 0.39,
          "startMs": 118500,
          "durationMs": 346,
          "noteDuration": "sixteenth",
          "measureIndex": 84,
          "beatInMeasure": 0.375,
          "isRest": false
        },
        {
          "midi": 74,
          "name": "D5",
          "velocity": 0.39,
          "startMs": 118731,
          "durationMs": 346,
          "noteDuration": "thirty-second",
          "measureIndex": 84,
          "beatInMeasure": 0.625,
          "isRest": false
        },
        {
          "midi": 77,
          "name": "F5",
          "velocity": 0.39,
          "startMs": 118731,
          "durationMs": 346,
          "noteDuration": "eighth",
          "measureIndex": 84,
          "beatInMeasure": 0.625,
          "isRest": false
        },
        {
          "midi": 72,
          "name": "C5",
          "velocity": 0.39,
          "startMs": 119077,
          "durationMs": 346,
          "noteDuration": "thirty-second",
          "measureIndex": 84,
          "beatInMeasure": 1,
          "isRest": false
        },
        {
          "midi": 76,
          "name": "E5",
          "velocity": 0.39,
          "startMs": 119077,
          "durationMs": 346,
          "noteDuration": "eighth",
          "measureIndex": 84,
          "beatInMeasure": 1,
          "isRest": false
        },
        {
          "midi": 72,
          "name": "C5",
          "velocity": 0.39,
          "startMs": 119423,
          "durationMs": 346,
          "noteDuration": "thirty-second",
          "measureIndex": 84,
          "beatInMeasure": 1.375,
          "isRest": false
        },
        {
          "midi": 76,
          "name": "E5",
          "velocity": 0.39,
          "startMs": 119423,
          "durationMs": 346,
          "noteDuration": "sixteenth",
          "measureIndex": 84,
          "beatInMeasure": 1.375,
          "isRest": false
        },
        {
          "midi": 72,
          "name": "C5",
          "velocity": 0.39,
          "startMs": 119654,
          "durationMs": 346,
          "noteDuration": "thirty-second",
          "measureIndex": 84,
          "beatInMeasure": 1.625,
          "isRest": false
        },
        {
          "midi": 76,
          "name": "E5",
          "velocity": 0.39,
          "startMs": 119654,
          "durationMs": 346,
          "noteDuration": "eighth",
          "measureIndex": 84,
          "beatInMeasure": 1.625,
          "isRest": false
        },
        {
          "midi": 71,
          "name": "B4",
          "velocity": 0.39,
          "startMs": 120000,
          "durationMs": 346,
          "noteDuration": "thirty-second",
          "measureIndex": 84,
          "beatInMeasure": 2,
          "isRest": false
        },
        {
          "midi": 74,
          "name": "D5",
          "velocity": 0.39,
          "startMs": 120000,
          "durationMs": 346,
          "noteDuration": "eighth",
          "measureIndex": 84,
          "beatInMeasure": 2,
          "isRest": false
        },
        {
          "midi": 71,
          "name": "B4",
          "velocity": 0.39,
          "startMs": 120346,
          "durationMs": 346,
          "noteDuration": "thirty-second",
          "measureIndex": 84,
          "beatInMeasure": 2.375,
          "isRest": false
        },
        {
          "midi": 74,
          "name": "D5",
          "velocity": 0.39,
          "startMs": 120346,
          "durationMs": 346,
          "noteDuration": "sixteenth",
          "measureIndex": 84,
          "beatInMeasure": 2.375,
          "isRest": false
        },
        {
          "midi": 71,
          "name": "B4",
          "velocity": 0.39,
          "startMs": 120577,
          "durationMs": 346,
          "noteDuration": "thirty-second",
          "measureIndex": 84,
          "beatInMeasure": 2.625,
          "isRest": false
        },
        {
          "midi": 74,
          "name": "D5",
          "velocity": 0.39,
          "startMs": 120577,
          "durationMs": 346,
          "noteDuration": "eighth",
          "measureIndex": 84,
          "beatInMeasure": 2.625,
          "isRest": false
        },
        {
          "midi": 79,
          "name": "G5",
          "velocity": 0.76,
          "startMs": 120923,
          "durationMs": 923,
          "noteDuration": "quarter",
          "measureIndex": 85,
          "beatInMeasure": 0,
          "isRest": false
        },
        {
          "midi": 67,
          "name": "G4",
          "velocity": 0.76,
          "startMs": 121846,
          "durationMs": 346,
          "noteDuration": "eighth",
          "measureIndex": 85,
          "beatInMeasure": 1,
          "isRest": false
        },
        {
          "midi": 69,
          "name": "A4",
          "velocity": 0.76,
          "startMs": 122192,
          "durationMs": 346,
          "noteDuration": "sixteenth",
          "measureIndex": 85,
          "beatInMeasure": 1.375,
          "isRest": false
        },
        {
          "midi": 71,
          "name": "B4",
          "velocity": 0.76,
          "startMs": 122423,
          "durationMs": 346,
          "noteDuration": "eighth",
          "measureIndex": 85,
          "beatInMeasure": 1.625,
          "isRest": false
        },
        {
          "midi": 72,
          "name": "C5",
          "velocity": 0.76,
          "startMs": 122769,
          "durationMs": 346,
          "noteDuration": "eighth",
          "measureIndex": 85,
          "beatInMeasure": 2,
          "isRest": false
        },
        {
          "midi": 74,
          "name": "D5",
          "velocity": 0.76,
          "startMs": 123115,
          "durationMs": 346,
          "noteDuration": "sixteenth",
          "measureIndex": 85,
          "beatInMeasure": 2.375,
          "isRest": false
        },
        {
          "midi": 76,
          "name": "E5",
          "velocity": 0.76,
          "startMs": 123346,
          "durationMs": 346,
          "noteDuration": "eighth",
          "measureIndex": 85,
          "beatInMeasure": 2.625,
          "isRest": false
        },
        {
          "midi": 69,
          "name": "A4",
          "velocity": 0.76,
          "startMs": 123692,
          "durationMs": 346,
          "noteDuration": "eighth",
          "measureIndex": 86,
          "beatInMeasure": 0,
          "isRest": false
        },
        {
          "midi": 77,
          "name": "F5",
          "velocity": 0.76,
          "startMs": 124038,
          "durationMs": 346,
          "noteDuration": "sixteenth",
          "measureIndex": 86,
          "beatInMeasure": 0.375,
          "isRest": false
        },
        {
          "midi": 74,
          "name": "D5",
          "velocity": 0.76,
          "startMs": 124269,
          "durationMs": 346,
          "noteDuration": "eighth",
          "measureIndex": 86,
          "beatInMeasure": 0.625,
          "isRest": false
        },
        {
          "midi": 64,
          "name": "E4",
          "velocity": 0.76,
          "startMs": 124615,
          "durationMs": 346,
          "noteDuration": "thirty-second",
          "measureIndex": 86,
          "beatInMeasure": 1,
          "isRest": false
        },
        {
          "midi": 72,
          "name": "C5",
          "velocity": 0.76,
          "startMs": 124615,
          "durationMs": 346,
          "noteDuration": "eighth",
          "measureIndex": 86,
          "beatInMeasure": 1,
          "isRest": false
        },
        {
          "midi": 64,
          "name": "E4",
          "velocity": 0.76,
          "startMs": 124961,
          "durationMs": 347,
          "noteDuration": "thirty-second",
          "measureIndex": 86,
          "beatInMeasure": 1.375,
          "isRest": false
        },
        {
          "midi": 72,
          "name": "C5",
          "velocity": 0.76,
          "startMs": 124961,
          "durationMs": 347,
          "noteDuration": "sixteenth",
          "measureIndex": 86,
          "beatInMeasure": 1.375,
          "isRest": false
        },
        {
          "midi": 64,
          "name": "E4",
          "velocity": 0.76,
          "startMs": 125192,
          "durationMs": 346,
          "noteDuration": "thirty-second",
          "measureIndex": 86,
          "beatInMeasure": 1.625,
          "isRest": false
        },
        {
          "midi": 72,
          "name": "C5",
          "velocity": 0.76,
          "startMs": 125192,
          "durationMs": 346,
          "noteDuration": "eighth",
          "measureIndex": 86,
          "beatInMeasure": 1.625,
          "isRest": false
        },
        {
          "midi": 62,
          "name": "D4",
          "velocity": 0.76,
          "startMs": 125538,
          "durationMs": 346,
          "noteDuration": "thirty-second",
          "measureIndex": 86,
          "beatInMeasure": 2,
          "isRest": false
        },
        {
          "midi": 71,
          "name": "B4",
          "velocity": 0.76,
          "startMs": 125538,
          "durationMs": 346,
          "noteDuration": "eighth",
          "measureIndex": 86,
          "beatInMeasure": 2,
          "isRest": false
        },
        {
          "midi": 62,
          "name": "D4",
          "velocity": 0.76,
          "startMs": 125884,
          "durationMs": 347,
          "noteDuration": "thirty-second",
          "measureIndex": 86,
          "beatInMeasure": 2.375,
          "isRest": false
        },
        {
          "midi": 71,
          "name": "B4",
          "velocity": 0.76,
          "startMs": 125884,
          "durationMs": 347,
          "noteDuration": "sixteenth",
          "measureIndex": 86,
          "beatInMeasure": 2.375,
          "isRest": false
        },
        {
          "midi": 62,
          "name": "D4",
          "velocity": 0.76,
          "startMs": 126115,
          "durationMs": 346,
          "noteDuration": "thirty-second",
          "measureIndex": 86,
          "beatInMeasure": 2.625,
          "isRest": false
        },
        {
          "midi": 71,
          "name": "B4",
          "velocity": 0.76,
          "startMs": 126115,
          "durationMs": 346,
          "noteDuration": "eighth",
          "measureIndex": 86,
          "beatInMeasure": 2.625,
          "isRest": false
        },
        {
          "midi": 65,
          "name": "F4",
          "velocity": 0.76,
          "startMs": 126461,
          "durationMs": 1847,
          "noteDuration": "thirty-second",
          "measureIndex": 87,
          "beatInMeasure": 0,
          "isRest": false
        },
        {
          "midi": 74,
          "name": "D5",
          "velocity": 0.76,
          "startMs": 126461,
          "durationMs": 1847,
          "noteDuration": "half",
          "measureIndex": 87,
          "beatInMeasure": 0,
          "isRest": false
        },
        {
          "midi": 64,
          "name": "E4",
          "velocity": 0.63,
          "startMs": 128308,
          "durationMs": 923,
          "noteDuration": "thirty-second",
          "measureIndex": 87,
          "beatInMeasure": 2,
          "isRest": false
        },
        {
          "midi": 72,
          "name": "C5",
          "velocity": 0.63,
          "startMs": 128308,
          "durationMs": 923,
          "noteDuration": "quarter",
          "measureIndex": 87,
          "beatInMeasure": 2,
          "isRest": false
        },
        {
          "midi": 72,
          "name": "C5",
          "velocity": 0.63,
          "startMs": 129231,
          "durationMs": 346,
          "noteDuration": "eighth",
          "measureIndex": 88,
          "beatInMeasure": 0,
          "isRest": false
        },
        {
          "midi": 72,
          "name": "C5",
          "velocity": 0.69,
          "startMs": 129577,
          "durationMs": 346,
          "noteDuration": "sixteenth",
          "measureIndex": 88,
          "beatInMeasure": 0.375,
          "isRest": false
        },
        {
          "midi": 72,
          "name": "C5",
          "velocity": 0.76,
          "startMs": 129808,
          "durationMs": 346,
          "noteDuration": "eighth",
          "measureIndex": 88,
          "beatInMeasure": 0.625,
          "isRest": false
        },
        {
          "midi": 75,
          "name": "D#5",
          "velocity": 0.88,
          "startMs": 130154,
          "durationMs": 346,
          "noteDuration": "eighth",
          "measureIndex": 88,
          "beatInMeasure": 1,
          "isRest": false
        },
        {
          "midi": 74,
          "name": "D5",
          "velocity": 0.78,
          "startMs": 130500,
          "durationMs": 346,
          "noteDuration": "sixteenth",
          "measureIndex": 88,
          "beatInMeasure": 1.375,
          "isRest": false
        },
        {
          "midi": 72,
          "name": "C5",
          "velocity": 0.74,
          "startMs": 130731,
          "durationMs": 346,
          "noteDuration": "eighth",
          "measureIndex": 88,
          "beatInMeasure": 1.625,
          "isRest": false
        },
        {
          "midi": 70,
          "name": "A#4",
          "velocity": 0.39,
          "startMs": 131077,
          "durationMs": 346,
          "noteDuration": "eighth",
          "measureIndex": 88,
          "beatInMeasure": 2,
          "isRest": false
        },
        {
          "midi": 69,
          "name": "A4",
          "velocity": 0.39,
          "startMs": 131423,
          "durationMs": 346,
          "noteDuration": "sixteenth",
          "measureIndex": 88,
          "beatInMeasure": 2.375,
          "isRest": false
        },
        {
          "midi": 67,
          "name": "G4",
          "velocity": 0.39,
          "startMs": 131654,
          "durationMs": 346,
          "noteDuration": "eighth",
          "measureIndex": 88,
          "beatInMeasure": 2.625,
          "isRest": false
        },
        {
          "midi": 66,
          "name": "F#4",
          "velocity": 0.39,
          "startMs": 132000,
          "durationMs": 346,
          "noteDuration": "eighth",
          "measureIndex": 89,
          "beatInMeasure": 0,
          "isRest": false
        },
        {
          "midi": 69,
          "name": "A4",
          "velocity": 0.39,
          "startMs": 132346,
          "durationMs": 346,
          "noteDuration": "sixteenth",
          "measureIndex": 89,
          "beatInMeasure": 0.375,
          "isRest": false
        },
        {
          "midi": 62,
          "name": "D4",
          "velocity": 0.39,
          "startMs": 132577,
          "durationMs": 346,
          "noteDuration": "eighth",
          "measureIndex": 89,
          "beatInMeasure": 0.625,
          "isRest": false
        },
        {
          "midi": 67,
          "name": "G4",
          "velocity": 0.39,
          "startMs": 132923,
          "durationMs": 346,
          "noteDuration": "eighth",
          "measureIndex": 89,
          "beatInMeasure": 1,
          "isRest": false
        },
        {
          "midi": 70,
          "name": "A#4",
          "velocity": 0.39,
          "startMs": 133269,
          "durationMs": 346,
          "noteDuration": "sixteenth",
          "measureIndex": 89,
          "beatInMeasure": 1.375,
          "isRest": false
        },
        {
          "midi": 62,
          "name": "D4",
          "velocity": 0.39,
          "startMs": 133500,
          "durationMs": 346,
          "noteDuration": "eighth",
          "measureIndex": 89,
          "beatInMeasure": 1.625,
          "isRest": false
        },
        {
          "midi": 69,
          "name": "A4",
          "velocity": 0.39,
          "startMs": 133846,
          "durationMs": 346,
          "noteDuration": "eighth",
          "measureIndex": 89,
          "beatInMeasure": 2,
          "isRest": false
        },
        {
          "midi": 72,
          "name": "C5",
          "velocity": 0.39,
          "startMs": 134192,
          "durationMs": 346,
          "noteDuration": "sixteenth",
          "measureIndex": 89,
          "beatInMeasure": 2.375,
          "isRest": false
        },
        {
          "midi": 62,
          "name": "D4",
          "velocity": 0.39,
          "startMs": 134423,
          "durationMs": 346,
          "noteDuration": "eighth",
          "measureIndex": 89,
          "beatInMeasure": 2.625,
          "isRest": false
        },
        {
          "midi": 70,
          "name": "A#4",
          "velocity": 0.39,
          "startMs": 134769,
          "durationMs": 346,
          "noteDuration": "eighth",
          "measureIndex": 90,
          "beatInMeasure": 0,
          "isRest": false
        },
        {
          "midi": 70,
          "name": "A#4",
          "velocity": 0.45,
          "startMs": 135115,
          "durationMs": 346,
          "noteDuration": "sixteenth",
          "measureIndex": 90,
          "beatInMeasure": 0.375,
          "isRest": false
        },
        {
          "midi": 70,
          "name": "A#4",
          "velocity": 0.51,
          "startMs": 135346,
          "durationMs": 346,
          "noteDuration": "eighth",
          "measureIndex": 90,
          "beatInMeasure": 0.625,
          "isRest": false
        },
        {
          "midi": 74,
          "name": "D5",
          "velocity": 0.88,
          "startMs": 135692,
          "durationMs": 346,
          "noteDuration": "eighth",
          "measureIndex": 90,
          "beatInMeasure": 1,
          "isRest": false
        },
        {
          "midi": 72,
          "name": "C5",
          "velocity": 0.78,
          "startMs": 136038,
          "durationMs": 346,
          "noteDuration": "sixteenth",
          "measureIndex": 90,
          "beatInMeasure": 1.375,
          "isRest": false
        },
        {
          "midi": 70,
          "name": "A#4",
          "velocity": 0.74,
          "startMs": 136269,
          "durationMs": 346,
          "noteDuration": "eighth",
          "measureIndex": 90,
          "beatInMeasure": 1.625,
          "isRest": false
        },
        {
          "midi": 69,
          "name": "A4",
          "velocity": 0.39,
          "startMs": 136615,
          "durationMs": 346,
          "noteDuration": "eighth",
          "measureIndex": 90,
          "beatInMeasure": 2,
          "isRest": false
        },
        {
          "midi": 67,
          "name": "G4",
          "velocity": 0.39,
          "startMs": 136961,
          "durationMs": 347,
          "noteDuration": "sixteenth",
          "measureIndex": 90,
          "beatInMeasure": 2.375,
          "isRest": false
        },
        {
          "midi": 65,
          "name": "F4",
          "velocity": 0.39,
          "startMs": 137192,
          "durationMs": 346,
          "noteDuration": "eighth",
          "measureIndex": 90,
          "beatInMeasure": 2.625,
          "isRest": false
        },
        {
          "midi": 64,
          "name": "E4",
          "velocity": 0.39,
          "startMs": 137538,
          "durationMs": 346,
          "noteDuration": "eighth",
          "measureIndex": 91,
          "beatInMeasure": 0,
          "isRest": false
        },
        {
          "midi": 67,
          "name": "G4",
          "velocity": 0.39,
          "startMs": 137884,
          "durationMs": 347,
          "noteDuration": "sixteenth",
          "measureIndex": 91,
          "beatInMeasure": 0.375,
          "isRest": false
        },
        {
          "midi": 60,
          "name": "C4",
          "velocity": 0.39,
          "startMs": 138115,
          "durationMs": 346,
          "noteDuration": "eighth",
          "measureIndex": 91,
          "beatInMeasure": 0.625,
          "isRest": false
        },
        {
          "midi": 65,
          "name": "F4",
          "velocity": 0.39,
          "startMs": 138461,
          "durationMs": 347,
          "noteDuration": "eighth",
          "measureIndex": 91,
          "beatInMeasure": 1,
          "isRest": false
        },
        {
          "midi": 69,
          "name": "A4",
          "velocity": 0.39,
          "startMs": 138808,
          "durationMs": 346,
          "noteDuration": "sixteenth",
          "measureIndex": 91,
          "beatInMeasure": 1.375,
          "isRest": false
        },
        {
          "midi": 72,
          "name": "C5",
          "velocity": 0.39,
          "startMs": 139038,
          "durationMs": 346,
          "noteDuration": "eighth",
          "measureIndex": 91,
          "beatInMeasure": 1.625,
          "isRest": false
        },
        {
          "midi": 69,
          "name": "A4",
          "velocity": 0.39,
          "startMs": 139384,
          "durationMs": 347,
          "noteDuration": "thirty-second",
          "measureIndex": 91,
          "beatInMeasure": 2,
          "isRest": false
        },
        {
          "midi": 72,
          "name": "C5",
          "velocity": 0.39,
          "startMs": 139384,
          "durationMs": 347,
          "noteDuration": "eighth",
          "measureIndex": 91,
          "beatInMeasure": 2,
          "isRest": false
        },
        {
          "midi": 67,
          "name": "G4",
          "velocity": 0.39,
          "startMs": 139731,
          "durationMs": 346,
          "noteDuration": "thirty-second",
          "measureIndex": 91,
          "beatInMeasure": 2.375,
          "isRest": false
        },
        {
          "midi": 70,
          "name": "A#4",
          "velocity": 0.39,
          "startMs": 139731,
          "durationMs": 346,
          "noteDuration": "sixteenth",
          "measureIndex": 91,
          "beatInMeasure": 2.375,
          "isRest": false
        },
        {
          "midi": 65,
          "name": "F4",
          "velocity": 0.39,
          "startMs": 139961,
          "durationMs": 347,
          "noteDuration": "thirty-second",
          "measureIndex": 91,
          "beatInMeasure": 2.625,
          "isRest": false
        },
        {
          "midi": 69,
          "name": "A4",
          "velocity": 0.39,
          "startMs": 139961,
          "durationMs": 347,
          "noteDuration": "eighth",
          "measureIndex": 91,
          "beatInMeasure": 2.625,
          "isRest": false
        },
        {
          "midi": 65,
          "name": "F4",
          "velocity": 0.39,
          "startMs": 140308,
          "durationMs": 923,
          "noteDuration": "thirty-second",
          "measureIndex": 92,
          "beatInMeasure": 0,
          "isRest": false
        },
        {
          "midi": 69,
          "name": "A4",
          "velocity": 0.39,
          "startMs": 140308,
          "durationMs": 923,
          "noteDuration": "quarter",
          "measureIndex": 92,
          "beatInMeasure": 0,
          "isRest": false
        },
        {
          "midi": 64,
          "name": "E4",
          "velocity": 0.39,
          "startMs": 141231,
          "durationMs": 346,
          "noteDuration": "thirty-second",
          "measureIndex": 92,
          "beatInMeasure": 1,
          "isRest": false
        },
        {
          "midi": 67,
          "name": "G4",
          "velocity": 0.39,
          "startMs": 141231,
          "durationMs": 346,
          "noteDuration": "eighth",
          "measureIndex": 92,
          "beatInMeasure": 1,
          "isRest": false
        },
        {
          "midi": 69,
          "name": "A4",
          "velocity": 0.39,
          "startMs": 141577,
          "durationMs": 346,
          "noteDuration": "thirty-second",
          "measureIndex": 92,
          "beatInMeasure": 1.375,
          "isRest": false
        },
        {
          "midi": 72,
          "name": "C5",
          "velocity": 0.39,
          "startMs": 141577,
          "durationMs": 346,
          "noteDuration": "sixteenth",
          "measureIndex": 92,
          "beatInMeasure": 1.375,
          "isRest": false
        },
        {
          "midi": 69,
          "name": "A4",
          "velocity": 0.39,
          "startMs": 141808,
          "durationMs": 346,
          "noteDuration": "thirty-second",
          "measureIndex": 92,
          "beatInMeasure": 1.625,
          "isRest": false
        },
        {
          "midi": 72,
          "name": "C5",
          "velocity": 0.39,
          "startMs": 141808,
          "durationMs": 346,
          "noteDuration": "eighth",
          "measureIndex": 92,
          "beatInMeasure": 1.625,
          "isRest": false
        },
        {
          "midi": 69,
          "name": "A4",
          "velocity": 0.39,
          "startMs": 142154,
          "durationMs": 346,
          "noteDuration": "thirty-second",
          "measureIndex": 92,
          "beatInMeasure": 2,
          "isRest": false
        },
        {
          "midi": 72,
          "name": "C5",
          "velocity": 0.39,
          "startMs": 142154,
          "durationMs": 346,
          "noteDuration": "eighth",
          "measureIndex": 92,
          "beatInMeasure": 2,
          "isRest": false
        },
        {
          "midi": 67,
          "name": "G4",
          "velocity": 0.39,
          "startMs": 142500,
          "durationMs": 346,
          "noteDuration": "thirty-second",
          "measureIndex": 92,
          "beatInMeasure": 2.375,
          "isRest": false
        },
        {
          "midi": 70,
          "name": "A#4",
          "velocity": 0.39,
          "startMs": 142500,
          "durationMs": 346,
          "noteDuration": "sixteenth",
          "measureIndex": 92,
          "beatInMeasure": 2.375,
          "isRest": false
        },
        {
          "midi": 65,
          "name": "F4",
          "velocity": 0.39,
          "startMs": 142731,
          "durationMs": 346,
          "noteDuration": "thirty-second",
          "measureIndex": 92,
          "beatInMeasure": 2.625,
          "isRest": false
        },
        {
          "midi": 69,
          "name": "A4",
          "velocity": 0.39,
          "startMs": 142731,
          "durationMs": 346,
          "noteDuration": "eighth",
          "measureIndex": 92,
          "beatInMeasure": 2.625,
          "isRest": false
        },
        {
          "midi": 65,
          "name": "F4",
          "velocity": 0.39,
          "startMs": 143077,
          "durationMs": 923,
          "noteDuration": "thirty-second",
          "measureIndex": 93,
          "beatInMeasure": 0,
          "isRest": false
        },
        {
          "midi": 69,
          "name": "A4",
          "velocity": 0.39,
          "startMs": 143077,
          "durationMs": 923,
          "noteDuration": "quarter",
          "measureIndex": 93,
          "beatInMeasure": 0,
          "isRest": false
        },
        {
          "midi": 64,
          "name": "E4",
          "velocity": 0.39,
          "startMs": 144000,
          "durationMs": 923,
          "noteDuration": "thirty-second",
          "measureIndex": 93,
          "beatInMeasure": 1,
          "isRest": false
        },
        {
          "midi": 67,
          "name": "G4",
          "velocity": 0.39,
          "startMs": 144000,
          "durationMs": 923,
          "noteDuration": "half",
          "measureIndex": 93,
          "beatInMeasure": 1,
          "isRest": false
        },
        {
          "midi": 72,
          "name": "C5",
          "velocity": 0.5,
          "startMs": 145846,
          "durationMs": 1846,
          "noteDuration": "half",
          "measureIndex": 94,
          "beatInMeasure": 0,
          "isRest": false
        },
        {
          "midi": 77,
          "name": "F5",
          "velocity": 0.5,
          "startMs": 147692,
          "durationMs": 923,
          "noteDuration": "quarter",
          "measureIndex": 94,
          "beatInMeasure": 2,
          "isRest": false
        },
        {
          "midi": 69,
          "name": "A4",
          "velocity": 0.5,
          "startMs": 148615,
          "durationMs": 1846,
          "noteDuration": "half",
          "measureIndex": 95,
          "beatInMeasure": 0,
          "isRest": false
        },
        {
          "midi": 72,
          "name": "C5",
          "velocity": 0.5,
          "startMs": 150461,
          "durationMs": 923,
          "noteDuration": "quarter",
          "measureIndex": 95,
          "beatInMeasure": 2,
          "isRest": false
        },
        {
          "midi": 63,
          "name": "D#4",
          "velocity": 0.5,
          "startMs": 151384,
          "durationMs": 1847,
          "noteDuration": "half",
          "measureIndex": 96,
          "beatInMeasure": 0,
          "isRest": false
        },
        {
          "midi": 63,
          "name": "D#4",
          "velocity": 0.5,
          "startMs": 153231,
          "durationMs": 115,
          "noteDuration": "thirty-second",
          "measureIndex": 96,
          "beatInMeasure": 2,
          "isRest": false
        },
        {
          "midi": 65,
          "name": "F4",
          "velocity": 0.5,
          "startMs": 153346,
          "durationMs": 115,
          "noteDuration": "thirty-second",
          "measureIndex": 96,
          "beatInMeasure": 2.125,
          "isRest": false
        },
        {
          "midi": 63,
          "name": "D#4",
          "velocity": 0.5,
          "startMs": 153461,
          "durationMs": 116,
          "noteDuration": "thirty-second",
          "measureIndex": 96,
          "beatInMeasure": 2.25,
          "isRest": false
        },
        {
          "midi": 65,
          "name": "F4",
          "velocity": 0.5,
          "startMs": 153577,
          "durationMs": 115,
          "noteDuration": "thirty-second",
          "measureIndex": 96,
          "beatInMeasure": 2.375,
          "isRest": false
        },
        {
          "midi": 63,
          "name": "D#4",
          "velocity": 0.5,
          "startMs": 153692,
          "durationMs": 116,
          "noteDuration": "thirty-second",
          "measureIndex": 96,
          "beatInMeasure": 2.5,
          "isRest": false
        },
        {
          "midi": 65,
          "name": "F4",
          "velocity": 0.5,
          "startMs": 153808,
          "durationMs": 115,
          "noteDuration": "eighth",
          "measureIndex": 96,
          "beatInMeasure": 2.625,
          "isRest": false
        },
        {
          "midi": 62,
          "name": "D4",
          "velocity": 0.5,
          "startMs": 154154,
          "durationMs": 346,
          "noteDuration": "eighth",
          "measureIndex": 97,
          "beatInMeasure": 0,
          "isRest": false
        },
        {
          "midi": 65,
          "name": "F4",
          "velocity": 0.5,
          "startMs": 154500,
          "durationMs": 346,
          "noteDuration": "sixteenth",
          "measureIndex": 97,
          "beatInMeasure": 0.375,
          "isRest": false
        },
        {
          "midi": 70,
          "name": "A#4",
          "velocity": 0.5,
          "startMs": 154731,
          "durationMs": 346,
          "noteDuration": "eighth",
          "measureIndex": 97,
          "beatInMeasure": 0.625,
          "isRest": false
        },
        {
          "midi": 74,
          "name": "D5",
          "velocity": 0.39,
          "startMs": 155077,
          "durationMs": 346,
          "noteDuration": "eighth",
          "measureIndex": 97,
          "beatInMeasure": 1,
          "isRest": false
        },
        {
          "midi": 74,
          "name": "D5",
          "velocity": 0.39,
          "startMs": 155423,
          "durationMs": 346,
          "noteDuration": "sixteenth",
          "measureIndex": 97,
          "beatInMeasure": 1.375,
          "isRest": false
        },
        {
          "midi": 74,
          "name": "D5",
          "velocity": 0.39,
          "startMs": 155654,
          "durationMs": 346,
          "noteDuration": "eighth",
          "measureIndex": 97,
          "beatInMeasure": 1.625,
          "isRest": false
        },
        {
          "midi": 74,
          "name": "D5",
          "velocity": 0.39,
          "startMs": 156000,
          "durationMs": 923,
          "noteDuration": "quarter",
          "measureIndex": 97,
          "beatInMeasure": 2,
          "isRest": false
        },
        {
          "midi": 67,
          "name": "G4",
          "velocity": 0.39,
          "startMs": 156923,
          "durationMs": 346,
          "noteDuration": "thirty-second",
          "measureIndex": 98,
          "beatInMeasure": 0,
          "isRest": false
        },
        {
          "midi": 70,
          "name": "A#4",
          "velocity": 0.39,
          "startMs": 156923,
          "durationMs": 346,
          "noteDuration": "eighth",
          "measureIndex": 98,
          "beatInMeasure": 0,
          "isRest": false
        },
        {
          "midi": 67,
          "name": "G4",
          "velocity": 0.39,
          "startMs": 157269,
          "durationMs": 346,
          "noteDuration": "thirty-second",
          "measureIndex": 98,
          "beatInMeasure": 0.375,
          "isRest": false
        },
        {
          "midi": 70,
          "name": "A#4",
          "velocity": 0.39,
          "startMs": 157269,
          "durationMs": 346,
          "noteDuration": "sixteenth",
          "measureIndex": 98,
          "beatInMeasure": 0.375,
          "isRest": false
        },
        {
          "midi": 67,
          "name": "G4",
          "velocity": 0.39,
          "startMs": 157500,
          "durationMs": 346,
          "noteDuration": "thirty-second",
          "measureIndex": 98,
          "beatInMeasure": 0.625,
          "isRest": false
        },
        {
          "midi": 70,
          "name": "A#4",
          "velocity": 0.39,
          "startMs": 157500,
          "durationMs": 346,
          "noteDuration": "eighth",
          "measureIndex": 98,
          "beatInMeasure": 0.625,
          "isRest": false
        },
        {
          "midi": 65,
          "name": "F4",
          "velocity": 0.39,
          "startMs": 157846,
          "durationMs": 346,
          "noteDuration": "thirty-second",
          "measureIndex": 98,
          "beatInMeasure": 1,
          "isRest": false
        },
        {
          "midi": 69,
          "name": "A4",
          "velocity": 0.39,
          "startMs": 157846,
          "durationMs": 346,
          "noteDuration": "eighth",
          "measureIndex": 98,
          "beatInMeasure": 1,
          "isRest": false
        },
        {
          "midi": 65,
          "name": "F4",
          "velocity": 0.39,
          "startMs": 158192,
          "durationMs": 346,
          "noteDuration": "thirty-second",
          "measureIndex": 98,
          "beatInMeasure": 1.375,
          "isRest": false
        },
        {
          "midi": 69,
          "name": "A4",
          "velocity": 0.39,
          "startMs": 158192,
          "durationMs": 346,
          "noteDuration": "sixteenth",
          "measureIndex": 98,
          "beatInMeasure": 1.375,
          "isRest": false
        },
        {
          "midi": 65,
          "name": "F4",
          "velocity": 0.39,
          "startMs": 158423,
          "durationMs": 346,
          "noteDuration": "thirty-second",
          "measureIndex": 98,
          "beatInMeasure": 1.625,
          "isRest": false
        },
        {
          "midi": 69,
          "name": "A4",
          "velocity": 0.39,
          "startMs": 158423,
          "durationMs": 346,
          "noteDuration": "eighth",
          "measureIndex": 98,
          "beatInMeasure": 1.625,
          "isRest": false
        },
        {
          "midi": 64,
          "name": "E4",
          "velocity": 0.39,
          "startMs": 158769,
          "durationMs": 346,
          "noteDuration": "thirty-second",
          "measureIndex": 98,
          "beatInMeasure": 2,
          "isRest": false
        },
        {
          "midi": 67,
          "name": "G4",
          "velocity": 0.39,
          "startMs": 158769,
          "durationMs": 346,
          "noteDuration": "eighth",
          "measureIndex": 98,
          "beatInMeasure": 2,
          "isRest": false
        },
        {
          "midi": 64,
          "name": "E4",
          "velocity": 0.39,
          "startMs": 159115,
          "durationMs": 346,
          "noteDuration": "thirty-second",
          "measureIndex": 98,
          "beatInMeasure": 2.375,
          "isRest": false
        },
        {
          "midi": 67,
          "name": "G4",
          "velocity": 0.39,
          "startMs": 159115,
          "durationMs": 346,
          "noteDuration": "sixteenth",
          "measureIndex": 98,
          "beatInMeasure": 2.375,
          "isRest": false
        },
        {
          "midi": 64,
          "name": "E4",
          "velocity": 0.39,
          "startMs": 159346,
          "durationMs": 346,
          "noteDuration": "thirty-second",
          "measureIndex": 98,
          "beatInMeasure": 2.625,
          "isRest": false
        },
        {
          "midi": 67,
          "name": "G4",
          "velocity": 0.39,
          "startMs": 159346,
          "durationMs": 346,
          "noteDuration": "eighth",
          "measureIndex": 98,
          "beatInMeasure": 2.625,
          "isRest": false
        },
        {
          "midi": 72,
          "name": "C5",
          "velocity": 0.76,
          "startMs": 159692,
          "durationMs": 692,
          "noteDuration": "quarter",
          "measureIndex": 99,
          "beatInMeasure": 0,
          "isRest": false
        },
        {
          "midi": 65,
          "name": "F4",
          "velocity": 0.76,
          "startMs": 160384,
          "durationMs": 231,
          "noteDuration": "sixteenth",
          "measureIndex": 99,
          "beatInMeasure": 0.75,
          "isRest": false
        },
        {
          "midi": 77,
          "name": "F5",
          "velocity": 0.76,
          "startMs": 160615,
          "durationMs": 346,
          "noteDuration": "eighth",
          "measureIndex": 99,
          "beatInMeasure": 1,
          "isRest": false
        },
        {
          "midi": 76,
          "name": "E5",
          "velocity": 0.76,
          "startMs": 160961,
          "durationMs": 347,
          "noteDuration": "sixteenth",
          "measureIndex": 99,
          "beatInMeasure": 1.375,
          "isRest": false
        },
        {
          "midi": 74,
          "name": "D5",
          "velocity": 0.76,
          "startMs": 161192,
          "durationMs": 346,
          "noteDuration": "eighth",
          "measureIndex": 99,
          "beatInMeasure": 1.625,
          "isRest": false
        },
        {
          "midi": 72,
          "name": "C5",
          "velocity": 0.76,
          "startMs": 161538,
          "durationMs": 346,
          "noteDuration": "eighth",
          "measureIndex": 99,
          "beatInMeasure": 2,
          "isRest": false
        },
        {
          "midi": 70,
          "name": "A#4",
          "velocity": 0.76,
          "startMs": 161884,
          "durationMs": 347,
          "noteDuration": "sixteenth",
          "measureIndex": 99,
          "beatInMeasure": 2.375,
          "isRest": false
        },
        {
          "midi": 69,
          "name": "A4",
          "velocity": 0.76,
          "startMs": 162115,
          "durationMs": 346,
          "noteDuration": "eighth",
          "measureIndex": 99,
          "beatInMeasure": 2.625,
          "isRest": false
        },
        {
          "midi": 67,
          "name": "G4",
          "velocity": 0.76,
          "startMs": 162461,
          "durationMs": 347,
          "noteDuration": "eighth",
          "measureIndex": 100,
          "beatInMeasure": 0,
          "isRest": false
        },
        {
          "midi": 70,
          "name": "A#4",
          "velocity": 0.76,
          "startMs": 162808,
          "durationMs": 346,
          "noteDuration": "sixteenth",
          "measureIndex": 100,
          "beatInMeasure": 0.375,
          "isRest": false
        },
        {
          "midi": 74,
          "name": "D5",
          "velocity": 0.76,
          "startMs": 163038,
          "durationMs": 346,
          "noteDuration": "eighth",
          "measureIndex": 100,
          "beatInMeasure": 0.625,
          "isRest": false
        },
        {
          "midi": 65,
          "name": "F4",
          "velocity": 0.76,
          "startMs": 163384,
          "durationMs": 924,
          "noteDuration": "quarter",
          "measureIndex": 100,
          "beatInMeasure": 1,
          "isRest": false
        },
        {
          "midi": 67,
          "name": "G4",
          "velocity": 0.76,
          "startMs": 164308,
          "durationMs": 115,
          "noteDuration": "thirty-second",
          "measureIndex": 100,
          "beatInMeasure": 2,
          "isRest": false
        },
        {
          "midi": 69,
          "name": "A4",
          "velocity": 0.76,
          "startMs": 164423,
          "durationMs": 115,
          "noteDuration": "thirty-second",
          "measureIndex": 100,
          "beatInMeasure": 2.125,
          "isRest": false
        },
        {
          "midi": 67,
          "name": "G4",
          "velocity": 0.76,
          "startMs": 164538,
          "durationMs": 116,
          "noteDuration": "thirty-second",
          "measureIndex": 100,
          "beatInMeasure": 2.25,
          "isRest": false
        },
        {
          "midi": 69,
          "name": "A4",
          "velocity": 0.76,
          "startMs": 164654,
          "durationMs": 115,
          "noteDuration": "thirty-second",
          "measureIndex": 100,
          "beatInMeasure": 2.375,
          "isRest": false
        },
        {
          "midi": 67,
          "name": "G4",
          "velocity": 0.76,
          "startMs": 164769,
          "durationMs": 115,
          "noteDuration": "thirty-second",
          "measureIndex": 100,
          "beatInMeasure": 2.5,
          "isRest": false
        },
        {
          "midi": 69,
          "name": "A4",
          "velocity": 0.76,
          "startMs": 164884,
          "durationMs": 116,
          "noteDuration": "eighth",
          "measureIndex": 100,
          "beatInMeasure": 2.625,
          "isRest": false
        },
        {
          "midi": 65,
          "name": "F4",
          "velocity": 0.72,
          "startMs": 165231,
          "durationMs": 2653,
          "noteDuration": "whole",
          "measureIndex": 101,
          "beatInMeasure": 0,
          "isRest": false
        },
        {
          "midi": 76,
          "name": "E5",
          "velocity": 0.39,
          "startMs": 168000,
          "durationMs": 133,
          "noteDuration": "sixteenth",
          "measureIndex": 102,
          "beatInMeasure": 0,
          "isRest": false
        },
        {
          "midi": 74,
          "name": "D5",
          "velocity": 0.39,
          "startMs": 168133,
          "durationMs": 132,
          "noteDuration": "sixteenth",
          "measureIndex": 102,
          "beatInMeasure": 0.125,
          "isRest": false
        },
        {
          "midi": 72,
          "name": "C5",
          "velocity": 0.39,
          "startMs": 168265,
          "durationMs": 133,
          "noteDuration": "eighth",
          "measureIndex": 102,
          "beatInMeasure": 0.25,
          "isRest": false
        },
        {
          "midi": 72,
          "name": "C5",
          "velocity": 0.39,
          "startMs": 168531,
          "durationMs": 133,
          "noteDuration": "eighth",
          "measureIndex": 102,
          "beatInMeasure": 0.5,
          "isRest": false
        },
        {
          "midi": 79,
          "name": "G5",
          "velocity": 0.39,
          "startMs": 168796,
          "durationMs": 531,
          "noteDuration": "quarter",
          "measureIndex": 103,
          "beatInMeasure": 0,
          "isRest": false
        },
        {
          "midi": 77,
          "name": "F5",
          "velocity": 0.39,
          "startMs": 169327,
          "durationMs": 133,
          "noteDuration": "sixteenth",
          "measureIndex": 103,
          "beatInMeasure": 0.5,
          "isRest": false
        },
        {
          "midi": 76,
          "name": "E5",
          "velocity": 0.39,
          "startMs": 169460,
          "durationMs": 133,
          "noteDuration": "sixteenth",
          "measureIndex": 103,
          "beatInMeasure": 0.625,
          "isRest": false
        },
        {
          "midi": 74,
          "name": "D5",
          "velocity": 0.39,
          "startMs": 169593,
          "durationMs": 265,
          "noteDuration": "eighth",
          "measureIndex": 104,
          "beatInMeasure": 0,
          "isRest": false
        },
        {
          "midi": 77,
          "name": "F5",
          "velocity": 0.39,
          "startMs": 169858,
          "durationMs": 266,
          "noteDuration": "eighth",
          "measureIndex": 104,
          "beatInMeasure": 0.25,
          "isRest": false
        },
        {
          "midi": 71,
          "name": "B4",
          "velocity": 0.39,
          "startMs": 170124,
          "durationMs": 265,
          "noteDuration": "eighth",
          "measureIndex": 104,
          "beatInMeasure": 0.5,
          "isRest": false
        },
        {
          "midi": 72,
          "name": "C5",
          "velocity": 0.39,
          "startMs": 170389,
          "durationMs": 266,
          "noteDuration": "eighth",
          "measureIndex": 105,
          "beatInMeasure": 0,
          "isRest": false
        },
        {
          "midi": 67,
          "name": "G4",
          "velocity": 0.39,
          "startMs": 170655,
          "durationMs": 132,
          "noteDuration": "eighth",
          "measureIndex": 105,
          "beatInMeasure": 0.25,
          "isRest": false
        },
        {
          "midi": 67,
          "name": "G4",
          "velocity": 0.39,
          "startMs": 170920,
          "durationMs": 133,
          "noteDuration": "eighth",
          "measureIndex": 105,
          "beatInMeasure": 0.5,
          "isRest": false
        },
        {
          "midi": 76,
          "name": "E5",
          "velocity": 0.39,
          "startMs": 171186,
          "durationMs": 132,
          "noteDuration": "sixteenth",
          "measureIndex": 106,
          "beatInMeasure": 0,
          "isRest": false
        },
        {
          "midi": 74,
          "name": "D5",
          "velocity": 0.39,
          "startMs": 171318,
          "durationMs": 133,
          "noteDuration": "sixteenth",
          "measureIndex": 106,
          "beatInMeasure": 0.125,
          "isRest": false
        },
        {
          "midi": 72,
          "name": "C5",
          "velocity": 0.39,
          "startMs": 171451,
          "durationMs": 133,
          "noteDuration": "eighth",
          "measureIndex": 106,
          "beatInMeasure": 0.25,
          "isRest": false
        },
        {
          "midi": 72,
          "name": "C5",
          "velocity": 0.39,
          "startMs": 171717,
          "durationMs": 132,
          "noteDuration": "eighth",
          "measureIndex": 106,
          "beatInMeasure": 0.5,
          "isRest": false
        },
        {
          "midi": 79,
          "name": "G5",
          "velocity": 0.39,
          "startMs": 171982,
          "durationMs": 531,
          "noteDuration": "quarter",
          "measureIndex": 107,
          "beatInMeasure": 0,
          "isRest": false
        },
        {
          "midi": 77,
          "name": "F5",
          "velocity": 0.39,
          "startMs": 172513,
          "durationMs": 133,
          "noteDuration": "sixteenth",
          "measureIndex": 107,
          "beatInMeasure": 0.5,
          "isRest": false
        },
        {
          "midi": 76,
          "name": "E5",
          "velocity": 0.39,
          "startMs": 172646,
          "durationMs": 133,
          "noteDuration": "sixteenth",
          "measureIndex": 107,
          "beatInMeasure": 0.625,
          "isRest": false
        },
        {
          "midi": 74,
          "name": "D5",
          "velocity": 0.39,
          "startMs": 172779,
          "durationMs": 132,
          "noteDuration": "sixteenth",
          "measureIndex": 108,
          "beatInMeasure": 0,
          "isRest": false
        },
        {
          "midi": 76,
          "name": "E5",
          "velocity": 0.39,
          "startMs": 172911,
          "durationMs": 133,
          "noteDuration": "sixteenth",
          "measureIndex": 108,
          "beatInMeasure": 0.125,
          "isRest": false
        },
        {
          "midi": 77,
          "name": "F5",
          "velocity": 0.39,
          "startMs": 173044,
          "durationMs": 133,
          "noteDuration": "sixteenth",
          "measureIndex": 108,
          "beatInMeasure": 0.25,
          "isRest": false
        },
        {
          "midi": 76,
          "name": "E5",
          "velocity": 0.39,
          "startMs": 173177,
          "durationMs": 133,
          "noteDuration": "sixteenth",
          "measureIndex": 108,
          "beatInMeasure": 0.375,
          "isRest": false
        },
        {
          "midi": 77,
          "name": "F5",
          "velocity": 0.39,
          "startMs": 173310,
          "durationMs": 132,
          "noteDuration": "sixteenth",
          "measureIndex": 108,
          "beatInMeasure": 0.5,
          "isRest": false
        },
        {
          "midi": 74,
          "name": "D5",
          "velocity": 0.39,
          "startMs": 173442,
          "durationMs": 133,
          "noteDuration": "sixteenth",
          "measureIndex": 108,
          "beatInMeasure": 0.625,
          "isRest": false
        },
        {
          "midi": 72,
          "name": "C5",
          "velocity": 0.39,
          "startMs": 173575,
          "durationMs": 266,
          "noteDuration": "half",
          "measureIndex": 109,
          "beatInMeasure": 0,
          "isRest": false
        },
        {
          "midi": 76,
          "name": "E5",
          "velocity": 0.76,
          "startMs": 174372,
          "durationMs": 132,
          "noteDuration": "sixteenth",
          "measureIndex": 110,
          "beatInMeasure": 0,
          "isRest": false
        },
        {
          "midi": 74,
          "name": "D5",
          "velocity": 0.76,
          "startMs": 174504,
          "durationMs": 133,
          "noteDuration": "sixteenth",
          "measureIndex": 110,
          "beatInMeasure": 0.125,
          "isRest": false
        },
        {
          "midi": 72,
          "name": "C5",
          "velocity": 0.76,
          "startMs": 174637,
          "durationMs": 133,
          "noteDuration": "eighth",
          "measureIndex": 110,
          "beatInMeasure": 0.25,
          "isRest": false
        },
        {
          "midi": 72,
          "name": "C5",
          "velocity": 0.76,
          "startMs": 174903,
          "durationMs": 132,
          "noteDuration": "eighth",
          "measureIndex": 110,
          "beatInMeasure": 0.5,
          "isRest": false
        },
        {
          "midi": 79,
          "name": "G5",
          "velocity": 0.76,
          "startMs": 175168,
          "durationMs": 531,
          "noteDuration": "quarter",
          "measureIndex": 111,
          "beatInMeasure": 0,
          "isRest": false
        },
        {
          "midi": 77,
          "name": "F5",
          "velocity": 0.76,
          "startMs": 175699,
          "durationMs": 133,
          "noteDuration": "sixteenth",
          "measureIndex": 111,
          "beatInMeasure": 0.5,
          "isRest": false
        },
        {
          "midi": 76,
          "name": "E5",
          "velocity": 0.76,
          "startMs": 175832,
          "durationMs": 132,
          "noteDuration": "sixteenth",
          "measureIndex": 111,
          "beatInMeasure": 0.625,
          "isRest": false
        },
        {
          "midi": 74,
          "name": "D5",
          "velocity": 0.76,
          "startMs": 175964,
          "durationMs": 266,
          "noteDuration": "eighth",
          "measureIndex": 112,
          "beatInMeasure": 0,
          "isRest": false
        },
        {
          "midi": 77,
          "name": "F5",
          "velocity": 0.76,
          "startMs": 176230,
          "durationMs": 265,
          "noteDuration": "eighth",
          "measureIndex": 112,
          "beatInMeasure": 0.25,
          "isRest": false
        },
        {
          "midi": 71,
          "name": "B4",
          "velocity": 0.76,
          "startMs": 176495,
          "durationMs": 266,
          "noteDuration": "eighth",
          "measureIndex": 112,
          "beatInMeasure": 0.5,
          "isRest": false
        },
        {
          "midi": 72,
          "name": "C5",
          "velocity": 0.76,
          "startMs": 176761,
          "durationMs": 265,
          "noteDuration": "eighth",
          "measureIndex": 113,
          "beatInMeasure": 0,
          "isRest": false
        },
        {
          "midi": 67,
          "name": "G4",
          "velocity": 0.76,
          "startMs": 177026,
          "durationMs": 133,
          "noteDuration": "eighth",
          "measureIndex": 113,
          "beatInMeasure": 0.25,
          "isRest": false
        },
        {
          "midi": 67,
          "name": "G4",
          "velocity": 0.76,
          "startMs": 177292,
          "durationMs": 133,
          "noteDuration": "eighth",
          "measureIndex": 113,
          "beatInMeasure": 0.5,
          "isRest": false
        },
        {
          "midi": 76,
          "name": "E5",
          "velocity": 0.76,
          "startMs": 177557,
          "durationMs": 133,
          "noteDuration": "sixteenth",
          "measureIndex": 114,
          "beatInMeasure": 0,
          "isRest": false
        },
        {
          "midi": 74,
          "name": "D5",
          "velocity": 0.76,
          "startMs": 177690,
          "durationMs": 133,
          "noteDuration": "sixteenth",
          "measureIndex": 114,
          "beatInMeasure": 0.125,
          "isRest": false
        },
        {
          "midi": 72,
          "name": "C5",
          "velocity": 0.76,
          "startMs": 177823,
          "durationMs": 133,
          "noteDuration": "eighth",
          "measureIndex": 114,
          "beatInMeasure": 0.25,
          "isRest": false
        },
        {
          "midi": 72,
          "name": "C5",
          "velocity": 0.76,
          "startMs": 178088,
          "durationMs": 133,
          "noteDuration": "eighth",
          "measureIndex": 114,
          "beatInMeasure": 0.5,
          "isRest": false
        },
        {
          "midi": 79,
          "name": "G5",
          "velocity": 0.76,
          "startMs": 178354,
          "durationMs": 531,
          "noteDuration": "quarter",
          "measureIndex": 115,
          "beatInMeasure": 0,
          "isRest": false
        },
        {
          "midi": 77,
          "name": "F5",
          "velocity": 0.76,
          "startMs": 178885,
          "durationMs": 133,
          "noteDuration": "sixteenth",
          "measureIndex": 115,
          "beatInMeasure": 0.5,
          "isRest": false
        },
        {
          "midi": 76,
          "name": "E5",
          "velocity": 0.76,
          "startMs": 179018,
          "durationMs": 132,
          "noteDuration": "sixteenth",
          "measureIndex": 115,
          "beatInMeasure": 0.625,
          "isRest": false
        },
        {
          "midi": 74,
          "name": "D5",
          "velocity": 0.76,
          "startMs": 179150,
          "durationMs": 133,
          "noteDuration": "sixteenth",
          "measureIndex": 116,
          "beatInMeasure": 0,
          "isRest": false
        },
        {
          "midi": 76,
          "name": "E5",
          "velocity": 0.76,
          "startMs": 179283,
          "durationMs": 133,
          "noteDuration": "sixteenth",
          "measureIndex": 116,
          "beatInMeasure": 0.125,
          "isRest": false
        },
        {
          "midi": 77,
          "name": "F5",
          "velocity": 0.76,
          "startMs": 179416,
          "durationMs": 133,
          "noteDuration": "sixteenth",
          "measureIndex": 116,
          "beatInMeasure": 0.25,
          "isRest": false
        },
        {
          "midi": 76,
          "name": "E5",
          "velocity": 0.76,
          "startMs": 179549,
          "durationMs": 132,
          "noteDuration": "sixteenth",
          "measureIndex": 116,
          "beatInMeasure": 0.375,
          "isRest": false
        },
        {
          "midi": 77,
          "name": "F5",
          "velocity": 0.76,
          "startMs": 179681,
          "durationMs": 133,
          "noteDuration": "sixteenth",
          "measureIndex": 116,
          "beatInMeasure": 0.5,
          "isRest": false
        },
        {
          "midi": 74,
          "name": "D5",
          "velocity": 0.76,
          "startMs": 179814,
          "durationMs": 133,
          "noteDuration": "sixteenth",
          "measureIndex": 116,
          "beatInMeasure": 0.625,
          "isRest": false
        },
        {
          "midi": 72,
          "name": "C5",
          "velocity": 0.76,
          "startMs": 179947,
          "durationMs": 265,
          "noteDuration": "half",
          "measureIndex": 117,
          "beatInMeasure": 0,
          "isRest": false
        },
        {
          "midi": 67,
          "name": "G4",
          "velocity": 0.39,
          "startMs": 180743,
          "durationMs": 133,
          "noteDuration": "sixteenth",
          "measureIndex": 118,
          "beatInMeasure": 0,
          "isRest": false
        },
        {
          "midi": 65,
          "name": "F4",
          "velocity": 0.39,
          "startMs": 180876,
          "durationMs": 133,
          "noteDuration": "sixteenth",
          "measureIndex": 118,
          "beatInMeasure": 0.125,
          "isRest": false
        },
        {
          "midi": 64,
          "name": "E4",
          "velocity": 0.39,
          "startMs": 181009,
          "durationMs": 132,
          "noteDuration": "eighth",
          "measureIndex": 118,
          "beatInMeasure": 0.25,
          "isRest": false
        },
        {
          "midi": 64,
          "name": "E4",
          "velocity": 0.39,
          "startMs": 181274,
          "durationMs": 133,
          "noteDuration": "eighth",
          "measureIndex": 118,
          "beatInMeasure": 0.5,
          "isRest": false
        },
        {
          "midi": 69,
          "name": "A4",
          "velocity": 0.39,
          "startMs": 181540,
          "durationMs": 132,
          "noteDuration": "sixteenth",
          "measureIndex": 119,
          "beatInMeasure": 0,
          "isRest": false
        },
        {
          "midi": 67,
          "name": "G4",
          "velocity": 0.39,
          "startMs": 181672,
          "durationMs": 133,
          "noteDuration": "sixteenth",
          "measureIndex": 119,
          "beatInMeasure": 0.125,
          "isRest": false
        },
        {
          "midi": 65,
          "name": "F4",
          "velocity": 0.39,
          "startMs": 181805,
          "durationMs": 133,
          "noteDuration": "eighth",
          "measureIndex": 119,
          "beatInMeasure": 0.25,
          "isRest": false
        },
        {
          "midi": 65,
          "name": "F4",
          "velocity": 0.39,
          "startMs": 182071,
          "durationMs": 132,
          "noteDuration": "eighth",
          "measureIndex": 119,
          "beatInMeasure": 0.5,
          "isRest": false
        },
        {
          "midi": 62,
          "name": "D4",
          "velocity": 0.76,
          "startMs": 182336,
          "durationMs": 133,
          "noteDuration": "sixteenth",
          "measureIndex": 120,
          "beatInMeasure": 0,
          "isRest": false
        },
        {
          "midi": 65,
          "name": "F4",
          "velocity": 0.76,
          "startMs": 182469,
          "durationMs": 133,
          "noteDuration": "sixteenth",
          "measureIndex": 120,
          "beatInMeasure": 0.125,
          "isRest": false
        },
        {
          "midi": 71,
          "name": "B4",
          "velocity": 0.76,
          "startMs": 182602,
          "durationMs": 132,
          "noteDuration": "sixteenth",
          "measureIndex": 120,
          "beatInMeasure": 0.25,
          "isRest": false
        },
        {
          "midi": 65,
          "name": "F4",
          "velocity": 0.76,
          "startMs": 182734,
          "durationMs": 133,
          "noteDuration": "sixteenth",
          "measureIndex": 120,
          "beatInMeasure": 0.375,
          "isRest": false
        },
        {
          "midi": 71,
          "name": "B4",
          "velocity": 0.76,
          "startMs": 182867,
          "durationMs": 133,
          "noteDuration": "sixteenth",
          "measureIndex": 120,
          "beatInMeasure": 0.5,
          "isRest": false
        },
        {
          "midi": 65,
          "name": "F4",
          "velocity": 0.76,
          "startMs": 183000,
          "durationMs": 133,
          "noteDuration": "sixteenth",
          "measureIndex": 120,
          "beatInMeasure": 0.625,
          "isRest": false
        },
        {
          "midi": 64,
          "name": "E4",
          "velocity": 0.76,
          "startMs": 183133,
          "durationMs": 265,
          "noteDuration": "eighth",
          "measureIndex": 121,
          "beatInMeasure": 0,
          "isRest": false
        },
        {
          "midi": 67,
          "name": "G4",
          "velocity": 0.76,
          "startMs": 183398,
          "durationMs": 266,
          "noteDuration": "eighth",
          "measureIndex": 121,
          "beatInMeasure": 0.25,
          "isRest": false
        },
        {
          "midi": 72,
          "name": "C5",
          "velocity": 0.76,
          "startMs": 183664,
          "durationMs": 265,
          "noteDuration": "eighth",
          "measureIndex": 121,
          "beatInMeasure": 0.5,
          "isRest": false
        },
        {
          "midi": 67,
          "name": "G4",
          "velocity": 0.39,
          "startMs": 183929,
          "durationMs": 133,
          "noteDuration": "sixteenth",
          "measureIndex": 122,
          "beatInMeasure": 0,
          "isRest": false
        },
        {
          "midi": 65,
          "name": "F4",
          "velocity": 0.39,
          "startMs": 184062,
          "durationMs": 133,
          "noteDuration": "sixteenth",
          "measureIndex": 122,
          "beatInMeasure": 0.125,
          "isRest": false
        },
        {
          "midi": 64,
          "name": "E4",
          "velocity": 0.39,
          "startMs": 184195,
          "durationMs": 132,
          "noteDuration": "eighth",
          "measureIndex": 122,
          "beatInMeasure": 0.25,
          "isRest": false
        },
        {
          "midi": 64,
          "name": "E4",
          "velocity": 0.39,
          "startMs": 184460,
          "durationMs": 133,
          "noteDuration": "eighth",
          "measureIndex": 122,
          "beatInMeasure": 0.5,
          "isRest": false
        },
        {
          "midi": 76,
          "name": "E5",
          "velocity": 0.39,
          "startMs": 184726,
          "durationMs": 132,
          "noteDuration": "sixteenth",
          "measureIndex": 123,
          "beatInMeasure": 0,
          "isRest": false
        },
        {
          "midi": 74,
          "name": "D5",
          "velocity": 0.39,
          "startMs": 184858,
          "durationMs": 133,
          "noteDuration": "sixteenth",
          "measureIndex": 123,
          "beatInMeasure": 0.125,
          "isRest": false
        },
        {
          "midi": 72,
          "name": "C5",
          "velocity": 0.39,
          "startMs": 184991,
          "durationMs": 133,
          "noteDuration": "eighth",
          "measureIndex": 123,
          "beatInMeasure": 0.25,
          "isRest": false
        },
        {
          "midi": 72,
          "name": "C5",
          "velocity": 0.39,
          "startMs": 185257,
          "durationMs": 132,
          "noteDuration": "eighth",
          "measureIndex": 123,
          "beatInMeasure": 0.5,
          "isRest": false
        },
        {
          "midi": 66,
          "name": "F#4",
          "velocity": 0.76,
          "startMs": 185522,
          "durationMs": 133,
          "noteDuration": "sixteenth",
          "measureIndex": 124,
          "beatInMeasure": 0,
          "isRest": false
        },
        {
          "midi": 67,
          "name": "G4",
          "velocity": 0.76,
          "startMs": 185655,
          "durationMs": 132,
          "noteDuration": "sixteenth",
          "measureIndex": 124,
          "beatInMeasure": 0.125,
          "isRest": false
        },
        {
          "midi": 69,
          "name": "A4",
          "velocity": 0.76,
          "startMs": 185787,
          "durationMs": 133,
          "noteDuration": "sixteenth",
          "measureIndex": 124,
          "beatInMeasure": 0.25,
          "isRest": false
        },
        {
          "midi": 71,
          "name": "B4",
          "velocity": 0.76,
          "startMs": 185920,
          "durationMs": 133,
          "noteDuration": "sixteenth",
          "measureIndex": 124,
          "beatInMeasure": 0.375,
          "isRest": false
        },
        {
          "midi": 72,
          "name": "C5",
          "velocity": 0.76,
          "startMs": 186053,
          "durationMs": 133,
          "noteDuration": "sixteenth",
          "measureIndex": 124,
          "beatInMeasure": 0.5,
          "isRest": false
        },
        {
          "midi": 69,
          "name": "A4",
          "velocity": 0.76,
          "startMs": 186186,
          "durationMs": 132,
          "noteDuration": "sixteenth",
          "measureIndex": 124,
          "beatInMeasure": 0.625,
          "isRest": false
        },
        {
          "midi": 67,
          "name": "G4",
          "velocity": 0.76,
          "startMs": 186318,
          "durationMs": 266,
          "noteDuration": "quarter",
          "measureIndex": 125,
          "beatInMeasure": 0,
          "isRest": false
        },
        {
          "midi": 83,
          "name": "B5",
          "velocity": 0.76,
          "startMs": 186849,
          "durationMs": 133,
          "noteDuration": "sixteenth",
          "measureIndex": 125,
          "beatInMeasure": 0.5,
          "isRest": false
        },
        {
          "midi": 84,
          "name": "C6",
          "velocity": 0.76,
          "startMs": 186982,
          "durationMs": 133,
          "noteDuration": "sixteenth",
          "measureIndex": 125,
          "beatInMeasure": 0.625,
          "isRest": false
        },
        {
          "midi": 86,
          "name": "D6",
          "velocity": 0.76,
          "startMs": 187115,
          "durationMs": 133,
          "noteDuration": "sixteenth",
          "measureIndex": 126,
          "beatInMeasure": 0,
          "isRest": false
        },
        {
          "midi": 84,
          "name": "C6",
          "velocity": 0.76,
          "startMs": 187248,
          "durationMs": 132,
          "noteDuration": "sixteenth",
          "measureIndex": 126,
          "beatInMeasure": 0.125,
          "isRest": false
        },
        {
          "midi": 83,
          "name": "B5",
          "velocity": 0.76,
          "startMs": 187380,
          "durationMs": 133,
          "noteDuration": "sixteenth",
          "measureIndex": 126,
          "beatInMeasure": 0.25,
          "isRest": false
        },
        {
          "midi": 81,
          "name": "A5",
          "velocity": 0.76,
          "startMs": 187513,
          "durationMs": 133,
          "noteDuration": "sixteenth",
          "measureIndex": 126,
          "beatInMeasure": 0.375,
          "isRest": false
        },
        {
          "midi": 79,
          "name": "G5",
          "velocity": 0.76,
          "startMs": 187646,
          "durationMs": 133,
          "noteDuration": "sixteenth",
          "measureIndex": 126,
          "beatInMeasure": 0.5,
          "isRest": false
        },
        {
          "midi": 78,
          "name": "F#5",
          "velocity": 0.76,
          "startMs": 187779,
          "durationMs": 132,
          "noteDuration": "sixteenth",
          "measureIndex": 126,
          "beatInMeasure": 0.625,
          "isRest": false
        },
        {
          "midi": 76,
          "name": "E5",
          "velocity": 0.76,
          "startMs": 187911,
          "durationMs": 133,
          "noteDuration": "sixteenth",
          "measureIndex": 127,
          "beatInMeasure": 0,
          "isRest": false
        },
        {
          "midi": 74,
          "name": "D5",
          "velocity": 0.76,
          "startMs": 188044,
          "durationMs": 133,
          "noteDuration": "sixteenth",
          "measureIndex": 127,
          "beatInMeasure": 0.125,
          "isRest": false
        },
        {
          "midi": 72,
          "name": "C5",
          "velocity": 0.76,
          "startMs": 188177,
          "durationMs": 133,
          "noteDuration": "sixteenth",
          "measureIndex": 127,
          "beatInMeasure": 0.25,
          "isRest": false
        },
        {
          "midi": 71,
          "name": "B4",
          "velocity": 0.76,
          "startMs": 188310,
          "durationMs": 132,
          "noteDuration": "sixteenth",
          "measureIndex": 127,
          "beatInMeasure": 0.375,
          "isRest": false
        },
        {
          "midi": 69,
          "name": "A4",
          "velocity": 0.76,
          "startMs": 188442,
          "durationMs": 133,
          "noteDuration": "sixteenth",
          "measureIndex": 127,
          "beatInMeasure": 0.5,
          "isRest": false
        },
        {
          "midi": 67,
          "name": "G4",
          "velocity": 0.76,
          "startMs": 188575,
          "durationMs": 133,
          "noteDuration": "sixteenth",
          "measureIndex": 127,
          "beatInMeasure": 0.625,
          "isRest": false
        },
        {
          "midi": 66,
          "name": "F#4",
          "velocity": 0.76,
          "startMs": 188708,
          "durationMs": 133,
          "noteDuration": "sixteenth",
          "measureIndex": 128,
          "beatInMeasure": 0,
          "isRest": false
        },
        {
          "midi": 67,
          "name": "G4",
          "velocity": 0.76,
          "startMs": 188841,
          "durationMs": 132,
          "noteDuration": "sixteenth",
          "measureIndex": 128,
          "beatInMeasure": 0.125,
          "isRest": false
        },
        {
          "midi": 69,
          "name": "A4",
          "velocity": 0.76,
          "startMs": 188973,
          "durationMs": 133,
          "noteDuration": "sixteenth",
          "measureIndex": 128,
          "beatInMeasure": 0.25,
          "isRest": false
        },
        {
          "midi": 71,
          "name": "B4",
          "velocity": 0.76,
          "startMs": 189106,
          "durationMs": 133,
          "noteDuration": "sixteenth",
          "measureIndex": 128,
          "beatInMeasure": 0.375,
          "isRest": false
        },
        {
          "midi": 72,
          "name": "C5",
          "velocity": 0.76,
          "startMs": 189239,
          "durationMs": 133,
          "noteDuration": "sixteenth",
          "measureIndex": 128,
          "beatInMeasure": 0.5,
          "isRest": false
        },
        {
          "midi": 69,
          "name": "A4",
          "velocity": 0.76,
          "startMs": 189372,
          "durationMs": 132,
          "noteDuration": "sixteenth",
          "measureIndex": 128,
          "beatInMeasure": 0.625,
          "isRest": false
        },
        {
          "midi": 67,
          "name": "G4",
          "velocity": 0.76,
          "startMs": 189504,
          "durationMs": 266,
          "noteDuration": "quarter",
          "measureIndex": 129,
          "beatInMeasure": 0,
          "isRest": false
        },
        {
          "midi": 83,
          "name": "B5",
          "velocity": 0.76,
          "startMs": 190035,
          "durationMs": 133,
          "noteDuration": "sixteenth",
          "measureIndex": 129,
          "beatInMeasure": 0.5,
          "isRest": false
        },
        {
          "midi": 84,
          "name": "C6",
          "velocity": 0.76,
          "startMs": 190168,
          "durationMs": 133,
          "noteDuration": "sixteenth",
          "measureIndex": 129,
          "beatInMeasure": 0.625,
          "isRest": false
        },
        {
          "midi": 86,
          "name": "D6",
          "velocity": 0.76,
          "startMs": 190301,
          "durationMs": 133,
          "noteDuration": "sixteenth",
          "measureIndex": 130,
          "beatInMeasure": 0,
          "isRest": false
        },
        {
          "midi": 84,
          "name": "C6",
          "velocity": 0.76,
          "startMs": 190434,
          "durationMs": 132,
          "noteDuration": "sixteenth",
          "measureIndex": 130,
          "beatInMeasure": 0.125,
          "isRest": false
        },
        {
          "midi": 83,
          "name": "B5",
          "velocity": 0.76,
          "startMs": 190566,
          "durationMs": 133,
          "noteDuration": "sixteenth",
          "measureIndex": 130,
          "beatInMeasure": 0.25,
          "isRest": false
        },
        {
          "midi": 81,
          "name": "A5",
          "velocity": 0.76,
          "startMs": 190699,
          "durationMs": 133,
          "noteDuration": "sixteenth",
          "measureIndex": 130,
          "beatInMeasure": 0.375,
          "isRest": false
        },
        {
          "midi": 79,
          "name": "G5",
          "velocity": 0.76,
          "startMs": 190832,
          "durationMs": 132,
          "noteDuration": "sixteenth",
          "measureIndex": 130,
          "beatInMeasure": 0.5,
          "isRest": false
        },
        {
          "midi": 78,
          "name": "F#5",
          "velocity": 0.76,
          "startMs": 190964,
          "durationMs": 133,
          "noteDuration": "sixteenth",
          "measureIndex": 130,
          "beatInMeasure": 0.625,
          "isRest": false
        },
        {
          "midi": 77,
          "name": "F5",
          "velocity": 0.76,
          "startMs": 191097,
          "durationMs": 133,
          "noteDuration": "eighth",
          "measureIndex": 131,
          "beatInMeasure": 0,
          "isRest": false
        },
        {
          "midi": 77,
          "name": "F5",
          "velocity": 0.76,
          "startMs": 191363,
          "durationMs": 132,
          "noteDuration": "eighth",
          "measureIndex": 131,
          "beatInMeasure": 0.25,
          "isRest": false
        },
        {
          "midi": 86,
          "name": "D6",
          "velocity": 0.76,
          "startMs": 191628,
          "durationMs": 133,
          "noteDuration": "sixteenth",
          "measureIndex": 131,
          "beatInMeasure": 0.5,
          "isRest": false
        },
        {
          "midi": 83,
          "name": "B5",
          "velocity": 0.76,
          "startMs": 191761,
          "durationMs": 133,
          "noteDuration": "sixteenth",
          "measureIndex": 131,
          "beatInMeasure": 0.625,
          "isRest": false
        },
        {
          "midi": 77,
          "name": "F5",
          "velocity": 0.76,
          "startMs": 191894,
          "durationMs": 132,
          "noteDuration": "eighth",
          "measureIndex": 132,
          "beatInMeasure": 0,
          "isRest": false
        },
        {
          "midi": 77,
          "name": "F5",
          "velocity": 0.76,
          "startMs": 192159,
          "durationMs": 133,
          "noteDuration": "eighth",
          "measureIndex": 132,
          "beatInMeasure": 0.25,
          "isRest": false
        },
        {
          "midi": 86,
          "name": "D6",
          "velocity": 0.76,
          "startMs": 192425,
          "durationMs": 132,
          "noteDuration": "sixteenth",
          "measureIndex": 132,
          "beatInMeasure": 0.5,
          "isRest": false
        },
        {
          "midi": 83,
          "name": "B5",
          "velocity": 0.76,
          "startMs": 192557,
          "durationMs": 133,
          "noteDuration": "sixteenth",
          "measureIndex": 132,
          "beatInMeasure": 0.625,
          "isRest": false
        },
        {
          "midi": 77,
          "name": "F5",
          "velocity": 0.76,
          "startMs": 192690,
          "durationMs": 266,
          "noteDuration": "half",
          "measureIndex": 133,
          "beatInMeasure": 0,
          "isRest": false
        },
        {
          "midi": 74,
          "name": "D5",
          "velocity": 0.39,
          "startMs": 193487,
          "durationMs": 265,
          "noteDuration": "half",
          "measureIndex": 134,
          "beatInMeasure": 0,
          "isRest": false
        },
        {
          "midi": 71,
          "name": "B4",
          "velocity": 0.39,
          "startMs": 194283,
          "durationMs": 133,
          "noteDuration": "sixteenth",
          "measureIndex": 135,
          "beatInMeasure": 0,
          "isRest": false
        },
        {
          "midi": 67,
          "name": "G4",
          "velocity": 0.39,
          "startMs": 194416,
          "durationMs": 133,
          "noteDuration": "sixteenth",
          "measureIndex": 135,
          "beatInMeasure": 0.125,
          "isRest": false
        },
        {
          "midi": 69,
          "name": "A4",
          "velocity": 0.39,
          "startMs": 194549,
          "durationMs": 132,
          "noteDuration": "sixteenth",
          "measureIndex": 135,
          "beatInMeasure": 0.25,
          "isRest": false
        },
        {
          "midi": 71,
          "name": "B4",
          "velocity": 0.39,
          "startMs": 194681,
          "durationMs": 133,
          "noteDuration": "sixteenth",
          "measureIndex": 135,
          "beatInMeasure": 0.375,
          "isRest": false
        },
        {
          "midi": 72,
          "name": "C5",
          "velocity": 0.39,
          "startMs": 194814,
          "durationMs": 133,
          "noteDuration": "sixteenth",
          "measureIndex": 135,
          "beatInMeasure": 0.5,
          "isRest": false
        },
        {
          "midi": 74,
          "name": "D5",
          "velocity": 0.39,
          "startMs": 194947,
          "durationMs": 133,
          "noteDuration": "sixteenth",
          "measureIndex": 135,
          "beatInMeasure": 0.625,
          "isRest": false
        },
        {
          "midi": 76,
          "name": "E5",
          "velocity": 0.26,
          "startMs": 195080,
          "durationMs": 132,
          "noteDuration": "sixteenth",
          "measureIndex": 136,
          "beatInMeasure": 0,
          "isRest": false
        },
        {
          "midi": 74,
          "name": "D5",
          "velocity": 0.26,
          "startMs": 195212,
          "durationMs": 133,
          "noteDuration": "sixteenth",
          "measureIndex": 136,
          "beatInMeasure": 0.125,
          "isRest": false
        },
        {
          "midi": 72,
          "name": "C5",
          "velocity": 0.26,
          "startMs": 195345,
          "durationMs": 133,
          "noteDuration": "eighth",
          "measureIndex": 136,
          "beatInMeasure": 0.25,
          "isRest": false
        },
        {
          "midi": 72,
          "name": "C5",
          "velocity": 0.26,
          "startMs": 195611,
          "durationMs": 132,
          "noteDuration": "eighth",
          "measureIndex": 136,
          "beatInMeasure": 0.5,
          "isRest": false
        },
        {
          "midi": 79,
          "name": "G5",
          "velocity": 0.26,
          "startMs": 195876,
          "durationMs": 531,
          "noteDuration": "quarter",
          "measureIndex": 137,
          "beatInMeasure": 0,
          "isRest": false
        },
        {
          "midi": 77,
          "name": "F5",
          "velocity": 0.26,
          "startMs": 196407,
          "durationMs": 133,
          "noteDuration": "sixteenth",
          "measureIndex": 137,
          "beatInMeasure": 0.5,
          "isRest": false
        },
        {
          "midi": 76,
          "name": "E5",
          "velocity": 0.26,
          "startMs": 196540,
          "durationMs": 132,
          "noteDuration": "sixteenth",
          "measureIndex": 137,
          "beatInMeasure": 0.625,
          "isRest": false
        },
        {
          "midi": 74,
          "name": "D5",
          "velocity": 0.26,
          "startMs": 196672,
          "durationMs": 266,
          "noteDuration": "eighth",
          "measureIndex": 138,
          "beatInMeasure": 0,
          "isRest": false
        },
        {
          "midi": 77,
          "name": "F5",
          "velocity": 0.26,
          "startMs": 196938,
          "durationMs": 265,
          "noteDuration": "eighth",
          "measureIndex": 138,
          "beatInMeasure": 0.25,
          "isRest": false
        },
        {
          "midi": 71,
          "name": "B4",
          "velocity": 0.26,
          "startMs": 197203,
          "durationMs": 266,
          "noteDuration": "eighth",
          "measureIndex": 138,
          "beatInMeasure": 0.5,
          "isRest": false
        },
        {
          "midi": 72,
          "name": "C5",
          "velocity": 0.26,
          "startMs": 197469,
          "durationMs": 265,
          "noteDuration": "eighth",
          "measureIndex": 139,
          "beatInMeasure": 0,
          "isRest": false
        },
        {
          "midi": 67,
          "name": "G4",
          "velocity": 0.26,
          "startMs": 197734,
          "durationMs": 133,
          "noteDuration": "eighth",
          "measureIndex": 139,
          "beatInMeasure": 0.25,
          "isRest": false
        },
        {
          "midi": 67,
          "name": "G4",
          "velocity": 0.26,
          "startMs": 198000,
          "durationMs": 133,
          "noteDuration": "eighth",
          "measureIndex": 139,
          "beatInMeasure": 0.5,
          "isRest": false
        },
        {
          "midi": 76,
          "name": "E5",
          "velocity": 0.26,
          "startMs": 198265,
          "durationMs": 133,
          "noteDuration": "sixteenth",
          "measureIndex": 140,
          "beatInMeasure": 0,
          "isRest": false
        },
        {
          "midi": 74,
          "name": "D5",
          "velocity": 0.26,
          "startMs": 198398,
          "durationMs": 133,
          "noteDuration": "sixteenth",
          "measureIndex": 140,
          "beatInMeasure": 0.125,
          "isRest": false
        },
        {
          "midi": 72,
          "name": "C5",
          "velocity": 0.26,
          "startMs": 198531,
          "durationMs": 133,
          "noteDuration": "eighth",
          "measureIndex": 140,
          "beatInMeasure": 0.25,
          "isRest": false
        },
        {
          "midi": 72,
          "name": "C5",
          "velocity": 0.26,
          "startMs": 198796,
          "durationMs": 133,
          "noteDuration": "eighth",
          "measureIndex": 140,
          "beatInMeasure": 0.5,
          "isRest": false
        },
        {
          "midi": 79,
          "name": "G5",
          "velocity": 0.26,
          "startMs": 199062,
          "durationMs": 531,
          "noteDuration": "quarter",
          "measureIndex": 141,
          "beatInMeasure": 0,
          "isRest": false
        },
        {
          "midi": 77,
          "name": "F5",
          "velocity": 0.26,
          "startMs": 199593,
          "durationMs": 133,
          "noteDuration": "sixteenth",
          "measureIndex": 141,
          "beatInMeasure": 0.5,
          "isRest": false
        },
        {
          "midi": 76,
          "name": "E5",
          "velocity": 0.26,
          "startMs": 199726,
          "durationMs": 132,
          "noteDuration": "sixteenth",
          "measureIndex": 141,
          "beatInMeasure": 0.625,
          "isRest": false
        },
        {
          "midi": 74,
          "name": "D5",
          "velocity": 0.26,
          "startMs": 199858,
          "durationMs": 133,
          "noteDuration": "sixteenth",
          "measureIndex": 142,
          "beatInMeasure": 0,
          "isRest": false
        },
        {
          "midi": 76,
          "name": "E5",
          "velocity": 0.26,
          "startMs": 199991,
          "durationMs": 133,
          "noteDuration": "sixteenth",
          "measureIndex": 142,
          "beatInMeasure": 0.125,
          "isRest": false
        },
        {
          "midi": 77,
          "name": "F5",
          "velocity": 0.26,
          "startMs": 200124,
          "durationMs": 133,
          "noteDuration": "sixteenth",
          "measureIndex": 142,
          "beatInMeasure": 0.25,
          "isRest": false
        },
        {
          "midi": 76,
          "name": "E5",
          "velocity": 0.26,
          "startMs": 200257,
          "durationMs": 132,
          "noteDuration": "sixteenth",
          "measureIndex": 142,
          "beatInMeasure": 0.375,
          "isRest": false
        },
        {
          "midi": 77,
          "name": "F5",
          "velocity": 0.26,
          "startMs": 200389,
          "durationMs": 133,
          "noteDuration": "sixteenth",
          "measureIndex": 142,
          "beatInMeasure": 0.5,
          "isRest": false
        },
        {
          "midi": 74,
          "name": "D5",
          "velocity": 0.26,
          "startMs": 200522,
          "durationMs": 133,
          "noteDuration": "sixteenth",
          "measureIndex": 142,
          "beatInMeasure": 0.625,
          "isRest": false
        },
        {
          "midi": 72,
          "name": "C5",
          "velocity": 0.26,
          "startMs": 200655,
          "durationMs": 265,
          "noteDuration": "half",
          "measureIndex": 143,
          "beatInMeasure": 0,
          "isRest": false
        },
        {
          "midi": 76,
          "name": "E5",
          "velocity": 0.76,
          "startMs": 201451,
          "durationMs": 133,
          "noteDuration": "sixteenth",
          "measureIndex": 144,
          "beatInMeasure": 0,
          "isRest": false
        },
        {
          "midi": 74,
          "name": "D5",
          "velocity": 0.76,
          "startMs": 201584,
          "durationMs": 133,
          "noteDuration": "sixteenth",
          "measureIndex": 144,
          "beatInMeasure": 0.125,
          "isRest": false
        },
        {
          "midi": 72,
          "name": "C5",
          "velocity": 0.76,
          "startMs": 201717,
          "durationMs": 132,
          "noteDuration": "eighth",
          "measureIndex": 144,
          "beatInMeasure": 0.25,
          "isRest": false
        },
        {
          "midi": 72,
          "name": "C5",
          "velocity": 0.76,
          "startMs": 201982,
          "durationMs": 133,
          "noteDuration": "eighth",
          "measureIndex": 144,
          "beatInMeasure": 0.5,
          "isRest": false
        },
        {
          "midi": 79,
          "name": "G5",
          "velocity": 0.76,
          "startMs": 202248,
          "durationMs": 531,
          "noteDuration": "quarter",
          "measureIndex": 145,
          "beatInMeasure": 0,
          "isRest": false
        },
        {
          "midi": 77,
          "name": "F5",
          "velocity": 0.76,
          "startMs": 202779,
          "durationMs": 132,
          "noteDuration": "sixteenth",
          "measureIndex": 145,
          "beatInMeasure": 0.5,
          "isRest": false
        },
        {
          "midi": 76,
          "name": "E5",
          "velocity": 0.76,
          "startMs": 202911,
          "durationMs": 133,
          "noteDuration": "sixteenth",
          "measureIndex": 145,
          "beatInMeasure": 0.625,
          "isRest": false
        },
        {
          "midi": 74,
          "name": "D5",
          "velocity": 0.76,
          "startMs": 203044,
          "durationMs": 266,
          "noteDuration": "eighth",
          "measureIndex": 146,
          "beatInMeasure": 0,
          "isRest": false
        },
        {
          "midi": 77,
          "name": "F5",
          "velocity": 0.76,
          "startMs": 203310,
          "durationMs": 265,
          "noteDuration": "eighth",
          "measureIndex": 146,
          "beatInMeasure": 0.25,
          "isRest": false
        },
        {
          "midi": 71,
          "name": "B4",
          "velocity": 0.76,
          "startMs": 203575,
          "durationMs": 266,
          "noteDuration": "eighth",
          "measureIndex": 146,
          "beatInMeasure": 0.5,
          "isRest": false
        },
        {
          "midi": 72,
          "name": "C5",
          "velocity": 0.76,
          "startMs": 203841,
          "durationMs": 265,
          "noteDuration": "eighth",
          "measureIndex": 147,
          "beatInMeasure": 0,
          "isRest": false
        },
        {
          "midi": 67,
          "name": "G4",
          "velocity": 0.76,
          "startMs": 204106,
          "durationMs": 133,
          "noteDuration": "eighth",
          "measureIndex": 147,
          "beatInMeasure": 0.25,
          "isRest": false
        },
        {
          "midi": 67,
          "name": "G4",
          "velocity": 0.76,
          "startMs": 204372,
          "durationMs": 132,
          "noteDuration": "eighth",
          "measureIndex": 147,
          "beatInMeasure": 0.5,
          "isRest": false
        },
        {
          "midi": 76,
          "name": "E5",
          "velocity": 0.76,
          "startMs": 204637,
          "durationMs": 133,
          "noteDuration": "sixteenth",
          "measureIndex": 148,
          "beatInMeasure": 0,
          "isRest": false
        },
        {
          "midi": 74,
          "name": "D5",
          "velocity": 0.76,
          "startMs": 204770,
          "durationMs": 133,
          "noteDuration": "sixteenth",
          "measureIndex": 148,
          "beatInMeasure": 0.125,
          "isRest": false
        },
        {
          "midi": 72,
          "name": "C5",
          "velocity": 0.76,
          "startMs": 204903,
          "durationMs": 132,
          "noteDuration": "eighth",
          "measureIndex": 148,
          "beatInMeasure": 0.25,
          "isRest": false
        },
        {
          "midi": 72,
          "name": "C5",
          "velocity": 0.76,
          "startMs": 205168,
          "durationMs": 133,
          "noteDuration": "eighth",
          "measureIndex": 148,
          "beatInMeasure": 0.5,
          "isRest": false
        },
        {
          "midi": 79,
          "name": "G5",
          "velocity": 0.76,
          "startMs": 205434,
          "durationMs": 531,
          "noteDuration": "quarter",
          "measureIndex": 149,
          "beatInMeasure": 0,
          "isRest": false
        },
        {
          "midi": 77,
          "name": "F5",
          "velocity": 0.76,
          "startMs": 205965,
          "durationMs": 132,
          "noteDuration": "sixteenth",
          "measureIndex": 149,
          "beatInMeasure": 0.5,
          "isRest": false
        },
        {
          "midi": 76,
          "name": "E5",
          "velocity": 0.76,
          "startMs": 206097,
          "durationMs": 133,
          "noteDuration": "sixteenth",
          "measureIndex": 149,
          "beatInMeasure": 0.625,
          "isRest": false
        },
        {
          "midi": 74,
          "name": "D5",
          "velocity": 0.76,
          "startMs": 206230,
          "durationMs": 133,
          "noteDuration": "sixteenth",
          "measureIndex": 150,
          "beatInMeasure": 0,
          "isRest": false
        },
        {
          "midi": 76,
          "name": "E5",
          "velocity": 0.76,
          "startMs": 206363,
          "durationMs": 132,
          "noteDuration": "sixteenth",
          "measureIndex": 150,
          "beatInMeasure": 0.125,
          "isRest": false
        },
        {
          "midi": 77,
          "name": "F5",
          "velocity": 0.76,
          "startMs": 206495,
          "durationMs": 133,
          "noteDuration": "sixteenth",
          "measureIndex": 150,
          "beatInMeasure": 0.25,
          "isRest": false
        },
        {
          "midi": 76,
          "name": "E5",
          "velocity": 0.76,
          "startMs": 206628,
          "durationMs": 133,
          "noteDuration": "sixteenth",
          "measureIndex": 150,
          "beatInMeasure": 0.375,
          "isRest": false
        },
        {
          "midi": 77,
          "name": "F5",
          "velocity": 0.76,
          "startMs": 206761,
          "durationMs": 133,
          "noteDuration": "sixteenth",
          "measureIndex": 150,
          "beatInMeasure": 0.5,
          "isRest": false
        },
        {
          "midi": 74,
          "name": "D5",
          "velocity": 0.76,
          "startMs": 206894,
          "durationMs": 132,
          "noteDuration": "sixteenth",
          "measureIndex": 150,
          "beatInMeasure": 0.625,
          "isRest": false
        },
        {
          "midi": 72,
          "name": "C5",
          "velocity": 0.76,
          "startMs": 207026,
          "durationMs": 266,
          "noteDuration": "half",
          "measureIndex": 151,
          "beatInMeasure": 0,
          "isRest": false
        },
        {
          "midi": 67,
          "name": "G4",
          "velocity": 0.39,
          "startMs": 207823,
          "durationMs": 133,
          "noteDuration": "sixteenth",
          "measureIndex": 152,
          "beatInMeasure": 0,
          "isRest": false
        },
        {
          "midi": 65,
          "name": "F4",
          "velocity": 0.39,
          "startMs": 207956,
          "durationMs": 132,
          "noteDuration": "sixteenth",
          "measureIndex": 152,
          "beatInMeasure": 0.125,
          "isRest": false
        },
        {
          "midi": 64,
          "name": "E4",
          "velocity": 0.39,
          "startMs": 208088,
          "durationMs": 133,
          "noteDuration": "eighth",
          "measureIndex": 152,
          "beatInMeasure": 0.25,
          "isRest": false
        },
        {
          "midi": 64,
          "name": "E4",
          "velocity": 0.39,
          "startMs": 208354,
          "durationMs": 133,
          "noteDuration": "eighth",
          "measureIndex": 152,
          "beatInMeasure": 0.5,
          "isRest": false
        },
        {
          "midi": 69,
          "name": "A4",
          "velocity": 0.39,
          "startMs": 208619,
          "durationMs": 133,
          "noteDuration": "sixteenth",
          "measureIndex": 153,
          "beatInMeasure": 0,
          "isRest": false
        },
        {
          "midi": 67,
          "name": "G4",
          "velocity": 0.39,
          "startMs": 208752,
          "durationMs": 133,
          "noteDuration": "sixteenth",
          "measureIndex": 153,
          "beatInMeasure": 0.125,
          "isRest": false
        },
        {
          "midi": 65,
          "name": "F4",
          "velocity": 0.39,
          "startMs": 208885,
          "durationMs": 133,
          "noteDuration": "eighth",
          "measureIndex": 153,
          "beatInMeasure": 0.25,
          "isRest": false
        },
        {
          "midi": 65,
          "name": "F4",
          "velocity": 0.39,
          "startMs": 209150,
          "durationMs": 133,
          "noteDuration": "eighth",
          "measureIndex": 153,
          "beatInMeasure": 0.5,
          "isRest": false
        },
        {
          "midi": 62,
          "name": "D4",
          "velocity": 0.76,
          "startMs": 209416,
          "durationMs": 133,
          "noteDuration": "sixteenth",
          "measureIndex": 154,
          "beatInMeasure": 0,
          "isRest": false
        },
        {
          "midi": 65,
          "name": "F4",
          "velocity": 0.76,
          "startMs": 209549,
          "durationMs": 132,
          "noteDuration": "sixteenth",
          "measureIndex": 154,
          "beatInMeasure": 0.125,
          "isRest": false
        },
        {
          "midi": 71,
          "name": "B4",
          "velocity": 0.76,
          "startMs": 209681,
          "durationMs": 133,
          "noteDuration": "sixteenth",
          "measureIndex": 154,
          "beatInMeasure": 0.25,
          "isRest": false
        },
        {
          "midi": 65,
          "name": "F4",
          "velocity": 0.76,
          "startMs": 209814,
          "durationMs": 133,
          "noteDuration": "sixteenth",
          "measureIndex": 154,
          "beatInMeasure": 0.375,
          "isRest": false
        },
        {
          "midi": 71,
          "name": "B4",
          "velocity": 0.76,
          "startMs": 209947,
          "durationMs": 133,
          "noteDuration": "sixteenth",
          "measureIndex": 154,
          "beatInMeasure": 0.5,
          "isRest": false
        },
        {
          "midi": 65,
          "name": "F4",
          "velocity": 0.76,
          "startMs": 210080,
          "durationMs": 132,
          "noteDuration": "sixteenth",
          "measureIndex": 154,
          "beatInMeasure": 0.625,
          "isRest": false
        },
        {
          "midi": 64,
          "name": "E4",
          "velocity": 0.76,
          "startMs": 210212,
          "durationMs": 266,
          "noteDuration": "quarter",
          "measureIndex": 155,
          "beatInMeasure": 0,
          "isRest": false
        },
        {
          "midi": 76,
          "name": "E5",
          "velocity": 0.76,
          "startMs": 210743,
          "durationMs": 133,
          "noteDuration": "sixteenth",
          "measureIndex": 155,
          "beatInMeasure": 0.5,
          "isRest": false
        },
        {
          "midi": 77,
          "name": "F5",
          "velocity": 0.76,
          "startMs": 210876,
          "durationMs": 133,
          "noteDuration": "sixteenth",
          "measureIndex": 155,
          "beatInMeasure": 0.625,
          "isRest": false
        },
        {
          "midi": 79,
          "name": "G5",
          "velocity": 0.76,
          "startMs": 211009,
          "durationMs": 132,
          "noteDuration": "sixteenth",
          "measureIndex": 156,
          "beatInMeasure": 0,
          "isRest": false
        },
        {
          "midi": 77,
          "name": "F5",
          "velocity": 0.76,
          "startMs": 211141,
          "durationMs": 133,
          "noteDuration": "sixteenth",
          "measureIndex": 156,
          "beatInMeasure": 0.125,
          "isRest": false
        },
        {
          "midi": 76,
          "name": "E5",
          "velocity": 0.76,
          "startMs": 211274,
          "durationMs": 133,
          "noteDuration": "sixteenth",
          "measureIndex": 156,
          "beatInMeasure": 0.25,
          "isRest": false
        },
        {
          "midi": 74,
          "name": "D5",
          "velocity": 0.76,
          "startMs": 211407,
          "durationMs": 133,
          "noteDuration": "sixteenth",
          "measureIndex": 156,
          "beatInMeasure": 0.375,
          "isRest": false
        },
        {
          "midi": 72,
          "name": "C5",
          "velocity": 0.76,
          "startMs": 211540,
          "durationMs": 132,
          "noteDuration": "sixteenth",
          "measureIndex": 156,
          "beatInMeasure": 0.5,
          "isRest": false
        },
        {
          "midi": 71,
          "name": "B4",
          "velocity": 0.76,
          "startMs": 211672,
          "durationMs": 133,
          "noteDuration": "sixteenth",
          "measureIndex": 156,
          "beatInMeasure": 0.625,
          "isRest": false
        },
        {
          "midi": 69,
          "name": "A4",
          "velocity": 0.76,
          "startMs": 211805,
          "durationMs": 133,
          "noteDuration": "sixteenth",
          "measureIndex": 157,
          "beatInMeasure": 0,
          "isRest": false
        },
        {
          "midi": 67,
          "name": "G4",
          "velocity": 0.76,
          "startMs": 211938,
          "durationMs": 133,
          "noteDuration": "sixteenth",
          "measureIndex": 157,
          "beatInMeasure": 0.125,
          "isRest": false
        },
        {
          "midi": 65,
          "name": "F4",
          "velocity": 0.76,
          "startMs": 212071,
          "durationMs": 132,
          "noteDuration": "sixteenth",
          "measureIndex": 157,
          "beatInMeasure": 0.25,
          "isRest": false
        },
        {
          "midi": 64,
          "name": "E4",
          "velocity": 0.76,
          "startMs": 212203,
          "durationMs": 133,
          "noteDuration": "sixteenth",
          "measureIndex": 157,
          "beatInMeasure": 0.375,
          "isRest": false
        },
        {
          "midi": 62,
          "name": "D4",
          "velocity": 0.76,
          "startMs": 212336,
          "durationMs": 133,
          "noteDuration": "sixteenth",
          "measureIndex": 157,
          "beatInMeasure": 0.5,
          "isRest": false
        },
        {
          "midi": 60,
          "name": "C4",
          "velocity": 0.76,
          "startMs": 212469,
          "durationMs": 133,
          "noteDuration": "sixteenth",
          "measureIndex": 157,
          "beatInMeasure": 0.625,
          "isRest": false
        },
        {
          "midi": 59,
          "name": "B3",
          "velocity": 0.76,
          "startMs": 212602,
          "durationMs": 132,
          "noteDuration": "sixteenth",
          "measureIndex": 158,
          "beatInMeasure": 0,
          "isRest": false
        },
        {
          "midi": 60,
          "name": "C4",
          "velocity": 0.76,
          "startMs": 212734,
          "durationMs": 133,
          "noteDuration": "sixteenth",
          "measureIndex": 158,
          "beatInMeasure": 0.125,
          "isRest": false
        },
        {
          "midi": 62,
          "name": "D4",
          "velocity": 0.76,
          "startMs": 212867,
          "durationMs": 133,
          "noteDuration": "sixteenth",
          "measureIndex": 158,
          "beatInMeasure": 0.25,
          "isRest": false
        },
        {
          "midi": 64,
          "name": "E4",
          "velocity": 0.76,
          "startMs": 213000,
          "durationMs": 133,
          "noteDuration": "sixteenth",
          "measureIndex": 158,
          "beatInMeasure": 0.375,
          "isRest": false
        },
        {
          "midi": 65,
          "name": "F4",
          "velocity": 0.76,
          "startMs": 213133,
          "durationMs": 132,
          "noteDuration": "sixteenth",
          "measureIndex": 158,
          "beatInMeasure": 0.5,
          "isRest": false
        },
        {
          "midi": 62,
          "name": "D4",
          "velocity": 0.76,
          "startMs": 213265,
          "durationMs": 133,
          "noteDuration": "sixteenth",
          "measureIndex": 158,
          "beatInMeasure": 0.625,
          "isRest": false
        },
        {
          "midi": 60,
          "name": "C4",
          "velocity": 0.76,
          "startMs": 213398,
          "durationMs": 531,
          "noteDuration": "half",
          "measureIndex": 159,
          "beatInMeasure": 0,
          "isRest": false
        },
        {
          "midi": 67,
          "name": "G4",
          "velocity": 0.39,
          "startMs": 214195,
          "durationMs": 132,
          "noteDuration": "sixteenth",
          "measureIndex": 160,
          "beatInMeasure": 0,
          "isRest": false
        },
        {
          "midi": 65,
          "name": "F4",
          "velocity": 0.39,
          "startMs": 214327,
          "durationMs": 133,
          "noteDuration": "sixteenth",
          "measureIndex": 160,
          "beatInMeasure": 0.125,
          "isRest": false
        },
        {
          "midi": 64,
          "name": "E4",
          "velocity": 0.39,
          "startMs": 214460,
          "durationMs": 133,
          "noteDuration": "eighth",
          "measureIndex": 160,
          "beatInMeasure": 0.25,
          "isRest": false
        },
        {
          "midi": 64,
          "name": "E4",
          "velocity": 0.39,
          "startMs": 214726,
          "durationMs": 132,
          "noteDuration": "eighth",
          "measureIndex": 160,
          "beatInMeasure": 0.5,
          "isRest": false
        },
        {
          "midi": 69,
          "name": "A4",
          "velocity": 0.39,
          "startMs": 214991,
          "durationMs": 133,
          "noteDuration": "sixteenth",
          "measureIndex": 161,
          "beatInMeasure": 0,
          "isRest": false
        },
        {
          "midi": 67,
          "name": "G4",
          "velocity": 0.39,
          "startMs": 215124,
          "durationMs": 133,
          "noteDuration": "sixteenth",
          "measureIndex": 161,
          "beatInMeasure": 0.125,
          "isRest": false
        },
        {
          "midi": 65,
          "name": "F4",
          "velocity": 0.39,
          "startMs": 215257,
          "durationMs": 132,
          "noteDuration": "eighth",
          "measureIndex": 161,
          "beatInMeasure": 0.25,
          "isRest": false
        },
        {
          "midi": 65,
          "name": "F4",
          "velocity": 0.39,
          "startMs": 215522,
          "durationMs": 133,
          "noteDuration": "eighth",
          "measureIndex": 161,
          "beatInMeasure": 0.5,
          "isRest": false
        },
        {
          "midi": 62,
          "name": "D4",
          "velocity": 0.76,
          "startMs": 215788,
          "durationMs": 132,
          "noteDuration": "sixteenth",
          "measureIndex": 162,
          "beatInMeasure": 0,
          "isRest": false
        },
        {
          "midi": 65,
          "name": "F4",
          "velocity": 0.76,
          "startMs": 215920,
          "durationMs": 133,
          "noteDuration": "sixteenth",
          "measureIndex": 162,
          "beatInMeasure": 0.125,
          "isRest": false
        },
        {
          "midi": 71,
          "name": "B4",
          "velocity": 0.76,
          "startMs": 216053,
          "durationMs": 133,
          "noteDuration": "sixteenth",
          "measureIndex": 162,
          "beatInMeasure": 0.25,
          "isRest": false
        },
        {
          "midi": 65,
          "name": "F4",
          "velocity": 0.76,
          "startMs": 216186,
          "durationMs": 132,
          "noteDuration": "sixteenth",
          "measureIndex": 162,
          "beatInMeasure": 0.375,
          "isRest": false
        },
        {
          "midi": 71,
          "name": "B4",
          "velocity": 0.76,
          "startMs": 216318,
          "durationMs": 133,
          "noteDuration": "sixteenth",
          "measureIndex": 162,
          "beatInMeasure": 0.5,
          "isRest": false
        },
        {
          "midi": 65,
          "name": "F4",
          "velocity": 0.76,
          "startMs": 216451,
          "durationMs": 133,
          "noteDuration": "sixteenth",
          "measureIndex": 162,
          "beatInMeasure": 0.625,
          "isRest": false
        },
        {
          "midi": 64,
          "name": "E4",
          "velocity": 0.76,
          "startMs": 216584,
          "durationMs": 265,
          "noteDuration": "quarter",
          "measureIndex": 163,
          "beatInMeasure": 0,
          "isRest": false
        },
        {
          "midi": 76,
          "name": "E5",
          "velocity": 0.76,
          "startMs": 217115,
          "durationMs": 133,
          "noteDuration": "sixteenth",
          "measureIndex": 163,
          "beatInMeasure": 0.5,
          "isRest": false
        },
        {
          "midi": 77,
          "name": "F5",
          "velocity": 0.76,
          "startMs": 217248,
          "durationMs": 132,
          "noteDuration": "sixteenth",
          "measureIndex": 163,
          "beatInMeasure": 0.625,
          "isRest": false
        },
        {
          "midi": 79,
          "name": "G5",
          "velocity": 0.76,
          "startMs": 217380,
          "durationMs": 133,
          "noteDuration": "sixteenth",
          "measureIndex": 164,
          "beatInMeasure": 0,
          "isRest": false
        },
        {
          "midi": 77,
          "name": "F5",
          "velocity": 0.76,
          "startMs": 217513,
          "durationMs": 133,
          "noteDuration": "sixteenth",
          "measureIndex": 164,
          "beatInMeasure": 0.125,
          "isRest": false
        },
        {
          "midi": 76,
          "name": "E5",
          "velocity": 0.76,
          "startMs": 217646,
          "durationMs": 133,
          "noteDuration": "sixteenth",
          "measureIndex": 164,
          "beatInMeasure": 0.25,
          "isRest": false
        },
        {
          "midi": 74,
          "name": "D5",
          "velocity": 0.76,
          "startMs": 217779,
          "durationMs": 132,
          "noteDuration": "sixteenth",
          "measureIndex": 164,
          "beatInMeasure": 0.375,
          "isRest": false
        },
        {
          "midi": 72,
          "name": "C5",
          "velocity": 0.76,
          "startMs": 217911,
          "durationMs": 133,
          "noteDuration": "sixteenth",
          "measureIndex": 164,
          "beatInMeasure": 0.5,
          "isRest": false
        },
        {
          "midi": 71,
          "name": "B4",
          "velocity": 0.76,
          "startMs": 218044,
          "durationMs": 133,
          "noteDuration": "sixteenth",
          "measureIndex": 164,
          "beatInMeasure": 0.625,
          "isRest": false
        },
        {
          "midi": 69,
          "name": "A4",
          "velocity": 0.76,
          "startMs": 218177,
          "durationMs": 133,
          "noteDuration": "sixteenth",
          "measureIndex": 165,
          "beatInMeasure": 0,
          "isRest": false
        },
        {
          "midi": 67,
          "name": "G4",
          "velocity": 0.76,
          "startMs": 218310,
          "durationMs": 132,
          "noteDuration": "sixteenth",
          "measureIndex": 165,
          "beatInMeasure": 0.125,
          "isRest": false
        },
        {
          "midi": 65,
          "name": "F4",
          "velocity": 0.76,
          "startMs": 218442,
          "durationMs": 133,
          "noteDuration": "sixteenth",
          "measureIndex": 165,
          "beatInMeasure": 0.25,
          "isRest": false
        },
        {
          "midi": 64,
          "name": "E4",
          "velocity": 0.76,
          "startMs": 218575,
          "durationMs": 133,
          "noteDuration": "sixteenth",
          "measureIndex": 165,
          "beatInMeasure": 0.375,
          "isRest": false
        },
        {
          "midi": 62,
          "name": "D4",
          "velocity": 0.76,
          "startMs": 218708,
          "durationMs": 133,
          "noteDuration": "sixteenth",
          "measureIndex": 165,
          "beatInMeasure": 0.5,
          "isRest": false
        },
        {
          "midi": 60,
          "name": "C4",
          "velocity": 0.76,
          "startMs": 218841,
          "durationMs": 132,
          "noteDuration": "sixteenth",
          "measureIndex": 165,
          "beatInMeasure": 0.625,
          "isRest": false
        },
        {
          "midi": 59,
          "name": "B3",
          "velocity": 0.76,
          "startMs": 218973,
          "durationMs": 133,
          "noteDuration": "sixteenth",
          "measureIndex": 166,
          "beatInMeasure": 0,
          "isRest": false
        },
        {
          "midi": 60,
          "name": "C4",
          "velocity": 0.76,
          "startMs": 219106,
          "durationMs": 133,
          "noteDuration": "sixteenth",
          "measureIndex": 166,
          "beatInMeasure": 0.125,
          "isRest": false
        },
        {
          "midi": 62,
          "name": "D4",
          "velocity": 0.76,
          "startMs": 219239,
          "durationMs": 133,
          "noteDuration": "sixteenth",
          "measureIndex": 166,
          "beatInMeasure": 0.25,
          "isRest": false
        },
        {
          "midi": 64,
          "name": "E4",
          "velocity": 0.76,
          "startMs": 219372,
          "durationMs": 132,
          "noteDuration": "sixteenth",
          "measureIndex": 166,
          "beatInMeasure": 0.375,
          "isRest": false
        },
        {
          "midi": 65,
          "name": "F4",
          "velocity": 0.76,
          "startMs": 219504,
          "durationMs": 133,
          "noteDuration": "sixteenth",
          "measureIndex": 166,
          "beatInMeasure": 0.5,
          "isRest": false
        },
        {
          "midi": 62,
          "name": "D4",
          "velocity": 0.76,
          "startMs": 219637,
          "durationMs": 133,
          "noteDuration": "sixteenth",
          "measureIndex": 166,
          "beatInMeasure": 0.625,
          "isRest": false
        },
        {
          "midi": 60,
          "name": "C4",
          "velocity": 0.88,
          "startMs": 219770,
          "durationMs": 265,
          "noteDuration": "half",
          "measureIndex": 167,
          "beatInMeasure": 0,
          "isRest": false
        },
        {
          "midi": 64,
          "name": "E4",
          "velocity": 0.88,
          "startMs": 220566,
          "durationMs": 266,
          "noteDuration": "thirty-second",
          "measureIndex": 168,
          "beatInMeasure": 0,
          "isRest": false
        },
        {
          "midi": 67,
          "name": "G4",
          "velocity": 0.88,
          "startMs": 220566,
          "durationMs": 266,
          "noteDuration": "half",
          "measureIndex": 168,
          "beatInMeasure": 0,
          "isRest": false
        },
        {
          "midi": 64,
          "name": "E4",
          "velocity": 0.88,
          "startMs": 221363,
          "durationMs": 265,
          "noteDuration": "thirty-second",
          "measureIndex": 169,
          "beatInMeasure": 0,
          "isRest": false
        },
        {
          "midi": 67,
          "name": "G4",
          "velocity": 0.88,
          "startMs": 221363,
          "durationMs": 265,
          "noteDuration": "thirty-second",
          "measureIndex": 169,
          "beatInMeasure": 0,
          "isRest": false
        },
        {
          "midi": 72,
          "name": "C5",
          "velocity": 0.88,
          "startMs": 221363,
          "durationMs": 265,
          "noteDuration": "half",
          "measureIndex": 169,
          "beatInMeasure": 0,
          "isRest": false
        },
        {
          "midi": 76,
          "name": "E5",
          "velocity": 0.88,
          "startMs": 222159,
          "durationMs": 266,
          "noteDuration": "thirty-second",
          "measureIndex": 170,
          "beatInMeasure": 0,
          "isRest": false
        },
        {
          "midi": 79,
          "name": "G5",
          "velocity": 0.88,
          "startMs": 222159,
          "durationMs": 266,
          "noteDuration": "half",
          "measureIndex": 170,
          "beatInMeasure": 0,
          "isRest": false
        },
        {
          "midi": 76,
          "name": "E5",
          "velocity": 0.88,
          "startMs": 222956,
          "durationMs": 531,
          "noteDuration": "thirty-second",
          "measureIndex": 171,
          "beatInMeasure": 0,
          "isRest": false
        },
        {
          "midi": 79,
          "name": "G5",
          "velocity": 0.88,
          "startMs": 222956,
          "durationMs": 531,
          "noteDuration": "thirty-second",
          "measureIndex": 171,
          "beatInMeasure": 0,
          "isRest": false
        },
        {
          "midi": 84,
          "name": "C6",
          "velocity": 0.88,
          "startMs": 222956,
          "durationMs": 531,
          "noteDuration": "half",
          "measureIndex": 171,
          "beatInMeasure": 0,
          "isRest": false
        },
        {
          "name": "rest",
          "startMs": 224018,
          "durationMs": 531,
          "noteDuration": "quarter",
          "measureIndex": 172,
          "beatInMeasure": 0.25,
          "isRest": true
        }
      ]
    },
    {
      "hand": "left",
      "notes": [
        {
          "midi": 48,
          "name": "C3",
          "velocity": 0.76,
          "startMs": 0,
          "durationMs": 316,
          "noteDuration": "whole",
          "measureIndex": 0,
          "beatInMeasure": 0,
          "isRest": false
        },
        {
          "midi": 48,
          "name": "C3",
          "velocity": 0.76,
          "startMs": 1263,
          "durationMs": 316,
          "noteDuration": "whole",
          "measureIndex": 1,
          "beatInMeasure": 0,
          "isRest": false
        },
        {
          "midi": 48,
          "name": "C3",
          "velocity": 0.76,
          "startMs": 2526,
          "durationMs": 316,
          "noteDuration": "half",
          "measureIndex": 2,
          "beatInMeasure": 0,
          "isRest": false
        },
        {
          "midi": 48,
          "name": "C3",
          "velocity": 0.76,
          "startMs": 3158,
          "durationMs": 316,
          "noteDuration": "half",
          "measureIndex": 2,
          "beatInMeasure": 4,
          "isRest": false
        },
        {
          "midi": 43,
          "name": "G2",
          "velocity": 0.76,
          "startMs": 3789,
          "durationMs": 316,
          "noteDuration": "half",
          "measureIndex": 3,
          "beatInMeasure": 0,
          "isRest": false
        },
        {
          "midi": 55,
          "name": "G3",
          "velocity": 0.76,
          "startMs": 4421,
          "durationMs": 158,
          "noteDuration": "eighth",
          "measureIndex": 3,
          "beatInMeasure": 4,
          "isRest": false
        },
        {
          "midi": 53,
          "name": "F3",
          "velocity": 0.76,
          "startMs": 4579,
          "durationMs": 158,
          "noteDuration": "eighth",
          "measureIndex": 3,
          "beatInMeasure": 5,
          "isRest": false
        },
        {
          "midi": 52,
          "name": "E3",
          "velocity": 0.76,
          "startMs": 4737,
          "durationMs": 158,
          "noteDuration": "eighth",
          "measureIndex": 3,
          "beatInMeasure": 6,
          "isRest": false
        },
        {
          "midi": 50,
          "name": "D3",
          "velocity": 0.76,
          "startMs": 4895,
          "durationMs": 158,
          "noteDuration": "eighth",
          "measureIndex": 3,
          "beatInMeasure": 7,
          "isRest": false
        },
        {
          "midi": 48,
          "name": "C3",
          "velocity": 0.39,
          "startMs": 5053,
          "durationMs": 315,
          "noteDuration": "whole",
          "measureIndex": 4,
          "beatInMeasure": 0,
          "isRest": false
        },
        {
          "midi": 60,
          "name": "C4",
          "velocity": 0.39,
          "startMs": 6316,
          "durationMs": 316,
          "noteDuration": "whole",
          "measureIndex": 5,
          "beatInMeasure": 0,
          "isRest": false
        },
        {
          "midi": 54,
          "name": "F#3",
          "velocity": 0.39,
          "startMs": 7263,
          "durationMs": 316,
          "noteDuration": "quarter",
          "measureIndex": 5,
          "beatInMeasure": 6,
          "isRest": false
        },
        {
          "midi": 55,
          "name": "G3",
          "velocity": 0.39,
          "startMs": 7579,
          "durationMs": 316,
          "noteDuration": "quarter",
          "measureIndex": 6,
          "beatInMeasure": 0,
          "isRest": false
        },
        {
          "midi": 48,
          "name": "C3",
          "velocity": 0.39,
          "startMs": 7895,
          "durationMs": 316,
          "noteDuration": "quarter",
          "measureIndex": 6,
          "beatInMeasure": 2,
          "isRest": false
        },
        {
          "midi": 50,
          "name": "D3",
          "velocity": 0.39,
          "startMs": 8211,
          "durationMs": 315,
          "noteDuration": "quarter",
          "measureIndex": 6,
          "beatInMeasure": 4,
          "isRest": false
        },
        {
          "midi": 38,
          "name": "D2",
          "velocity": 0.39,
          "startMs": 8526,
          "durationMs": 316,
          "noteDuration": "quarter",
          "measureIndex": 6,
          "beatInMeasure": 6,
          "isRest": false
        },
        {
          "midi": 43,
          "name": "G2",
          "velocity": 0.76,
          "startMs": 8842,
          "durationMs": 316,
          "noteDuration": "whole",
          "measureIndex": 7,
          "beatInMeasure": 0,
          "isRest": false
        },
        {
          "midi": 54,
          "name": "F#3",
          "velocity": 0.76,
          "startMs": 10105,
          "durationMs": 158,
          "noteDuration": "eighth",
          "measureIndex": 8,
          "beatInMeasure": 0,
          "isRest": false
        },
        {
          "midi": 62,
          "name": "D4",
          "velocity": 0.76,
          "startMs": 10263,
          "durationMs": 158,
          "noteDuration": "eighth",
          "measureIndex": 8,
          "beatInMeasure": 1,
          "isRest": false
        },
        {
          "midi": 57,
          "name": "A3",
          "velocity": 0.76,
          "startMs": 10421,
          "durationMs": 158,
          "noteDuration": "eighth",
          "measureIndex": 8,
          "beatInMeasure": 2,
          "isRest": false
        },
        {
          "midi": 62,
          "name": "D4",
          "velocity": 0.76,
          "startMs": 10579,
          "durationMs": 158,
          "noteDuration": "eighth",
          "measureIndex": 8,
          "beatInMeasure": 3,
          "isRest": false
        },
        {
          "midi": 54,
          "name": "F#3",
          "velocity": 0.76,
          "startMs": 10737,
          "durationMs": 158,
          "noteDuration": "eighth",
          "measureIndex": 8,
          "beatInMeasure": 4,
          "isRest": false
        },
        {
          "midi": 62,
          "name": "D4",
          "velocity": 0.76,
          "startMs": 10895,
          "durationMs": 158,
          "noteDuration": "eighth",
          "measureIndex": 8,
          "beatInMeasure": 5,
          "isRest": false
        },
        {
          "midi": 57,
          "name": "A3",
          "velocity": 0.76,
          "startMs": 11053,
          "durationMs": 158,
          "noteDuration": "eighth",
          "measureIndex": 8,
          "beatInMeasure": 6,
          "isRest": false
        },
        {
          "midi": 62,
          "name": "D4",
          "velocity": 0.76,
          "startMs": 11211,
          "durationMs": 157,
          "noteDuration": "eighth",
          "measureIndex": 8,
          "beatInMeasure": 7,
          "isRest": false
        },
        {
          "midi": 55,
          "name": "G3",
          "velocity": 0.76,
          "startMs": 11368,
          "durationMs": 316,
          "noteDuration": "whole",
          "measureIndex": 9,
          "beatInMeasure": 0,
          "isRest": false
        },
        {
          "midi": 57,
          "name": "A3",
          "velocity": 0.76,
          "startMs": 12632,
          "durationMs": 157,
          "noteDuration": "eighth",
          "measureIndex": 10,
          "beatInMeasure": 0,
          "isRest": false
        },
        {
          "midi": 62,
          "name": "D4",
          "velocity": 0.76,
          "startMs": 12789,
          "durationMs": 158,
          "noteDuration": "eighth",
          "measureIndex": 10,
          "beatInMeasure": 1,
          "isRest": false
        },
        {
          "midi": 60,
          "name": "C4",
          "velocity": 0.76,
          "startMs": 12947,
          "durationMs": 158,
          "noteDuration": "eighth",
          "measureIndex": 10,
          "beatInMeasure": 2,
          "isRest": false
        },
        {
          "midi": 62,
          "name": "D4",
          "velocity": 0.76,
          "startMs": 13105,
          "durationMs": 158,
          "noteDuration": "eighth",
          "measureIndex": 10,
          "beatInMeasure": 3,
          "isRest": false
        },
        {
          "midi": 57,
          "name": "A3",
          "velocity": 0.76,
          "startMs": 13263,
          "durationMs": 158,
          "noteDuration": "eighth",
          "measureIndex": 10,
          "beatInMeasure": 4,
          "isRest": false
        },
        {
          "midi": 62,
          "name": "D4",
          "velocity": 0.76,
          "startMs": 13421,
          "durationMs": 158,
          "noteDuration": "eighth",
          "measureIndex": 10,
          "beatInMeasure": 5,
          "isRest": false
        },
        {
          "midi": 60,
          "name": "C4",
          "velocity": 0.76,
          "startMs": 13579,
          "durationMs": 158,
          "noteDuration": "eighth",
          "measureIndex": 10,
          "beatInMeasure": 6,
          "isRest": false
        },
        {
          "midi": 62,
          "name": "D4",
          "velocity": 0.76,
          "startMs": 13737,
          "durationMs": 158,
          "noteDuration": "eighth",
          "measureIndex": 10,
          "beatInMeasure": 7,
          "isRest": false
        },
        {
          "midi": 59,
          "name": "B3",
          "velocity": 0.76,
          "startMs": 13895,
          "durationMs": 316,
          "noteDuration": "whole",
          "measureIndex": 11,
          "beatInMeasure": 0,
          "isRest": false
        },
        {
          "midi": 60,
          "name": "C4",
          "velocity": 0.76,
          "startMs": 15158,
          "durationMs": 316,
          "noteDuration": "half",
          "measureIndex": 12,
          "beatInMeasure": 0,
          "isRest": false
        },
        {
          "midi": 48,
          "name": "C3",
          "velocity": 0.76,
          "startMs": 15789,
          "durationMs": 316,
          "noteDuration": "half",
          "measureIndex": 12,
          "beatInMeasure": 4,
          "isRest": false
        },
        {
          "midi": 50,
          "name": "D3",
          "velocity": 0.76,
          "startMs": 16421,
          "durationMs": 316,
          "noteDuration": "half",
          "measureIndex": 13,
          "beatInMeasure": 0,
          "isRest": false
        },
        {
          "midi": 38,
          "name": "D2",
          "velocity": 0.76,
          "startMs": 17053,
          "durationMs": 315,
          "noteDuration": "half",
          "measureIndex": 13,
          "beatInMeasure": 4,
          "isRest": false
        },
        {
          "midi": 43,
          "name": "G2",
          "velocity": 0.76,
          "startMs": 17684,
          "durationMs": 158,
          "noteDuration": "eighth",
          "measureIndex": 14,
          "beatInMeasure": 0,
          "isRest": false
        },
        {
          "midi": 47,
          "name": "B2",
          "velocity": 0.76,
          "startMs": 17842,
          "durationMs": 158,
          "noteDuration": "eighth",
          "measureIndex": 14,
          "beatInMeasure": 1,
          "isRest": false
        },
        {
          "midi": 50,
          "name": "D3",
          "velocity": 0.76,
          "startMs": 18000,
          "durationMs": 158,
          "noteDuration": "eighth",
          "measureIndex": 14,
          "beatInMeasure": 2,
          "isRest": false
        },
        {
          "midi": 55,
          "name": "G3",
          "velocity": 0.76,
          "startMs": 18158,
          "durationMs": 158,
          "noteDuration": "eighth",
          "measureIndex": 14,
          "beatInMeasure": 3,
          "isRest": false
        },
        {
          "midi": 43,
          "name": "G2",
          "velocity": 0.76,
          "startMs": 18316,
          "durationMs": 316,
          "noteDuration": "half",
          "measureIndex": 14,
          "beatInMeasure": 4,
          "isRest": false
        },
        {
          "midi": 48,
          "name": "C3",
          "velocity": 0.76,
          "startMs": 18947,
          "durationMs": 316,
          "noteDuration": "whole",
          "measureIndex": 15,
          "beatInMeasure": 0,
          "isRest": false
        },
        {
          "midi": 48,
          "name": "C3",
          "velocity": 0.76,
          "startMs": 20210,
          "durationMs": 316,
          "noteDuration": "whole",
          "measureIndex": 16,
          "beatInMeasure": 0,
          "isRest": false
        },
        {
          "midi": 48,
          "name": "C3",
          "velocity": 0.76,
          "startMs": 21474,
          "durationMs": 315,
          "noteDuration": "half",
          "measureIndex": 17,
          "beatInMeasure": 0,
          "isRest": false
        },
        {
          "midi": 48,
          "name": "C3",
          "velocity": 0.76,
          "startMs": 22105,
          "durationMs": 316,
          "noteDuration": "half",
          "measureIndex": 17,
          "beatInMeasure": 4,
          "isRest": false
        },
        {
          "midi": 43,
          "name": "G2",
          "velocity": 0.76,
          "startMs": 22737,
          "durationMs": 316,
          "noteDuration": "half",
          "measureIndex": 18,
          "beatInMeasure": 0,
          "isRest": false
        },
        {
          "midi": 55,
          "name": "G3",
          "velocity": 0.76,
          "startMs": 23368,
          "durationMs": 158,
          "noteDuration": "eighth",
          "measureIndex": 18,
          "beatInMeasure": 4,
          "isRest": false
        },
        {
          "midi": 53,
          "name": "F3",
          "velocity": 0.76,
          "startMs": 23526,
          "durationMs": 158,
          "noteDuration": "eighth",
          "measureIndex": 18,
          "beatInMeasure": 5,
          "isRest": false
        },
        {
          "midi": 52,
          "name": "E3",
          "velocity": 0.76,
          "startMs": 23684,
          "durationMs": 158,
          "noteDuration": "eighth",
          "measureIndex": 18,
          "beatInMeasure": 6,
          "isRest": false
        },
        {
          "midi": 50,
          "name": "D3",
          "velocity": 0.76,
          "startMs": 23842,
          "durationMs": 158,
          "noteDuration": "eighth",
          "measureIndex": 18,
          "beatInMeasure": 7,
          "isRest": false
        },
        {
          "midi": 48,
          "name": "C3",
          "velocity": 0.39,
          "startMs": 24000,
          "durationMs": 316,
          "noteDuration": "whole",
          "measureIndex": 19,
          "beatInMeasure": 0,
          "isRest": false
        },
        {
          "midi": 60,
          "name": "C4",
          "velocity": 0.39,
          "startMs": 25263,
          "durationMs": 316,
          "noteDuration": "whole",
          "measureIndex": 20,
          "beatInMeasure": 0,
          "isRest": false
        },
        {
          "midi": 54,
          "name": "F#3",
          "velocity": 0.39,
          "startMs": 26210,
          "durationMs": 316,
          "noteDuration": "quarter",
          "measureIndex": 20,
          "beatInMeasure": 6,
          "isRest": false
        },
        {
          "midi": 55,
          "name": "G3",
          "velocity": 0.39,
          "startMs": 26526,
          "durationMs": 316,
          "noteDuration": "quarter",
          "measureIndex": 21,
          "beatInMeasure": 0,
          "isRest": false
        },
        {
          "midi": 48,
          "name": "C3",
          "velocity": 0.39,
          "startMs": 26842,
          "durationMs": 316,
          "noteDuration": "quarter",
          "measureIndex": 21,
          "beatInMeasure": 2,
          "isRest": false
        },
        {
          "midi": 50,
          "name": "D3",
          "velocity": 0.39,
          "startMs": 27158,
          "durationMs": 316,
          "noteDuration": "quarter",
          "measureIndex": 21,
          "beatInMeasure": 4,
          "isRest": false
        },
        {
          "midi": 38,
          "name": "D2",
          "velocity": 0.39,
          "startMs": 27474,
          "durationMs": 315,
          "noteDuration": "quarter",
          "measureIndex": 21,
          "beatInMeasure": 6,
          "isRest": false
        },
        {
          "midi": 43,
          "name": "G2",
          "velocity": 0.76,
          "startMs": 27789,
          "durationMs": 316,
          "noteDuration": "whole",
          "measureIndex": 22,
          "beatInMeasure": 0,
          "isRest": false
        },
        {
          "midi": 54,
          "name": "F#3",
          "velocity": 0.76,
          "startMs": 29053,
          "durationMs": 157,
          "noteDuration": "eighth",
          "measureIndex": 23,
          "beatInMeasure": 0,
          "isRest": false
        },
        {
          "midi": 62,
          "name": "D4",
          "velocity": 0.76,
          "startMs": 29210,
          "durationMs": 158,
          "noteDuration": "eighth",
          "measureIndex": 23,
          "beatInMeasure": 1,
          "isRest": false
        },
        {
          "midi": 57,
          "name": "A3",
          "velocity": 0.76,
          "startMs": 29368,
          "durationMs": 158,
          "noteDuration": "eighth",
          "measureIndex": 23,
          "beatInMeasure": 2,
          "isRest": false
        },
        {
          "midi": 62,
          "name": "D4",
          "velocity": 0.76,
          "startMs": 29526,
          "durationMs": 158,
          "noteDuration": "eighth",
          "measureIndex": 23,
          "beatInMeasure": 3,
          "isRest": false
        },
        {
          "midi": 54,
          "name": "F#3",
          "velocity": 0.76,
          "startMs": 29684,
          "durationMs": 158,
          "noteDuration": "eighth",
          "measureIndex": 23,
          "beatInMeasure": 4,
          "isRest": false
        },
        {
          "midi": 62,
          "name": "D4",
          "velocity": 0.76,
          "startMs": 29842,
          "durationMs": 158,
          "noteDuration": "eighth",
          "measureIndex": 23,
          "beatInMeasure": 5,
          "isRest": false
        },
        {
          "midi": 57,
          "name": "A3",
          "velocity": 0.76,
          "startMs": 30000,
          "durationMs": 158,
          "noteDuration": "eighth",
          "measureIndex": 23,
          "beatInMeasure": 6,
          "isRest": false
        },
        {
          "midi": 62,
          "name": "D4",
          "velocity": 0.76,
          "startMs": 30158,
          "durationMs": 158,
          "noteDuration": "eighth",
          "measureIndex": 23,
          "beatInMeasure": 7,
          "isRest": false
        },
        {
          "midi": 55,
          "name": "G3",
          "velocity": 0.76,
          "startMs": 30316,
          "durationMs": 316,
          "noteDuration": "whole",
          "measureIndex": 24,
          "beatInMeasure": 0,
          "isRest": false
        },
        {
          "midi": 57,
          "name": "A3",
          "velocity": 0.76,
          "startMs": 31579,
          "durationMs": 158,
          "noteDuration": "eighth",
          "measureIndex": 25,
          "beatInMeasure": 0,
          "isRest": false
        },
        {
          "midi": 62,
          "name": "D4",
          "velocity": 0.76,
          "startMs": 31737,
          "durationMs": 158,
          "noteDuration": "eighth",
          "measureIndex": 25,
          "beatInMeasure": 1,
          "isRest": false
        },
        {
          "midi": 60,
          "name": "C4",
          "velocity": 0.76,
          "startMs": 31895,
          "durationMs": 158,
          "noteDuration": "eighth",
          "measureIndex": 25,
          "beatInMeasure": 2,
          "isRest": false
        },
        {
          "midi": 62,
          "name": "D4",
          "velocity": 0.76,
          "startMs": 32053,
          "durationMs": 157,
          "noteDuration": "eighth",
          "measureIndex": 25,
          "beatInMeasure": 3,
          "isRest": false
        },
        {
          "midi": 57,
          "name": "A3",
          "velocity": 0.76,
          "startMs": 32210,
          "durationMs": 158,
          "noteDuration": "eighth",
          "measureIndex": 25,
          "beatInMeasure": 4,
          "isRest": false
        },
        {
          "midi": 62,
          "name": "D4",
          "velocity": 0.76,
          "startMs": 32368,
          "durationMs": 158,
          "noteDuration": "eighth",
          "measureIndex": 25,
          "beatInMeasure": 5,
          "isRest": false
        },
        {
          "midi": 60,
          "name": "C4",
          "velocity": 0.76,
          "startMs": 32526,
          "durationMs": 158,
          "noteDuration": "eighth",
          "measureIndex": 25,
          "beatInMeasure": 6,
          "isRest": false
        },
        {
          "midi": 62,
          "name": "D4",
          "velocity": 0.76,
          "startMs": 32684,
          "durationMs": 158,
          "noteDuration": "eighth",
          "measureIndex": 25,
          "beatInMeasure": 7,
          "isRest": false
        },
        {
          "midi": 59,
          "name": "B3",
          "velocity": 0.76,
          "startMs": 32842,
          "durationMs": 316,
          "noteDuration": "whole",
          "measureIndex": 26,
          "beatInMeasure": 0,
          "isRest": false
        },
        {
          "midi": 60,
          "name": "C4",
          "velocity": 0.76,
          "startMs": 34105,
          "durationMs": 316,
          "noteDuration": "half",
          "measureIndex": 27,
          "beatInMeasure": 0,
          "isRest": false
        },
        {
          "midi": 48,
          "name": "C3",
          "velocity": 0.76,
          "startMs": 34737,
          "durationMs": 316,
          "noteDuration": "half",
          "measureIndex": 27,
          "beatInMeasure": 4,
          "isRest": false
        },
        {
          "midi": 50,
          "name": "D3",
          "velocity": 0.76,
          "startMs": 35368,
          "durationMs": 316,
          "noteDuration": "half",
          "measureIndex": 28,
          "beatInMeasure": 0,
          "isRest": false
        },
        {
          "midi": 38,
          "name": "D2",
          "velocity": 0.76,
          "startMs": 36000,
          "durationMs": 316,
          "noteDuration": "half",
          "measureIndex": 28,
          "beatInMeasure": 4,
          "isRest": false
        },
        {
          "midi": 43,
          "name": "G2",
          "velocity": 0.76,
          "startMs": 36632,
          "durationMs": 157,
          "noteDuration": "eighth",
          "measureIndex": 29,
          "beatInMeasure": 0,
          "isRest": false
        },
        {
          "midi": 47,
          "name": "B2",
          "velocity": 0.76,
          "startMs": 36789,
          "durationMs": 158,
          "noteDuration": "eighth",
          "measureIndex": 29,
          "beatInMeasure": 1,
          "isRest": false
        },
        {
          "midi": 50,
          "name": "D3",
          "velocity": 0.76,
          "startMs": 36947,
          "durationMs": 158,
          "noteDuration": "eighth",
          "measureIndex": 29,
          "beatInMeasure": 2,
          "isRest": false
        },
        {
          "midi": 55,
          "name": "G3",
          "velocity": 0.76,
          "startMs": 37105,
          "durationMs": 158,
          "noteDuration": "eighth",
          "measureIndex": 29,
          "beatInMeasure": 3,
          "isRest": false
        },
        {
          "midi": 43,
          "name": "G2",
          "velocity": 0.76,
          "startMs": 37263,
          "durationMs": 316,
          "noteDuration": "half",
          "measureIndex": 29,
          "beatInMeasure": 4,
          "isRest": false
        },
        {
          "midi": 65,
          "name": "F4",
          "velocity": 0.39,
          "startMs": 37895,
          "durationMs": 1263,
          "noteDuration": "whole",
          "measureIndex": 30,
          "beatInMeasure": 0,
          "isRest": false
        },
        {
          "midi": 63,
          "name": "D#4",
          "velocity": 0.39,
          "startMs": 39158,
          "durationMs": 1184,
          "noteDuration": "whole",
          "measureIndex": 31,
          "beatInMeasure": 0,
          "isRest": false
        },
        {
          "midi": 59,
          "name": "B3",
          "velocity": 0.39,
          "startMs": 40421,
          "durationMs": 632,
          "noteDuration": "half",
          "measureIndex": 32,
          "beatInMeasure": 0,
          "isRest": false
        },
        {
          "midi": 60,
          "name": "C4",
          "velocity": 0.39,
          "startMs": 41053,
          "durationMs": 631,
          "noteDuration": "half",
          "measureIndex": 32,
          "beatInMeasure": 4,
          "isRest": false
        },
        {
          "midi": 55,
          "name": "G3",
          "velocity": 0.39,
          "startMs": 41684,
          "durationMs": 592,
          "noteDuration": "whole",
          "measureIndex": 33,
          "beatInMeasure": 0,
          "isRest": false
        },
        {
          "midi": 65,
          "name": "F4",
          "velocity": 0.76,
          "startMs": 42947,
          "durationMs": 316,
          "noteDuration": "quarter",
          "measureIndex": 34,
          "beatInMeasure": 0,
          "isRest": false
        },
        {
          "midi": 55,
          "name": "G3",
          "velocity": 0.76,
          "startMs": 43263,
          "durationMs": 316,
          "noteDuration": "quarter",
          "measureIndex": 34,
          "beatInMeasure": 2,
          "isRest": false
        },
        {
          "midi": 62,
          "name": "D4",
          "velocity": 0.76,
          "startMs": 43579,
          "durationMs": 316,
          "noteDuration": "quarter",
          "measureIndex": 34,
          "beatInMeasure": 4,
          "isRest": false
        },
        {
          "midi": 55,
          "name": "G3",
          "velocity": 0.76,
          "startMs": 43895,
          "durationMs": 315,
          "noteDuration": "quarter",
          "measureIndex": 34,
          "beatInMeasure": 6,
          "isRest": false
        },
        {
          "midi": 63,
          "name": "D#4",
          "velocity": 0.76,
          "startMs": 44210,
          "durationMs": 316,
          "noteDuration": "quarter",
          "measureIndex": 35,
          "beatInMeasure": 0,
          "isRest": false
        },
        {
          "midi": 55,
          "name": "G3",
          "velocity": 0.76,
          "startMs": 44526,
          "durationMs": 316,
          "noteDuration": "quarter",
          "measureIndex": 35,
          "beatInMeasure": 2,
          "isRest": false
        },
        {
          "midi": 60,
          "name": "C4",
          "velocity": 0.76,
          "startMs": 44842,
          "durationMs": 316,
          "noteDuration": "quarter",
          "measureIndex": 35,
          "beatInMeasure": 4,
          "isRest": false
        },
        {
          "midi": 55,
          "name": "G3",
          "velocity": 0.76,
          "startMs": 45158,
          "durationMs": 316,
          "noteDuration": "quarter",
          "measureIndex": 35,
          "beatInMeasure": 6,
          "isRest": false
        },
        {
          "midi": 59,
          "name": "B3",
          "velocity": 0.76,
          "startMs": 45474,
          "durationMs": 315,
          "noteDuration": "half",
          "measureIndex": 36,
          "beatInMeasure": 0,
          "isRest": false
        },
        {
          "midi": 60,
          "name": "C4",
          "velocity": 0.76,
          "startMs": 46105,
          "durationMs": 316,
          "noteDuration": "half",
          "measureIndex": 36,
          "beatInMeasure": 4,
          "isRest": false
        },
        {
          "midi": 55,
          "name": "G3",
          "velocity": 0.76,
          "startMs": 46737,
          "durationMs": 316,
          "noteDuration": "quarter",
          "measureIndex": 37,
          "beatInMeasure": 0,
          "isRest": false
        },
        {
          "midi": 43,
          "name": "G2",
          "velocity": 0.76,
          "startMs": 47053,
          "durationMs": 315,
          "noteDuration": "quarter",
          "measureIndex": 37,
          "beatInMeasure": 2,
          "isRest": false
        },
        {
          "midi": 55,
          "name": "G3",
          "velocity": 0.76,
          "startMs": 47368,
          "durationMs": 158,
          "noteDuration": "eighth",
          "measureIndex": 37,
          "beatInMeasure": 4,
          "isRest": false
        },
        {
          "midi": 53,
          "name": "F3",
          "velocity": 0.76,
          "startMs": 47526,
          "durationMs": 158,
          "noteDuration": "eighth",
          "measureIndex": 37,
          "beatInMeasure": 5,
          "isRest": false
        },
        {
          "midi": 52,
          "name": "E3",
          "velocity": 0.76,
          "startMs": 47684,
          "durationMs": 158,
          "noteDuration": "eighth",
          "measureIndex": 37,
          "beatInMeasure": 6,
          "isRest": false
        },
        {
          "midi": 50,
          "name": "D3",
          "velocity": 0.76,
          "startMs": 47842,
          "durationMs": 158,
          "noteDuration": "eighth",
          "measureIndex": 37,
          "beatInMeasure": 7,
          "isRest": false
        },
        {
          "midi": 48,
          "name": "C3",
          "velocity": 0.39,
          "startMs": 48000,
          "durationMs": 316,
          "noteDuration": "whole",
          "measureIndex": 38,
          "beatInMeasure": 0,
          "isRest": false
        },
        {
          "midi": 48,
          "name": "C3",
          "velocity": 0.39,
          "startMs": 49263,
          "durationMs": 316,
          "noteDuration": "whole",
          "measureIndex": 39,
          "beatInMeasure": 0,
          "isRest": false
        },
        {
          "midi": 48,
          "name": "C3",
          "velocity": 0.39,
          "startMs": 50526,
          "durationMs": 316,
          "noteDuration": "half",
          "measureIndex": 40,
          "beatInMeasure": 0,
          "isRest": false
        },
        {
          "midi": 48,
          "name": "C3",
          "velocity": 0.39,
          "startMs": 51158,
          "durationMs": 316,
          "noteDuration": "half",
          "measureIndex": 40,
          "beatInMeasure": 4,
          "isRest": false
        },
        {
          "midi": 43,
          "name": "G2",
          "velocity": 0.39,
          "startMs": 51789,
          "durationMs": 316,
          "noteDuration": "half",
          "measureIndex": 41,
          "beatInMeasure": 0,
          "isRest": false
        },
        {
          "midi": 43,
          "name": "G2",
          "velocity": 0.39,
          "startMs": 52421,
          "durationMs": 158,
          "noteDuration": "eighth",
          "measureIndex": 41,
          "beatInMeasure": 4,
          "isRest": false
        },
        {
          "midi": 41,
          "name": "F2",
          "velocity": 0.39,
          "startMs": 52579,
          "durationMs": 158,
          "noteDuration": "eighth",
          "measureIndex": 41,
          "beatInMeasure": 5,
          "isRest": false
        },
        {
          "midi": 40,
          "name": "E2",
          "velocity": 0.39,
          "startMs": 52737,
          "durationMs": 158,
          "noteDuration": "eighth",
          "measureIndex": 41,
          "beatInMeasure": 6,
          "isRest": false
        },
        {
          "midi": 38,
          "name": "D2",
          "velocity": 0.39,
          "startMs": 52895,
          "durationMs": 158,
          "noteDuration": "eighth",
          "measureIndex": 41,
          "beatInMeasure": 7,
          "isRest": false
        },
        {
          "midi": 36,
          "name": "C2",
          "velocity": 0.39,
          "startMs": 53053,
          "durationMs": 315,
          "noteDuration": "whole",
          "measureIndex": 42,
          "beatInMeasure": 0,
          "isRest": false
        },
        {
          "midi": 48,
          "name": "C3",
          "velocity": 0.39,
          "startMs": 54316,
          "durationMs": 315,
          "noteDuration": "whole",
          "measureIndex": 43,
          "beatInMeasure": 0,
          "isRest": false
        },
        {
          "midi": 55,
          "name": "G3",
          "velocity": 0.39,
          "startMs": 55579,
          "durationMs": 158,
          "noteDuration": "half",
          "measureIndex": 44,
          "beatInMeasure": 0,
          "isRest": false
        },
        {
          "midi": 43,
          "name": "G2",
          "velocity": 0.39,
          "startMs": 56210,
          "durationMs": 158,
          "noteDuration": "half",
          "measureIndex": 44,
          "beatInMeasure": 4,
          "isRest": false
        },
        {
          "midi": 48,
          "name": "C3",
          "velocity": 0.76,
          "startMs": 56842,
          "durationMs": 316,
          "noteDuration": "whole",
          "measureIndex": 45,
          "beatInMeasure": 0,
          "isRest": false
        },
        {
          "midi": 47,
          "name": "B2",
          "velocity": 0.76,
          "startMs": 58105,
          "durationMs": 158,
          "noteDuration": "eighth",
          "measureIndex": 46,
          "beatInMeasure": 0,
          "isRest": false
        },
        {
          "midi": 55,
          "name": "G3",
          "velocity": 0.76,
          "startMs": 58263,
          "durationMs": 158,
          "noteDuration": "eighth",
          "measureIndex": 46,
          "beatInMeasure": 1,
          "isRest": false
        },
        {
          "midi": 50,
          "name": "D3",
          "velocity": 0.76,
          "startMs": 58421,
          "durationMs": 158,
          "noteDuration": "eighth",
          "measureIndex": 46,
          "beatInMeasure": 2,
          "isRest": false
        },
        {
          "midi": 55,
          "name": "G3",
          "velocity": 0.76,
          "startMs": 58579,
          "durationMs": 158,
          "noteDuration": "eighth",
          "measureIndex": 46,
          "beatInMeasure": 3,
          "isRest": false
        },
        {
          "midi": 47,
          "name": "B2",
          "velocity": 0.76,
          "startMs": 58737,
          "durationMs": 158,
          "noteDuration": "eighth",
          "measureIndex": 46,
          "beatInMeasure": 4,
          "isRest": false
        },
        {
          "midi": 55,
          "name": "G3",
          "velocity": 0.76,
          "startMs": 58895,
          "durationMs": 158,
          "noteDuration": "eighth",
          "measureIndex": 46,
          "beatInMeasure": 5,
          "isRest": false
        },
        {
          "midi": 50,
          "name": "D3",
          "velocity": 0.76,
          "startMs": 59053,
          "durationMs": 157,
          "noteDuration": "eighth",
          "measureIndex": 46,
          "beatInMeasure": 6,
          "isRest": false
        },
        {
          "midi": 55,
          "name": "G3",
          "velocity": 0.76,
          "startMs": 59210,
          "durationMs": 158,
          "noteDuration": "eighth",
          "measureIndex": 46,
          "beatInMeasure": 7,
          "isRest": false
        },
        {
          "midi": 48,
          "name": "C3",
          "velocity": 0.76,
          "startMs": 59368,
          "durationMs": 316,
          "noteDuration": "whole",
          "measureIndex": 47,
          "beatInMeasure": 0,
          "isRest": false
        },
        {
          "midi": 50,
          "name": "D3",
          "velocity": 0.76,
          "startMs": 60631,
          "durationMs": 158,
          "noteDuration": "eighth",
          "measureIndex": 48,
          "beatInMeasure": 0,
          "isRest": false
        },
        {
          "midi": 55,
          "name": "G3",
          "velocity": 0.76,
          "startMs": 60789,
          "durationMs": 158,
          "noteDuration": "eighth",
          "measureIndex": 48,
          "beatInMeasure": 1,
          "isRest": false
        },
        {
          "midi": 53,
          "name": "F3",
          "velocity": 0.76,
          "startMs": 60947,
          "durationMs": 158,
          "noteDuration": "eighth",
          "measureIndex": 48,
          "beatInMeasure": 2,
          "isRest": false
        },
        {
          "midi": 55,
          "name": "G3",
          "velocity": 0.76,
          "startMs": 61105,
          "durationMs": 158,
          "noteDuration": "eighth",
          "measureIndex": 48,
          "beatInMeasure": 3,
          "isRest": false
        },
        {
          "midi": 50,
          "name": "D3",
          "velocity": 0.76,
          "startMs": 61263,
          "durationMs": 158,
          "noteDuration": "eighth",
          "measureIndex": 48,
          "beatInMeasure": 4,
          "isRest": false
        },
        {
          "midi": 55,
          "name": "G3",
          "velocity": 0.76,
          "startMs": 61421,
          "durationMs": 158,
          "noteDuration": "eighth",
          "measureIndex": 48,
          "beatInMeasure": 5,
          "isRest": false
        },
        {
          "midi": 53,
          "name": "F3",
          "velocity": 0.76,
          "startMs": 61579,
          "durationMs": 158,
          "noteDuration": "eighth",
          "measureIndex": 48,
          "beatInMeasure": 6,
          "isRest": false
        },
        {
          "midi": 55,
          "name": "G3",
          "velocity": 0.76,
          "startMs": 61737,
          "durationMs": 158,
          "noteDuration": "eighth",
          "measureIndex": 48,
          "beatInMeasure": 7,
          "isRest": false
        },
        {
          "midi": 52,
          "name": "E3",
          "velocity": 0.76,
          "startMs": 61895,
          "durationMs": 315,
          "noteDuration": "whole",
          "measureIndex": 49,
          "beatInMeasure": 0,
          "isRest": false
        },
        {
          "midi": 53,
          "name": "F3",
          "velocity": 0.76,
          "startMs": 63158,
          "durationMs": 316,
          "noteDuration": "half",
          "measureIndex": 50,
          "beatInMeasure": 0,
          "isRest": false
        },
        {
          "midi": 53,
          "name": "F3",
          "velocity": 0.76,
          "startMs": 63789,
          "durationMs": 316,
          "noteDuration": "half",
          "measureIndex": 50,
          "beatInMeasure": 4,
          "isRest": false
        },
        {
          "midi": 55,
          "name": "G3",
          "velocity": 0.76,
          "startMs": 64421,
          "durationMs": 316,
          "noteDuration": "half",
          "measureIndex": 51,
          "beatInMeasure": 0,
          "isRest": false
        },
        {
          "midi": 43,
          "name": "G2",
          "velocity": 0.76,
          "startMs": 65053,
          "durationMs": 315,
          "noteDuration": "half",
          "measureIndex": 51,
          "beatInMeasure": 4,
          "isRest": false
        },
        {
          "midi": 36,
          "name": "C2",
          "velocity": 0.76,
          "startMs": 65684,
          "durationMs": 158,
          "noteDuration": "eighth",
          "measureIndex": 52,
          "beatInMeasure": 0,
          "isRest": false
        },
        {
          "midi": 40,
          "name": "E2",
          "velocity": 0.76,
          "startMs": 65842,
          "durationMs": 158,
          "noteDuration": "eighth",
          "measureIndex": 52,
          "beatInMeasure": 1,
          "isRest": false
        },
        {
          "midi": 43,
          "name": "G2",
          "velocity": 0.76,
          "startMs": 66000,
          "durationMs": 158,
          "noteDuration": "eighth",
          "measureIndex": 52,
          "beatInMeasure": 2,
          "isRest": false
        },
        {
          "midi": 48,
          "name": "C3",
          "velocity": 0.76,
          "startMs": 66158,
          "durationMs": 158,
          "noteDuration": "eighth",
          "measureIndex": 52,
          "beatInMeasure": 3,
          "isRest": false
        },
        {
          "midi": 36,
          "name": "C2",
          "velocity": 0.76,
          "startMs": 66316,
          "durationMs": 315,
          "noteDuration": "half",
          "measureIndex": 52,
          "beatInMeasure": 4,
          "isRest": false
        },
        {
          "midi": 65,
          "name": "F4",
          "velocity": 0.39,
          "startMs": 66947,
          "durationMs": 1263,
          "noteDuration": "whole",
          "measureIndex": 53,
          "beatInMeasure": 0,
          "isRest": false
        },
        {
          "midi": 63,
          "name": "D#4",
          "velocity": 0.39,
          "startMs": 68210,
          "durationMs": 1185,
          "noteDuration": "whole",
          "measureIndex": 54,
          "beatInMeasure": 0,
          "isRest": false
        },
        {
          "midi": 59,
          "name": "B3",
          "velocity": 0.39,
          "startMs": 69474,
          "durationMs": 631,
          "noteDuration": "half",
          "measureIndex": 55,
          "beatInMeasure": 0,
          "isRest": false
        },
        {
          "midi": 60,
          "name": "C4",
          "velocity": 0.39,
          "startMs": 70105,
          "durationMs": 632,
          "noteDuration": "half",
          "measureIndex": 55,
          "beatInMeasure": 4,
          "isRest": false
        },
        {
          "midi": 55,
          "name": "G3",
          "velocity": 0.39,
          "startMs": 70737,
          "durationMs": 592,
          "noteDuration": "whole",
          "measureIndex": 56,
          "beatInMeasure": 0,
          "isRest": false
        },
        {
          "midi": 65,
          "name": "F4",
          "velocity": 0.76,
          "startMs": 72000,
          "durationMs": 316,
          "noteDuration": "quarter",
          "measureIndex": 57,
          "beatInMeasure": 0,
          "isRest": false
        },
        {
          "midi": 55,
          "name": "G3",
          "velocity": 0.76,
          "startMs": 72316,
          "durationMs": 315,
          "noteDuration": "quarter",
          "measureIndex": 57,
          "beatInMeasure": 2,
          "isRest": false
        },
        {
          "midi": 62,
          "name": "D4",
          "velocity": 0.76,
          "startMs": 72631,
          "durationMs": 316,
          "noteDuration": "quarter",
          "measureIndex": 57,
          "beatInMeasure": 4,
          "isRest": false
        },
        {
          "midi": 55,
          "name": "G3",
          "velocity": 0.76,
          "startMs": 72947,
          "durationMs": 316,
          "noteDuration": "quarter",
          "measureIndex": 57,
          "beatInMeasure": 6,
          "isRest": false
        },
        {
          "midi": 63,
          "name": "D#4",
          "velocity": 0.76,
          "startMs": 73263,
          "durationMs": 316,
          "noteDuration": "quarter",
          "measureIndex": 58,
          "beatInMeasure": 0,
          "isRest": false
        },
        {
          "midi": 55,
          "name": "G3",
          "velocity": 0.76,
          "startMs": 73579,
          "durationMs": 316,
          "noteDuration": "quarter",
          "measureIndex": 58,
          "beatInMeasure": 2,
          "isRest": false
        },
        {
          "midi": 60,
          "name": "C4",
          "velocity": 0.76,
          "startMs": 73895,
          "durationMs": 315,
          "noteDuration": "quarter",
          "measureIndex": 58,
          "beatInMeasure": 4,
          "isRest": false
        },
        {
          "midi": 55,
          "name": "G3",
          "velocity": 0.76,
          "startMs": 74210,
          "durationMs": 316,
          "noteDuration": "quarter",
          "measureIndex": 58,
          "beatInMeasure": 6,
          "isRest": false
        },
        {
          "midi": 59,
          "name": "B3",
          "velocity": 0.76,
          "startMs": 74526,
          "durationMs": 316,
          "noteDuration": "half",
          "measureIndex": 59,
          "beatInMeasure": 0,
          "isRest": false
        },
        {
          "midi": 60,
          "name": "C4",
          "velocity": 0.76,
          "startMs": 75158,
          "durationMs": 316,
          "noteDuration": "half",
          "measureIndex": 59,
          "beatInMeasure": 4,
          "isRest": false
        },
        {
          "midi": 55,
          "name": "G3",
          "velocity": 0.76,
          "startMs": 75789,
          "durationMs": 316,
          "noteDuration": "quarter",
          "measureIndex": 60,
          "beatInMeasure": 0,
          "isRest": false
        },
        {
          "midi": 43,
          "name": "G2",
          "velocity": 0.76,
          "startMs": 76105,
          "durationMs": 316,
          "noteDuration": "quarter",
          "measureIndex": 60,
          "beatInMeasure": 2,
          "isRest": false
        },
        {
          "midi": 55,
          "name": "G3",
          "velocity": 0.76,
          "startMs": 76421,
          "durationMs": 158,
          "noteDuration": "eighth",
          "measureIndex": 60,
          "beatInMeasure": 4,
          "isRest": false
        },
        {
          "midi": 53,
          "name": "F3",
          "velocity": 0.76,
          "startMs": 76579,
          "durationMs": 158,
          "noteDuration": "eighth",
          "measureIndex": 60,
          "beatInMeasure": 5,
          "isRest": false
        },
        {
          "midi": 52,
          "name": "E3",
          "velocity": 0.76,
          "startMs": 76737,
          "durationMs": 158,
          "noteDuration": "eighth",
          "measureIndex": 60,
          "beatInMeasure": 6,
          "isRest": false
        },
        {
          "midi": 50,
          "name": "D3",
          "velocity": 0.76,
          "startMs": 76895,
          "durationMs": 158,
          "noteDuration": "eighth",
          "measureIndex": 60,
          "beatInMeasure": 7,
          "isRest": false
        },
        {
          "midi": 48,
          "name": "C3",
          "velocity": 0.39,
          "startMs": 77053,
          "durationMs": 315,
          "noteDuration": "whole",
          "measureIndex": 61,
          "beatInMeasure": 0,
          "isRest": false
        },
        {
          "midi": 48,
          "name": "C3",
          "velocity": 0.39,
          "startMs": 78316,
          "durationMs": 315,
          "noteDuration": "whole",
          "measureIndex": 62,
          "beatInMeasure": 0,
          "isRest": false
        },
        {
          "midi": 48,
          "name": "C3",
          "velocity": 0.39,
          "startMs": 79579,
          "durationMs": 316,
          "noteDuration": "half",
          "measureIndex": 63,
          "beatInMeasure": 0,
          "isRest": false
        },
        {
          "midi": 48,
          "name": "C3",
          "velocity": 0.39,
          "startMs": 80210,
          "durationMs": 316,
          "noteDuration": "half",
          "measureIndex": 63,
          "beatInMeasure": 4,
          "isRest": false
        },
        {
          "midi": 43,
          "name": "G2",
          "velocity": 0.39,
          "startMs": 80842,
          "durationMs": 316,
          "noteDuration": "half",
          "measureIndex": 64,
          "beatInMeasure": 0,
          "isRest": false
        },
        {
          "midi": 43,
          "name": "G2",
          "velocity": 0.39,
          "startMs": 81474,
          "durationMs": 157,
          "noteDuration": "eighth",
          "measureIndex": 64,
          "beatInMeasure": 4,
          "isRest": false
        },
        {
          "midi": 41,
          "name": "F2",
          "velocity": 0.39,
          "startMs": 81631,
          "durationMs": 158,
          "noteDuration": "eighth",
          "measureIndex": 64,
          "beatInMeasure": 5,
          "isRest": false
        },
        {
          "midi": 40,
          "name": "E2",
          "velocity": 0.39,
          "startMs": 81789,
          "durationMs": 158,
          "noteDuration": "eighth",
          "measureIndex": 64,
          "beatInMeasure": 6,
          "isRest": false
        },
        {
          "midi": 38,
          "name": "D2",
          "velocity": 0.39,
          "startMs": 81947,
          "durationMs": 158,
          "noteDuration": "eighth",
          "measureIndex": 64,
          "beatInMeasure": 7,
          "isRest": false
        },
        {
          "midi": 36,
          "name": "C2",
          "velocity": 0.39,
          "startMs": 82105,
          "durationMs": 316,
          "noteDuration": "whole",
          "measureIndex": 65,
          "beatInMeasure": 0,
          "isRest": false
        },
        {
          "midi": 48,
          "name": "C3",
          "velocity": 0.39,
          "startMs": 83368,
          "durationMs": 316,
          "noteDuration": "whole",
          "measureIndex": 66,
          "beatInMeasure": 0,
          "isRest": false
        },
        {
          "midi": 55,
          "name": "G3",
          "velocity": 0.39,
          "startMs": 84631,
          "durationMs": 158,
          "noteDuration": "half",
          "measureIndex": 67,
          "beatInMeasure": 0,
          "isRest": false
        },
        {
          "midi": 43,
          "name": "G2",
          "velocity": 0.39,
          "startMs": 85263,
          "durationMs": 158,
          "noteDuration": "half",
          "measureIndex": 67,
          "beatInMeasure": 4,
          "isRest": false
        },
        {
          "midi": 48,
          "name": "C3",
          "velocity": 0.76,
          "startMs": 85895,
          "durationMs": 315,
          "noteDuration": "whole",
          "measureIndex": 68,
          "beatInMeasure": 0,
          "isRest": false
        },
        {
          "midi": 47,
          "name": "B2",
          "velocity": 0.76,
          "startMs": 87158,
          "durationMs": 158,
          "noteDuration": "eighth",
          "measureIndex": 69,
          "beatInMeasure": 0,
          "isRest": false
        },
        {
          "midi": 55,
          "name": "G3",
          "velocity": 0.76,
          "startMs": 87316,
          "durationMs": 158,
          "noteDuration": "eighth",
          "measureIndex": 69,
          "beatInMeasure": 1,
          "isRest": false
        },
        {
          "midi": 50,
          "name": "D3",
          "velocity": 0.76,
          "startMs": 87474,
          "durationMs": 157,
          "noteDuration": "eighth",
          "measureIndex": 69,
          "beatInMeasure": 2,
          "isRest": false
        },
        {
          "midi": 55,
          "name": "G3",
          "velocity": 0.76,
          "startMs": 87631,
          "durationMs": 158,
          "noteDuration": "eighth",
          "measureIndex": 69,
          "beatInMeasure": 3,
          "isRest": false
        },
        {
          "midi": 47,
          "name": "B2",
          "velocity": 0.76,
          "startMs": 87789,
          "durationMs": 158,
          "noteDuration": "eighth",
          "measureIndex": 69,
          "beatInMeasure": 4,
          "isRest": false
        },
        {
          "midi": 55,
          "name": "G3",
          "velocity": 0.76,
          "startMs": 87947,
          "durationMs": 158,
          "noteDuration": "eighth",
          "measureIndex": 69,
          "beatInMeasure": 5,
          "isRest": false
        },
        {
          "midi": 50,
          "name": "D3",
          "velocity": 0.76,
          "startMs": 88105,
          "durationMs": 158,
          "noteDuration": "eighth",
          "measureIndex": 69,
          "beatInMeasure": 6,
          "isRest": false
        },
        {
          "midi": 55,
          "name": "G3",
          "velocity": 0.76,
          "startMs": 88263,
          "durationMs": 158,
          "noteDuration": "eighth",
          "measureIndex": 69,
          "beatInMeasure": 7,
          "isRest": false
        },
        {
          "midi": 48,
          "name": "C3",
          "velocity": 0.76,
          "startMs": 88421,
          "durationMs": 316,
          "noteDuration": "whole",
          "measureIndex": 70,
          "beatInMeasure": 0,
          "isRest": false
        },
        {
          "midi": 50,
          "name": "D3",
          "velocity": 0.76,
          "startMs": 89684,
          "durationMs": 158,
          "noteDuration": "eighth",
          "measureIndex": 71,
          "beatInMeasure": 0,
          "isRest": false
        },
        {
          "midi": 55,
          "name": "G3",
          "velocity": 0.76,
          "startMs": 89842,
          "durationMs": 158,
          "noteDuration": "eighth",
          "measureIndex": 71,
          "beatInMeasure": 1,
          "isRest": false
        },
        {
          "midi": 53,
          "name": "F3",
          "velocity": 0.76,
          "startMs": 90000,
          "durationMs": 158,
          "noteDuration": "eighth",
          "measureIndex": 71,
          "beatInMeasure": 2,
          "isRest": false
        },
        {
          "midi": 55,
          "name": "G3",
          "velocity": 0.76,
          "startMs": 90158,
          "durationMs": 158,
          "noteDuration": "eighth",
          "measureIndex": 71,
          "beatInMeasure": 3,
          "isRest": false
        },
        {
          "midi": 50,
          "name": "D3",
          "velocity": 0.76,
          "startMs": 90316,
          "durationMs": 158,
          "noteDuration": "eighth",
          "measureIndex": 71,
          "beatInMeasure": 4,
          "isRest": false
        },
        {
          "midi": 55,
          "name": "G3",
          "velocity": 0.76,
          "startMs": 90474,
          "durationMs": 157,
          "noteDuration": "eighth",
          "measureIndex": 71,
          "beatInMeasure": 5,
          "isRest": false
        },
        {
          "midi": 53,
          "name": "F3",
          "velocity": 0.76,
          "startMs": 90631,
          "durationMs": 158,
          "noteDuration": "eighth",
          "measureIndex": 71,
          "beatInMeasure": 6,
          "isRest": false
        },
        {
          "midi": 55,
          "name": "G3",
          "velocity": 0.76,
          "startMs": 90789,
          "durationMs": 158,
          "noteDuration": "eighth",
          "measureIndex": 71,
          "beatInMeasure": 7,
          "isRest": false
        },
        {
          "midi": 52,
          "name": "E3",
          "velocity": 0.76,
          "startMs": 90947,
          "durationMs": 316,
          "noteDuration": "whole",
          "measureIndex": 72,
          "beatInMeasure": 0,
          "isRest": false
        },
        {
          "midi": 53,
          "name": "F3",
          "velocity": 0.76,
          "startMs": 92210,
          "durationMs": 316,
          "noteDuration": "half",
          "measureIndex": 73,
          "beatInMeasure": 0,
          "isRest": false
        },
        {
          "midi": 53,
          "name": "F3",
          "velocity": 0.76,
          "startMs": 92842,
          "durationMs": 316,
          "noteDuration": "half",
          "measureIndex": 73,
          "beatInMeasure": 4,
          "isRest": false
        },
        {
          "midi": 55,
          "name": "G3",
          "velocity": 0.76,
          "startMs": 93474,
          "durationMs": 315,
          "noteDuration": "half",
          "measureIndex": 74,
          "beatInMeasure": 0,
          "isRest": false
        },
        {
          "midi": 43,
          "name": "G2",
          "velocity": 0.76,
          "startMs": 94105,
          "durationMs": 316,
          "noteDuration": "half",
          "measureIndex": 74,
          "beatInMeasure": 4,
          "isRest": false
        },
        {
          "midi": 36,
          "name": "C2",
          "velocity": 0.76,
          "startMs": 94737,
          "durationMs": 158,
          "noteDuration": "eighth",
          "measureIndex": 75,
          "beatInMeasure": 0,
          "isRest": false
        },
        {
          "midi": 40,
          "name": "E2",
          "velocity": 0.76,
          "startMs": 94895,
          "durationMs": 157,
          "noteDuration": "eighth",
          "measureIndex": 75,
          "beatInMeasure": 1,
          "isRest": false
        },
        {
          "midi": 43,
          "name": "G2",
          "velocity": 0.76,
          "startMs": 95052,
          "durationMs": 158,
          "noteDuration": "eighth",
          "measureIndex": 75,
          "beatInMeasure": 2,
          "isRest": false
        },
        {
          "midi": 48,
          "name": "C3",
          "velocity": 0.76,
          "startMs": 95210,
          "durationMs": 158,
          "noteDuration": "eighth",
          "measureIndex": 75,
          "beatInMeasure": 3,
          "isRest": false
        },
        {
          "midi": 36,
          "name": "C2",
          "velocity": 0.76,
          "startMs": 95368,
          "durationMs": 316,
          "noteDuration": "half",
          "measureIndex": 75,
          "beatInMeasure": 4,
          "isRest": false
        },
        {
          "midi": 53,
          "name": "F3",
          "velocity": 0.76,
          "startMs": 96000,
          "durationMs": 346,
          "noteDuration": "eighth",
          "measureIndex": 76,
          "beatInMeasure": 0,
          "isRest": false
        },
        {
          "midi": 57,
          "name": "A3",
          "velocity": 0.76,
          "startMs": 96346,
          "durationMs": 346,
          "noteDuration": "sixteenth",
          "measureIndex": 76,
          "beatInMeasure": 0.375,
          "isRest": false
        },
        {
          "midi": 60,
          "name": "C4",
          "velocity": 0.76,
          "startMs": 96577,
          "durationMs": 346,
          "noteDuration": "eighth",
          "measureIndex": 76,
          "beatInMeasure": 0.625,
          "isRest": false
        },
        {
          "midi": 53,
          "name": "F3",
          "velocity": 0.76,
          "startMs": 96923,
          "durationMs": 346,
          "noteDuration": "eighth",
          "measureIndex": 76,
          "beatInMeasure": 1,
          "isRest": false
        },
        {
          "midi": 57,
          "name": "A3",
          "velocity": 0.76,
          "startMs": 97269,
          "durationMs": 346,
          "noteDuration": "sixteenth",
          "measureIndex": 76,
          "beatInMeasure": 1.375,
          "isRest": false
        },
        {
          "midi": 60,
          "name": "C4",
          "velocity": 0.76,
          "startMs": 97500,
          "durationMs": 346,
          "noteDuration": "eighth",
          "measureIndex": 76,
          "beatInMeasure": 1.625,
          "isRest": false
        },
        {
          "midi": 53,
          "name": "F3",
          "velocity": 0.76,
          "startMs": 97846,
          "durationMs": 346,
          "noteDuration": "eighth",
          "measureIndex": 76,
          "beatInMeasure": 2,
          "isRest": false
        },
        {
          "midi": 57,
          "name": "A3",
          "velocity": 0.76,
          "startMs": 98192,
          "durationMs": 346,
          "noteDuration": "sixteenth",
          "measureIndex": 76,
          "beatInMeasure": 2.375,
          "isRest": false
        },
        {
          "midi": 60,
          "name": "C4",
          "velocity": 0.76,
          "startMs": 98423,
          "durationMs": 346,
          "noteDuration": "eighth",
          "measureIndex": 76,
          "beatInMeasure": 2.625,
          "isRest": false
        },
        {
          "midi": 53,
          "name": "F3",
          "velocity": 0.76,
          "startMs": 98769,
          "durationMs": 346,
          "noteDuration": "eighth",
          "measureIndex": 77,
          "beatInMeasure": 0,
          "isRest": false
        },
        {
          "midi": 57,
          "name": "A3",
          "velocity": 0.76,
          "startMs": 99115,
          "durationMs": 346,
          "noteDuration": "sixteenth",
          "measureIndex": 77,
          "beatInMeasure": 0.375,
          "isRest": false
        },
        {
          "midi": 60,
          "name": "C4",
          "velocity": 0.76,
          "startMs": 99346,
          "durationMs": 346,
          "noteDuration": "eighth",
          "measureIndex": 77,
          "beatInMeasure": 0.625,
          "isRest": false
        },
        {
          "midi": 53,
          "name": "F3",
          "velocity": 0.76,
          "startMs": 99692,
          "durationMs": 346,
          "noteDuration": "eighth",
          "measureIndex": 77,
          "beatInMeasure": 1,
          "isRest": false
        },
        {
          "midi": 57,
          "name": "A3",
          "velocity": 0.76,
          "startMs": 100038,
          "durationMs": 346,
          "noteDuration": "sixteenth",
          "measureIndex": 77,
          "beatInMeasure": 1.375,
          "isRest": false
        },
        {
          "midi": 60,
          "name": "C4",
          "velocity": 0.76,
          "startMs": 100269,
          "durationMs": 346,
          "noteDuration": "eighth",
          "measureIndex": 77,
          "beatInMeasure": 1.625,
          "isRest": false
        },
        {
          "midi": 53,
          "name": "F3",
          "velocity": 0.76,
          "startMs": 100615,
          "durationMs": 346,
          "noteDuration": "eighth",
          "measureIndex": 77,
          "beatInMeasure": 2,
          "isRest": false
        },
        {
          "midi": 57,
          "name": "A3",
          "velocity": 0.76,
          "startMs": 100961,
          "durationMs": 347,
          "noteDuration": "sixteenth",
          "measureIndex": 77,
          "beatInMeasure": 2.375,
          "isRest": false
        },
        {
          "midi": 60,
          "name": "C4",
          "velocity": 0.76,
          "startMs": 101192,
          "durationMs": 346,
          "noteDuration": "eighth",
          "measureIndex": 77,
          "beatInMeasure": 2.625,
          "isRest": false
        },
        {
          "midi": 48,
          "name": "C3",
          "velocity": 0.76,
          "startMs": 101538,
          "durationMs": 346,
          "noteDuration": "eighth",
          "measureIndex": 78,
          "beatInMeasure": 0,
          "isRest": false
        },
        {
          "midi": 53,
          "name": "F3",
          "velocity": 0.76,
          "startMs": 101884,
          "durationMs": 347,
          "noteDuration": "sixteenth",
          "measureIndex": 78,
          "beatInMeasure": 0.375,
          "isRest": false
        },
        {
          "midi": 57,
          "name": "A3",
          "velocity": 0.76,
          "startMs": 102115,
          "durationMs": 346,
          "noteDuration": "eighth",
          "measureIndex": 78,
          "beatInMeasure": 0.625,
          "isRest": false
        },
        {
          "midi": 48,
          "name": "C3",
          "velocity": 0.76,
          "startMs": 102461,
          "durationMs": 347,
          "noteDuration": "eighth",
          "measureIndex": 78,
          "beatInMeasure": 1,
          "isRest": false
        },
        {
          "midi": 53,
          "name": "F3",
          "velocity": 0.76,
          "startMs": 102808,
          "durationMs": 346,
          "noteDuration": "sixteenth",
          "measureIndex": 78,
          "beatInMeasure": 1.375,
          "isRest": false
        },
        {
          "midi": 57,
          "name": "A3",
          "velocity": 0.76,
          "startMs": 103038,
          "durationMs": 346,
          "noteDuration": "eighth",
          "measureIndex": 78,
          "beatInMeasure": 1.625,
          "isRest": false
        },
        {
          "midi": 48,
          "name": "C3",
          "velocity": 0.76,
          "startMs": 103384,
          "durationMs": 347,
          "noteDuration": "eighth",
          "measureIndex": 78,
          "beatInMeasure": 2,
          "isRest": false
        },
        {
          "midi": 52,
          "name": "E3",
          "velocity": 0.76,
          "startMs": 103731,
          "durationMs": 346,
          "noteDuration": "sixteenth",
          "measureIndex": 78,
          "beatInMeasure": 2.375,
          "isRest": false
        },
        {
          "midi": 55,
          "name": "G3",
          "velocity": 0.76,
          "startMs": 103961,
          "durationMs": 347,
          "noteDuration": "eighth",
          "measureIndex": 78,
          "beatInMeasure": 2.625,
          "isRest": false
        },
        {
          "midi": 53,
          "name": "F3",
          "velocity": 0.76,
          "startMs": 104308,
          "durationMs": 346,
          "noteDuration": "eighth",
          "measureIndex": 79,
          "beatInMeasure": 0,
          "isRest": false
        },
        {
          "midi": 57,
          "name": "A3",
          "velocity": 0.76,
          "startMs": 104654,
          "durationMs": 346,
          "noteDuration": "sixteenth",
          "measureIndex": 79,
          "beatInMeasure": 0.375,
          "isRest": false
        },
        {
          "midi": 60,
          "name": "C4",
          "velocity": 0.76,
          "startMs": 104884,
          "durationMs": 347,
          "noteDuration": "half",
          "measureIndex": 79,
          "beatInMeasure": 0.625,
          "isRest": false
        },
        {
          "name": "rest",
          "startMs": 106731,
          "durationMs": 230,
          "noteDuration": "sixteenth",
          "measureIndex": 79,
          "beatInMeasure": 2.625,
          "isRest": true
        },
        {
          "name": "rest",
          "startMs": 106961,
          "durationMs": 116,
          "noteDuration": "thirty-second",
          "measureIndex": 79,
          "beatInMeasure": 2.875,
          "isRest": true
        },
        {
          "midi": 53,
          "name": "F3",
          "velocity": 0.76,
          "startMs": 107077,
          "durationMs": 346,
          "noteDuration": "eighth",
          "measureIndex": 80,
          "beatInMeasure": 0,
          "isRest": false
        },
        {
          "midi": 58,
          "name": "A#3",
          "velocity": 0.76,
          "startMs": 107423,
          "durationMs": 346,
          "noteDuration": "sixteenth",
          "measureIndex": 80,
          "beatInMeasure": 0.375,
          "isRest": false
        },
        {
          "midi": 62,
          "name": "D4",
          "velocity": 0.76,
          "startMs": 107654,
          "durationMs": 346,
          "noteDuration": "half",
          "measureIndex": 80,
          "beatInMeasure": 0.625,
          "isRest": false
        },
        {
          "name": "rest",
          "startMs": 109500,
          "durationMs": 231,
          "noteDuration": "sixteenth",
          "measureIndex": 80,
          "beatInMeasure": 2.625,
          "isRest": true
        },
        {
          "name": "rest",
          "startMs": 109731,
          "durationMs": 115,
          "noteDuration": "thirty-second",
          "measureIndex": 80,
          "beatInMeasure": 2.875,
          "isRest": true
        },
        {
          "midi": 53,
          "name": "F3",
          "velocity": 0.76,
          "startMs": 109846,
          "durationMs": 346,
          "noteDuration": "eighth",
          "measureIndex": 81,
          "beatInMeasure": 0,
          "isRest": false
        },
        {
          "midi": 57,
          "name": "A3",
          "velocity": 0.76,
          "startMs": 110192,
          "durationMs": 346,
          "noteDuration": "sixteenth",
          "measureIndex": 81,
          "beatInMeasure": 0.375,
          "isRest": false
        },
        {
          "midi": 60,
          "name": "C4",
          "velocity": 0.76,
          "startMs": 110423,
          "durationMs": 346,
          "noteDuration": "eighth",
          "measureIndex": 81,
          "beatInMeasure": 0.625,
          "isRest": false
        },
        {
          "midi": 53,
          "name": "F3",
          "velocity": 0.76,
          "startMs": 110769,
          "durationMs": 346,
          "noteDuration": "eighth",
          "measureIndex": 81,
          "beatInMeasure": 1,
          "isRest": false
        },
        {
          "midi": 57,
          "name": "A3",
          "velocity": 0.76,
          "startMs": 111115,
          "durationMs": 346,
          "noteDuration": "sixteenth",
          "measureIndex": 81,
          "beatInMeasure": 1.375,
          "isRest": false
        },
        {
          "midi": 60,
          "name": "C4",
          "velocity": 0.76,
          "startMs": 111346,
          "durationMs": 346,
          "noteDuration": "eighth",
          "measureIndex": 81,
          "beatInMeasure": 1.625,
          "isRest": false
        },
        {
          "midi": 53,
          "name": "F3",
          "velocity": 0.76,
          "startMs": 111692,
          "durationMs": 346,
          "noteDuration": "eighth",
          "measureIndex": 81,
          "beatInMeasure": 2,
          "isRest": false
        },
        {
          "midi": 57,
          "name": "A3",
          "velocity": 0.76,
          "startMs": 112038,
          "durationMs": 346,
          "noteDuration": "sixteenth",
          "measureIndex": 81,
          "beatInMeasure": 2.375,
          "isRest": false
        },
        {
          "midi": 60,
          "name": "C4",
          "velocity": 0.76,
          "startMs": 112269,
          "durationMs": 346,
          "noteDuration": "eighth",
          "measureIndex": 81,
          "beatInMeasure": 2.625,
          "isRest": false
        },
        {
          "midi": 58,
          "name": "A#3",
          "velocity": 0.76,
          "startMs": 112615,
          "durationMs": 923,
          "noteDuration": "quarter",
          "measureIndex": 82,
          "beatInMeasure": 0,
          "isRest": false
        },
        {
          "midi": 57,
          "name": "A3",
          "velocity": 0.76,
          "startMs": 113538,
          "durationMs": 923,
          "noteDuration": "quarter",
          "measureIndex": 82,
          "beatInMeasure": 1,
          "isRest": false
        },
        {
          "midi": 53,
          "name": "F3",
          "velocity": 0.76,
          "startMs": 114461,
          "durationMs": 923,
          "noteDuration": "quarter",
          "measureIndex": 82,
          "beatInMeasure": 2,
          "isRest": false
        },
        {
          "midi": 48,
          "name": "C3",
          "velocity": 0.88,
          "startMs": 115384,
          "durationMs": 347,
          "noteDuration": "eighth",
          "measureIndex": 83,
          "beatInMeasure": 0,
          "isRest": false
        },
        {
          "midi": 53,
          "name": "F3",
          "velocity": 0.78,
          "startMs": 115731,
          "durationMs": 346,
          "noteDuration": "sixteenth",
          "measureIndex": 83,
          "beatInMeasure": 0.375,
          "isRest": false
        },
        {
          "midi": 57,
          "name": "A3",
          "velocity": 0.74,
          "startMs": 115961,
          "durationMs": 347,
          "noteDuration": "eighth",
          "measureIndex": 83,
          "beatInMeasure": 0.625,
          "isRest": false
        },
        {
          "midi": 48,
          "name": "C3",
          "velocity": 0.39,
          "startMs": 116308,
          "durationMs": 346,
          "noteDuration": "eighth",
          "measureIndex": 83,
          "beatInMeasure": 1,
          "isRest": false
        },
        {
          "midi": 52,
          "name": "E3",
          "velocity": 0.39,
          "startMs": 116654,
          "durationMs": 346,
          "noteDuration": "sixteenth",
          "measureIndex": 83,
          "beatInMeasure": 1.375,
          "isRest": false
        },
        {
          "midi": 55,
          "name": "G3",
          "velocity": 0.39,
          "startMs": 116884,
          "durationMs": 347,
          "noteDuration": "eighth",
          "measureIndex": 83,
          "beatInMeasure": 1.625,
          "isRest": false
        },
        {
          "midi": 48,
          "name": "C3",
          "velocity": 0.39,
          "startMs": 117231,
          "durationMs": 346,
          "noteDuration": "eighth",
          "measureIndex": 83,
          "beatInMeasure": 2,
          "isRest": false
        },
        {
          "midi": 52,
          "name": "E3",
          "velocity": 0.39,
          "startMs": 117577,
          "durationMs": 346,
          "noteDuration": "sixteenth",
          "measureIndex": 83,
          "beatInMeasure": 2.375,
          "isRest": false
        },
        {
          "midi": 55,
          "name": "G3",
          "velocity": 0.39,
          "startMs": 117808,
          "durationMs": 346,
          "noteDuration": "eighth",
          "measureIndex": 83,
          "beatInMeasure": 2.625,
          "isRest": false
        },
        {
          "midi": 43,
          "name": "G2",
          "velocity": 0.39,
          "startMs": 118154,
          "durationMs": 1730,
          "noteDuration": "half",
          "measureIndex": 84,
          "beatInMeasure": 0,
          "isRest": false
        },
        {
          "midi": 53,
          "name": "F3",
          "velocity": 0.39,
          "startMs": 120000,
          "durationMs": 923,
          "noteDuration": "quarter",
          "measureIndex": 84,
          "beatInMeasure": 2,
          "isRest": false
        },
        {
          "midi": 52,
          "name": "E3",
          "velocity": 0.76,
          "startMs": 120923,
          "durationMs": 346,
          "noteDuration": "eighth",
          "measureIndex": 85,
          "beatInMeasure": 0,
          "isRest": false
        },
        {
          "midi": 55,
          "name": "G3",
          "velocity": 0.76,
          "startMs": 121269,
          "durationMs": 346,
          "noteDuration": "sixteenth",
          "measureIndex": 85,
          "beatInMeasure": 0.375,
          "isRest": false
        },
        {
          "midi": 60,
          "name": "C4",
          "velocity": 0.76,
          "startMs": 121500,
          "durationMs": 346,
          "noteDuration": "eighth",
          "measureIndex": 85,
          "beatInMeasure": 0.625,
          "isRest": false
        },
        {
          "midi": 52,
          "name": "E3",
          "velocity": 0.76,
          "startMs": 121846,
          "durationMs": 1731,
          "noteDuration": "half",
          "measureIndex": 85,
          "beatInMeasure": 1,
          "isRest": false
        },
        {
          "midi": 53,
          "name": "F3",
          "velocity": 0.76,
          "startMs": 123692,
          "durationMs": 923,
          "noteDuration": "quarter",
          "measureIndex": 86,
          "beatInMeasure": 0,
          "isRest": false
        },
        {
          "midi": 55,
          "name": "G3",
          "velocity": 0.76,
          "startMs": 124615,
          "durationMs": 923,
          "noteDuration": "quarter",
          "measureIndex": 86,
          "beatInMeasure": 1,
          "isRest": false
        },
        {
          "midi": 43,
          "name": "G2",
          "velocity": 0.76,
          "startMs": 125538,
          "durationMs": 923,
          "noteDuration": "quarter",
          "measureIndex": 86,
          "beatInMeasure": 2,
          "isRest": false
        },
        {
          "midi": 36,
          "name": "C2",
          "velocity": 0.76,
          "startMs": 126461,
          "durationMs": 923,
          "noteDuration": "quarter",
          "measureIndex": 87,
          "beatInMeasure": 0,
          "isRest": false
        },
        {
          "midi": 43,
          "name": "G2",
          "velocity": 0.69,
          "startMs": 127384,
          "durationMs": 924,
          "noteDuration": "quarter",
          "measureIndex": 87,
          "beatInMeasure": 1,
          "isRest": false
        },
        {
          "midi": 48,
          "name": "C3",
          "velocity": 0.63,
          "startMs": 128308,
          "durationMs": 923,
          "noteDuration": "quarter",
          "measureIndex": 87,
          "beatInMeasure": 2,
          "isRest": false
        },
        {
          "name": "rest",
          "startMs": 129231,
          "durationMs": 1846,
          "noteDuration": "half",
          "measureIndex": 88,
          "beatInMeasure": 0,
          "isRest": true
        },
        {
          "name": "rest",
          "startMs": 131077,
          "durationMs": 923,
          "noteDuration": "quarter",
          "measureIndex": 88,
          "beatInMeasure": 2,
          "isRest": true
        },
        {
          "midi": 60,
          "name": "C4",
          "velocity": 0.39,
          "startMs": 132000,
          "durationMs": 923,
          "noteDuration": "quarter",
          "measureIndex": 89,
          "beatInMeasure": 0,
          "isRest": false
        },
        {
          "midi": 58,
          "name": "A#3",
          "velocity": 0.39,
          "startMs": 132923,
          "durationMs": 923,
          "noteDuration": "quarter",
          "measureIndex": 89,
          "beatInMeasure": 1,
          "isRest": false
        },
        {
          "midi": 54,
          "name": "F#3",
          "velocity": 0.39,
          "startMs": 133846,
          "durationMs": 923,
          "noteDuration": "quarter",
          "measureIndex": 89,
          "beatInMeasure": 2,
          "isRest": false
        },
        {
          "midi": 55,
          "name": "G3",
          "velocity": 0.39,
          "startMs": 134769,
          "durationMs": 923,
          "noteDuration": "whole",
          "measureIndex": 90,
          "beatInMeasure": 0,
          "isRest": false
        },
        {
          "midi": 58,
          "name": "A#3",
          "velocity": 0.39,
          "startMs": 137538,
          "durationMs": 923,
          "noteDuration": "quarter",
          "measureIndex": 91,
          "beatInMeasure": 0,
          "isRest": false
        },
        {
          "midi": 57,
          "name": "A3",
          "velocity": 0.39,
          "startMs": 138461,
          "durationMs": 923,
          "noteDuration": "quarter",
          "measureIndex": 91,
          "beatInMeasure": 1,
          "isRest": false
        },
        {
          "midi": 53,
          "name": "F3",
          "velocity": 0.39,
          "startMs": 139384,
          "durationMs": 924,
          "noteDuration": "quarter",
          "measureIndex": 91,
          "beatInMeasure": 2,
          "isRest": false
        },
        {
          "midi": 48,
          "name": "C3",
          "velocity": 0.39,
          "startMs": 140308,
          "durationMs": 346,
          "noteDuration": "eighth",
          "measureIndex": 92,
          "beatInMeasure": 0,
          "isRest": false
        },
        {
          "midi": 60,
          "name": "C4",
          "velocity": 0.39,
          "startMs": 140654,
          "durationMs": 346,
          "noteDuration": "sixteenth",
          "measureIndex": 92,
          "beatInMeasure": 0.375,
          "isRest": false
        },
        {
          "midi": 60,
          "name": "C4",
          "velocity": 0.39,
          "startMs": 140884,
          "durationMs": 347,
          "noteDuration": "eighth",
          "measureIndex": 92,
          "beatInMeasure": 0.625,
          "isRest": false
        },
        {
          "midi": 60,
          "name": "C4",
          "velocity": 0.39,
          "startMs": 141231,
          "durationMs": 923,
          "noteDuration": "half",
          "measureIndex": 92,
          "beatInMeasure": 1,
          "isRest": false
        },
        {
          "midi": 48,
          "name": "C3",
          "velocity": 0.39,
          "startMs": 143077,
          "durationMs": 346,
          "noteDuration": "eighth",
          "measureIndex": 93,
          "beatInMeasure": 0,
          "isRest": false
        },
        {
          "midi": 60,
          "name": "C4",
          "velocity": 0.39,
          "startMs": 143423,
          "durationMs": 346,
          "noteDuration": "sixteenth",
          "measureIndex": 93,
          "beatInMeasure": 0.375,
          "isRest": false
        },
        {
          "midi": 60,
          "name": "C4",
          "velocity": 0.39,
          "startMs": 143654,
          "durationMs": 346,
          "noteDuration": "eighth",
          "measureIndex": 93,
          "beatInMeasure": 0.625,
          "isRest": false
        },
        {
          "midi": 60,
          "name": "C4",
          "velocity": 0.39,
          "startMs": 144000,
          "durationMs": 346,
          "noteDuration": "eighth",
          "measureIndex": 93,
          "beatInMeasure": 1,
          "isRest": false
        },
        {
          "midi": 62,
          "name": "D4",
          "velocity": 0.39,
          "startMs": 144346,
          "durationMs": 346,
          "noteDuration": "sixteenth",
          "measureIndex": 93,
          "beatInMeasure": 1.375,
          "isRest": false
        },
        {
          "midi": 60,
          "name": "C4",
          "velocity": 0.39,
          "startMs": 144577,
          "durationMs": 346,
          "noteDuration": "eighth",
          "measureIndex": 93,
          "beatInMeasure": 1.625,
          "isRest": false
        },
        {
          "midi": 58,
          "name": "A#3",
          "velocity": 0.39,
          "startMs": 144923,
          "durationMs": 346,
          "noteDuration": "eighth",
          "measureIndex": 93,
          "beatInMeasure": 2,
          "isRest": false
        },
        {
          "midi": 57,
          "name": "A3",
          "velocity": 0.39,
          "startMs": 145269,
          "durationMs": 346,
          "noteDuration": "sixteenth",
          "measureIndex": 93,
          "beatInMeasure": 2.375,
          "isRest": false
        },
        {
          "midi": 55,
          "name": "G3",
          "velocity": 0.39,
          "startMs": 145500,
          "durationMs": 346,
          "noteDuration": "eighth",
          "measureIndex": 93,
          "beatInMeasure": 2.625,
          "isRest": false
        },
        {
          "midi": 53,
          "name": "F3",
          "velocity": 0.5,
          "startMs": 145846,
          "durationMs": 346,
          "noteDuration": "eighth",
          "measureIndex": 94,
          "beatInMeasure": 0,
          "isRest": false
        },
        {
          "midi": 57,
          "name": "A3",
          "velocity": 0.5,
          "startMs": 146192,
          "durationMs": 346,
          "noteDuration": "sixteenth",
          "measureIndex": 94,
          "beatInMeasure": 0.375,
          "isRest": false
        },
        {
          "midi": 60,
          "name": "C4",
          "velocity": 0.5,
          "startMs": 146423,
          "durationMs": 346,
          "noteDuration": "eighth",
          "measureIndex": 94,
          "beatInMeasure": 0.625,
          "isRest": false
        },
        {
          "midi": 53,
          "name": "F3",
          "velocity": 0.5,
          "startMs": 146769,
          "durationMs": 346,
          "noteDuration": "eighth",
          "measureIndex": 94,
          "beatInMeasure": 1,
          "isRest": false
        },
        {
          "midi": 57,
          "name": "A3",
          "velocity": 0.5,
          "startMs": 147115,
          "durationMs": 346,
          "noteDuration": "sixteenth",
          "measureIndex": 94,
          "beatInMeasure": 1.375,
          "isRest": false
        },
        {
          "midi": 60,
          "name": "C4",
          "velocity": 0.5,
          "startMs": 147346,
          "durationMs": 346,
          "noteDuration": "eighth",
          "measureIndex": 94,
          "beatInMeasure": 1.625,
          "isRest": false
        },
        {
          "midi": 53,
          "name": "F3",
          "velocity": 0.5,
          "startMs": 147692,
          "durationMs": 346,
          "noteDuration": "eighth",
          "measureIndex": 94,
          "beatInMeasure": 2,
          "isRest": false
        },
        {
          "midi": 57,
          "name": "A3",
          "velocity": 0.5,
          "startMs": 148038,
          "durationMs": 346,
          "noteDuration": "sixteenth",
          "measureIndex": 94,
          "beatInMeasure": 2.375,
          "isRest": false
        },
        {
          "midi": 60,
          "name": "C4",
          "velocity": 0.5,
          "startMs": 148269,
          "durationMs": 346,
          "noteDuration": "eighth",
          "measureIndex": 94,
          "beatInMeasure": 2.625,
          "isRest": false
        },
        {
          "midi": 53,
          "name": "F3",
          "velocity": 0.5,
          "startMs": 148615,
          "durationMs": 346,
          "noteDuration": "eighth",
          "measureIndex": 95,
          "beatInMeasure": 0,
          "isRest": false
        },
        {
          "midi": 57,
          "name": "A3",
          "velocity": 0.5,
          "startMs": 148961,
          "durationMs": 347,
          "noteDuration": "sixteenth",
          "measureIndex": 95,
          "beatInMeasure": 0.375,
          "isRest": false
        },
        {
          "midi": 60,
          "name": "C4",
          "velocity": 0.5,
          "startMs": 149192,
          "durationMs": 346,
          "noteDuration": "eighth",
          "measureIndex": 95,
          "beatInMeasure": 0.625,
          "isRest": false
        },
        {
          "midi": 53,
          "name": "F3",
          "velocity": 0.5,
          "startMs": 149538,
          "durationMs": 346,
          "noteDuration": "eighth",
          "measureIndex": 95,
          "beatInMeasure": 1,
          "isRest": false
        },
        {
          "midi": 57,
          "name": "A3",
          "velocity": 0.5,
          "startMs": 149884,
          "durationMs": 347,
          "noteDuration": "sixteenth",
          "measureIndex": 95,
          "beatInMeasure": 1.375,
          "isRest": false
        },
        {
          "midi": 60,
          "name": "C4",
          "velocity": 0.5,
          "startMs": 150115,
          "durationMs": 346,
          "noteDuration": "eighth",
          "measureIndex": 95,
          "beatInMeasure": 1.625,
          "isRest": false
        },
        {
          "midi": 53,
          "name": "F3",
          "velocity": 0.5,
          "startMs": 150461,
          "durationMs": 347,
          "noteDuration": "eighth",
          "measureIndex": 95,
          "beatInMeasure": 2,
          "isRest": false
        },
        {
          "midi": 57,
          "name": "A3",
          "velocity": 0.5,
          "startMs": 150808,
          "durationMs": 346,
          "noteDuration": "sixteenth",
          "measureIndex": 95,
          "beatInMeasure": 2.375,
          "isRest": false
        },
        {
          "midi": 60,
          "name": "C4",
          "velocity": 0.5,
          "startMs": 151038,
          "durationMs": 346,
          "noteDuration": "eighth",
          "measureIndex": 95,
          "beatInMeasure": 2.625,
          "isRest": false
        },
        {
          "midi": 53,
          "name": "F3",
          "velocity": 0.5,
          "startMs": 151384,
          "durationMs": 347,
          "noteDuration": "eighth",
          "measureIndex": 96,
          "beatInMeasure": 0,
          "isRest": false
        },
        {
          "midi": 57,
          "name": "A3",
          "velocity": 0.5,
          "startMs": 151731,
          "durationMs": 346,
          "noteDuration": "sixteenth",
          "measureIndex": 96,
          "beatInMeasure": 0.375,
          "isRest": false
        },
        {
          "midi": 60,
          "name": "C4",
          "velocity": 0.5,
          "startMs": 151961,
          "durationMs": 347,
          "noteDuration": "eighth",
          "measureIndex": 96,
          "beatInMeasure": 0.625,
          "isRest": false
        },
        {
          "midi": 53,
          "name": "F3",
          "velocity": 0.5,
          "startMs": 152308,
          "durationMs": 346,
          "noteDuration": "eighth",
          "measureIndex": 96,
          "beatInMeasure": 1,
          "isRest": false
        },
        {
          "midi": 57,
          "name": "A3",
          "velocity": 0.5,
          "startMs": 152654,
          "durationMs": 346,
          "noteDuration": "sixteenth",
          "measureIndex": 96,
          "beatInMeasure": 1.375,
          "isRest": false
        },
        {
          "midi": 60,
          "name": "C4",
          "velocity": 0.5,
          "startMs": 152884,
          "durationMs": 347,
          "noteDuration": "eighth",
          "measureIndex": 96,
          "beatInMeasure": 1.625,
          "isRest": false
        },
        {
          "midi": 53,
          "name": "F3",
          "velocity": 0.5,
          "startMs": 153231,
          "durationMs": 346,
          "noteDuration": "eighth",
          "measureIndex": 96,
          "beatInMeasure": 2,
          "isRest": false
        },
        {
          "midi": 57,
          "name": "A3",
          "velocity": 0.5,
          "startMs": 153577,
          "durationMs": 346,
          "noteDuration": "sixteenth",
          "measureIndex": 96,
          "beatInMeasure": 2.375,
          "isRest": false
        },
        {
          "midi": 60,
          "name": "C4",
          "velocity": 0.5,
          "startMs": 153808,
          "durationMs": 346,
          "noteDuration": "eighth",
          "measureIndex": 96,
          "beatInMeasure": 2.625,
          "isRest": false
        },
        {
          "midi": 58,
          "name": "A#3",
          "velocity": 0.5,
          "startMs": 154154,
          "durationMs": 1730,
          "noteDuration": "whole",
          "measureIndex": 97,
          "beatInMeasure": 0,
          "isRest": false
        },
        {
          "midi": 36,
          "name": "C2",
          "velocity": 0.39,
          "startMs": 156923,
          "durationMs": 1731,
          "noteDuration": "half",
          "measureIndex": 98,
          "beatInMeasure": 0,
          "isRest": false
        },
        {
          "midi": 46,
          "name": "A#2",
          "velocity": 0.39,
          "startMs": 158769,
          "durationMs": 923,
          "noteDuration": "quarter",
          "measureIndex": 98,
          "beatInMeasure": 2,
          "isRest": false
        },
        {
          "midi": 45,
          "name": "A2",
          "velocity": 0.76,
          "startMs": 159692,
          "durationMs": 346,
          "noteDuration": "eighth",
          "measureIndex": 99,
          "beatInMeasure": 0,
          "isRest": false
        },
        {
          "midi": 48,
          "name": "C3",
          "velocity": 0.76,
          "startMs": 160038,
          "durationMs": 346,
          "noteDuration": "sixteenth",
          "measureIndex": 99,
          "beatInMeasure": 0.375,
          "isRest": false
        },
        {
          "midi": 53,
          "name": "F3",
          "velocity": 0.76,
          "startMs": 160269,
          "durationMs": 346,
          "noteDuration": "eighth",
          "measureIndex": 99,
          "beatInMeasure": 0.625,
          "isRest": false
        },
        {
          "midi": 45,
          "name": "A2",
          "velocity": 0.76,
          "startMs": 160615,
          "durationMs": 346,
          "noteDuration": "eighth",
          "measureIndex": 99,
          "beatInMeasure": 1,
          "isRest": false
        },
        {
          "midi": 48,
          "name": "C3",
          "velocity": 0.76,
          "startMs": 160961,
          "durationMs": 347,
          "noteDuration": "sixteenth",
          "measureIndex": 99,
          "beatInMeasure": 1.375,
          "isRest": false
        },
        {
          "midi": 53,
          "name": "F3",
          "velocity": 0.76,
          "startMs": 161192,
          "durationMs": 346,
          "noteDuration": "eighth",
          "measureIndex": 99,
          "beatInMeasure": 1.625,
          "isRest": false
        },
        {
          "midi": 45,
          "name": "A2",
          "velocity": 0.76,
          "startMs": 161538,
          "durationMs": 346,
          "noteDuration": "eighth",
          "measureIndex": 99,
          "beatInMeasure": 2,
          "isRest": false
        },
        {
          "midi": 48,
          "name": "C3",
          "velocity": 0.76,
          "startMs": 161884,
          "durationMs": 347,
          "noteDuration": "sixteenth",
          "measureIndex": 99,
          "beatInMeasure": 2.375,
          "isRest": false
        },
        {
          "midi": 53,
          "name": "F3",
          "velocity": 0.76,
          "startMs": 162115,
          "durationMs": 346,
          "noteDuration": "eighth",
          "measureIndex": 99,
          "beatInMeasure": 2.625,
          "isRest": false
        },
        {
          "midi": 46,
          "name": "A#2",
          "velocity": 0.76,
          "startMs": 162461,
          "durationMs": 347,
          "noteDuration": "eighth",
          "measureIndex": 100,
          "beatInMeasure": 0,
          "isRest": false
        },
        {
          "midi": 50,
          "name": "D3",
          "velocity": 0.76,
          "startMs": 162808,
          "durationMs": 346,
          "noteDuration": "sixteenth",
          "measureIndex": 100,
          "beatInMeasure": 0.375,
          "isRest": false
        },
        {
          "midi": 55,
          "name": "G3",
          "velocity": 0.76,
          "startMs": 163038,
          "durationMs": 346,
          "noteDuration": "eighth",
          "measureIndex": 100,
          "beatInMeasure": 0.625,
          "isRest": false
        },
        {
          "midi": 48,
          "name": "C3",
          "velocity": 0.76,
          "startMs": 163384,
          "durationMs": 347,
          "noteDuration": "eighth",
          "measureIndex": 100,
          "beatInMeasure": 1,
          "isRest": false
        },
        {
          "midi": 53,
          "name": "F3",
          "velocity": 0.76,
          "startMs": 163731,
          "durationMs": 346,
          "noteDuration": "sixteenth",
          "measureIndex": 100,
          "beatInMeasure": 1.375,
          "isRest": false
        },
        {
          "midi": 57,
          "name": "A3",
          "velocity": 0.76,
          "startMs": 163961,
          "durationMs": 347,
          "noteDuration": "eighth",
          "measureIndex": 100,
          "beatInMeasure": 1.625,
          "isRest": false
        },
        {
          "midi": 48,
          "name": "C3",
          "velocity": 0.76,
          "startMs": 164308,
          "durationMs": 346,
          "noteDuration": "eighth",
          "measureIndex": 100,
          "beatInMeasure": 2,
          "isRest": false
        },
        {
          "midi": 52,
          "name": "E3",
          "velocity": 0.76,
          "startMs": 164654,
          "durationMs": 346,
          "noteDuration": "sixteenth",
          "measureIndex": 100,
          "beatInMeasure": 2.375,
          "isRest": false
        },
        {
          "midi": 55,
          "name": "G3",
          "velocity": 0.76,
          "startMs": 164884,
          "durationMs": 347,
          "noteDuration": "eighth",
          "measureIndex": 100,
          "beatInMeasure": 2.625,
          "isRest": false
        },
        {
          "midi": 41,
          "name": "F2",
          "velocity": 0.72,
          "startMs": 165231,
          "durationMs": 346,
          "noteDuration": "eighth",
          "measureIndex": 101,
          "beatInMeasure": 0,
          "isRest": false
        },
        {
          "midi": 45,
          "name": "A2",
          "velocity": 0.69,
          "startMs": 165577,
          "durationMs": 346,
          "noteDuration": "sixteenth",
          "measureIndex": 101,
          "beatInMeasure": 0.375,
          "isRest": false
        },
        {
          "midi": 48,
          "name": "C3",
          "velocity": 0.66,
          "startMs": 165808,
          "durationMs": 346,
          "noteDuration": "eighth",
          "measureIndex": 101,
          "beatInMeasure": 0.625,
          "isRest": false
        },
        {
          "midi": 53,
          "name": "F3",
          "velocity": 0.63,
          "startMs": 166154,
          "durationMs": 346,
          "noteDuration": "eighth",
          "measureIndex": 101,
          "beatInMeasure": 1,
          "isRest": false
        },
        {
          "midi": 48,
          "name": "C3",
          "velocity": 0.63,
          "startMs": 166500,
          "durationMs": 346,
          "noteDuration": "sixteenth",
          "measureIndex": 101,
          "beatInMeasure": 1.375,
          "isRest": false
        },
        {
          "midi": 45,
          "name": "A2",
          "velocity": 0.63,
          "startMs": 166731,
          "durationMs": 346,
          "noteDuration": "eighth",
          "measureIndex": 101,
          "beatInMeasure": 1.625,
          "isRest": false
        },
        {
          "midi": 41,
          "name": "F2",
          "velocity": 0.63,
          "startMs": 167077,
          "durationMs": 923,
          "noteDuration": "quarter",
          "measureIndex": 101,
          "beatInMeasure": 2,
          "isRest": false
        },
        {
          "midi": 48,
          "name": "C3",
          "velocity": 0.39,
          "startMs": 168000,
          "durationMs": 265,
          "noteDuration": "eighth",
          "measureIndex": 102,
          "beatInMeasure": 0,
          "isRest": false
        },
        {
          "midi": 52,
          "name": "E3",
          "velocity": 0.39,
          "startMs": 168265,
          "durationMs": 266,
          "noteDuration": "eighth",
          "measureIndex": 102,
          "beatInMeasure": 0.25,
          "isRest": false
        },
        {
          "midi": 55,
          "name": "G3",
          "velocity": 0.39,
          "startMs": 168531,
          "durationMs": 265,
          "noteDuration": "eighth",
          "measureIndex": 102,
          "beatInMeasure": 0.5,
          "isRest": false
        },
        {
          "midi": 48,
          "name": "C3",
          "velocity": 0.39,
          "startMs": 168796,
          "durationMs": 266,
          "noteDuration": "eighth",
          "measureIndex": 103,
          "beatInMeasure": 0,
          "isRest": false
        },
        {
          "midi": 52,
          "name": "E3",
          "velocity": 0.39,
          "startMs": 169062,
          "durationMs": 265,
          "noteDuration": "eighth",
          "measureIndex": 103,
          "beatInMeasure": 0.25,
          "isRest": false
        },
        {
          "midi": 55,
          "name": "G3",
          "velocity": 0.39,
          "startMs": 169327,
          "durationMs": 266,
          "noteDuration": "eighth",
          "measureIndex": 103,
          "beatInMeasure": 0.5,
          "isRest": false
        },
        {
          "midi": 48,
          "name": "C3",
          "velocity": 0.39,
          "startMs": 169593,
          "durationMs": 265,
          "noteDuration": "eighth",
          "measureIndex": 104,
          "beatInMeasure": 0,
          "isRest": false
        },
        {
          "midi": 50,
          "name": "D3",
          "velocity": 0.39,
          "startMs": 169858,
          "durationMs": 266,
          "noteDuration": "eighth",
          "measureIndex": 104,
          "beatInMeasure": 0.25,
          "isRest": false
        },
        {
          "midi": 53,
          "name": "F3",
          "velocity": 0.39,
          "startMs": 170124,
          "durationMs": 265,
          "noteDuration": "eighth",
          "measureIndex": 104,
          "beatInMeasure": 0.5,
          "isRest": false
        },
        {
          "midi": 48,
          "name": "C3",
          "velocity": 0.39,
          "startMs": 170389,
          "durationMs": 266,
          "noteDuration": "eighth",
          "measureIndex": 105,
          "beatInMeasure": 0,
          "isRest": false
        },
        {
          "midi": 52,
          "name": "E3",
          "velocity": 0.39,
          "startMs": 170655,
          "durationMs": 265,
          "noteDuration": "eighth",
          "measureIndex": 105,
          "beatInMeasure": 0.25,
          "isRest": false
        },
        {
          "midi": 55,
          "name": "G3",
          "velocity": 0.39,
          "startMs": 170920,
          "durationMs": 266,
          "noteDuration": "eighth",
          "measureIndex": 105,
          "beatInMeasure": 0.5,
          "isRest": false
        },
        {
          "midi": 48,
          "name": "C3",
          "velocity": 0.39,
          "startMs": 171186,
          "durationMs": 265,
          "noteDuration": "eighth",
          "measureIndex": 106,
          "beatInMeasure": 0,
          "isRest": false
        },
        {
          "midi": 52,
          "name": "E3",
          "velocity": 0.39,
          "startMs": 171451,
          "durationMs": 266,
          "noteDuration": "eighth",
          "measureIndex": 106,
          "beatInMeasure": 0.25,
          "isRest": false
        },
        {
          "midi": 55,
          "name": "G3",
          "velocity": 0.39,
          "startMs": 171717,
          "durationMs": 265,
          "noteDuration": "eighth",
          "measureIndex": 106,
          "beatInMeasure": 0.5,
          "isRest": false
        },
        {
          "midi": 48,
          "name": "C3",
          "velocity": 0.39,
          "startMs": 171982,
          "durationMs": 266,
          "noteDuration": "eighth",
          "measureIndex": 107,
          "beatInMeasure": 0,
          "isRest": false
        },
        {
          "midi": 52,
          "name": "E3",
          "velocity": 0.39,
          "startMs": 172248,
          "durationMs": 265,
          "noteDuration": "eighth",
          "measureIndex": 107,
          "beatInMeasure": 0.25,
          "isRest": false
        },
        {
          "midi": 55,
          "name": "G3",
          "velocity": 0.39,
          "startMs": 172513,
          "durationMs": 266,
          "noteDuration": "eighth",
          "measureIndex": 107,
          "beatInMeasure": 0.5,
          "isRest": false
        },
        {
          "midi": 43,
          "name": "G2",
          "velocity": 0.39,
          "startMs": 172779,
          "durationMs": 265,
          "noteDuration": "eighth",
          "measureIndex": 108,
          "beatInMeasure": 0,
          "isRest": false
        },
        {
          "midi": 50,
          "name": "D3",
          "velocity": 0.39,
          "startMs": 173044,
          "durationMs": 266,
          "noteDuration": "eighth",
          "measureIndex": 108,
          "beatInMeasure": 0.25,
          "isRest": false
        },
        {
          "midi": 55,
          "name": "G3",
          "velocity": 0.39,
          "startMs": 173310,
          "durationMs": 265,
          "noteDuration": "eighth",
          "measureIndex": 108,
          "beatInMeasure": 0.5,
          "isRest": false
        },
        {
          "midi": 48,
          "name": "C3",
          "velocity": 0.39,
          "startMs": 173575,
          "durationMs": 266,
          "noteDuration": "eighth",
          "measureIndex": 109,
          "beatInMeasure": 0,
          "isRest": false
        },
        {
          "midi": 52,
          "name": "E3",
          "velocity": 0.39,
          "startMs": 173841,
          "durationMs": 265,
          "noteDuration": "eighth",
          "measureIndex": 109,
          "beatInMeasure": 0.25,
          "isRest": false
        },
        {
          "midi": 55,
          "name": "G3",
          "velocity": 0.39,
          "startMs": 174106,
          "durationMs": 266,
          "noteDuration": "eighth",
          "measureIndex": 109,
          "beatInMeasure": 0.5,
          "isRest": false
        },
        {
          "midi": 48,
          "name": "C3",
          "velocity": 0.76,
          "startMs": 174372,
          "durationMs": 265,
          "noteDuration": "eighth",
          "measureIndex": 110,
          "beatInMeasure": 0,
          "isRest": false
        },
        {
          "midi": 52,
          "name": "E3",
          "velocity": 0.76,
          "startMs": 174637,
          "durationMs": 266,
          "noteDuration": "eighth",
          "measureIndex": 110,
          "beatInMeasure": 0.25,
          "isRest": false
        },
        {
          "midi": 55,
          "name": "G3",
          "velocity": 0.76,
          "startMs": 174903,
          "durationMs": 265,
          "noteDuration": "eighth",
          "measureIndex": 110,
          "beatInMeasure": 0.5,
          "isRest": false
        },
        {
          "midi": 48,
          "name": "C3",
          "velocity": 0.76,
          "startMs": 175168,
          "durationMs": 265,
          "noteDuration": "eighth",
          "measureIndex": 111,
          "beatInMeasure": 0,
          "isRest": false
        },
        {
          "midi": 52,
          "name": "E3",
          "velocity": 0.76,
          "startMs": 175433,
          "durationMs": 266,
          "noteDuration": "eighth",
          "measureIndex": 111,
          "beatInMeasure": 0.25,
          "isRest": false
        },
        {
          "midi": 55,
          "name": "G3",
          "velocity": 0.76,
          "startMs": 175699,
          "durationMs": 265,
          "noteDuration": "eighth",
          "measureIndex": 111,
          "beatInMeasure": 0.5,
          "isRest": false
        },
        {
          "midi": 48,
          "name": "C3",
          "velocity": 0.76,
          "startMs": 175964,
          "durationMs": 266,
          "noteDuration": "eighth",
          "measureIndex": 112,
          "beatInMeasure": 0,
          "isRest": false
        },
        {
          "midi": 50,
          "name": "D3",
          "velocity": 0.76,
          "startMs": 176230,
          "durationMs": 265,
          "noteDuration": "eighth",
          "measureIndex": 112,
          "beatInMeasure": 0.25,
          "isRest": false
        },
        {
          "midi": 53,
          "name": "F3",
          "velocity": 0.76,
          "startMs": 176495,
          "durationMs": 266,
          "noteDuration": "eighth",
          "measureIndex": 112,
          "beatInMeasure": 0.5,
          "isRest": false
        },
        {
          "midi": 48,
          "name": "C3",
          "velocity": 0.76,
          "startMs": 176761,
          "durationMs": 265,
          "noteDuration": "eighth",
          "measureIndex": 113,
          "beatInMeasure": 0,
          "isRest": false
        },
        {
          "midi": 52,
          "name": "E3",
          "velocity": 0.76,
          "startMs": 177026,
          "durationMs": 266,
          "noteDuration": "eighth",
          "measureIndex": 113,
          "beatInMeasure": 0.25,
          "isRest": false
        },
        {
          "midi": 55,
          "name": "G3",
          "velocity": 0.76,
          "startMs": 177292,
          "durationMs": 265,
          "noteDuration": "eighth",
          "measureIndex": 113,
          "beatInMeasure": 0.5,
          "isRest": false
        },
        {
          "midi": 48,
          "name": "C3",
          "velocity": 0.76,
          "startMs": 177557,
          "durationMs": 266,
          "noteDuration": "eighth",
          "measureIndex": 114,
          "beatInMeasure": 0,
          "isRest": false
        },
        {
          "midi": 52,
          "name": "E3",
          "velocity": 0.76,
          "startMs": 177823,
          "durationMs": 265,
          "noteDuration": "eighth",
          "measureIndex": 114,
          "beatInMeasure": 0.25,
          "isRest": false
        },
        {
          "midi": 55,
          "name": "G3",
          "velocity": 0.76,
          "startMs": 178088,
          "durationMs": 266,
          "noteDuration": "eighth",
          "measureIndex": 114,
          "beatInMeasure": 0.5,
          "isRest": false
        },
        {
          "midi": 48,
          "name": "C3",
          "velocity": 0.76,
          "startMs": 178354,
          "durationMs": 265,
          "noteDuration": "eighth",
          "measureIndex": 115,
          "beatInMeasure": 0,
          "isRest": false
        },
        {
          "midi": 52,
          "name": "E3",
          "velocity": 0.76,
          "startMs": 178619,
          "durationMs": 266,
          "noteDuration": "eighth",
          "measureIndex": 115,
          "beatInMeasure": 0.25,
          "isRest": false
        },
        {
          "midi": 55,
          "name": "G3",
          "velocity": 0.76,
          "startMs": 178885,
          "durationMs": 265,
          "noteDuration": "eighth",
          "measureIndex": 115,
          "beatInMeasure": 0.5,
          "isRest": false
        },
        {
          "midi": 43,
          "name": "G2",
          "velocity": 0.76,
          "startMs": 179150,
          "durationMs": 266,
          "noteDuration": "eighth",
          "measureIndex": 116,
          "beatInMeasure": 0,
          "isRest": false
        },
        {
          "midi": 50,
          "name": "D3",
          "velocity": 0.76,
          "startMs": 179416,
          "durationMs": 265,
          "noteDuration": "eighth",
          "measureIndex": 116,
          "beatInMeasure": 0.25,
          "isRest": false
        },
        {
          "midi": 55,
          "name": "G3",
          "velocity": 0.76,
          "startMs": 179681,
          "durationMs": 266,
          "noteDuration": "eighth",
          "measureIndex": 116,
          "beatInMeasure": 0.5,
          "isRest": false
        },
        {
          "midi": 48,
          "name": "C3",
          "velocity": 0.76,
          "startMs": 179947,
          "durationMs": 265,
          "noteDuration": "eighth",
          "measureIndex": 117,
          "beatInMeasure": 0,
          "isRest": false
        },
        {
          "midi": 52,
          "name": "E3",
          "velocity": 0.76,
          "startMs": 180212,
          "durationMs": 266,
          "noteDuration": "eighth",
          "measureIndex": 117,
          "beatInMeasure": 0.25,
          "isRest": false
        },
        {
          "midi": 55,
          "name": "G3",
          "velocity": 0.76,
          "startMs": 180478,
          "durationMs": 265,
          "noteDuration": "eighth",
          "measureIndex": 117,
          "beatInMeasure": 0.5,
          "isRest": false
        },
        {
          "midi": 60,
          "name": "C4",
          "velocity": 0.39,
          "startMs": 180743,
          "durationMs": 531,
          "noteDuration": "half",
          "measureIndex": 118,
          "beatInMeasure": 0,
          "isRest": false
        },
        {
          "midi": 60,
          "name": "C4",
          "velocity": 0.39,
          "startMs": 181540,
          "durationMs": 531,
          "noteDuration": "half",
          "measureIndex": 119,
          "beatInMeasure": 0,
          "isRest": false
        },
        {
          "midi": 60,
          "name": "C4",
          "velocity": 0.76,
          "startMs": 182336,
          "durationMs": 266,
          "noteDuration": "eighth",
          "measureIndex": 120,
          "beatInMeasure": 0,
          "isRest": false
        },
        {
          "midi": 60,
          "name": "C4",
          "velocity": 0.76,
          "startMs": 182602,
          "durationMs": 265,
          "noteDuration": "eighth",
          "measureIndex": 120,
          "beatInMeasure": 0.25,
          "isRest": false
        },
        {
          "midi": 60,
          "name": "C4",
          "velocity": 0.76,
          "startMs": 182867,
          "durationMs": 266,
          "noteDuration": "eighth",
          "measureIndex": 120,
          "beatInMeasure": 0.5,
          "isRest": false
        },
        {
          "midi": 60,
          "name": "C4",
          "velocity": 0.76,
          "startMs": 183133,
          "durationMs": 265,
          "noteDuration": "eighth",
          "measureIndex": 121,
          "beatInMeasure": 0,
          "isRest": false
        },
        {
          "midi": 60,
          "name": "C4",
          "velocity": 0.76,
          "startMs": 183398,
          "durationMs": 266,
          "noteDuration": "eighth",
          "measureIndex": 121,
          "beatInMeasure": 0.25,
          "isRest": false
        },
        {
          "midi": 60,
          "name": "C4",
          "velocity": 0.76,
          "startMs": 183664,
          "durationMs": 265,
          "noteDuration": "eighth",
          "measureIndex": 121,
          "beatInMeasure": 0.5,
          "isRest": false
        },
        {
          "midi": 60,
          "name": "C4",
          "velocity": 0.39,
          "startMs": 183929,
          "durationMs": 531,
          "noteDuration": "half",
          "measureIndex": 122,
          "beatInMeasure": 0,
          "isRest": false
        },
        {
          "midi": 57,
          "name": "A3",
          "velocity": 0.39,
          "startMs": 184726,
          "durationMs": 531,
          "noteDuration": "thirty-second",
          "measureIndex": 123,
          "beatInMeasure": 0,
          "isRest": false
        },
        {
          "midi": 60,
          "name": "C4",
          "velocity": 0.39,
          "startMs": 184726,
          "durationMs": 531,
          "noteDuration": "half",
          "measureIndex": 123,
          "beatInMeasure": 0,
          "isRest": false
        },
        {
          "midi": 50,
          "name": "D3",
          "velocity": 0.76,
          "startMs": 185522,
          "durationMs": 265,
          "noteDuration": "thirty-second",
          "measureIndex": 124,
          "beatInMeasure": 0,
          "isRest": false
        },
        {
          "midi": 57,
          "name": "A3",
          "velocity": 0.76,
          "startMs": 185522,
          "durationMs": 265,
          "noteDuration": "eighth",
          "measureIndex": 124,
          "beatInMeasure": 0,
          "isRest": false
        },
        {
          "midi": 50,
          "name": "D3",
          "velocity": 0.76,
          "startMs": 185787,
          "durationMs": 266,
          "noteDuration": "thirty-second",
          "measureIndex": 124,
          "beatInMeasure": 0.25,
          "isRest": false
        },
        {
          "midi": 57,
          "name": "A3",
          "velocity": 0.76,
          "startMs": 185787,
          "durationMs": 266,
          "noteDuration": "eighth",
          "measureIndex": 124,
          "beatInMeasure": 0.25,
          "isRest": false
        },
        {
          "midi": 50,
          "name": "D3",
          "velocity": 0.76,
          "startMs": 186053,
          "durationMs": 265,
          "noteDuration": "thirty-second",
          "measureIndex": 124,
          "beatInMeasure": 0.5,
          "isRest": false
        },
        {
          "midi": 57,
          "name": "A3",
          "velocity": 0.76,
          "startMs": 186053,
          "durationMs": 265,
          "noteDuration": "eighth",
          "measureIndex": 124,
          "beatInMeasure": 0.5,
          "isRest": false
        },
        {
          "midi": 55,
          "name": "G3",
          "velocity": 0.76,
          "startMs": 186318,
          "durationMs": 266,
          "noteDuration": "thirty-second",
          "measureIndex": 125,
          "beatInMeasure": 0,
          "isRest": false
        },
        {
          "midi": 59,
          "name": "B3",
          "velocity": 0.76,
          "startMs": 186318,
          "durationMs": 266,
          "noteDuration": "eighth",
          "measureIndex": 125,
          "beatInMeasure": 0,
          "isRest": false
        },
        {
          "midi": 55,
          "name": "G3",
          "velocity": 0.76,
          "startMs": 186584,
          "durationMs": 265,
          "noteDuration": "thirty-second",
          "measureIndex": 125,
          "beatInMeasure": 0.25,
          "isRest": false
        },
        {
          "midi": 59,
          "name": "B3",
          "velocity": 0.76,
          "startMs": 186584,
          "durationMs": 265,
          "noteDuration": "eighth",
          "measureIndex": 125,
          "beatInMeasure": 0.25,
          "isRest": false
        },
        {
          "midi": 55,
          "name": "G3",
          "velocity": 0.76,
          "startMs": 186849,
          "durationMs": 266,
          "noteDuration": "thirty-second",
          "measureIndex": 125,
          "beatInMeasure": 0.5,
          "isRest": false
        },
        {
          "midi": 59,
          "name": "B3",
          "velocity": 0.76,
          "startMs": 186849,
          "durationMs": 266,
          "noteDuration": "eighth",
          "measureIndex": 125,
          "beatInMeasure": 0.5,
          "isRest": false
        },
        {
          "midi": 55,
          "name": "G3",
          "velocity": 0.76,
          "startMs": 187115,
          "durationMs": 265,
          "noteDuration": "thirty-second",
          "measureIndex": 126,
          "beatInMeasure": 0,
          "isRest": false
        },
        {
          "midi": 59,
          "name": "B3",
          "velocity": 0.76,
          "startMs": 187115,
          "durationMs": 265,
          "noteDuration": "eighth",
          "measureIndex": 126,
          "beatInMeasure": 0,
          "isRest": false
        },
        {
          "midi": 55,
          "name": "G3",
          "velocity": 0.76,
          "startMs": 187380,
          "durationMs": 266,
          "noteDuration": "thirty-second",
          "measureIndex": 126,
          "beatInMeasure": 0.25,
          "isRest": false
        },
        {
          "midi": 59,
          "name": "B3",
          "velocity": 0.76,
          "startMs": 187380,
          "durationMs": 266,
          "noteDuration": "eighth",
          "measureIndex": 126,
          "beatInMeasure": 0.25,
          "isRest": false
        },
        {
          "midi": 55,
          "name": "G3",
          "velocity": 0.76,
          "startMs": 187646,
          "durationMs": 265,
          "noteDuration": "thirty-second",
          "measureIndex": 126,
          "beatInMeasure": 0.5,
          "isRest": false
        },
        {
          "midi": 59,
          "name": "B3",
          "velocity": 0.76,
          "startMs": 187646,
          "durationMs": 265,
          "noteDuration": "eighth",
          "measureIndex": 126,
          "beatInMeasure": 0.5,
          "isRest": false
        },
        {
          "midi": 55,
          "name": "G3",
          "velocity": 0.76,
          "startMs": 187911,
          "durationMs": 266,
          "noteDuration": "thirty-second",
          "measureIndex": 127,
          "beatInMeasure": 0,
          "isRest": false
        },
        {
          "midi": 60,
          "name": "C4",
          "velocity": 0.76,
          "startMs": 187911,
          "durationMs": 266,
          "noteDuration": "eighth",
          "measureIndex": 127,
          "beatInMeasure": 0,
          "isRest": false
        },
        {
          "midi": 55,
          "name": "G3",
          "velocity": 0.76,
          "startMs": 188177,
          "durationMs": 265,
          "noteDuration": "thirty-second",
          "measureIndex": 127,
          "beatInMeasure": 0.25,
          "isRest": false
        },
        {
          "midi": 60,
          "name": "C4",
          "velocity": 0.76,
          "startMs": 188177,
          "durationMs": 265,
          "noteDuration": "eighth",
          "measureIndex": 127,
          "beatInMeasure": 0.25,
          "isRest": false
        },
        {
          "midi": 55,
          "name": "G3",
          "velocity": 0.76,
          "startMs": 188442,
          "durationMs": 266,
          "noteDuration": "thirty-second",
          "measureIndex": 127,
          "beatInMeasure": 0.5,
          "isRest": false
        },
        {
          "midi": 60,
          "name": "C4",
          "velocity": 0.76,
          "startMs": 188442,
          "durationMs": 266,
          "noteDuration": "eighth",
          "measureIndex": 127,
          "beatInMeasure": 0.5,
          "isRest": false
        },
        {
          "midi": 55,
          "name": "G3",
          "velocity": 0.76,
          "startMs": 188708,
          "durationMs": 265,
          "noteDuration": "thirty-second",
          "measureIndex": 128,
          "beatInMeasure": 0,
          "isRest": false
        },
        {
          "midi": 60,
          "name": "C4",
          "velocity": 0.76,
          "startMs": 188708,
          "durationMs": 265,
          "noteDuration": "eighth",
          "measureIndex": 128,
          "beatInMeasure": 0,
          "isRest": false
        },
        {
          "midi": 55,
          "name": "G3",
          "velocity": 0.76,
          "startMs": 188973,
          "durationMs": 266,
          "noteDuration": "thirty-second",
          "measureIndex": 128,
          "beatInMeasure": 0.25,
          "isRest": false
        },
        {
          "midi": 60,
          "name": "C4",
          "velocity": 0.76,
          "startMs": 188973,
          "durationMs": 266,
          "noteDuration": "eighth",
          "measureIndex": 128,
          "beatInMeasure": 0.25,
          "isRest": false
        },
        {
          "midi": 55,
          "name": "G3",
          "velocity": 0.76,
          "startMs": 189239,
          "durationMs": 265,
          "noteDuration": "thirty-second",
          "measureIndex": 128,
          "beatInMeasure": 0.5,
          "isRest": false
        },
        {
          "midi": 60,
          "name": "C4",
          "velocity": 0.76,
          "startMs": 189239,
          "durationMs": 265,
          "noteDuration": "eighth",
          "measureIndex": 128,
          "beatInMeasure": 0.5,
          "isRest": false
        },
        {
          "midi": 55,
          "name": "G3",
          "velocity": 0.76,
          "startMs": 189504,
          "durationMs": 266,
          "noteDuration": "thirty-second",
          "measureIndex": 129,
          "beatInMeasure": 0,
          "isRest": false
        },
        {
          "midi": 59,
          "name": "B3",
          "velocity": 0.76,
          "startMs": 189504,
          "durationMs": 266,
          "noteDuration": "eighth",
          "measureIndex": 129,
          "beatInMeasure": 0,
          "isRest": false
        },
        {
          "midi": 55,
          "name": "G3",
          "velocity": 0.76,
          "startMs": 189770,
          "durationMs": 265,
          "noteDuration": "thirty-second",
          "measureIndex": 129,
          "beatInMeasure": 0.25,
          "isRest": false
        },
        {
          "midi": 59,
          "name": "B3",
          "velocity": 0.76,
          "startMs": 189770,
          "durationMs": 265,
          "noteDuration": "eighth",
          "measureIndex": 129,
          "beatInMeasure": 0.25,
          "isRest": false
        },
        {
          "midi": 55,
          "name": "G3",
          "velocity": 0.76,
          "startMs": 190035,
          "durationMs": 266,
          "noteDuration": "thirty-second",
          "measureIndex": 129,
          "beatInMeasure": 0.5,
          "isRest": false
        },
        {
          "midi": 59,
          "name": "B3",
          "velocity": 0.76,
          "startMs": 190035,
          "durationMs": 266,
          "noteDuration": "eighth",
          "measureIndex": 129,
          "beatInMeasure": 0.5,
          "isRest": false
        },
        {
          "midi": 55,
          "name": "G3",
          "velocity": 0.76,
          "startMs": 190301,
          "durationMs": 265,
          "noteDuration": "thirty-second",
          "measureIndex": 130,
          "beatInMeasure": 0,
          "isRest": false
        },
        {
          "midi": 59,
          "name": "B3",
          "velocity": 0.76,
          "startMs": 190301,
          "durationMs": 265,
          "noteDuration": "eighth",
          "measureIndex": 130,
          "beatInMeasure": 0,
          "isRest": false
        },
        {
          "midi": 55,
          "name": "G3",
          "velocity": 0.76,
          "startMs": 190566,
          "durationMs": 266,
          "noteDuration": "thirty-second",
          "measureIndex": 130,
          "beatInMeasure": 0.25,
          "isRest": false
        },
        {
          "midi": 59,
          "name": "B3",
          "velocity": 0.76,
          "startMs": 190566,
          "durationMs": 266,
          "noteDuration": "eighth",
          "measureIndex": 130,
          "beatInMeasure": 0.25,
          "isRest": false
        },
        {
          "midi": 55,
          "name": "G3",
          "velocity": 0.76,
          "startMs": 190832,
          "durationMs": 265,
          "noteDuration": "thirty-second",
          "measureIndex": 130,
          "beatInMeasure": 0.5,
          "isRest": false
        },
        {
          "midi": 59,
          "name": "B3",
          "velocity": 0.76,
          "startMs": 190832,
          "durationMs": 265,
          "noteDuration": "eighth",
          "measureIndex": 130,
          "beatInMeasure": 0.5,
          "isRest": false
        },
        {
          "midi": 55,
          "name": "G3",
          "velocity": 0.76,
          "startMs": 191097,
          "durationMs": 266,
          "noteDuration": "thirty-second",
          "measureIndex": 131,
          "beatInMeasure": 0,
          "isRest": false
        },
        {
          "midi": 59,
          "name": "B3",
          "velocity": 0.76,
          "startMs": 191097,
          "durationMs": 266,
          "noteDuration": "half",
          "measureIndex": 131,
          "beatInMeasure": 0,
          "isRest": false
        },
        {
          "midi": 55,
          "name": "G3",
          "velocity": 0.76,
          "startMs": 191894,
          "durationMs": 265,
          "noteDuration": "thirty-second",
          "measureIndex": 132,
          "beatInMeasure": 0,
          "isRest": false
        },
        {
          "midi": 59,
          "name": "B3",
          "velocity": 0.76,
          "startMs": 191894,
          "durationMs": 265,
          "noteDuration": "half",
          "measureIndex": 132,
          "beatInMeasure": 0,
          "isRest": false
        },
        {
          "midi": 55,
          "name": "G3",
          "velocity": 0.76,
          "startMs": 192690,
          "durationMs": 266,
          "noteDuration": "eighth",
          "measureIndex": 133,
          "beatInMeasure": 0,
          "isRest": false
        },
        {
          "midi": 59,
          "name": "B3",
          "velocity": 0.76,
          "startMs": 192956,
          "durationMs": 265,
          "noteDuration": "eighth",
          "measureIndex": 133,
          "beatInMeasure": 0.25,
          "isRest": false
        },
        {
          "midi": 62,
          "name": "D4",
          "velocity": 0.76,
          "startMs": 193221,
          "durationMs": 266,
          "noteDuration": "eighth",
          "measureIndex": 133,
          "beatInMeasure": 0.5,
          "isRest": false
        },
        {
          "midi": 55,
          "name": "G3",
          "velocity": 0.39,
          "startMs": 193487,
          "durationMs": 265,
          "noteDuration": "eighth",
          "measureIndex": 134,
          "beatInMeasure": 0,
          "isRest": false
        },
        {
          "midi": 59,
          "name": "B3",
          "velocity": 0.39,
          "startMs": 193752,
          "durationMs": 266,
          "noteDuration": "eighth",
          "measureIndex": 134,
          "beatInMeasure": 0.25,
          "isRest": false
        },
        {
          "midi": 62,
          "name": "D4",
          "velocity": 0.39,
          "startMs": 194018,
          "durationMs": 265,
          "noteDuration": "eighth",
          "measureIndex": 134,
          "beatInMeasure": 0.5,
          "isRest": false
        },
        {
          "midi": 55,
          "name": "G3",
          "velocity": 0.39,
          "startMs": 194283,
          "durationMs": 266,
          "noteDuration": "half",
          "measureIndex": 135,
          "beatInMeasure": 0,
          "isRest": false
        },
        {
          "midi": 48,
          "name": "C3",
          "velocity": 0.26,
          "startMs": 195080,
          "durationMs": 265,
          "noteDuration": "eighth",
          "measureIndex": 136,
          "beatInMeasure": 0,
          "isRest": false
        },
        {
          "midi": 52,
          "name": "E3",
          "velocity": 0.26,
          "startMs": 195345,
          "durationMs": 266,
          "noteDuration": "eighth",
          "measureIndex": 136,
          "beatInMeasure": 0.25,
          "isRest": false
        },
        {
          "midi": 55,
          "name": "G3",
          "velocity": 0.26,
          "startMs": 195611,
          "durationMs": 265,
          "noteDuration": "eighth",
          "measureIndex": 136,
          "beatInMeasure": 0.5,
          "isRest": false
        },
        {
          "midi": 48,
          "name": "C3",
          "velocity": 0.26,
          "startMs": 195876,
          "durationMs": 265,
          "noteDuration": "eighth",
          "measureIndex": 137,
          "beatInMeasure": 0,
          "isRest": false
        },
        {
          "midi": 52,
          "name": "E3",
          "velocity": 0.26,
          "startMs": 196141,
          "durationMs": 266,
          "noteDuration": "eighth",
          "measureIndex": 137,
          "beatInMeasure": 0.25,
          "isRest": false
        },
        {
          "midi": 55,
          "name": "G3",
          "velocity": 0.26,
          "startMs": 196407,
          "durationMs": 265,
          "noteDuration": "eighth",
          "measureIndex": 137,
          "beatInMeasure": 0.5,
          "isRest": false
        },
        {
          "midi": 48,
          "name": "C3",
          "velocity": 0.26,
          "startMs": 196672,
          "durationMs": 266,
          "noteDuration": "eighth",
          "measureIndex": 138,
          "beatInMeasure": 0,
          "isRest": false
        },
        {
          "midi": 50,
          "name": "D3",
          "velocity": 0.26,
          "startMs": 196938,
          "durationMs": 265,
          "noteDuration": "eighth",
          "measureIndex": 138,
          "beatInMeasure": 0.25,
          "isRest": false
        },
        {
          "midi": 53,
          "name": "F3",
          "velocity": 0.26,
          "startMs": 197203,
          "durationMs": 266,
          "noteDuration": "eighth",
          "measureIndex": 138,
          "beatInMeasure": 0.5,
          "isRest": false
        },
        {
          "midi": 48,
          "name": "C3",
          "velocity": 0.26,
          "startMs": 197469,
          "durationMs": 265,
          "noteDuration": "eighth",
          "measureIndex": 139,
          "beatInMeasure": 0,
          "isRest": false
        },
        {
          "midi": 52,
          "name": "E3",
          "velocity": 0.26,
          "startMs": 197734,
          "durationMs": 266,
          "noteDuration": "eighth",
          "measureIndex": 139,
          "beatInMeasure": 0.25,
          "isRest": false
        },
        {
          "midi": 55,
          "name": "G3",
          "velocity": 0.26,
          "startMs": 198000,
          "durationMs": 265,
          "noteDuration": "eighth",
          "measureIndex": 139,
          "beatInMeasure": 0.5,
          "isRest": false
        },
        {
          "midi": 48,
          "name": "C3",
          "velocity": 0.26,
          "startMs": 198265,
          "durationMs": 266,
          "noteDuration": "eighth",
          "measureIndex": 140,
          "beatInMeasure": 0,
          "isRest": false
        },
        {
          "midi": 52,
          "name": "E3",
          "velocity": 0.26,
          "startMs": 198531,
          "durationMs": 265,
          "noteDuration": "eighth",
          "measureIndex": 140,
          "beatInMeasure": 0.25,
          "isRest": false
        },
        {
          "midi": 55,
          "name": "G3",
          "velocity": 0.26,
          "startMs": 198796,
          "durationMs": 266,
          "noteDuration": "eighth",
          "measureIndex": 140,
          "beatInMeasure": 0.5,
          "isRest": false
        },
        {
          "midi": 48,
          "name": "C3",
          "velocity": 0.26,
          "startMs": 199062,
          "durationMs": 265,
          "noteDuration": "eighth",
          "measureIndex": 141,
          "beatInMeasure": 0,
          "isRest": false
        },
        {
          "midi": 52,
          "name": "E3",
          "velocity": 0.26,
          "startMs": 199327,
          "durationMs": 266,
          "noteDuration": "eighth",
          "measureIndex": 141,
          "beatInMeasure": 0.25,
          "isRest": false
        },
        {
          "midi": 55,
          "name": "G3",
          "velocity": 0.26,
          "startMs": 199593,
          "durationMs": 265,
          "noteDuration": "eighth",
          "measureIndex": 141,
          "beatInMeasure": 0.5,
          "isRest": false
        },
        {
          "midi": 43,
          "name": "G2",
          "velocity": 0.26,
          "startMs": 199858,
          "durationMs": 266,
          "noteDuration": "eighth",
          "measureIndex": 142,
          "beatInMeasure": 0,
          "isRest": false
        },
        {
          "midi": 50,
          "name": "D3",
          "velocity": 0.26,
          "startMs": 200124,
          "durationMs": 265,
          "noteDuration": "eighth",
          "measureIndex": 142,
          "beatInMeasure": 0.25,
          "isRest": false
        },
        {
          "midi": 55,
          "name": "G3",
          "velocity": 0.26,
          "startMs": 200389,
          "durationMs": 266,
          "noteDuration": "eighth",
          "measureIndex": 142,
          "beatInMeasure": 0.5,
          "isRest": false
        },
        {
          "midi": 48,
          "name": "C3",
          "velocity": 0.26,
          "startMs": 200655,
          "durationMs": 265,
          "noteDuration": "eighth",
          "measureIndex": 143,
          "beatInMeasure": 0,
          "isRest": false
        },
        {
          "midi": 52,
          "name": "E3",
          "velocity": 0.26,
          "startMs": 200920,
          "durationMs": 266,
          "noteDuration": "eighth",
          "measureIndex": 143,
          "beatInMeasure": 0.25,
          "isRest": false
        },
        {
          "midi": 55,
          "name": "G3",
          "velocity": 0.26,
          "startMs": 201186,
          "durationMs": 265,
          "noteDuration": "eighth",
          "measureIndex": 143,
          "beatInMeasure": 0.5,
          "isRest": false
        },
        {
          "midi": 48,
          "name": "C3",
          "velocity": 0.76,
          "startMs": 201451,
          "durationMs": 266,
          "noteDuration": "eighth",
          "measureIndex": 144,
          "beatInMeasure": 0,
          "isRest": false
        },
        {
          "midi": 52,
          "name": "E3",
          "velocity": 0.76,
          "startMs": 201717,
          "durationMs": 265,
          "noteDuration": "eighth",
          "measureIndex": 144,
          "beatInMeasure": 0.25,
          "isRest": false
        },
        {
          "midi": 55,
          "name": "G3",
          "velocity": 0.76,
          "startMs": 201982,
          "durationMs": 266,
          "noteDuration": "eighth",
          "measureIndex": 144,
          "beatInMeasure": 0.5,
          "isRest": false
        },
        {
          "midi": 48,
          "name": "C3",
          "velocity": 0.76,
          "startMs": 202248,
          "durationMs": 265,
          "noteDuration": "eighth",
          "measureIndex": 145,
          "beatInMeasure": 0,
          "isRest": false
        },
        {
          "midi": 52,
          "name": "E3",
          "velocity": 0.76,
          "startMs": 202513,
          "durationMs": 266,
          "noteDuration": "eighth",
          "measureIndex": 145,
          "beatInMeasure": 0.25,
          "isRest": false
        },
        {
          "midi": 55,
          "name": "G3",
          "velocity": 0.76,
          "startMs": 202779,
          "durationMs": 265,
          "noteDuration": "eighth",
          "measureIndex": 145,
          "beatInMeasure": 0.5,
          "isRest": false
        },
        {
          "midi": 48,
          "name": "C3",
          "velocity": 0.76,
          "startMs": 203044,
          "durationMs": 266,
          "noteDuration": "eighth",
          "measureIndex": 146,
          "beatInMeasure": 0,
          "isRest": false
        },
        {
          "midi": 50,
          "name": "D3",
          "velocity": 0.76,
          "startMs": 203310,
          "durationMs": 265,
          "noteDuration": "eighth",
          "measureIndex": 146,
          "beatInMeasure": 0.25,
          "isRest": false
        },
        {
          "midi": 53,
          "name": "F3",
          "velocity": 0.76,
          "startMs": 203575,
          "durationMs": 266,
          "noteDuration": "eighth",
          "measureIndex": 146,
          "beatInMeasure": 0.5,
          "isRest": false
        },
        {
          "midi": 48,
          "name": "C3",
          "velocity": 0.76,
          "startMs": 203841,
          "durationMs": 265,
          "noteDuration": "eighth",
          "measureIndex": 147,
          "beatInMeasure": 0,
          "isRest": false
        },
        {
          "midi": 52,
          "name": "E3",
          "velocity": 0.76,
          "startMs": 204106,
          "durationMs": 266,
          "noteDuration": "eighth",
          "measureIndex": 147,
          "beatInMeasure": 0.25,
          "isRest": false
        },
        {
          "midi": 55,
          "name": "G3",
          "velocity": 0.76,
          "startMs": 204372,
          "durationMs": 265,
          "noteDuration": "eighth",
          "measureIndex": 147,
          "beatInMeasure": 0.5,
          "isRest": false
        },
        {
          "midi": 48,
          "name": "C3",
          "velocity": 0.76,
          "startMs": 204637,
          "durationMs": 266,
          "noteDuration": "eighth",
          "measureIndex": 148,
          "beatInMeasure": 0,
          "isRest": false
        },
        {
          "midi": 52,
          "name": "E3",
          "velocity": 0.76,
          "startMs": 204903,
          "durationMs": 265,
          "noteDuration": "eighth",
          "measureIndex": 148,
          "beatInMeasure": 0.25,
          "isRest": false
        },
        {
          "midi": 55,
          "name": "G3",
          "velocity": 0.76,
          "startMs": 205168,
          "durationMs": 266,
          "noteDuration": "eighth",
          "measureIndex": 148,
          "beatInMeasure": 0.5,
          "isRest": false
        },
        {
          "midi": 48,
          "name": "C3",
          "velocity": 0.76,
          "startMs": 205434,
          "durationMs": 265,
          "noteDuration": "eighth",
          "measureIndex": 149,
          "beatInMeasure": 0,
          "isRest": false
        },
        {
          "midi": 52,
          "name": "E3",
          "velocity": 0.76,
          "startMs": 205699,
          "durationMs": 266,
          "noteDuration": "eighth",
          "measureIndex": 149,
          "beatInMeasure": 0.25,
          "isRest": false
        },
        {
          "midi": 55,
          "name": "G3",
          "velocity": 0.76,
          "startMs": 205965,
          "durationMs": 265,
          "noteDuration": "eighth",
          "measureIndex": 149,
          "beatInMeasure": 0.5,
          "isRest": false
        },
        {
          "midi": 43,
          "name": "G2",
          "velocity": 0.76,
          "startMs": 206230,
          "durationMs": 265,
          "noteDuration": "eighth",
          "measureIndex": 150,
          "beatInMeasure": 0,
          "isRest": false
        },
        {
          "midi": 50,
          "name": "D3",
          "velocity": 0.76,
          "startMs": 206495,
          "durationMs": 266,
          "noteDuration": "eighth",
          "measureIndex": 150,
          "beatInMeasure": 0.25,
          "isRest": false
        },
        {
          "midi": 55,
          "name": "G3",
          "velocity": 0.76,
          "startMs": 206761,
          "durationMs": 265,
          "noteDuration": "eighth",
          "measureIndex": 150,
          "beatInMeasure": 0.5,
          "isRest": false
        },
        {
          "midi": 48,
          "name": "C3",
          "velocity": 0.76,
          "startMs": 207026,
          "durationMs": 266,
          "noteDuration": "eighth",
          "measureIndex": 151,
          "beatInMeasure": 0,
          "isRest": false
        },
        {
          "midi": 52,
          "name": "E3",
          "velocity": 0.76,
          "startMs": 207292,
          "durationMs": 265,
          "noteDuration": "eighth",
          "measureIndex": 151,
          "beatInMeasure": 0.25,
          "isRest": false
        },
        {
          "midi": 55,
          "name": "G3",
          "velocity": 0.76,
          "startMs": 207557,
          "durationMs": 266,
          "noteDuration": "eighth",
          "measureIndex": 151,
          "beatInMeasure": 0.5,
          "isRest": false
        },
        {
          "midi": 60,
          "name": "C4",
          "velocity": 0.39,
          "startMs": 207823,
          "durationMs": 531,
          "noteDuration": "half",
          "measureIndex": 152,
          "beatInMeasure": 0,
          "isRest": false
        },
        {
          "midi": 60,
          "name": "C4",
          "velocity": 0.39,
          "startMs": 208619,
          "durationMs": 531,
          "noteDuration": "half",
          "measureIndex": 153,
          "beatInMeasure": 0,
          "isRest": false
        },
        {
          "midi": 60,
          "name": "C4",
          "velocity": 0.76,
          "startMs": 209416,
          "durationMs": 265,
          "noteDuration": "eighth",
          "measureIndex": 154,
          "beatInMeasure": 0,
          "isRest": false
        },
        {
          "midi": 60,
          "name": "C4",
          "velocity": 0.76,
          "startMs": 209681,
          "durationMs": 266,
          "noteDuration": "eighth",
          "measureIndex": 154,
          "beatInMeasure": 0.25,
          "isRest": false
        },
        {
          "midi": 60,
          "name": "C4",
          "velocity": 0.76,
          "startMs": 209947,
          "durationMs": 265,
          "noteDuration": "eighth",
          "measureIndex": 154,
          "beatInMeasure": 0.5,
          "isRest": false
        },
        {
          "midi": 60,
          "name": "C4",
          "velocity": 0.76,
          "startMs": 210212,
          "durationMs": 266,
          "noteDuration": "eighth",
          "measureIndex": 155,
          "beatInMeasure": 0,
          "isRest": false
        },
        {
          "midi": 55,
          "name": "G3",
          "velocity": 0.76,
          "startMs": 210478,
          "durationMs": 265,
          "noteDuration": "eighth",
          "measureIndex": 155,
          "beatInMeasure": 0.25,
          "isRest": false
        },
        {
          "midi": 52,
          "name": "E3",
          "velocity": 0.76,
          "startMs": 210743,
          "durationMs": 266,
          "noteDuration": "eighth",
          "measureIndex": 155,
          "beatInMeasure": 0.5,
          "isRest": false
        },
        {
          "midi": 48,
          "name": "C3",
          "velocity": 0.76,
          "startMs": 211009,
          "durationMs": 265,
          "noteDuration": "eighth",
          "measureIndex": 156,
          "beatInMeasure": 0,
          "isRest": false
        },
        {
          "midi": 50,
          "name": "D3",
          "velocity": 0.76,
          "startMs": 211274,
          "durationMs": 266,
          "noteDuration": "eighth",
          "measureIndex": 156,
          "beatInMeasure": 0.25,
          "isRest": false
        },
        {
          "midi": 52,
          "name": "E3",
          "velocity": 0.76,
          "startMs": 211540,
          "durationMs": 265,
          "noteDuration": "eighth",
          "measureIndex": 156,
          "beatInMeasure": 0.5,
          "isRest": false
        },
        {
          "midi": 53,
          "name": "F3",
          "velocity": 0.76,
          "startMs": 211805,
          "durationMs": 531,
          "noteDuration": "half",
          "measureIndex": 157,
          "beatInMeasure": 0,
          "isRest": false
        },
        {
          "midi": 43,
          "name": "G2",
          "velocity": 0.76,
          "startMs": 212602,
          "durationMs": 531,
          "noteDuration": "half",
          "measureIndex": 158,
          "beatInMeasure": 0,
          "isRest": false
        },
        {
          "midi": 48,
          "name": "C3",
          "velocity": 0.76,
          "startMs": 213398,
          "durationMs": 266,
          "noteDuration": "eighth",
          "measureIndex": 159,
          "beatInMeasure": 0,
          "isRest": false
        },
        {
          "midi": 52,
          "name": "E3",
          "velocity": 0.76,
          "startMs": 213664,
          "durationMs": 265,
          "noteDuration": "eighth",
          "measureIndex": 159,
          "beatInMeasure": 0.25,
          "isRest": false
        },
        {
          "midi": 55,
          "name": "G3",
          "velocity": 0.76,
          "startMs": 213929,
          "durationMs": 266,
          "noteDuration": "eighth",
          "measureIndex": 159,
          "beatInMeasure": 0.5,
          "isRest": false
        },
        {
          "midi": 60,
          "name": "C4",
          "velocity": 0.39,
          "startMs": 214195,
          "durationMs": 531,
          "noteDuration": "half",
          "measureIndex": 160,
          "beatInMeasure": 0,
          "isRest": false
        },
        {
          "midi": 60,
          "name": "C4",
          "velocity": 0.39,
          "startMs": 214991,
          "durationMs": 531,
          "noteDuration": "half",
          "measureIndex": 161,
          "beatInMeasure": 0,
          "isRest": false
        },
        {
          "midi": 60,
          "name": "C4",
          "velocity": 0.76,
          "startMs": 215788,
          "durationMs": 265,
          "noteDuration": "eighth",
          "measureIndex": 162,
          "beatInMeasure": 0,
          "isRest": false
        },
        {
          "midi": 60,
          "name": "C4",
          "velocity": 0.76,
          "startMs": 216053,
          "durationMs": 265,
          "noteDuration": "eighth",
          "measureIndex": 162,
          "beatInMeasure": 0.25,
          "isRest": false
        },
        {
          "midi": 60,
          "name": "C4",
          "velocity": 0.76,
          "startMs": 216318,
          "durationMs": 266,
          "noteDuration": "eighth",
          "measureIndex": 162,
          "beatInMeasure": 0.5,
          "isRest": false
        },
        {
          "midi": 60,
          "name": "C4",
          "velocity": 0.76,
          "startMs": 216584,
          "durationMs": 265,
          "noteDuration": "eighth",
          "measureIndex": 163,
          "beatInMeasure": 0,
          "isRest": false
        },
        {
          "midi": 55,
          "name": "G3",
          "velocity": 0.76,
          "startMs": 216849,
          "durationMs": 266,
          "noteDuration": "eighth",
          "measureIndex": 163,
          "beatInMeasure": 0.25,
          "isRest": false
        },
        {
          "midi": 52,
          "name": "E3",
          "velocity": 0.76,
          "startMs": 217115,
          "durationMs": 265,
          "noteDuration": "eighth",
          "measureIndex": 163,
          "beatInMeasure": 0.5,
          "isRest": false
        },
        {
          "midi": 48,
          "name": "C3",
          "velocity": 0.76,
          "startMs": 217380,
          "durationMs": 266,
          "noteDuration": "eighth",
          "measureIndex": 164,
          "beatInMeasure": 0,
          "isRest": false
        },
        {
          "midi": 50,
          "name": "D3",
          "velocity": 0.76,
          "startMs": 217646,
          "durationMs": 265,
          "noteDuration": "eighth",
          "measureIndex": 164,
          "beatInMeasure": 0.25,
          "isRest": false
        },
        {
          "midi": 52,
          "name": "E3",
          "velocity": 0.76,
          "startMs": 217911,
          "durationMs": 266,
          "noteDuration": "eighth",
          "measureIndex": 164,
          "beatInMeasure": 0.5,
          "isRest": false
        },
        {
          "midi": 53,
          "name": "F3",
          "velocity": 0.76,
          "startMs": 218177,
          "durationMs": 265,
          "noteDuration": "eighth",
          "measureIndex": 165,
          "beatInMeasure": 0,
          "isRest": false
        },
        {
          "midi": 53,
          "name": "F3",
          "velocity": 0.76,
          "startMs": 218442,
          "durationMs": 266,
          "noteDuration": "eighth",
          "measureIndex": 165,
          "beatInMeasure": 0.25,
          "isRest": false
        },
        {
          "midi": 53,
          "name": "F3",
          "velocity": 0.76,
          "startMs": 218708,
          "durationMs": 265,
          "noteDuration": "eighth",
          "measureIndex": 165,
          "beatInMeasure": 0.5,
          "isRest": false
        },
        {
          "midi": 43,
          "name": "G2",
          "velocity": 0.76,
          "startMs": 218973,
          "durationMs": 266,
          "noteDuration": "eighth",
          "measureIndex": 166,
          "beatInMeasure": 0,
          "isRest": false
        },
        {
          "midi": 43,
          "name": "G2",
          "velocity": 0.76,
          "startMs": 219239,
          "durationMs": 265,
          "noteDuration": "eighth",
          "measureIndex": 166,
          "beatInMeasure": 0.25,
          "isRest": false
        },
        {
          "midi": 43,
          "name": "G2",
          "velocity": 0.76,
          "startMs": 219504,
          "durationMs": 266,
          "noteDuration": "eighth",
          "measureIndex": 166,
          "beatInMeasure": 0.5,
          "isRest": false
        },
        {
          "midi": 48,
          "name": "C3",
          "velocity": 0.88,
          "startMs": 219770,
          "durationMs": 265,
          "noteDuration": "eighth",
          "measureIndex": 167,
          "beatInMeasure": 0,
          "isRest": false
        },
        {
          "midi": 52,
          "name": "E3",
          "velocity": 0.88,
          "startMs": 220035,
          "durationMs": 266,
          "noteDuration": "eighth",
          "measureIndex": 167,
          "beatInMeasure": 0.25,
          "isRest": false
        },
        {
          "midi": 55,
          "name": "G3",
          "velocity": 0.88,
          "startMs": 220301,
          "durationMs": 265,
          "noteDuration": "eighth",
          "measureIndex": 167,
          "beatInMeasure": 0.5,
          "isRest": false
        },
        {
          "midi": 48,
          "name": "C3",
          "velocity": 0.88,
          "startMs": 220566,
          "durationMs": 266,
          "noteDuration": "eighth",
          "measureIndex": 168,
          "beatInMeasure": 0,
          "isRest": false
        },
        {
          "midi": 52,
          "name": "E3",
          "velocity": 0.88,
          "startMs": 220832,
          "durationMs": 265,
          "noteDuration": "eighth",
          "measureIndex": 168,
          "beatInMeasure": 0.25,
          "isRest": false
        },
        {
          "midi": 55,
          "name": "G3",
          "velocity": 0.88,
          "startMs": 221097,
          "durationMs": 266,
          "noteDuration": "eighth",
          "measureIndex": 168,
          "beatInMeasure": 0.5,
          "isRest": false
        },
        {
          "midi": 48,
          "name": "C3",
          "velocity": 0.88,
          "startMs": 221363,
          "durationMs": 265,
          "noteDuration": "eighth",
          "measureIndex": 169,
          "beatInMeasure": 0,
          "isRest": false
        },
        {
          "midi": 52,
          "name": "E3",
          "velocity": 0.88,
          "startMs": 221628,
          "durationMs": 266,
          "noteDuration": "eighth",
          "measureIndex": 169,
          "beatInMeasure": 0.25,
          "isRest": false
        },
        {
          "midi": 55,
          "name": "G3",
          "velocity": 0.88,
          "startMs": 221894,
          "durationMs": 265,
          "noteDuration": "eighth",
          "measureIndex": 169,
          "beatInMeasure": 0.5,
          "isRest": false
        },
        {
          "midi": 48,
          "name": "C3",
          "velocity": 0.88,
          "startMs": 222159,
          "durationMs": 266,
          "noteDuration": "eighth",
          "measureIndex": 170,
          "beatInMeasure": 0,
          "isRest": false
        },
        {
          "midi": 52,
          "name": "E3",
          "velocity": 0.88,
          "startMs": 222425,
          "durationMs": 265,
          "noteDuration": "eighth",
          "measureIndex": 170,
          "beatInMeasure": 0.25,
          "isRest": false
        },
        {
          "midi": 55,
          "name": "G3",
          "velocity": 0.88,
          "startMs": 222690,
          "durationMs": 266,
          "noteDuration": "eighth",
          "measureIndex": 170,
          "beatInMeasure": 0.5,
          "isRest": false
        },
        {
          "midi": 48,
          "name": "C3",
          "velocity": 0.88,
          "startMs": 222956,
          "durationMs": 531,
          "noteDuration": "half",
          "measureIndex": 171,
          "beatInMeasure": 0,
          "isRest": false
        },
        {
          "name": "rest",
          "startMs": 224018,
          "durationMs": 531,
          "noteDuration": "quarter",
          "measureIndex": 172,
          "beatInMeasure": 0.25,
          "isRest": true
        }
      ]
    }
  ]
}